<svg width="106" height="45" viewBox="0 0 106 45" fill="none" xmlns="http://www.w3.org/2000/svg">
<path d="M80.6196 12.3551C80.664 12.355 80.7084 12.355 80.7529 12.355C80.8747 12.3549 80.9965 12.355 81.1183 12.3551C81.2509 12.3552 81.3835 12.3551 81.5162 12.3551C81.7485 12.355 81.9808 12.355 82.2132 12.3552C82.5587 12.3553 82.9041 12.3553 83.2496 12.3553C83.8308 12.3553 84.4119 12.3553 84.9931 12.3555C85.5686 12.3557 86.144 12.3558 86.7194 12.3558C86.7373 12.3558 86.7552 12.3558 86.7736 12.3558C86.9369 12.3558 87.1002 12.3558 87.2635 12.3558C87.6695 12.3558 88.0754 12.3558 88.4814 12.3559C88.5091 12.3559 88.5091 12.3559 88.5374 12.3559C89.4362 12.3559 90.3351 12.3561 91.2339 12.3563C91.5458 12.3563 91.8576 12.3564 92.1695 12.3565C92.1985 12.3565 92.1985 12.3565 92.2281 12.3565C93.1275 12.3566 94.027 12.3567 94.9264 12.3568C94.9848 12.3568 95.0432 12.3568 95.1016 12.3568C95.4886 12.3569 95.8756 12.3569 96.2627 12.3569C97.0328 12.357 97.8028 12.3571 98.5729 12.3571C98.6096 12.3571 98.6463 12.3571 98.6829 12.3571C100.921 12.3574 103.159 12.3577 106 12.3582C105.985 12.4386 105.968 12.5112 105.936 12.5866C105.924 12.6149 105.924 12.6149 105.911 12.6437C105.903 12.664 105.894 12.6843 105.885 12.7053C105.876 12.7271 105.866 12.7489 105.857 12.7713C105.826 12.8441 105.795 12.9168 105.764 12.9895C105.742 13.0415 105.72 13.0934 105.698 13.1454C105.638 13.285 105.579 13.4245 105.519 13.564C105.471 13.6771 105.423 13.7902 105.374 13.9033C105.251 14.1937 105.127 14.4841 105.003 14.7744C104.898 15.0198 104.793 15.2654 104.689 15.5109C104.624 15.6612 104.56 15.8116 104.496 15.9618C104.344 16.3174 104.344 16.3174 104.194 16.6737C103.996 17.146 103.809 17.5527 103.438 17.9125C103.418 17.9321 103.399 17.9517 103.378 17.9719C102.963 18.364 102.368 18.587 101.799 18.5875C101.771 18.5876 101.771 18.5876 101.743 18.5877C101.681 18.5878 101.62 18.5878 101.558 18.5877C101.513 18.5878 101.469 18.5879 101.424 18.5879C101.3 18.5881 101.176 18.5882 101.053 18.5882C100.919 18.5882 100.784 18.5884 100.65 18.5886C100.414 18.5889 100.179 18.5891 99.9432 18.5892C99.593 18.5894 99.2427 18.5897 98.8924 18.5901C98.3033 18.5907 97.7141 18.5912 97.1249 18.5917C96.5414 18.5921 95.9579 18.5926 95.3744 18.5931C95.3563 18.5931 95.3382 18.5931 95.3195 18.5932C95.154 18.5933 94.9885 18.5935 94.8231 18.5936C94.4117 18.594 94.0003 18.5944 93.5889 18.5948C93.5608 18.5948 93.5608 18.5948 93.5321 18.5948C92.6208 18.5957 91.7094 18.5964 90.798 18.5971C90.4817 18.5974 90.1654 18.5976 89.8491 18.5979C89.8295 18.5979 89.8099 18.5979 89.7897 18.5979C88.8779 18.5987 87.966 18.5995 87.0542 18.6003C86.995 18.6004 86.9358 18.6004 86.8766 18.6005C86.4843 18.6008 86.0921 18.6012 85.6998 18.6015C84.9192 18.6022 84.1387 18.6029 83.3581 18.6036C83.321 18.6037 83.2838 18.6037 83.2466 18.6037C81.0264 18.6057 78.8062 18.6075 75.8275 18.61C75.9255 18.659 76.0234 18.708 76.1214 18.757C76.1545 18.7736 76.1877 18.7902 76.2209 18.8068C76.4258 18.9094 76.6313 19.0106 76.8383 19.1089C76.8647 19.1214 76.891 19.1339 76.9182 19.1468C76.9395 19.1569 76.9608 19.167 76.9828 19.1774C77.226 19.293 77.468 19.411 77.7101 19.5289C77.8947 19.6187 78.0796 19.7079 78.2654 19.7951C78.2983 19.8106 78.3311 19.8261 78.3639 19.8416C78.4248 19.8702 78.4858 19.8987 78.547 19.9269C78.5737 19.9396 78.6005 19.9522 78.6281 19.9652C78.6515 19.9761 78.6748 19.987 78.6989 19.9982C78.7516 20.0308 78.7516 20.0308 78.7775 20.1083C78.7538 20.1757 78.7281 20.2391 78.699 20.3042C78.6903 20.3244 78.6815 20.3446 78.6725 20.3654C78.643 20.4332 78.6132 20.5008 78.5834 20.5685C78.5626 20.6162 78.5419 20.6639 78.5211 20.7116C78.4878 20.7885 78.4544 20.8653 78.4209 20.9421C78.2898 21.2429 78.1611 21.5448 78.0325 21.8468C77.9937 21.9379 77.9548 22.0289 77.916 22.12C77.8916 22.177 77.8673 22.234 77.843 22.2911C77.8321 22.3165 77.8212 22.342 77.81 22.3683C77.7555 22.4961 77.7015 22.6242 77.648 22.7525C77.6365 22.7799 77.6251 22.8074 77.6133 22.8357C77.6047 22.8564 77.596 22.877 77.5872 22.8984C77.6017 22.8983 77.6162 22.8983 77.6312 22.8983C79.2141 22.897 80.7971 22.8958 82.38 22.8951C82.4037 22.8951 82.4274 22.8951 82.4518 22.895C82.9662 22.8948 83.4806 22.8946 83.995 22.8944C84.2472 22.8943 84.4995 22.8942 84.7518 22.8941C84.7769 22.8941 84.802 22.8941 84.8279 22.8941C85.6408 22.8937 86.4537 22.8932 87.2666 22.8924C88.1023 22.8917 88.938 22.8912 89.7738 22.8911C89.8919 22.8911 90.0101 22.891 90.1283 22.891C90.1516 22.891 90.1749 22.891 90.1988 22.891C90.5724 22.8909 90.946 22.8905 91.3196 22.8901C91.6957 22.8896 92.0718 22.8894 92.4479 22.8896C92.671 22.8896 92.8941 22.8895 93.1173 22.889C93.2667 22.8887 93.4162 22.8887 93.5657 22.8889C93.6506 22.889 93.7355 22.889 93.8204 22.8887C95.0454 22.8845 96.2625 23.1844 97.2019 24.0092C97.2224 24.0268 97.2429 24.0445 97.264 24.0627C97.3307 24.1212 97.3959 24.181 97.4606 24.2417C97.4743 24.2545 97.4881 24.2673 97.5022 24.2805C97.8389 24.5978 98.111 24.9506 98.3404 25.3526C98.3497 25.3685 98.3589 25.3845 98.3684 25.401C99.0155 26.5321 99.1589 27.8757 98.8169 29.1284C98.6872 29.5813 98.4874 30.01 98.3004 30.4415C98.1878 30.7018 98.0768 30.9629 97.9656 31.2238C97.6542 31.955 97.341 32.6855 97.0269 33.4155C96.9975 33.4839 96.9681 33.5523 96.9388 33.6207C96.8463 33.836 96.7533 34.0509 96.6584 34.2652C96.6485 34.2878 96.6385 34.3104 96.6282 34.3337C96.1403 35.4307 95.3998 36.3985 94.5559 37.2457C94.5344 37.2674 94.5344 37.2674 94.5125 37.2895C93.8996 37.8989 93.1714 38.3989 92.4135 38.8101C92.3631 38.8376 92.313 38.8656 92.263 38.8937C90.6889 39.7655 88.9139 40.0145 87.1405 40.0097C87.0085 40.0094 86.8766 40.0096 86.7447 40.0097C86.5144 40.0099 86.2841 40.0098 86.0538 40.0095C85.7114 40.009 85.369 40.009 85.0266 40.009C84.4504 40.0091 83.8742 40.0089 83.2979 40.0084C82.728 40.008 82.158 40.0077 81.588 40.0076C81.5702 40.0076 81.5525 40.0076 81.5342 40.0076C81.372 40.0075 81.2098 40.0075 81.0477 40.0075C80.6446 40.0075 80.2416 40.0074 79.8386 40.0073C79.8203 40.0073 79.8019 40.0073 79.783 40.0073C78.8924 40.0071 78.0018 40.0066 77.1112 40.0061C76.8024 40.0059 76.4937 40.0057 76.1849 40.0056C76.1658 40.0055 76.1466 40.0055 76.1269 40.0055C75.2353 40.005 74.3437 40.0047 73.452 40.0045C73.3941 40.0045 73.3361 40.0045 73.2782 40.0045C72.8942 40.0043 72.5102 40.0042 72.1262 40.0042C71.3622 40.004 70.5982 40.0037 69.8343 40.0035C69.7979 40.0035 69.7615 40.0035 69.7251 40.0035C67.4848 40.0028 65.2444 40.0017 62.475 40.0002C62.4874 39.963 62.4997 39.9257 62.5121 39.8884C62.519 39.8677 62.5258 39.8469 62.5329 39.8256C62.555 39.7609 62.5801 39.6983 62.6075 39.6357C62.6177 39.6124 62.6278 39.589 62.6383 39.5649C62.6547 39.5279 62.6547 39.5279 62.6713 39.49C62.6829 39.4634 62.6946 39.4368 62.7065 39.4094C62.7316 39.3521 62.7566 39.2948 62.7817 39.2375C62.8426 39.0988 62.9031 38.96 62.9636 38.8212C62.9845 38.7734 63.0053 38.7257 63.0262 38.6779C63.1579 38.3759 63.2881 38.0733 63.4179 37.7705C63.4399 37.7191 63.4619 37.6678 63.484 37.6165C63.5409 37.4837 63.5977 37.351 63.6546 37.2183C63.7554 36.983 63.8562 36.7478 63.9571 36.5126C64.0028 36.406 64.0484 36.2994 64.0941 36.1928C64.2173 35.9052 64.3414 35.618 64.4671 35.3315C64.4845 35.2915 64.4845 35.2915 64.5023 35.2507C64.788 34.6017 65.2508 34.1009 65.916 33.8311C66.2975 33.6885 66.6906 33.663 67.0947 33.6646C67.1335 33.6646 67.1723 33.6645 67.2111 33.6644C67.3168 33.6643 67.4226 33.6645 67.5284 33.6647C67.6437 33.6648 67.7591 33.6647 67.8745 33.6646C68.0764 33.6645 68.2783 33.6646 68.4803 33.6648C68.7805 33.6651 69.0808 33.6651 69.381 33.6651C69.8862 33.665 70.3913 33.6652 70.8965 33.6655C71.3965 33.6658 71.8965 33.666 72.3966 33.6661C72.4432 33.6661 72.4432 33.6661 72.4908 33.6661C72.6488 33.6661 72.8068 33.6661 72.9648 33.6661C74.0834 33.6662 75.202 33.6666 76.3206 33.6671C77.4072 33.6676 78.4938 33.6679 79.5804 33.6681C79.6139 33.6682 79.6474 33.6682 79.682 33.6682C80.0184 33.6682 80.3549 33.6683 80.6914 33.6684C81.3767 33.6685 82.0621 33.6686 82.7475 33.6688C82.7948 33.6688 82.7948 33.6688 82.843 33.6688C84.9467 33.6693 87.0504 33.6701 89.1541 33.671C89.1598 33.6409 89.1598 33.6409 89.1656 33.6103C89.1804 33.5397 89.2028 33.4805 89.2313 33.4144C89.2474 33.3771 89.2474 33.3771 89.2638 33.3389C89.2755 33.312 89.2872 33.285 89.2993 33.2572C89.3116 33.2288 89.3238 33.2003 89.3364 33.171C89.3699 33.0933 89.4035 33.0157 89.4371 32.9381C89.4726 32.8562 89.5079 32.7742 89.5433 32.6922C89.6013 32.5577 89.6593 32.4233 89.7174 32.2889C89.8259 32.0378 89.9339 31.7864 90.0417 31.5351C90.0744 31.4589 90.1071 31.3828 90.1398 31.3066C90.318 30.8916 90.4955 30.4762 90.6728 30.0607C90.6859 30.03 90.699 29.9993 90.7125 29.9677C90.7495 29.881 90.7865 29.7943 90.8235 29.7075C90.8345 29.6817 90.8455 29.6559 90.8569 29.6293C90.8722 29.5935 90.8722 29.5935 90.8878 29.5569C90.8966 29.5362 90.9054 29.5155 90.9145 29.4942C90.9408 29.4315 90.9661 29.3683 90.9914 29.3051C90.9768 29.3051 90.9621 29.3051 90.9471 29.3051C89.3536 29.3039 87.7601 29.3027 86.1667 29.301C86.1429 29.301 86.1191 29.3009 86.0945 29.3009C85.5768 29.3004 85.0591 29.2998 84.5414 29.2992C84.2875 29.2989 84.0336 29.2986 83.7797 29.2983C83.7544 29.2983 83.7292 29.2983 83.7031 29.2982C82.8848 29.2973 82.0666 29.2966 81.2483 29.2961C80.4071 29.2955 79.5659 29.2947 78.7247 29.2936C78.6058 29.2934 78.4868 29.2933 78.3679 29.2931C78.3445 29.2931 78.3211 29.2931 78.297 29.293C77.9209 29.2926 77.5447 29.2923 77.1686 29.2922C76.7901 29.2921 76.4116 29.2917 76.033 29.291C75.8084 29.2906 75.5838 29.2904 75.3592 29.2905C75.2087 29.2906 75.0583 29.2904 74.9079 29.2899C74.8224 29.2897 74.737 29.2896 74.6515 29.2898C74.1641 29.2907 73.6834 29.2685 73.2123 29.1323C73.1774 29.1225 73.1774 29.1225 73.1417 29.1124C72.0972 28.8073 71.2001 28.185 70.5486 27.3159C70.5324 27.2944 70.5162 27.2729 70.4995 27.2508C69.7571 26.2295 69.4281 24.9054 69.6203 23.654C69.6343 23.5738 69.651 23.4945 69.6688 23.415C69.6735 23.3927 69.6783 23.3704 69.6831 23.3475C69.7472 23.0521 69.838 22.7735 69.9543 22.4946C69.9667 22.4644 69.9792 22.4343 69.992 22.4032C70.1113 22.1149 70.2334 21.8278 70.3564 21.5411C70.4214 21.3895 70.4862 21.2378 70.5511 21.0862C70.5641 21.0557 70.5771 21.0252 70.5905 20.9939C70.7011 20.7351 70.8109 20.476 70.9203 20.2167C70.9798 20.0758 71.0394 19.9349 71.099 19.794C71.1559 19.6595 71.2128 19.5249 71.2696 19.3904C71.3349 19.2358 71.4004 19.0814 71.4659 18.9269C71.491 18.8677 71.5161 18.8084 71.5411 18.7491C71.7696 18.2075 72.0027 17.6643 72.3099 17.1617C72.3274 17.1326 72.3449 17.1036 72.3629 17.0737C72.5744 16.7259 72.8054 16.3968 73.0587 16.0783C73.0778 16.0542 73.0969 16.0301 73.1166 16.0052C73.2408 15.851 73.3717 15.7043 73.5065 15.5594C73.5705 15.4903 73.6333 15.4204 73.6959 15.3501C73.8691 15.1578 74.0523 14.9804 74.249 14.8124C74.2739 14.7905 74.2987 14.7685 74.3243 14.7459C74.7123 14.4051 75.1284 14.1006 75.5687 13.8307C75.586 13.8201 75.6032 13.8096 75.6209 13.7986C77.1195 12.8816 78.8573 12.352 80.6196 12.3551Z" fill="white"/>
<path d="M56.5557 6.2283e-05C56.5847 8.33563e-05 56.5847 8.33562e-05 56.6143 0.000104856C56.955 0.00123711 57.2782 0.0329801 57.6102 0.113084C57.6342 0.118758 57.6582 0.124432 57.6829 0.130277C58.4385 0.312823 59.1707 0.628706 59.758 1.14643C59.7832 1.16818 59.8084 1.18992 59.8344 1.21233C60.2796 1.60243 60.7434 2.1649 60.8717 2.75578C60.9063 2.93437 60.9063 2.93437 61.0242 3.06498C61.1429 3.12208 61.2659 3.16132 61.3934 3.19387C61.44 3.21312 61.44 3.21312 61.4917 3.29062C61.4887 3.34673 61.4887 3.34673 61.4749 3.41333C61.4697 3.43872 61.4645 3.46411 61.4591 3.49028C61.4234 3.64814 61.3854 3.80538 61.3462 3.9624C61.3371 3.99894 61.328 4.03547 61.3189 4.07201C61.3 4.14795 61.281 4.22387 61.262 4.29978C61.2376 4.39711 61.2135 4.4945 61.1894 4.59191C61.1708 4.66709 61.1521 4.74223 61.1332 4.81736C61.1243 4.85328 61.1153 4.88922 61.1065 4.92517C61.0942 4.97516 61.0816 5.02509 61.069 5.07502C61.0619 5.10342 61.0548 5.13182 61.0475 5.16108C61.0259 5.22815 61.0259 5.22815 60.9742 5.27981C60.7229 5.31427 60.4482 5.25715 60.1979 5.22815C60.2064 5.37307 60.2149 5.518 60.2237 5.66732C60.3031 5.70692 60.3862 5.69706 60.4733 5.69712C60.5044 5.6973 60.5044 5.6973 60.5361 5.69747C60.6064 5.69783 60.6767 5.698 60.747 5.69817C60.7976 5.69838 60.8482 5.69861 60.8988 5.69884C61.0384 5.69946 61.178 5.6999 61.3176 5.70031C61.4373 5.70069 61.5569 5.70116 61.6765 5.70163C62.7916 5.70598 63.9067 5.70818 65.0218 5.70991C65.1877 5.71017 65.3536 5.71044 65.5195 5.71071C65.547 5.71075 65.547 5.71075 65.5751 5.7108C66.1695 5.71177 66.7638 5.71374 67.3582 5.71624C67.9691 5.71881 68.58 5.72045 69.1909 5.7209C69.5507 5.72117 69.9106 5.72189 70.2704 5.72399C70.5621 5.72568 70.8537 5.72643 71.1454 5.72591C71.2943 5.72568 71.4431 5.72591 71.592 5.72737C71.7283 5.72871 71.8645 5.72873 72.0007 5.72771C72.0501 5.72757 72.0994 5.72791 72.1487 5.72879C72.412 5.74054 72.412 5.74054 72.6406 5.63125C72.6938 5.55925 72.7345 5.48908 72.7741 5.40898C72.7978 5.37382 72.8221 5.33899 72.8472 5.30484C72.8789 5.25959 72.9105 5.21431 72.9418 5.16881C72.9988 5.08788 73.0506 5.02083 73.1363 4.96981C73.2123 4.95689 73.2123 4.95689 73.2916 4.96981C73.3582 5.02594 73.4078 5.07262 73.4469 5.15064C73.4491 5.21849 73.4498 5.28564 73.4494 5.35348C73.4493 5.37347 73.4493 5.39347 73.4493 5.41407C73.4491 5.47804 73.4488 5.542 73.4485 5.60596C73.4483 5.64929 73.4482 5.69261 73.4481 5.73594C73.4478 5.84223 73.4474 5.94853 73.4469 6.05482C73.4682 6.05475 73.4682 6.05475 73.4899 6.05468C73.8357 6.05354 74.1814 6.05268 74.5272 6.05214C74.6944 6.05187 74.8616 6.05151 75.0288 6.05092C75.19 6.05036 75.3513 6.05005 75.5125 6.04992C75.5742 6.04982 75.6358 6.04964 75.6974 6.04936C75.7835 6.04899 75.8696 6.04893 75.9556 6.04896C75.9813 6.04877 76.007 6.04858 76.0335 6.04839C76.0569 6.04846 76.0803 6.04854 76.1043 6.04861C76.1349 6.04854 76.1349 6.04854 76.1661 6.04846C76.2157 6.05482 76.2157 6.05482 76.2674 6.10649C76.2741 6.16845 76.2741 6.16845 76.2743 6.24534C76.2744 6.27292 76.2744 6.30049 76.2745 6.3289C76.2743 6.35781 76.2741 6.38671 76.2739 6.41649C76.2741 6.4454 76.2743 6.4743 76.2745 6.50409C76.2744 6.53166 76.2744 6.55923 76.2743 6.58764C76.2742 6.6257 76.2742 6.6257 76.2741 6.66454C76.2674 6.7265 76.2674 6.7265 76.2157 6.77816C76.1661 6.78452 76.1661 6.78452 76.1043 6.78438C76.081 6.78445 76.0576 6.78452 76.0335 6.78459C76.0078 6.78441 75.9821 6.78422 75.9556 6.78403C75.9151 6.78404 75.9151 6.78404 75.8738 6.78405C75.7842 6.78402 75.6946 6.78361 75.6049 6.78321C75.5429 6.78311 75.4809 6.78304 75.4189 6.78299C75.2555 6.78279 75.092 6.78228 74.9286 6.78171C74.7619 6.78118 74.5952 6.78095 74.4286 6.78069C74.1013 6.78013 73.7741 6.77926 73.4469 6.77816C73.447 6.79341 73.4471 6.80866 73.4472 6.82437C73.4483 6.9832 73.4491 7.14203 73.4497 7.30086C73.45 7.36012 73.4503 7.41938 73.4508 7.47864C73.4514 7.56387 73.4517 7.64909 73.4519 7.73431C73.4523 7.774 73.4523 7.774 73.4527 7.81448C73.4527 7.8393 73.4527 7.86412 73.4527 7.88968C73.4529 7.9223 73.4529 7.9223 73.4531 7.95557C73.4456 8.03024 73.432 8.08169 73.3951 8.14735C73.3078 8.19055 73.2367 8.20546 73.1399 8.20537C73.1151 8.20547 73.0903 8.20558 73.0648 8.20568C73.0378 8.20553 73.0108 8.20538 72.9829 8.20523C72.9541 8.20527 72.9252 8.20532 72.8955 8.20536C72.7986 8.20545 72.7018 8.20516 72.6049 8.20488C72.5355 8.20486 72.4662 8.20487 72.3968 8.2049C72.2474 8.20493 72.098 8.20477 71.9485 8.20448C71.7325 8.20406 71.5164 8.20392 71.3004 8.20386C70.9498 8.20374 70.5993 8.2034 70.2488 8.20291C69.9083 8.20244 69.5678 8.20207 69.2273 8.20185C69.2063 8.20184 69.1853 8.20183 69.1637 8.20181C69.0583 8.20174 68.9531 8.20168 68.8478 8.20161C67.9742 8.20108 67.1007 8.20017 66.2272 8.19901C66.2146 8.23628 66.202 8.27356 66.1895 8.31085C66.179 8.34199 66.179 8.34199 66.1683 8.37376C66.1482 8.4358 66.1328 8.49726 66.1203 8.56126C66.1158 8.58387 66.1113 8.60647 66.1066 8.62976C66.102 8.65342 66.0974 8.67708 66.0927 8.70146C66.0821 8.75322 66.0715 8.80497 66.0609 8.85671C66.0445 8.93697 66.0283 9.01724 66.0127 9.09763C65.9422 9.45829 65.8658 9.76531 65.6241 10.0524C65.534 10.2254 65.6137 10.4483 65.659 10.6304C65.6643 10.6524 65.6696 10.6744 65.675 10.697C65.6865 10.7442 65.6979 10.7913 65.7095 10.8385C65.7278 10.9131 65.7459 10.9879 65.764 11.0626C65.8088 11.2481 65.854 11.4334 65.8992 11.6188C65.9374 11.7759 65.9756 11.9331 66.0135 12.0903C66.0313 12.1638 66.0493 12.2372 66.0674 12.3107C66.0783 12.3558 66.0892 12.4009 66.1001 12.446C66.1077 12.4765 66.1076 12.4765 66.1154 12.5075C66.1408 12.614 66.1623 12.7131 66.1496 12.8232C66.0955 12.8912 66.05 12.9131 65.9662 12.9318C65.934 12.9392 65.934 12.9392 65.9011 12.9467C65.8777 12.9518 65.8542 12.9569 65.83 12.9621C65.8052 12.9677 65.7804 12.9733 65.7549 12.9791C65.6728 12.9975 65.5907 13.0155 65.5085 13.0335C65.4515 13.0462 65.3945 13.0589 65.3374 13.0716C65.2179 13.0982 65.0983 13.1246 64.9787 13.1508C64.8253 13.1845 64.672 13.2186 64.5188 13.2529C64.401 13.2792 64.2832 13.3053 64.1654 13.3312C64.1089 13.3437 64.0524 13.3563 63.9959 13.3689C63.9169 13.3866 63.8378 13.4039 63.7587 13.4211C63.7354 13.4264 63.712 13.4316 63.6879 13.4371C63.5779 13.4607 63.4909 13.4789 63.3807 13.4432C63.3265 13.29 63.2835 13.1379 63.2502 12.9789C63.2457 12.9581 63.2413 12.9372 63.2366 12.9156C63.2225 12.8499 63.2086 12.7841 63.1947 12.7183C63.1851 12.6733 63.1755 12.6283 63.1659 12.5833C63.1425 12.4739 63.1192 12.3644 63.0961 12.2549C62.9879 12.4834 62.883 12.7126 62.7856 12.9459C62.7613 13.0035 62.737 13.0611 62.7127 13.1187C62.6997 13.1496 62.6867 13.1804 62.6732 13.2123C62.5993 13.3875 62.5253 13.5627 62.4508 13.7376C62.4336 13.7779 62.4166 13.8182 62.3996 13.8585C62.3756 13.9154 62.3514 13.9722 62.3272 14.0289C62.3201 14.0458 62.313 14.0626 62.3058 14.08C62.1743 14.3859 61.9729 14.5497 61.6761 14.6849C61.6523 14.6959 61.6286 14.7069 61.6041 14.7182C61.1282 14.9338 60.47 15.1994 59.9516 15.0194C59.8336 14.9714 59.7254 14.9072 59.6156 14.8431C59.563 14.8128 59.5103 14.7826 59.4575 14.7524C59.4304 14.7368 59.4033 14.7211 59.3753 14.705C59.2114 14.6112 59.046 14.5198 58.8808 14.4282C58.7527 14.3568 58.6254 14.2845 58.4997 14.2089C58.4772 14.1954 58.4547 14.182 58.4315 14.1682C58.3898 14.1431 58.3482 14.1177 58.3069 14.0919C58.2021 14.0286 58.2021 14.0286 58.0834 14.0098C58.0053 14.0463 57.9577 14.093 57.8981 14.1553C57.8755 14.1787 57.853 14.2022 57.8297 14.2263C57.7616 14.2999 57.6944 14.3741 57.6292 14.4504C57.5608 14.5297 57.4896 14.6066 57.4187 14.6838C57.3722 14.7351 57.3722 14.7351 57.3514 14.8124C57.4156 14.9518 57.5065 15.0543 57.6092 15.1673C57.6581 15.2215 57.7063 15.2758 57.7525 15.3323C57.765 15.3473 57.7776 15.3623 57.7905 15.3777C57.8305 15.4598 57.8354 15.5255 57.8172 15.6133C57.7751 15.7169 57.7221 15.8139 57.6684 15.912C57.6532 15.9405 57.6379 15.969 57.6222 15.9984C57.5755 16.0855 57.5282 16.1724 57.4808 16.2591C57.4605 16.2963 57.4605 16.2963 57.4398 16.3343C57.3891 16.4272 57.3383 16.52 57.2873 16.6127C57.1896 16.7906 57.0953 16.9701 57.0021 17.1504C56.8839 17.3788 56.7626 17.6053 56.6385 17.8306C56.5461 17.9988 56.4565 18.1684 56.3681 18.3387C56.2534 18.5596 56.1358 18.7787 56.0156 18.9966C55.9517 19.1128 55.8888 19.2293 55.828 19.347C55.8162 19.3697 55.8045 19.3924 55.7924 19.4158C55.7703 19.4588 55.7483 19.5018 55.7266 19.5449C55.7167 19.5639 55.7069 19.5829 55.6968 19.6025C55.6841 19.6276 55.6841 19.6276 55.6712 19.6531C55.6435 19.695 55.6435 19.695 55.5659 19.7467C55.5129 19.7573 55.5129 19.7573 55.4524 19.763C55.4302 19.7652 55.4081 19.7673 55.3852 19.7696C55.3621 19.7716 55.339 19.7736 55.3152 19.7757C55.2926 19.7779 55.27 19.7802 55.2467 19.7825C55.111 19.7952 54.9777 19.8005 54.8413 19.7983C54.8539 20.0433 54.867 20.2882 54.8808 20.5332C54.8879 20.6597 54.8948 20.7862 54.9015 20.9127C54.9086 21.0472 54.9162 21.1817 54.9241 21.3161C54.9272 21.3686 54.93 21.421 54.9327 21.4735C54.9365 21.5477 54.9409 21.6218 54.9455 21.696C54.9465 21.7179 54.9475 21.7398 54.9485 21.7623C54.9606 21.9448 55.0082 22.0836 55.1396 22.2142C55.163 22.2328 55.1865 22.2513 55.2106 22.2705C55.3688 22.408 55.4599 22.5567 55.5578 22.7401C55.5753 22.7719 55.5929 22.8037 55.6105 22.8355C55.6469 22.9012 55.6831 22.967 55.7191 23.0329C55.8037 23.1875 55.892 23.3399 55.9799 23.4925C56.0145 23.5528 56.049 23.6131 56.0834 23.6734C56.1007 23.7035 56.1179 23.7336 56.1352 23.7638C57.8965 26.8409 57.8965 26.8409 57.9234 26.8878C57.9412 26.9191 57.9591 26.9503 57.977 26.9815C58.0209 27.0583 58.0649 27.1352 58.1089 27.212C58.1862 27.3471 58.2635 27.4821 58.3412 27.6169C59.3543 29.3761 59.3543 29.3761 59.4474 29.9251C59.4527 29.953 59.458 29.9809 59.4634 30.0097C59.4992 30.2352 59.5051 30.4609 59.5069 30.6891C59.5073 30.7406 59.508 30.7922 59.5087 30.8437C59.5084 31.2291 59.4111 31.5521 59.2598 31.9014C59.2429 31.9411 59.2261 31.9808 59.2092 32.0205C59.1718 32.1086 59.1341 32.1966 59.0963 32.2846C59.0281 32.4432 58.9604 32.6021 58.8927 32.7611C58.8039 32.9694 58.7151 33.1777 58.626 33.386C58.4807 33.7261 58.3362 34.0665 58.1924 34.4072C57.9997 34.8638 57.8054 35.3198 57.6107 35.7756C57.4416 36.1717 57.2731 36.568 57.1056 36.9648C56.8993 37.4534 56.6918 37.9414 56.483 38.4289C56.3658 38.7027 56.2494 38.9768 56.1354 39.252C56.1058 39.323 56.0762 39.394 56.0465 39.4651C56.0283 39.509 56.0102 39.553 55.9923 39.597C55.9021 39.8184 55.8199 40.0139 55.6435 40.1811C55.6188 40.2061 55.5942 40.2312 55.5696 40.2564C55.4982 40.3295 55.4262 40.4017 55.3538 40.4737C55.3088 40.5184 55.264 40.5633 55.2192 40.6082C55.0854 40.7419 54.9515 40.8743 54.8071 40.9968C54.6554 41.1201 54.6554 41.1201 54.5554 41.2831C54.5574 41.4162 54.6282 41.4941 54.7055 41.5987C54.7367 41.6423 54.7679 41.6859 54.7991 41.7296C54.8149 41.7514 54.8307 41.7732 54.847 41.7957C54.8901 41.856 54.9316 41.917 54.9725 41.9788C54.9848 41.9973 54.9971 42.0157 55.0098 42.0347C55.0326 42.069 55.0552 42.1034 55.0777 42.1379C55.2099 42.334 55.3576 42.4434 55.5837 42.5114C55.6181 42.5224 55.6181 42.5224 55.6532 42.5335C55.7361 42.5594 55.8191 42.5845 55.9023 42.6094C55.927 42.6168 55.927 42.6168 55.9522 42.6244C56.2877 42.7251 56.6236 42.8242 56.9599 42.9223C57.0619 42.952 57.1639 42.9821 57.2658 43.0124C57.3042 43.0237 57.3427 43.0349 57.3812 43.0461C57.4346 43.0615 57.488 43.0774 57.5413 43.0933C57.5716 43.1021 57.6018 43.111 57.633 43.1201C57.7192 43.1541 57.7762 43.1916 57.8431 43.2553C57.9071 43.447 57.8913 43.6466 57.8059 43.8284C57.6077 44.1809 57.324 44.4096 56.9374 44.5211C56.6299 44.6019 56.3163 44.6578 56.0026 44.7084C55.9774 44.7126 55.9522 44.7168 55.9262 44.7212C55.4919 44.7876 55.0478 44.7834 54.6095 44.7808C54.5605 44.7807 54.5116 44.7805 54.4627 44.7803C54.3319 44.7799 54.201 44.7792 54.0702 44.7785C53.9606 44.778 53.851 44.7775 53.7414 44.777C53.4831 44.7759 53.2248 44.7746 52.9665 44.7732C52.7002 44.7718 52.4339 44.7706 52.1676 44.7696C51.9382 44.7688 51.7089 44.7677 51.4795 44.7665C51.3428 44.7658 51.2061 44.7651 51.0693 44.7647C50.9413 44.7642 50.8132 44.7635 50.6851 44.7627C50.6381 44.7624 50.591 44.7622 50.544 44.7621C50.48 44.762 50.416 44.7615 50.3519 44.761C50.3238 44.761 50.3238 44.761 50.2952 44.7611C50.2004 44.7599 50.1611 44.7559 50.08 44.7019C50.0584 44.4723 50.107 44.2377 50.1386 44.0103C50.1448 43.9655 50.1509 43.9208 50.157 43.8761C50.1699 43.7825 50.1829 43.6891 50.1959 43.5956C50.2125 43.4765 50.2287 43.3573 50.2448 43.2382C50.2573 43.1458 50.2701 43.0535 50.283 42.9612C50.2891 42.9173 50.2951 42.8734 50.301 42.8295C50.3332 42.5899 50.3701 42.3678 50.4681 42.1444C50.4796 42.1183 50.4911 42.0921 50.5029 42.0652C50.5128 42.0439 50.5227 42.0226 50.5328 42.0007C50.5849 41.8776 50.6173 41.7557 50.6439 41.6252C50.696 41.3815 50.7621 41.1428 50.8311 40.9033C50.8682 40.7745 50.9048 40.6455 50.9414 40.5165C50.9491 40.4896 50.9568 40.4627 50.9647 40.4349C51.2271 39.5123 51.4781 38.5927 51.6673 37.652C51.7666 37.1587 51.8727 36.6667 51.9778 36.1746C52.017 35.9913 52.0559 35.8079 52.0946 35.6245C52.1189 35.5096 52.1433 35.3946 52.1678 35.2797C52.1792 35.2256 52.1907 35.1715 52.202 35.1174C52.2177 35.0425 52.2337 34.9677 52.2497 34.8929C52.2542 34.8711 52.2587 34.8493 52.2634 34.8268C52.3005 34.655 52.3616 34.5064 52.4458 34.3516C52.4577 34.3298 52.4696 34.3079 52.4818 34.2854C52.4946 34.2622 52.5074 34.239 52.5205 34.2151C52.5341 34.1904 52.5476 34.1656 52.5616 34.1401C52.6767 33.9315 52.7964 33.7258 52.9173 33.5205C53.0263 33.3352 53.1323 33.1484 53.237 32.9606C53.3548 32.7492 53.4749 32.5394 53.5976 32.3309C53.7804 32.0203 53.9564 31.7061 54.1292 31.3899C54.1625 31.3309 54.1979 31.2746 54.2347 31.2177C54.278 31.1434 54.278 31.1434 54.2669 31.0712C54.1943 30.9761 54.0986 30.937 53.9923 30.8858C53.9473 30.863 53.9024 30.8402 53.8575 30.8173C53.8355 30.8061 53.8134 30.795 53.7907 30.7835C53.3574 30.5623 53.1033 30.2384 52.8179 29.8578C52.7685 29.7924 52.7187 29.7275 52.6687 29.6626C52.4813 29.4193 52.2983 29.174 52.1224 28.9222C52.042 28.8071 51.9595 28.6937 51.8768 28.5801C51.7605 28.42 51.6465 28.2586 51.5349 28.0951C51.4712 28.0017 51.4067 27.909 51.341 27.817C51.1227 27.5109 50.9211 27.1967 50.7234 26.877C50.3262 26.1346 50.3262 26.1346 49.7695 25.5334C49.5977 25.5127 49.455 25.5535 49.3037 25.6367C49.2061 25.7188 49.1603 25.8132 49.1113 25.9282C49.1032 25.9467 49.0951 25.9652 49.0867 25.9843C49.0693 26.0241 49.0519 26.064 49.0347 26.1039C48.9888 26.2102 48.942 26.3162 48.8954 26.4222C48.8861 26.4435 48.8767 26.4648 48.8671 26.4868C48.7868 26.6698 48.7031 26.8509 48.6179 27.0317C48.4926 27.2988 48.3717 27.5676 48.2524 27.8374C48.1003 28.1815 47.944 28.5234 47.785 28.8643C47.6313 29.1939 47.4793 29.524 47.3312 29.8561C47.2242 30.0957 47.1151 30.3342 47.0055 30.5726C46.862 30.8848 46.721 31.1981 46.5818 31.5123C46.4068 31.9068 46.2283 32.2994 46.0432 32.6893C46.0282 32.721 46.0282 32.721 46.0129 32.7534C45.8292 33.1404 45.6141 33.4907 45.3286 33.8112C45.2686 33.8792 45.2105 33.9487 45.1521 34.0181C45.0399 34.1507 44.9268 34.2825 44.8135 34.4142C44.727 34.5149 44.641 34.6159 44.5553 34.7172C44.4436 34.8493 44.3311 34.9806 44.2184 35.1117C44.1318 35.2124 44.0458 35.3134 43.9601 35.4148C43.8619 35.5309 43.7632 35.6465 43.6641 35.7619C43.6513 35.7769 43.6384 35.7918 43.6252 35.8072C43.5591 35.8841 43.493 35.9609 43.4268 36.0376C43.308 36.1753 43.19 36.3133 43.0754 36.4546C42.9834 36.5677 42.887 36.6759 42.7888 36.7836C42.7309 36.8486 42.6757 36.915 42.621 36.9825C42.5277 37.0975 42.432 37.21 42.3347 37.3216C42.3204 37.338 42.3062 37.3543 42.2915 37.3712C42.2625 37.4044 42.2336 37.4376 42.2046 37.4709C42.0439 37.6554 41.884 37.8404 41.7298 38.0304C41.6378 38.1436 41.5414 38.2517 41.4432 38.3595C41.3853 38.4244 41.3301 38.4908 41.2754 38.5584C41.1677 38.6912 41.0563 38.8202 40.9439 38.949C40.8525 39.0539 40.7619 39.1593 40.6721 39.2656C40.5745 39.3812 40.4764 39.4963 40.3778 39.6111C40.3649 39.6261 40.3521 39.641 40.3388 39.6565C40.2728 39.7333 40.2066 39.8101 40.1404 39.8868C40.0217 40.0245 39.9037 40.1625 39.7891 40.3038C39.6971 40.417 39.6007 40.5251 39.5024 40.6328C39.4445 40.6978 39.3894 40.7642 39.3346 40.8317C39.2529 40.9325 39.1697 41.0315 39.0846 41.1294C39.0551 41.1634 39.0258 41.1974 38.9966 41.2316C38.9377 41.3003 38.8806 41.3647 38.8126 41.4246C38.7566 41.4744 38.7268 41.5083 38.6941 41.5761C38.6944 41.6425 38.698 41.7036 38.705 41.7693C38.7264 42.0302 38.7069 42.2834 38.6847 42.5436C38.6808 42.5932 38.6768 42.6427 38.6728 42.6922C38.6645 42.7952 38.6561 42.8982 38.6474 43.0012C38.6364 43.1323 38.6258 43.2634 38.6153 43.3946C38.6072 43.4966 38.5988 43.5986 38.5905 43.7005C38.5865 43.7489 38.5826 43.7972 38.5787 43.8455C38.5098 44.6935 38.5098 44.6935 38.2734 44.9106C38.1403 44.9967 37.9749 44.9764 37.8222 44.9769C37.786 44.9774 37.7498 44.9779 37.7136 44.9785C37.6156 44.9798 37.5176 44.9805 37.4196 44.981C37.3583 44.9813 37.297 44.9817 37.2358 44.9822C37.0438 44.9836 36.8519 44.9846 36.66 44.985C36.4387 44.9854 36.2175 44.9872 35.9963 44.9902C35.825 44.9925 35.6538 44.9935 35.4825 44.9937C35.3803 44.9938 35.2781 44.9944 35.1759 44.9962C35.0798 44.9979 34.9837 44.9981 34.8876 44.9972C34.8357 44.9971 34.7838 44.9985 34.7319 45C34.637 44.9982 34.5651 44.9939 34.4762 44.9603C34.392 44.8662 34.3431 44.7662 34.2951 44.6503C34.2856 44.6303 34.2761 44.6103 34.2663 44.5896C34.2172 44.4778 34.2158 44.4055 34.2433 44.2886C34.2738 44.2216 34.2738 44.2216 34.3124 44.154C34.334 44.1158 34.334 44.1158 34.356 44.0769C34.3795 44.0362 34.3795 44.0362 34.4034 43.9948C34.4197 43.9662 34.4359 43.9377 34.4526 43.9084C34.5772 43.6902 34.7041 43.4734 34.8314 43.2568C34.9446 43.0636 35.0555 42.8692 35.1652 42.674C35.1802 42.6473 35.1952 42.6207 35.2107 42.5932C35.2509 42.5213 35.2905 42.4491 35.3302 42.3769C35.3458 42.3498 35.3458 42.3498 35.3618 42.3222C35.4377 42.1846 35.4607 42.0508 35.4789 41.8958C35.482 41.8707 35.485 41.8456 35.4881 41.8197C35.4964 41.7472 35.504 41.6746 35.5113 41.6019C35.5145 41.5743 35.5145 41.5743 35.5178 41.5462C35.5429 41.3217 35.4956 41.1914 35.3786 41.0069C35.2923 40.8683 35.2762 40.7782 35.3043 40.6202C35.3739 40.3318 35.5017 40.0735 35.631 39.8081C35.653 39.7624 35.675 39.7168 35.6969 39.6711C35.7421 39.5771 35.7875 39.4832 35.8328 39.3892C35.9246 39.1991 36.015 39.0083 36.1053 38.8174C36.1534 38.7159 36.2016 38.6143 36.2498 38.5128C36.269 38.4722 36.2883 38.4316 36.3075 38.391C36.3171 38.3709 36.3266 38.3509 36.3364 38.3302C36.3459 38.3101 36.3554 38.2901 36.3652 38.2694C36.4423 38.1068 36.5194 37.9443 36.5965 37.7818C36.6061 37.7616 36.6156 37.7414 36.6255 37.7206C36.786 37.3823 36.9469 37.0441 37.1078 36.7059C37.2573 36.3919 37.4065 36.0777 37.5556 35.7635C37.7149 35.4276 37.8745 35.0917 38.0343 34.756C38.2 34.4079 38.3655 34.0597 38.5308 33.7113C38.5402 33.6915 38.5497 33.6716 38.5594 33.6512C38.5777 33.6126 38.596 33.5739 38.6143 33.5353C38.632 33.498 38.6497 33.4608 38.6674 33.4235C38.7123 33.3289 38.7569 33.2342 38.8009 33.1392C38.973 32.7684 38.973 32.7684 39.0791 32.607C39.0898 32.5902 39.1006 32.5735 39.1116 32.5562C39.2252 32.381 39.3457 32.2109 39.4705 32.0435C39.481 32.0293 39.4915 32.0152 39.5024 32.0006C39.8604 31.5228 40.2436 31.0723 40.7255 30.7158C40.8336 30.6357 40.9404 30.5541 41.0473 30.4725C41.066 30.4582 41.0847 30.444 41.1039 30.4293C41.1218 30.4157 41.1396 30.402 41.158 30.388C41.1749 30.3751 41.1918 30.3622 41.2093 30.3489C41.2503 30.317 41.2905 30.2841 41.3305 30.251C41.3854 30.2093 41.3853 30.2093 41.4371 30.2093C41.4784 30.0138 41.5174 29.8178 41.5553 29.6216C41.5629 29.5818 41.5707 29.542 41.5784 29.5021C41.6918 28.9193 41.7839 28.3386 41.8362 27.747C41.8416 27.688 41.847 27.6289 41.8524 27.5698C41.8666 27.4138 41.8806 27.2577 41.8944 27.1016C41.9029 27.006 41.9114 26.9105 41.9199 26.815C41.9572 26.3968 41.9938 25.9785 42.0302 25.5602C42.0531 25.2976 42.076 25.0349 42.099 24.7723C42.1069 24.6819 42.1147 24.5915 42.1226 24.5011C42.1274 24.446 42.1322 24.391 42.137 24.3359C42.1391 24.3113 42.1413 24.2868 42.1435 24.2615C42.1493 24.1946 42.1554 24.1277 42.1617 24.0609C42.1645 24.0284 42.1645 24.0284 42.1675 23.9952C42.1705 23.9644 42.1705 23.9644 42.1735 23.9329C42.1752 23.9148 42.1769 23.8967 42.1786 23.8781C42.1944 23.7902 42.2319 23.7387 42.291 23.6734C42.4647 23.571 42.6486 23.5816 42.8458 23.5781C42.8964 23.5768 42.8964 23.5768 42.948 23.5754C43.0309 23.5733 43.1138 23.5715 43.1967 23.57C43.3581 23.1819 43.5137 22.7919 43.6641 22.3994C43.8054 22.0313 43.9472 21.6633 44.0906 21.296C44.1113 21.2429 44.132 21.1898 44.1526 21.1367C44.1814 21.0624 44.2104 20.9881 44.2395 20.9138C44.2481 20.8917 44.2566 20.8696 44.2654 20.8468C44.3212 20.7048 44.3753 20.5748 44.4898 20.4696C44.5044 20.456 44.5191 20.4425 44.5341 20.4285C44.5497 20.4145 44.5652 20.4005 44.5811 20.386C44.5972 20.3713 44.6133 20.3566 44.6298 20.3414C44.7472 20.2348 44.8677 20.1335 44.9927 20.0359C45.0148 20.0172 45.037 19.9984 45.0599 19.9792C45.0733 19.9691 45.0868 19.959 45.1007 19.9486C45.2754 19.8008 45.3263 19.5936 45.3946 19.384C45.4082 19.3434 45.4218 19.3028 45.4355 19.2623C45.464 19.1777 45.4922 19.093 45.52 19.0081C45.5557 18.8995 45.592 18.7911 45.6285 18.6828C45.6567 18.5992 45.6846 18.5156 45.7125 18.4319C45.7258 18.3919 45.7392 18.3519 45.7526 18.3119C45.7712 18.2561 45.7896 18.2002 45.8079 18.1443C45.8184 18.1125 45.8289 18.0808 45.8397 18.0481C45.8601 17.9716 45.8702 17.9134 45.8621 17.835C45.8236 17.7903 45.8236 17.7903 45.765 17.7558C45.7415 17.7405 45.7179 17.7252 45.6937 17.7094C45.6636 17.6909 45.6335 17.6725 45.6033 17.6541C45.5847 17.6428 45.5661 17.6315 45.5469 17.6199C45.438 17.554 45.3287 17.4888 45.2193 17.4237C45.0949 17.3498 44.9711 17.2749 44.848 17.1988C44.8305 17.1881 44.813 17.1774 44.7949 17.1664C44.6747 17.0918 44.6747 17.0918 44.6458 17.0341C44.635 16.8724 44.6625 16.7526 44.7191 16.602C44.7309 16.5695 44.7309 16.5695 44.7429 16.5363C44.76 16.4891 44.7773 16.442 44.7946 16.3949C44.8228 16.3187 44.8505 16.2424 44.8782 16.166C44.9078 16.0843 44.9374 16.0026 44.9671 15.9209C45.0712 15.6347 45.1723 15.3475 45.2732 15.0601C45.325 14.9128 45.3768 14.7656 45.4287 14.6184C45.439 14.5893 45.4492 14.5602 45.4597 14.5303C45.6108 14.1016 45.7624 13.6731 45.915 13.245C45.9656 13.103 46.0157 12.9609 46.0653 12.8186C46.0958 12.7312 46.1267 12.6439 46.1575 12.5566C46.1717 12.5164 46.1857 12.4762 46.1995 12.436C46.2184 12.3813 46.2377 12.3268 46.2571 12.2724C46.2677 12.242 46.2783 12.2116 46.2893 12.1803C46.3358 12.0833 46.3685 12.0332 46.4572 11.9707C46.552 11.9518 46.6451 11.9521 46.7416 11.9525C46.769 11.9521 46.7963 11.9517 46.8246 11.9513C46.9118 11.9502 46.9991 11.9499 47.0864 11.9497C47.1456 11.9491 47.2049 11.9485 47.2641 11.9478C47.4092 11.9461 47.5542 11.9452 47.6993 11.9449C47.7065 11.9223 47.7136 11.8996 47.721 11.8763C47.7488 11.7965 47.7807 11.7234 47.8179 11.6476C47.8312 11.6204 47.8444 11.5931 47.8581 11.5651C47.8724 11.5359 47.8867 11.5067 47.9015 11.4767C47.9322 11.4136 47.9629 11.3504 47.9935 11.2872C48.0013 11.2711 48.0091 11.2549 48.0172 11.2383C48.0979 11.0715 48.1762 10.9036 48.2541 10.7356C48.2679 10.7057 48.2817 10.6758 48.296 10.645C48.3243 10.5839 48.3526 10.5228 48.3809 10.4616C48.4913 10.2235 48.6026 9.98579 48.714 9.74812C48.7555 9.65952 48.797 9.57089 48.8383 9.48221C49.5474 7.96118 50.4652 6.30845 52.1114 5.64703C52.393 5.54934 52.6676 5.53255 52.9635 5.52366C53.0169 5.52201 53.0704 5.52004 53.1238 5.51804C53.4406 5.50723 53.4406 5.50723 53.5979 5.53578C53.6849 5.53698 53.7511 5.51747 53.8321 5.48648C53.8924 5.42513 53.8924 5.42513 53.9372 5.34682C53.9543 5.31915 53.9714 5.29148 53.9891 5.26297C54.0628 5.13326 54.1307 5.00136 54.1944 4.86647C54.0159 4.77543 53.8368 4.69453 53.6511 4.61924C53.5788 4.58488 53.544 4.5663 53.4957 4.5048C53.483 4.44518 53.483 4.44518 53.4787 4.37352C53.4759 4.33248 53.4759 4.33248 53.4731 4.29062C53.4707 4.24559 53.4707 4.24559 53.4683 4.19964C53.4663 4.1683 53.4644 4.13697 53.4623 4.10468C53.457 4.01644 53.452 3.9282 53.4472 3.83993C53.4438 3.77882 53.4403 3.71771 53.4368 3.65661C53.4293 3.52655 53.422 3.39648 53.4149 3.2664C53.4137 3.24563 53.4126 3.22486 53.4114 3.20346C53.3664 2.38319 53.5061 1.73628 54.066 1.10231C54.549 0.570809 55.1471 0.215178 55.8505 0.0614172C55.8711 0.0566634 55.8916 0.0519097 55.9128 0.0470119C56.1263 0.00226767 56.3385 -0.000531946 56.5557 6.2283e-05Z" fill="white"/>
<path d="M15.5614 12.3551C15.6026 12.355 15.6438 12.355 15.685 12.355C15.7979 12.3549 15.9107 12.355 16.0236 12.3551C16.1465 12.3552 16.2695 12.3551 16.3924 12.3551C16.6077 12.355 16.823 12.355 17.0383 12.3552C17.3585 12.3553 17.6787 12.3553 17.9988 12.3553C18.5374 12.3553 19.076 12.3553 19.6146 12.3555C20.1479 12.3557 20.6811 12.3558 21.2143 12.3558C21.2475 12.3558 21.2807 12.3558 21.3148 12.3558C21.4832 12.3558 21.6516 12.3558 21.8201 12.3558C22.1625 12.3558 22.5049 12.3558 22.8473 12.3559C22.8645 12.3559 22.8816 12.3559 22.8992 12.3559C23.7322 12.3559 24.5652 12.3561 25.3982 12.3563C25.6872 12.3563 25.9762 12.3564 26.2651 12.3565C26.2831 12.3565 26.301 12.3565 26.3195 12.3565C27.153 12.3566 27.9865 12.3567 28.82 12.3568C28.8741 12.3568 28.9283 12.3568 28.9824 12.3568C29.3411 12.3569 29.6998 12.3569 30.0585 12.3569C30.7892 12.357 31.5199 12.3571 32.2506 12.3571C32.3009 12.3571 32.3009 12.3571 32.3524 12.3571C34.5957 12.3574 36.839 12.3578 39.0823 12.3582C39.07 12.3998 39.0576 12.4413 39.0452 12.4828C39.0384 12.5059 39.0315 12.529 39.0244 12.5529C39.0035 12.6204 38.9791 12.6848 38.9507 12.7494C38.9407 12.7724 38.9306 12.7953 38.9203 12.819C38.9042 12.8553 38.9042 12.8553 38.8878 12.8923C38.8706 12.9316 38.8706 12.9316 38.8531 12.9717C38.8283 13.0283 38.8034 13.0848 38.7785 13.1413C38.7179 13.2791 38.6576 13.4171 38.5973 13.5551C38.5834 13.587 38.5694 13.6189 38.5555 13.6509C38.4056 13.9936 38.2584 14.3375 38.1119 14.6816C38.0874 14.7391 38.0629 14.7966 38.0384 14.8541C37.9504 15.0608 37.8625 15.2676 37.7746 15.4743C37.694 15.6637 37.6134 15.8531 37.5327 16.0424C37.4954 16.13 37.4582 16.2177 37.421 16.3053C37.3129 16.5593 37.2039 16.8128 37.091 17.0647C37.0817 17.0856 37.0724 17.1065 37.0628 17.128C36.7894 17.7331 36.3254 18.1468 35.728 18.4227C35.2127 18.6159 34.6819 18.5992 34.1405 18.5977C34.0167 18.5975 33.893 18.5978 33.7692 18.5981C33.5527 18.5986 33.3362 18.5986 33.1197 18.5985C32.7978 18.5982 32.4759 18.5985 32.154 18.5989C31.6124 18.5996 31.0708 18.5999 30.5292 18.5998C29.9931 18.5998 29.457 18.6 28.921 18.6005C28.8876 18.6005 28.8543 18.6005 28.8199 18.6005C28.6504 18.6007 28.481 18.6008 28.3115 18.601C27.9671 18.6013 27.6226 18.6016 27.2781 18.6018C27.2608 18.6018 27.2436 18.6019 27.2258 18.6019C26.3884 18.6025 25.551 18.6028 24.7135 18.603C24.423 18.603 24.1326 18.6031 23.8421 18.6032C23.8151 18.6032 23.8151 18.6032 23.7875 18.6032C22.9494 18.6035 22.1112 18.604 21.2731 18.6046C21.2186 18.6046 21.1642 18.6046 21.1098 18.6047C20.749 18.6049 20.3882 18.6052 20.0274 18.6055C19.2925 18.606 18.5575 18.6065 17.8226 18.607C17.7719 18.607 17.7719 18.607 17.7202 18.607C15.4648 18.6085 13.2095 18.6093 10.9541 18.61C10.9809 18.6226 11.0077 18.6352 11.0352 18.6482C11.1358 18.6956 11.2364 18.743 11.337 18.7905C11.3803 18.8109 11.4236 18.8313 11.4669 18.8517C11.7534 18.9867 12.0398 19.1219 12.326 19.2574C12.6499 19.4108 12.974 19.5639 13.2983 19.7164C13.336 19.7341 13.3738 19.7519 13.4115 19.7697C13.6007 19.8587 13.7901 19.9471 13.9817 20.0308C13.9663 20.1604 13.9246 20.2708 13.8723 20.3893C13.8637 20.4093 13.855 20.4294 13.846 20.45C13.827 20.4939 13.808 20.5377 13.7888 20.5814C13.747 20.6772 13.7055 20.7731 13.664 20.8689C13.6416 20.9207 13.6192 20.9725 13.5967 21.0243C13.4719 21.3122 13.3489 21.6008 13.226 21.8896C13.1622 22.0393 13.0983 22.1891 13.0345 22.3388C13.0222 22.3674 13.01 22.3961 12.9974 22.4256C12.8915 22.6738 12.7852 22.9218 12.6786 23.1697C12.523 23.5315 12.3685 23.8939 12.214 24.2562C12.0269 24.6951 11.8394 25.1337 11.651 25.572C11.468 25.9977 11.2861 26.4239 11.1044 26.8501C10.9482 27.2165 10.7917 27.5828 10.6344 27.9487C10.4771 28.3144 10.321 28.6806 10.1649 29.0468C10.0014 29.4301 9.83784 29.8135 9.67319 30.1964C9.51017 30.5755 9.34823 30.955 9.18638 31.3347C8.93127 31.933 8.67503 32.5309 8.41816 33.1285C8.34131 33.3075 8.26445 33.4865 8.18527 33.671C15.3669 33.671 22.5485 33.671 29.9478 33.671C29.9186 33.8453 29.9186 33.8453 29.8833 33.9258C29.8713 33.9532 29.8713 33.9532 29.8592 33.9812C29.8504 34.0009 29.8417 34.0205 29.8327 34.0407C29.8235 34.0619 29.8142 34.0831 29.8047 34.1049C29.7845 34.1512 29.7642 34.1974 29.7439 34.2435C29.6875 34.3715 29.6318 34.4998 29.5759 34.628C29.564 34.6552 29.5522 34.6824 29.5399 34.7104C29.405 35.0197 29.2729 35.3303 29.1407 35.6408C29.0906 35.7585 29.0405 35.8761 28.9903 35.9938C28.9777 36.0234 28.9651 36.0529 28.9521 36.0834C28.7436 36.5724 28.5337 37.0608 28.3236 37.5492C28.2662 37.6828 28.2088 37.8164 28.1517 37.9502C28.1237 38.0158 28.0956 38.0815 28.0676 38.1471C28.0478 38.1933 28.0282 38.2395 28.0085 38.2857C27.8642 38.6231 27.714 38.9259 27.4636 39.1994C27.4442 39.2211 27.4249 39.2428 27.4049 39.2652C27.0424 39.6511 26.5598 39.8845 26.0403 39.9744C26.0162 39.9789 25.992 39.9833 25.9671 39.9879C25.8145 40.0092 25.6602 40.0038 25.5065 40.0035C25.4702 40.0036 25.4339 40.0036 25.3976 40.0037C25.2977 40.0038 25.1978 40.0038 25.0978 40.0037C24.9892 40.0037 24.8805 40.0038 24.7719 40.0039C24.5814 40.004 24.3909 40.004 24.2004 40.004C23.9171 40.004 23.6338 40.0041 23.3505 40.0042C22.8151 40.0045 22.2797 40.0045 21.7442 40.0045C21.3307 40.0046 20.9171 40.0046 20.5036 40.0047C20.3846 40.0047 20.2656 40.0047 20.1466 40.0048C20.1022 40.0048 20.1022 40.0048 20.0569 40.0048C19.2245 40.0049 18.3922 40.005 17.5598 40.005C17.5284 40.005 17.497 40.005 17.4647 40.005C17.3056 40.005 17.1464 40.005 16.9873 40.005C16.9399 40.005 16.9399 40.005 16.8916 40.005C16.8277 40.005 16.7637 40.005 16.6998 40.005C15.706 40.005 14.7121 40.0052 13.7182 40.0055C12.6017 40.0059 11.4852 40.0062 10.3687 40.0061C10.2496 40.0061 10.1305 40.0061 10.0114 40.0061C9.96745 40.0061 9.96745 40.0061 9.92258 40.0061C9.45092 40.0061 8.97926 40.0063 8.5076 40.0065C8.03334 40.0067 7.55909 40.0068 7.08484 40.0066C6.80323 40.0065 6.52162 40.0065 6.24 40.0068C6.05167 40.007 5.86333 40.0069 5.67499 40.0067C5.56783 40.0066 5.46067 40.0066 5.35351 40.0068C4.38127 40.0086 3.46179 39.9119 2.59586 39.4319C2.56486 39.4153 2.53387 39.3986 2.50286 39.382C2.19083 39.2122 1.90901 39.0109 1.65014 38.768C1.59471 38.7161 1.53806 38.6669 1.47991 38.6181C0.805075 38.0293 0.346846 37.1311 0.129463 36.2737C0.123187 36.249 0.116912 36.2243 0.110447 36.1988C0.0230119 35.8368 -0.00158728 35.485 7.80674e-05 35.1144C0.000133836 35.0921 0.000189605 35.0698 0.000247063 35.0468C0.00155882 34.72 0.0114805 34.4039 0.0857953 34.0843C0.0901109 34.064 0.0944265 34.0436 0.0988728 34.0226C0.198294 33.5626 0.389882 33.1348 0.574781 32.7042C0.604437 32.6351 0.634004 32.5659 0.663553 32.4968C0.77574 32.2343 0.888386 31.9721 1.00129 31.7099C1.14866 31.3677 1.29499 31.0251 1.4411 30.6824C1.46608 30.6238 1.49106 30.5652 1.51604 30.5066C1.56626 30.3888 1.61648 30.271 1.66669 30.1532C1.77852 29.8909 1.89044 29.6286 2.00236 29.3663C2.06434 29.2211 2.12632 29.0758 2.18829 28.9305C2.21309 28.8724 2.23789 28.8143 2.26269 28.7561C2.2811 28.713 2.2811 28.713 2.29989 28.6689C2.41148 28.4074 2.41148 28.4074 2.44868 28.3202C2.47349 28.262 2.4983 28.2039 2.52311 28.1457C2.58494 28.0008 2.64678 27.8559 2.70861 27.7109C2.82215 27.4448 2.93568 27.1787 3.04916 26.9126C3.5209 25.8062 3.5209 25.8062 3.7439 25.2875C3.97477 24.7505 4.20373 24.2126 4.43302 23.6748C4.54575 23.4104 4.65855 23.1461 4.77134 22.8817C4.83327 22.7366 4.8952 22.5914 4.95713 22.4463C4.98192 22.3881 5.00672 22.33 5.03152 22.2719C5.0438 22.2431 5.05607 22.2143 5.06872 22.1847C5.18031 21.9231 5.18031 21.9231 5.21751 21.836C5.24231 21.7778 5.26712 21.7197 5.29193 21.6615C5.35382 21.5165 5.41572 21.3714 5.47761 21.2263C5.61603 20.9019 5.75441 20.5774 5.89273 20.253C5.9921 20.0199 6.09157 19.7869 6.19108 19.554C6.25912 19.3946 6.32699 19.2352 6.3947 19.0757C6.89634 17.8944 7.43355 16.7667 8.28878 15.7941C8.30516 15.7752 8.32153 15.7563 8.33841 15.7368C8.38191 15.6867 8.42586 15.637 8.46992 15.5874C8.48613 15.5689 8.50234 15.5503 8.51904 15.5311C8.76022 15.2581 9.01801 14.9943 9.29798 14.7608C9.32103 14.7406 9.34408 14.7205 9.36783 14.6997C10.7692 13.4808 12.5438 12.7019 14.3779 12.4406C14.397 12.4379 14.4161 12.4351 14.4358 12.4323C14.8114 12.3794 15.1819 12.3543 15.5614 12.3551Z" fill="white"/>
</svg>
