<svg width="92" height="94" viewBox="0 0 92 94" fill="none" xmlns="http://www.w3.org/2000/svg">
<g filter="url(#filter0_d_200_139)">
<path d="M45.861 0.000391981C46.0526 0.000498462 46.2441 0.000604945 46.4414 0.000714653C49.5183 0.00856517 52.4627 0.179852 55.4738 0.857028C55.766 0.921532 55.766 0.921532 56.064 0.98734C63.2505 2.61631 69.9835 5.80179 75.5898 10.5721C76.0776 10.8884 76.3446 10.9174 76.9222 10.9225C77.0978 10.9268 77.2734 10.9311 77.4543 10.9355C77.6365 10.9373 77.8188 10.939 78.0065 10.9409C80.298 10.9636 82.4022 11.3463 84.0986 12.9823C84.8808 13.8316 85.4845 14.5455 85.4845 15.738C85.7067 15.7066 85.7067 15.7066 85.9334 15.6745C87.6143 15.4793 88.9433 15.5764 90.3958 16.4845C91.3346 17.4429 91.7902 18.3299 92 19.6541C91.9348 20.4294 91.8697 21.2048 91.8026 22.0037C89.7176 22.0037 87.6327 22.0037 85.4845 22.0037C85.8755 22.7266 86.2664 23.4495 86.6692 24.1942C89.7229 29.9635 91.7895 36.5089 91.8496 43.0701C91.8515 43.2451 91.8535 43.4201 91.8555 43.6004C91.8891 47.4327 91.8717 51.1423 91.0128 54.8985C90.9694 55.0917 90.9261 55.2848 90.8814 55.4838C89.0842 63.2815 85.3945 70.5227 79.8259 76.3358C79.359 76.8208 79.359 76.8208 78.9521 77.3431C78.6129 77.7598 78.2826 78.0884 77.8708 78.4315C77.4147 78.816 76.9684 79.2028 76.5342 79.6117C70.2453 85.5228 61.7799 89.1548 53.302 90.5346C53.0878 90.5706 52.8736 90.6066 52.6529 90.6438C50.4798 90.9732 48.327 91.0042 46.1325 90.9996C45.941 90.9995 45.7495 90.9994 45.5521 90.9993C42.4752 90.9914 39.5308 90.8201 36.5197 90.143C36.3249 90.1 36.1302 90.057 35.9295 90.0127C32.3597 89.2035 29.0306 88.0077 25.7223 86.4594C25.4306 86.324 25.4307 86.324 25.1331 86.1859C24.2564 85.7651 23.4139 85.3567 22.6418 84.7637C20.3416 83.0482 18.2633 83.0156 15.4616 83.0558C15.019 83.0551 14.5765 83.0535 14.1339 83.0511C12.9796 83.047 11.8256 83.0546 10.6713 83.0647C9.4893 83.0729 8.30729 83.07 7.12524 83.0681C4.81371 83.0659 2.50242 83.076 0.190972 83.0941C0.182616 82.5599 0.17651 82.0259 0.171691 81.4917C0.169106 81.3413 0.166521 81.1908 0.163858 81.0358C0.151589 79.222 0.770149 78.0915 2.0088 76.7741C3.35501 75.4914 4.73404 75.1857 6.53369 75.1886C6.78081 75.1882 6.78081 75.1882 7.03293 75.1878C8.42675 75.2113 9.57297 75.4778 10.8527 76.0452C10.9225 75.2436 10.9225 75.2436 10.6267 74.5231C10.4637 74.3679 10.4637 74.3679 10.2974 74.2095C2.84826 66.3605 -0.292152 54.2379 0.0212495 43.7349C0.476094 32.9935 4.67828 22.4824 12.1676 14.6642C12.6344 14.1794 12.6344 14.1794 13.0407 13.6576C13.3833 13.2368 13.7195 12.9035 14.1351 12.5562C14.568 12.191 14.995 11.8256 15.4084 11.4388C18.2262 8.81017 21.4607 6.75422 24.8708 4.96888C25.0233 4.88843 25.1758 4.80797 25.333 4.72508C29.4997 2.55992 34.0604 1.21911 38.6915 0.465423C38.9057 0.429393 39.12 0.393362 39.3407 0.35624C41.5137 0.0267575 43.6666 -0.00420327 45.861 0.000391981Z" fill="#4DA6E9"/>
<path d="M25.4631 4.77308C25.4631 6.32383 25.4631 7.87459 25.4631 9.47234C25.8541 9.60157 26.245 9.7308 26.6478 9.86394C26.8845 9.99306 27.1189 10.1268 27.3496 10.2663C29.1061 11.1517 31.6784 11.0798 33.5581 10.6472C34.5176 10.1124 35.1254 9.35136 35.7701 8.48644C36.0415 8.14804 36.0415 8.14804 36.3223 7.90592C36.9794 7.89827 36.9794 7.89827 37.7043 8.10172C37.9736 8.14411 38.2431 8.18563 38.5126 8.22639C40.9729 8.75361 42.0002 9.99121 43.3471 12.0428C44.2198 13.4498 44.2198 13.4498 44.2198 14.3674C43.8211 14.8517 43.8211 14.8517 43.2696 15.3862C43.1732 15.4807 43.0768 15.5752 42.9775 15.6726C42.6695 15.9737 42.3588 16.2719 42.048 16.5702C41.8385 16.774 41.6293 16.9779 41.4202 17.1821C40.9076 17.6818 40.3925 18.1791 39.8762 18.6751C39.918 18.8035 39.9599 18.9319 40.003 19.0643C40.1917 19.6441 40.3794 20.2243 40.5672 20.8044C40.6661 21.1077 40.6661 21.1077 40.7669 21.4171C40.8605 21.7067 40.8605 21.7067 40.9559 22.0022C41.0138 22.1806 41.0717 22.359 41.1314 22.5428C41.2582 22.9827 41.2582 22.9827 41.2582 23.3743C42.8219 23.3743 44.3857 23.3743 45.9968 23.3743C46.7155 24.9042 47.3685 26.4497 47.9863 28.0222C48.1342 28.3983 48.283 28.7741 48.432 29.1497C49.1558 30.9838 49.1558 30.9838 49.1558 31.2064C47.8003 31.1354 46.4808 30.9732 45.1492 30.7207C45.0065 30.6939 44.8638 30.6671 44.7168 30.6395C44.1259 30.5278 43.5353 30.4148 42.9456 30.2974C40.6097 29.8097 40.6097 29.8097 38.2966 30.2274C38.1651 30.2701 38.0336 30.3128 37.8981 30.3568C37.3848 30.5256 36.8774 30.7083 36.3705 30.8947C35.6702 31.1396 35.2467 31.2571 34.5453 31.0106C31.9517 29.1037 31.0282 26.7892 30.2017 23.7659C29.2325 24.0559 28.3703 24.4586 27.4745 24.9163C26.3561 25.48 25.2347 26.0168 24.0811 26.5072C24.4582 27.7878 24.8689 29.0523 25.3112 30.3123C25.4631 30.8148 25.4631 30.8148 25.4631 31.4022C25.6952 31.4689 25.6952 31.4689 25.932 31.5368C26.8695 31.8734 27.7378 32.3187 28.6222 32.7728C27.7656 34.4226 26.7093 35.9392 25.6606 37.4721C24.7623 37.3805 24.0519 37.2052 23.2137 36.8511C20.8748 35.8815 18.4894 35.9015 15.9861 35.9057C15.9791 36.6933 15.9874 37.48 15.9984 38.2675C15.9952 38.6005 15.9952 38.6005 15.9919 38.9402C16.0131 39.9705 16.0302 40.7982 16.7357 41.5977C17.8313 42.4996 19.2655 42.7451 20.6178 43.0758C22.1468 43.5097 22.1468 43.5097 22.6098 44.181C22.8141 44.6821 22.9624 45.1716 23.0939 45.6958C23.1763 45.9217 23.2588 46.1476 23.3438 46.3803C23.4079 46.5704 23.472 46.7605 23.5381 46.9563C23.6374 47.2467 23.6374 47.2467 23.7386 47.5429C23.8836 48.0454 23.8836 48.0454 23.8836 48.6328C23.6876 48.73 23.4917 48.8272 23.2898 48.9273C23.1613 48.9911 23.0329 49.0548 22.9006 49.1205C22.616 49.2615 22.3312 49.402 22.0462 49.5422C21.3391 49.8907 20.636 50.2436 19.941 50.6153C19.7582 50.7113 19.7582 50.7113 19.5717 50.8092C19.2366 50.9855 18.9031 51.1648 18.5697 51.3442C17.691 51.6696 17.0732 51.5002 16.222 51.1393C16.036 51.0431 15.85 50.9469 15.6583 50.8479C15.4528 50.7434 15.2473 50.6389 15.0355 50.5312C14.7181 50.3669 14.7181 50.3669 14.3942 50.1993C13.9729 49.982 13.5511 49.7657 13.1286 49.5507C12.9428 49.4545 12.757 49.3583 12.5656 49.2593C12.055 49.0323 11.6012 48.9129 11.0501 48.8286C10.9167 49.0412 10.7834 49.2537 10.646 49.4726C10.4681 49.7556 10.2902 50.0386 10.1123 50.3216C10.0247 50.4612 9.93717 50.6008 9.84696 50.7446C9.33962 51.5511 8.82227 52.3484 8.28596 53.1363C7.46897 53.0284 7.01394 52.7605 6.34859 52.2919C5.44642 51.7808 4.8951 51.7203 3.91401 51.9445C3.38517 52.0906 2.86291 52.249 2.34313 52.4242C1.76308 52.617 1.17489 52.7771 0.585848 52.9405C-1.19904 41.0997 1.38762 28.7432 8.52196 18.9749C9.655 17.4604 10.8581 16.0312 12.1676 14.6642C12.6344 14.1794 12.6344 14.1794 13.0407 13.6576C13.3833 13.2368 13.7195 12.9035 14.1351 12.5562C14.568 12.191 14.995 11.8256 15.4084 11.4388C22.5538 4.77308 22.5538 4.77308 25.4631 4.77308Z" fill="#C6D853"/>
<path d="M73.2223 48.7348C76.3718 49.3749 81.3161 50.5689 83.7076 52.9405C84.2623 52.9719 84.8128 52.9913 85.3681 53.0024C85.5343 53.0065 85.7006 53.0106 85.8718 53.0148C86.405 53.0276 86.9381 53.0391 87.4712 53.0506C87.8318 53.0591 88.1924 53.0676 88.5529 53.0762C89.4387 53.0973 90.3244 53.1171 91.2102 53.1363C90.3504 61.6929 85.7334 70.1689 79.8259 76.3358C79.359 76.8208 79.359 76.8208 78.9521 77.3431C78.6129 77.7598 78.2826 78.0884 77.8708 78.4315C77.4147 78.816 76.9684 79.2028 76.5342 79.6117C73.9878 82.0051 68.6205 86.8143 64.9509 86.8143C64.9605 86.5217 64.9605 86.5217 64.9704 86.2232C65.2001 80.9874 65.2001 80.9874 62.6785 76.5679C62.379 76.2352 62.1514 75.893 61.9114 75.5167C61.3627 74.7386 60.698 74.4426 59.8298 74.0872C58.2797 73.4197 56.7953 72.6865 55.2764 71.9333C55.2764 68.7672 55.2764 65.6011 55.2764 62.339C56.103 62.0038 56.9297 61.6686 57.7814 61.3233C58.0363 61.2197 58.2913 61.1162 58.5539 61.0095C58.764 60.9245 58.974 60.8395 59.1905 60.7519C59.4253 60.6562 59.6601 60.5605 59.9021 60.4619C60.3637 60.2808 60.8294 60.1094 61.2989 59.9494C62.7957 59.434 63.7566 58.8423 64.8151 57.6765C65.0097 57.473 65.0097 57.473 65.2081 57.2654C65.5213 56.9366 65.8301 56.6049 66.1355 56.2691C65.4483 55.4582 64.7501 54.6757 63.9884 53.9317C63.757 53.705 63.757 53.705 63.521 53.4736C63.4065 53.3623 63.2919 53.251 63.1739 53.1363C63.7299 52.4928 64.457 52.1129 65.1853 51.6915C65.3233 51.6107 65.4613 51.5299 65.6035 51.4466C66.0436 51.1891 66.4844 50.9328 66.9253 50.6765C67.366 50.4193 67.8065 50.1619 68.247 49.9044C68.5209 49.7444 68.7949 49.5846 69.0691 49.4251C70.7247 48.4605 71.3389 48.3986 73.2223 48.7348Z" fill="#C6D853"/>
<path d="M62.7791 3.20666C67.2958 3.79609 72.2046 7.69168 75.5898 10.5721C76.0776 10.8884 76.3446 10.9174 76.9222 10.9225C77.1856 10.9289 77.1856 10.9289 77.4543 10.9355C77.6365 10.9373 77.8188 10.939 78.0065 10.9409C80.298 10.9636 82.4022 11.3463 84.0986 12.9823C84.8808 13.8316 85.4845 14.5455 85.4845 15.738C85.6326 15.7171 85.7808 15.6961 85.9334 15.6745C87.6143 15.4793 88.9433 15.5764 90.3958 16.4845C91.3346 17.4429 91.7902 18.3299 92 19.6541C91.9348 20.4294 91.8697 21.2048 91.8026 22.0037C89.7176 22.0037 87.6327 22.0037 85.4845 22.0037C85.8755 22.7266 86.2664 23.4495 86.6692 24.1942C88.9528 28.5086 91.3721 33.8664 91.2102 38.8427C91.1007 38.7883 90.9912 38.7339 90.8784 38.6778C90.3814 38.4326 89.8827 38.191 89.3839 37.9494C89.2116 37.8637 89.0393 37.778 88.8618 37.6897C88.6117 37.5695 88.6117 37.5695 88.3566 37.4469C88.2036 37.372 88.0506 37.2971 87.8929 37.22C87.3796 37.055 87.164 37.0714 86.6691 37.2763C86.3333 37.5291 86.3333 37.5291 86.0306 37.8522C85.9173 37.9664 85.804 38.0807 85.6873 38.1983C85.5136 38.378 85.5136 38.378 85.3364 38.5612C85.2176 38.6818 85.0987 38.8023 84.9763 38.9265C84.6836 39.2236 84.3929 39.5225 84.1024 39.8217C83.0387 39.3704 82.2787 38.5293 81.46 37.7406C81.2638 37.5536 81.0654 37.3688 80.8648 37.1865C79.215 35.6857 79.215 35.6857 79.1083 34.8779C79.2111 34.4084 79.3761 33.9998 79.5613 33.556C79.6659 33.1574 79.7648 32.7572 79.859 32.356C79.9652 31.936 80.0717 31.5161 80.1783 31.0963C80.2331 30.8801 80.2878 30.6639 80.3442 30.4412C80.4779 29.913 80.6118 29.3849 80.746 28.8568C80.6325 28.8485 80.5191 28.8402 80.4022 28.8316C78.7767 28.6935 77.2082 28.3599 75.6153 28.0204C75.4059 27.9771 75.1966 27.9338 74.9809 27.8892C74.7939 27.8495 74.607 27.8097 74.4143 27.7687C73.1182 27.5744 72.2986 27.6737 71.137 28.2885C71.0182 28.3498 70.8993 28.4111 70.7768 28.4743C70.4005 28.6685 70.0263 28.8662 69.6524 29.0648C69.2763 29.2639 68.8998 29.4621 68.5216 29.6575C68.18 29.8339 67.8402 30.0138 67.5005 30.1938C66.9253 30.4232 66.9253 30.4232 66.5134 30.4145C65.5258 29.9256 64.7744 29.0119 64.0007 28.2449C63.9001 28.1453 63.7994 28.0457 63.6957 27.9431C62.2507 26.5005 60.9559 25.0135 59.8051 23.3254C59.6783 23.1464 59.5515 22.9674 59.4208 22.783C58.8186 21.8479 58.5385 21.2364 58.7424 20.1252C58.8358 19.7719 58.9308 19.419 59.0277 19.0667C59.069 18.7604 59.105 18.4534 59.1349 18.1458C59.4671 15.5999 60.5102 14.3564 62.4383 12.7084C62.8678 12.3315 63.2458 11.9236 63.6182 11.4916C63.7128 11.3818 63.8075 11.272 63.9051 11.1588C64.1969 10.7989 64.4762 10.4309 64.7534 10.0597C64.5091 10.0113 64.2648 9.96282 64.013 9.91289C63.2304 9.73739 62.461 9.53236 61.6931 9.30101C61.4916 9.24094 61.29 9.18087 61.0823 9.11898C60.6072 8.88493 60.6072 8.88493 60.4508 8.5473C60.3938 7.92768 60.5928 7.56521 60.8587 7.00416C60.9564 6.79555 61.0541 6.58694 61.1548 6.372C61.2592 6.15532 61.3635 5.93863 61.471 5.71538C61.5738 5.49642 61.6767 5.27746 61.7826 5.05187C62.5451 3.43871 62.5451 3.43871 62.7791 3.20666Z" fill="#C6D853"/>
<path d="M26.2606 70.318C26.7381 70.6421 27.1872 70.9829 27.635 71.3459C27.8101 71.463 27.9852 71.5802 28.1656 71.7008C29.2053 72.6762 30.0369 73.956 30.5965 75.262C30.5965 75.3912 30.5965 75.5204 30.5965 75.6536C30.7286 75.5907 30.8607 75.5279 30.9968 75.4631C32.7898 74.8486 34.9164 75.119 36.5945 75.9274C38.2312 76.9192 39.0772 78.1718 39.6787 79.9612C39.6787 80.9951 39.6787 82.0289 39.6787 83.0941C26.6478 83.0941 13.6168 83.0941 0.190972 83.0941C0.190972 78.7075 0.190972 78.7075 2.0088 76.7741C3.35501 75.4914 4.73404 75.1857 6.53369 75.1886C6.78081 75.1882 6.78081 75.1882 7.03293 75.1878C8.42675 75.2113 9.57297 75.4778 10.8527 76.0452C10.8748 75.9028 10.8969 75.7605 10.9198 75.6138C11.406 73.5708 13.1598 71.7273 14.8755 70.5994C18.3792 68.5165 22.6628 68.2634 26.2606 70.318Z" fill="#CCEDF5"/>
<path d="M38.7016 48.6106C38.9679 48.6106 39.2342 48.6118 39.5006 48.6137C39.7105 48.6141 39.7105 48.6141 39.9247 48.6146C40.3733 48.6157 40.8219 48.6181 41.2706 48.6206C41.5741 48.6216 41.8775 48.6225 42.181 48.6233C42.9264 48.6254 43.6718 48.6288 44.4173 48.6328C44.9042 49.5447 45.3895 50.4575 45.8718 51.3718C46.1765 51.9492 46.4845 52.5243 46.8004 53.0958C46.9098 53.2989 47.0193 53.5021 47.132 53.7115C47.2288 53.8869 47.3255 54.0623 47.4251 54.243C47.5763 54.7027 47.5763 54.7027 47.4438 55.0647C47.1174 55.5887 46.7316 55.9828 46.2929 56.419C46.0303 56.6803 46.0303 56.6803 45.7623 56.9468C45.5791 57.127 45.3958 57.3072 45.207 57.4929C45.0238 57.6761 44.8405 57.8594 44.6517 58.0482C44.4766 58.2213 44.3015 58.3945 44.1211 58.5729C43.9602 58.732 43.7994 58.891 43.6337 59.0549C43.2326 59.402 43.2326 59.402 42.8377 59.402C42.8877 59.5867 42.9376 59.7713 42.989 59.9616C43.1738 60.6487 43.3547 61.3368 43.5343 62.0252C43.6125 62.3227 43.6918 62.6199 43.7722 62.9168C43.8878 63.3443 43.9994 63.7727 44.1103 64.2014C44.1469 64.3334 44.1835 64.4654 44.2212 64.6014C44.4294 65.4262 44.4384 65.9005 44.0224 66.6467C43.8356 66.9529 43.6397 67.2537 43.4362 67.5492C43.3235 67.713 43.2107 67.8768 43.0946 68.0456C42.9772 68.2139 42.8599 68.3823 42.739 68.5557C42.6217 68.7271 42.5044 68.8985 42.3835 69.0751C41.5061 70.3419 41.5061 70.3419 41.0608 70.5627C40.5936 70.4691 40.1428 70.3621 39.6833 70.2392C39.5481 70.2041 39.4128 70.1691 39.2734 70.133C38.8405 70.0205 38.4082 69.9062 37.9758 69.7917C37.6828 69.7153 37.3897 69.6389 37.0966 69.5627C36.3774 69.3753 35.6587 69.1863 34.9402 68.9963C34.957 68.8693 34.9737 68.7423 34.991 68.6115C35.1487 67.1608 35.2564 65.6867 34.7428 64.297C33.8514 63.2568 32.6714 62.6528 31.4773 62.0094C30.3515 61.39 29.7178 60.6534 29.017 59.5978C28.9212 59.4606 28.8254 59.3234 28.7267 59.182C28.4602 58.7977 28.2008 58.4096 27.9435 58.0191C27.8555 57.887 27.7676 57.7549 27.677 57.6187C27.4649 57.2998 27.2537 56.9803 27.0426 56.6607C28.271 55.3659 30.1959 53.5089 32.0294 53.2753C32.4552 53.2876 32.8749 53.3171 33.299 53.3566C33.9123 53.4052 34.3744 53.39 34.9402 53.1363C36.0819 52.0271 36.8787 50.6138 37.6608 49.2432C38.0138 48.636 38.0138 48.636 38.7016 48.6106Z" fill="#C7D852"/>
<path d="M75.81 10.843C76.493 10.859 77.1757 10.8811 77.8584 10.9041C78.0491 10.9086 78.2397 10.913 78.4361 10.9175C80.5707 10.9957 82.5322 11.4717 84.0986 12.9823C84.8808 13.8316 85.4845 14.5455 85.4845 15.738C85.6326 15.7171 85.7808 15.6961 85.9334 15.6745C87.6143 15.4793 88.9433 15.5764 90.3958 16.4845C91.3346 17.4429 91.7902 18.3299 92 19.6541C91.9348 20.4294 91.8697 21.2048 91.8026 22.0037C82.4203 22.0037 73.038 22.0037 63.3714 22.0037C63.3714 18.4267 63.3714 18.4267 64.3586 17.3044C64.8539 16.855 65.3643 16.4747 65.9381 16.1296C66.0529 16.0552 66.1676 15.9807 66.2859 15.904C66.9356 15.66 67.5741 15.6969 68.258 15.7135C68.3957 15.7153 68.5334 15.7171 68.6752 15.7189C69.0133 15.7235 69.3514 15.7305 69.6894 15.738C69.7681 15.4238 69.7681 15.4238 69.8483 15.1032C70.2966 13.7055 71.3501 12.7475 72.6147 12.0239C73.6511 11.5385 74.6631 11.2346 75.81 11.2346C75.81 11.1053 75.81 10.9761 75.81 10.843Z" fill="#CDEDF5"/>
<path d="M72.2561 51.9615C72.9178 52.2737 72.9178 52.2737 73.5641 52.6743C73.6809 52.7456 73.7976 52.8169 73.9179 52.8903C74.287 53.1166 74.6536 53.3466 75.0203 53.5768C75.2659 53.7283 75.5116 53.8795 75.7576 54.0304C75.9972 54.178 76.2368 54.3256 76.4764 54.4733C76.5931 54.5449 76.7098 54.6166 76.83 54.6905C77.3057 54.9846 77.7729 55.2818 78.2256 55.61C79.3388 56.4056 80.387 56.4207 81.7332 56.4282C81.9426 56.4331 82.1521 56.4381 82.3679 56.4431C82.8802 56.4546 83.3926 56.4603 83.905 56.4649C83.905 57.4988 83.905 58.5326 83.905 59.5978C79.1086 60.2182 76.4468 58.727 72.651 56.0733C72.4555 55.9441 72.2601 55.8149 72.0587 55.6817C72.0251 55.8168 71.9915 55.9518 71.9569 56.0909C71.909 56.2749 71.8612 56.4589 71.8119 56.6485C71.7661 56.828 71.7203 57.0074 71.6731 57.1923C71.1274 58.8905 70.2631 60.3343 69.2699 61.8128C69.1487 62.0037 69.0276 62.1947 68.9027 62.3914C68.0208 63.7025 67.274 64.2849 65.7406 64.6886C65.5227 64.7529 65.5227 64.7529 65.3004 64.8185C64.8978 64.9327 64.4944 65.0331 64.0871 65.1292C63.9519 65.163 63.8168 65.1968 63.6776 65.2317C63.0223 65.3907 62.4715 65.4718 61.7919 65.4718C61.7966 65.9415 61.7966 65.9415 61.9893 66.4509C62.5193 66.8277 62.5193 66.8277 63.1971 67.1186C63.3786 67.205 63.3786 67.205 63.5638 67.2931C63.9506 67.4768 64.3394 67.6555 64.7288 67.8337C65.1164 68.0131 65.5035 68.1935 65.8895 68.3764C66.2405 68.5424 66.5932 68.7048 66.946 68.8671C67.8502 69.3812 68.148 69.9647 68.4701 70.9237C68.5305 71.1032 68.591 71.2826 68.6532 71.4675C68.7142 71.6536 68.7752 71.8396 68.838 72.0312C68.9012 72.2173 68.9644 72.4033 69.0296 72.5949C69.2986 73.4036 69.492 74.0095 69.492 74.8704C69.1098 75.002 68.7272 75.1323 68.3444 75.262C68.1313 75.3347 67.9183 75.4074 67.6988 75.4822C67.1227 75.6536 67.1227 75.6536 66.5304 75.6536C66.4993 75.405 66.4683 75.1563 66.4363 74.9002C66.1442 73.4175 65.7857 72.1987 64.5111 71.2764C63.0254 70.3986 61.4162 69.7344 59.8142 69.0969C59.2057 68.7907 58.9469 68.6113 58.6328 68.0173C58.5074 67.3079 58.5322 66.5949 58.5341 65.8757C58.5285 65.682 58.5229 65.4883 58.5172 65.2887C58.5166 65.101 58.5161 64.9133 58.5156 64.72C58.5142 64.5496 58.5128 64.3793 58.5114 64.2038C58.6898 63.4778 59.0361 63.1902 59.62 62.7306C60.2326 62.5278 60.2326 62.5278 60.9134 62.4109C61.1614 62.3619 61.4095 62.313 61.665 62.2625C62.1826 62.1653 62.7003 62.076 63.2198 61.9887C64.5722 61.7143 65.4078 61.4756 66.2427 60.3458C66.4752 59.9689 66.703 59.5891 66.9253 59.2062C67.1356 58.9214 67.3468 58.6373 67.5592 58.3541C68.2811 57.2674 68.6332 56.0583 69.0231 54.8251C69.1671 54.37 69.3136 53.9156 69.4627 53.4621C69.5254 53.2631 69.5882 53.0641 69.6529 52.8591C70.215 51.6433 71.039 51.6368 72.2561 51.9615Z" fill="#8EC13F"/>
<path d="M16.5984 28.2503C16.8377 28.2509 17.0769 28.2515 17.3234 28.2522C17.5744 28.2538 17.8253 28.2554 18.0839 28.2571C18.3363 28.258 18.5888 28.2589 18.8489 28.2598C19.4742 28.2621 20.0994 28.2656 20.7246 28.2694C20.7246 29.3032 20.7246 30.3371 20.7246 31.4022C20.4642 31.3777 20.2039 31.3533 19.9356 31.328C17.9913 31.2308 16.5727 31.3628 15.0767 32.6876C14.9289 32.8328 14.781 32.9781 14.6287 33.1277C14.4832 33.2658 14.3378 33.4038 14.188 33.5461C13.6284 34.1522 13.2558 34.6259 13.1623 35.4562C13.2047 36.0764 13.302 36.6656 13.4194 37.2763C13.4571 37.5166 13.4948 37.7568 13.5337 38.0044C13.656 38.779 13.789 39.5512 13.9253 40.3235C14.0167 40.8458 14.1072 41.3682 14.1976 41.8907C14.2377 42.1187 14.2778 42.3468 14.3191 42.5817C14.4066 43.1504 14.4066 43.1504 14.4066 43.7378C14.0654 43.8041 13.7239 43.8691 13.3823 43.9336C13.1922 43.9699 13.0021 44.0063 12.8062 44.0437C12.2745 44.1234 11.7838 44.1357 11.2475 44.1294C11.016 42.8444 10.7878 41.5588 10.5619 40.2728C10.4847 39.8357 10.4067 39.3987 10.328 38.9619C10.2147 38.3328 10.1042 37.7033 9.99427 37.0736C9.9587 36.8794 9.92313 36.6852 9.88648 36.485C9.47891 34.1129 9.47891 34.1129 10.081 33.2456C10.3702 32.9165 10.6746 32.6162 10.9938 32.3155C11.1065 32.2049 11.2193 32.0943 11.3354 31.9803C11.6942 31.6298 12.0569 31.2836 12.4198 30.9372C12.6632 30.7001 12.9062 30.4627 13.149 30.2251C15.1851 28.2437 15.1851 28.2437 16.5984 28.2503Z" fill="#8EC13F"/>
<path d="M23.8836 12.0178C23.9096 12.1738 23.9355 12.3297 23.9623 12.4904C24.2009 13.2684 24.4259 13.8549 25.0683 14.3674C26.5399 14.9614 28.1429 15.1968 29.7044 15.4494C30.2017 15.5422 30.2017 15.5422 30.5965 15.738C30.5026 16.1542 30.4078 16.5703 30.3127 16.9863C30.26 17.218 30.2074 17.4497 30.1531 17.6884C30.0042 18.2835 30.0042 18.2835 29.8068 18.6751C28.4194 18.5343 27.0801 18.2525 25.7223 17.9408C25.5022 17.8939 25.2822 17.8469 25.0555 17.7985C23.0318 17.332 23.0318 17.332 22.3041 16.3254C22.0239 15.8681 21.7822 15.4016 21.5514 14.9181C21.4899 14.795 21.4284 14.672 21.3651 14.5452C20.922 13.6423 20.922 13.6423 20.922 13.1926C21.3038 12.9953 21.6865 12.7999 22.0697 12.6052C22.2827 12.4961 22.4957 12.3871 22.7152 12.2748C23.2913 12.0178 23.2913 12.0178 23.8836 12.0178Z" fill="#8FC13F"/>
<path d="M76.0075 67.4299C77.0499 67.4299 78.0924 67.4299 79.1665 67.4299C79.1665 68.4637 79.1665 69.4976 79.1665 70.5627C78.124 70.5627 77.0815 70.5627 76.0075 70.5627C76.0075 69.5289 76.0075 68.495 76.0075 67.4299Z" fill="#8EC13F"/>
<path d="M69.6894 64.297C70.7319 64.297 71.7744 64.297 72.8484 64.297C72.8484 65.3309 72.8484 66.3647 72.8484 67.4299C71.806 67.4299 70.7635 67.4299 69.6894 67.4299C69.6894 66.396 69.6894 65.3622 69.6894 64.297Z" fill="#8EC13F"/>
<path d="M15.9861 20.4373C17.0285 20.4373 18.071 20.4373 19.1451 20.4373C19.1451 21.4711 19.1451 22.505 19.1451 23.5701C18.1026 23.5701 17.0601 23.5701 15.9861 23.5701C15.9861 22.5363 15.9861 21.5024 15.9861 20.4373Z" fill="#8EC13F"/>
<path d="M33.3607 15.738C34.4032 15.738 35.4456 15.738 36.5197 15.738C36.5197 16.7719 36.5197 17.8057 36.5197 18.8709C35.4772 18.8709 34.4347 18.8709 33.3607 18.8709C33.3607 17.837 33.3607 16.8032 33.3607 15.738Z" fill="#8EC13F"/>
</g>
<defs>
<filter id="filter0_d_200_139" x="0" y="0" width="92" height="94" filterUnits="userSpaceOnUse" color-interpolation-filters="sRGB">
<feFlood flood-opacity="0" result="BackgroundImageFix"/>
<feColorMatrix in="SourceAlpha" type="matrix" values="0 0 0 0 0 0 0 0 0 0 0 0 0 0 0 0 0 0 127 0" result="hardAlpha"/>
<feOffset dy="3"/>
<feComposite in2="hardAlpha" operator="out"/>
<feColorMatrix type="matrix" values="0 0 0 0 0 0 0 0 0 0 0 0 0 0 0 0 0 0 0.25 0"/>
<feBlend mode="normal" in2="BackgroundImageFix" result="effect1_dropShadow_200_139"/>
<feBlend mode="normal" in="SourceGraphic" in2="effect1_dropShadow_200_139" result="shape"/>
</filter>
</defs>
</svg>
