<svg width="84" height="87" viewBox="0 0 84 87" fill="none" xmlns="http://www.w3.org/2000/svg">
<g filter="url(#filter0_d_200_135)">
<path d="M32.5764 0.357572C32.7591 0.389361 32.9417 0.42115 33.1299 0.453902C33.7356 0.559783 34.3408 0.668243 34.9461 0.77672C35.3828 0.853608 35.8195 0.930352 36.2563 1.00692C37.3156 1.19298 38.3746 1.38096 39.4335 1.56961C40.6686 1.78958 41.9042 2.0076 43.1397 2.22554C45.3453 2.61466 47.5507 3.0055 49.7558 3.39735C51.8917 3.7769 54.0279 4.15528 56.1643 4.53235C56.2959 4.55558 56.4275 4.5788 56.5631 4.60274C56.6945 4.62593 56.8259 4.64912 56.9612 4.67301C57.2258 4.71971 57.4904 4.76641 57.755 4.81311C57.8855 4.83614 58.016 4.85918 58.1505 4.88291C60.1919 5.24326 62.2331 5.60466 64.2743 5.96617C65.012 6.09681 65.7497 6.2273 66.4874 6.35767C67.6579 6.56453 68.8283 6.77184 69.9985 6.98008C70.5326 7.07511 71.0667 7.16986 71.601 7.26416C72.1818 7.36672 72.7625 7.47015 73.3431 7.57379C73.5095 7.60298 73.676 7.63217 73.8474 7.66224C76.4471 8.12929 78.6493 8.78721 80.6729 10.5549C80.7719 10.6384 80.8708 10.7218 80.9728 10.8079C82.5842 12.2768 83.8139 14.595 83.9787 16.788C84.0977 19.4619 83.7013 21.9908 83.2237 24.6137C83.1447 25.0586 83.0667 25.5037 82.9886 25.9488C82.7995 27.0229 82.6072 28.0964 82.4137 29.1697C82.188 30.4226 81.9657 31.6762 81.7436 32.9297C81.3471 35.1669 80.9477 37.4036 80.5466 39.64C80.1582 41.8053 79.7716 43.971 79.387 46.1371C79.3633 46.2708 79.3396 46.4045 79.3151 46.5422C79.2197 47.0797 79.1243 47.6172 79.0289 48.1548C78.661 50.227 78.2918 52.2991 77.9223 54.3711C77.811 54.9952 77.6998 55.6193 77.5887 56.2435C77.3554 57.5539 77.1217 58.8641 76.8865 60.1742C76.7893 60.7152 76.6925 61.2564 76.5962 61.7976C76.4916 62.3856 76.3859 62.9735 76.28 63.5613C76.2501 63.7303 76.2203 63.8993 76.1895 64.0734C75.6813 66.8717 74.8803 69.1924 72.7988 71.2162C72.6716 71.3512 72.6716 71.3512 72.5418 71.489C71.4854 72.5201 69.8663 73.2501 68.4676 73.6851C67.8634 73.9039 67.817 74.2547 67.5493 74.8231C66.3711 76.089 64.5069 76.2053 62.8739 76.4926C62.6021 76.5414 62.6021 76.5414 62.3248 76.5912C61.7223 76.6993 61.1197 76.8061 60.517 76.9129C60.083 76.9905 59.649 77.0681 59.215 77.1457C57.9164 77.3779 56.6176 77.6085 55.3187 77.8389C54.705 77.9478 54.0912 78.0568 53.4775 78.1659C51.4338 78.529 49.3901 78.8918 47.3461 79.2533C46.817 79.3469 46.288 79.4404 45.7589 79.534C45.5617 79.5689 45.5617 79.5689 45.3605 79.6045C43.2336 79.9808 41.1073 80.3598 38.9811 80.7399C36.7914 81.1313 34.6013 81.5203 32.4109 81.9071C31.1837 82.1238 29.9568 82.3415 28.7303 82.5619C27.6852 82.7496 26.6398 82.9352 25.5939 83.1181C25.0619 83.2111 24.5302 83.3055 23.9988 83.402C19.5417 84.2098 15.5866 84.59 11.7062 81.9293C9.05931 79.7793 8.24168 76.7916 7.69862 73.5922C7.63837 73.2502 7.57786 72.9083 7.51713 72.5665C7.37583 71.7678 7.23643 70.9688 7.09811 70.1696C6.84601 68.7135 6.58883 67.2583 6.3315 65.8031C5.69039 62.1771 5.05421 58.5503 4.41884 54.9233C4.20683 53.7131 3.99469 52.5029 3.78245 51.2927C3.75255 51.1222 3.72264 50.9517 3.69183 50.776C3.54208 49.9222 3.3923 49.0683 3.24248 48.2144C2.98082 46.723 2.71926 45.2315 2.45849 43.7399C2.3207 42.9518 2.18281 42.1637 2.04484 41.3756C2.01841 41.2247 1.99199 41.0737 1.96476 40.9182C1.62999 39.0072 1.28945 37.0974 0.941385 35.1888C0.86985 34.7941 0.798339 34.3994 0.726858 34.0047C0.603413 33.3232 0.477559 32.6423 0.349947 31.9616C-0.256192 28.6615 -0.213709 25.6287 1.60333 22.6872C3.72476 19.63 6.5885 18.4187 10.1485 17.7627C10.7606 17.6529 11.3733 17.5475 11.9862 17.4427C12.3152 17.3852 12.6442 17.3275 12.9731 17.2698C13.6566 17.1501 14.3403 17.0316 15.0241 16.914C15.9 16.7633 16.7754 16.6105 17.6508 16.457C18.3274 16.3384 19.0042 16.2205 19.6811 16.103C20.0041 16.0468 20.3272 15.9906 20.6502 15.9341C21.0998 15.8558 21.5496 15.7783 21.9995 15.7012C22.132 15.6779 22.2645 15.6547 22.401 15.6307C23.0206 15.5255 23.6124 15.4455 24.2415 15.4734C24.2548 15.3439 24.2682 15.2145 24.2819 15.0811C24.5378 12.8327 24.9423 10.6085 25.3383 8.38144C25.4418 7.7989 25.5435 7.21606 25.6448 6.63313C25.7241 6.17893 25.8044 5.72495 25.8851 5.27101C25.9414 4.95295 25.9965 4.63469 26.0516 4.31642C26.6053 1.23556 26.6053 1.23556 27.9223 0.256812C29.4007 -0.235708 31.0744 0.0836448 32.5764 0.357572Z" fill="#E54C3C"/>
<path d="M23.816 45.9584C23.9965 45.9916 24.1769 46.0249 24.3628 46.0591C24.7499 46.1306 25.1368 46.2025 25.5237 46.275C26.344 46.4285 27.1647 46.5794 27.9855 46.7305C28.3993 46.8067 28.813 46.883 29.2268 46.9594C30.8889 47.2663 32.5523 47.5639 34.2175 47.8534C34.3434 47.8754 34.4694 47.8973 34.5992 47.9199C36.3304 48.2216 38.0624 48.5189 39.7944 48.816C40.6114 48.9562 41.4284 49.0964 42.2454 49.2367C42.45 49.2718 42.6545 49.3069 42.8652 49.3431C45.6465 49.8209 48.4246 50.3129 51.2001 50.8228C53.5368 51.2518 55.8768 51.6583 58.2193 52.0546C58.5443 52.1098 58.8694 52.1649 59.1944 52.2201C60.5349 52.4475 61.8755 52.6743 63.217 52.8965C63.724 52.9809 64.2308 53.0668 64.7375 53.1532C64.9654 53.1917 65.1935 53.2295 65.4216 53.2665C68.665 53.793 71.7416 54.8553 73.8232 57.5443C75.6381 60.1246 76.2635 62.8985 75.8451 66.0006C75.3565 68.0263 74.2816 69.7744 72.7988 71.2162C72.6716 71.3512 72.6716 71.3512 72.5418 71.489C70.5775 73.406 67.8946 73.8904 65.2648 73.8643C64.1983 73.837 63.1552 73.6587 62.1051 73.4808C61.8783 73.4438 61.6514 73.4071 61.4246 73.3705C60.2915 73.1859 59.161 72.9882 58.0315 72.7827C57.8247 72.7451 57.6178 72.7075 57.4046 72.6688C57.0148 72.5972 56.6252 72.5243 56.2359 72.4499C56.0598 72.417 55.8837 72.3842 55.7022 72.3504C55.5501 72.3213 55.3979 72.2921 55.2412 72.2621C54.0603 72.1113 52.9852 72.2461 51.8228 72.4522C51.5918 72.4919 51.5918 72.4919 51.356 72.5323C50.8548 72.6185 50.3539 72.7064 49.853 72.7942C49.5023 72.8549 49.1516 72.9156 48.8009 72.9761C47.9334 73.1262 47.0661 73.2775 46.199 73.4295C45.7805 73.5029 45.362 73.576 44.9435 73.649C43.4737 73.9056 42.0046 74.1656 40.5357 74.4272C39.3569 74.6371 38.1781 74.8467 36.9993 75.0563C36.6826 75.1126 36.3659 75.1689 36.0492 75.2253C33.5998 75.661 31.1497 76.0925 28.6985 76.5183C27.1998 76.779 25.7023 77.0456 24.2056 77.3176C23.6991 77.4091 23.1926 77.5006 22.6861 77.5921C22.3593 77.6514 22.0327 77.7111 21.7061 77.7712C21.251 77.855 20.7957 77.9374 20.3403 78.0195C20.2065 78.0445 20.0726 78.0695 19.9347 78.0954C18.3219 78.3829 16.9932 78.3241 15.5753 77.4187C14.7158 76.7484 14.1423 75.8828 13.9067 74.8231C13.756 73.4374 13.9029 72.3611 14.7269 71.2162C16.0336 69.7071 17.623 69.4188 19.5207 69.0951C19.6757 69.0679 19.8306 69.0406 19.9902 69.0125C20.481 68.9264 20.972 68.8417 21.463 68.757C21.7876 68.7003 22.1122 68.6435 22.4367 68.5866C23.0677 68.4762 23.6988 68.3662 24.33 68.2568C25.5587 68.0436 26.7866 67.8266 28.0145 67.6093C26.7088 67.2755 25.398 67.0261 24.0691 66.8056C23.9067 66.7785 23.7443 66.7513 23.5769 66.7234C22.8988 66.6105 22.2205 66.4982 21.5418 66.3887C21.0408 66.3075 20.5403 66.2237 20.0398 66.1395C19.8882 66.1158 19.7366 66.092 19.5804 66.0675C18.4143 65.8683 17.3397 65.5667 16.5417 64.648C15.9276 63.774 15.9336 62.9082 16.0393 61.8711C16.4257 61.0691 16.9772 60.5905 17.6797 60.0676C18.2495 59.8778 18.7232 59.8924 19.3202 59.9037C19.361 59.6561 19.361 59.6561 19.4027 59.4035C19.5061 58.7777 19.6098 58.1519 19.7137 57.5261C19.7581 57.2578 19.8025 56.9894 19.8468 56.7211C20.1414 54.9357 20.4549 53.1553 20.7966 51.3783C20.6699 51.3568 20.5432 51.3352 20.4127 51.313C19.6304 51.1362 19.2492 50.6818 18.7768 50.0565C18.3674 49.2718 18.338 48.4675 18.4999 47.6075C19.5964 45.2841 21.658 45.5488 23.816 45.9584Z" fill="#802F34"/>
<path d="M24.2415 15.4734C23.9568 17.6135 23.5892 19.7395 23.2265 21.8674C23.1938 22.0599 23.161 22.2524 23.1273 22.4508C22.6985 24.9715 22.2547 27.4886 21.7838 30.0017C21.3739 32.1914 20.9937 34.3854 20.6223 36.5819C20.5947 36.7449 20.5671 36.908 20.5387 37.076C20.5114 37.2377 20.484 37.3993 20.4559 37.5659C20.4013 37.8884 20.3468 38.2108 20.2923 38.5333C20.2656 38.6908 20.239 38.8483 20.2115 39.0105C19.9544 40.5281 19.6903 42.0443 19.4227 43.56C19.4028 43.6732 19.3829 43.7864 19.3623 43.9031C19.1872 44.8979 19.0104 45.8914 18.8056 46.8806C18.5785 48.0028 18.4185 49.0981 18.9921 50.1384C19.4725 50.8123 20.0405 51.0709 20.7966 51.3783C20.7168 52.9911 20.4373 54.5546 20.1385 56.1379C20.0575 56.5679 19.978 56.9981 19.8988 57.4284C19.8479 57.7023 19.7968 57.9762 19.7457 58.2501C19.7219 58.3785 19.6981 58.5069 19.6737 58.6392C19.5033 59.5377 19.5033 59.5377 19.3202 59.9037C18.9857 59.9729 18.9857 59.9729 18.5615 60.0266C17.6734 60.1869 17.1121 60.5261 16.5314 61.2153C16.052 61.9822 16.1041 62.7998 16.2033 63.6745C16.4898 64.5627 17.0475 65.0263 17.8438 65.478C18.3214 65.6293 18.8039 65.7176 19.2971 65.8033C19.4391 65.8298 19.5811 65.8563 19.7274 65.8836C20.1927 65.9696 20.6586 66.0519 21.1247 66.1338C21.4494 66.1919 21.7742 66.2501 22.099 66.3083C23.0996 66.4862 24.1011 66.6586 25.1027 66.8306C25.4513 66.8907 25.7999 66.9509 26.1485 67.0112C26.9892 67.1563 27.8299 67.301 28.6707 67.4454C28.1887 67.7116 27.7634 67.8431 27.2215 67.9355C27.0641 67.9629 26.9067 67.9903 26.7446 68.0186C26.4898 68.0613 26.4898 68.0613 26.2299 68.105C26.0525 68.1357 25.8752 68.1665 25.6924 68.1981C25.1235 68.2966 24.5544 68.3937 23.9852 68.4905C20.9217 69.0116 20.9217 69.0116 17.8694 69.594C17.7442 69.6183 17.619 69.6426 17.4901 69.6677C16.5467 69.8646 15.8685 70.1762 15.219 70.8883C15.0313 71.0861 15.0313 71.0861 14.8397 71.2879C14.0713 72.4541 13.9079 73.4324 14.0707 74.8231C14.4598 76.2131 15.3009 77.0463 16.5314 77.7742C17.8475 78.346 19.171 78.0757 20.5338 77.8312C20.6989 77.8025 20.8639 77.7738 21.0339 77.7442C21.577 77.6494 22.1198 77.553 22.6626 77.4565C23.0469 77.3891 23.4313 77.3217 23.8156 77.2544C26.5119 76.7812 29.206 76.2959 31.8997 75.8082C34.9211 75.2612 37.9461 74.7364 40.9724 74.2176C44.0602 73.6882 47.146 73.1483 50.23 72.5972C50.4465 72.5586 50.4465 72.5586 50.6674 72.5191C50.9327 72.4717 51.1979 72.4242 51.4631 72.3766C51.7944 72.3173 52.1258 72.2586 52.4572 72.1999C52.7028 72.1517 52.7028 72.1517 52.9534 72.1026C54.2486 71.9258 55.4265 72.1224 56.7019 72.353C56.8862 72.3853 57.0706 72.4177 57.2606 72.451C57.8469 72.5541 58.433 72.6587 59.019 72.7635C59.6051 72.8674 60.1912 72.9709 60.7774 73.0742C61.1412 73.1383 61.5049 73.2029 61.8686 73.268C63.6619 73.5899 63.6619 73.5899 65.4783 73.6915C65.6295 73.6909 65.7807 73.6904 65.9364 73.6898C66.0898 73.6885 66.2431 73.6871 66.401 73.6857C66.5594 73.685 66.7178 73.6842 66.881 73.6834C67.2678 73.6815 67.6546 73.6788 68.0415 73.6754C67.6931 74.5377 67.4179 75.1746 66.5651 75.6428C65.3675 76.051 64.1172 76.2738 62.8739 76.4926C62.6021 76.5414 62.6021 76.5414 62.3248 76.5912C61.7223 76.6993 61.1197 76.8061 60.517 76.9129C60.083 76.9905 59.649 77.0681 59.215 77.1457C57.9164 77.3779 56.6176 77.6085 55.3187 77.8389C54.705 77.9478 54.0912 78.0568 53.4775 78.1659C51.4338 78.529 49.3901 78.8918 47.3461 79.2533C46.817 79.3469 46.288 79.4404 45.7589 79.534C45.5617 79.5689 45.5617 79.5689 45.3605 79.6045C43.2336 79.9808 41.1073 80.3598 38.9811 80.7399C36.7914 81.1313 34.6013 81.5203 32.4109 81.9071C31.1837 82.1238 29.9568 82.3415 28.7303 82.5619C27.6852 82.7496 26.6398 82.9352 25.5939 83.1181C25.0619 83.2111 24.5302 83.3055 23.9988 83.402C19.5417 84.2098 15.5866 84.59 11.7062 81.9293C9.05931 79.7793 8.24168 76.7916 7.69862 73.5922C7.63837 73.2502 7.57786 72.9083 7.51713 72.5665C7.37583 71.7678 7.23643 70.9688 7.09811 70.1696C6.84601 68.7135 6.58883 67.2583 6.3315 65.8031C5.69039 62.1771 5.05421 58.5503 4.41884 54.9233C4.20683 53.7131 3.99469 52.5029 3.78245 51.2927C3.75255 51.1222 3.72264 50.9517 3.69183 50.776C3.54208 49.9222 3.3923 49.0683 3.24248 48.2144C2.98082 46.723 2.71926 45.2315 2.45849 43.7399C2.3207 42.9518 2.18281 42.1637 2.04484 41.3756C2.01841 41.2247 1.99199 41.0737 1.96476 40.9182C1.62999 39.0072 1.28945 37.0974 0.941385 35.1888C0.86985 34.7941 0.798339 34.3994 0.726858 34.0047C0.603413 33.3232 0.477559 32.6423 0.349947 31.9616C-0.256192 28.6615 -0.213709 25.6287 1.60333 22.6872C3.72476 19.63 6.5885 18.4187 10.1485 17.7627C10.7606 17.6529 11.3733 17.5475 11.9862 17.4427C12.3152 17.3852 12.6442 17.3275 12.9731 17.2698C13.6566 17.1501 14.3403 17.0316 15.0241 16.914C15.9 16.7633 16.7754 16.6105 17.6508 16.457C18.3274 16.3384 19.0042 16.2205 19.6811 16.103C20.0041 16.0468 20.3272 15.9906 20.6502 15.9341C21.0998 15.8558 21.5496 15.7783 21.9995 15.7012C22.132 15.6779 22.2645 15.6547 22.401 15.6307C23.0206 15.5255 23.6124 15.4455 24.2415 15.4734Z" fill="#35495D"/>
<path d="M31.39 22.4425C31.5465 22.4638 31.7031 22.4852 31.8645 22.5072C32.0531 22.5313 32.2417 22.5553 32.4361 22.5801C32.6574 22.6152 32.8787 22.651 33.0999 22.6872C33.2241 22.7062 33.3482 22.7252 33.4761 22.7448C34.5288 22.9065 35.5778 23.0879 36.6269 23.2712C36.969 23.3303 37.3112 23.3893 37.6533 23.4483C38.7059 23.6301 39.758 23.8142 40.81 23.9987C40.9714 24.027 41.1327 24.0553 41.299 24.0844C44.2086 24.5946 47.1168 25.1132 50.0228 25.644C50.1736 25.6715 50.3245 25.699 50.4799 25.7274C51.2308 25.8645 51.9816 26.0021 52.7323 26.1405C54.2621 26.4215 55.793 26.687 57.3292 26.9306C57.6418 26.9809 57.9543 27.0313 58.2669 27.0817C58.8573 27.1769 59.4482 27.2677 60.0396 27.3562C60.3059 27.3989 60.5721 27.4416 60.8382 27.4846C60.9582 27.5013 61.0781 27.518 61.2017 27.5352C61.778 27.632 62.1474 27.7777 62.6271 28.1153C63.3093 29.0983 62.9058 30.3823 62.7094 31.4956C62.6833 31.6481 62.6573 31.8005 62.6305 31.9576C62.5454 32.454 62.4586 32.9502 62.3717 33.4463C62.312 33.7903 62.2524 34.1343 62.1928 34.4783C62.0409 35.3522 61.8873 36.2258 61.7331 37.0993C61.6471 37.5874 61.5618 38.0757 61.4768 38.564C61.3498 39.2921 61.221 40.02 61.0906 40.7475C61.0427 41.0155 60.9953 41.2837 60.9485 41.5519C60.8835 41.9231 60.8163 42.2939 60.7485 42.6647C60.7113 42.8723 60.6742 43.08 60.6359 43.294C60.483 43.8845 60.2767 44.3831 59.8392 44.8203C57.8678 45.04 55.9176 44.5726 53.9928 44.2042C53.3958 44.09 52.7985 43.9782 52.2009 43.867C51.5805 43.7516 50.9601 43.6361 50.3399 43.5198C48.5323 43.1812 46.7222 42.8582 44.9108 42.5412C44.2367 42.4232 43.5628 42.3046 42.8888 42.1861C42.3608 42.0932 41.8328 42.0004 41.3048 41.9077C39.4268 41.5776 37.549 41.2466 35.6714 40.9145C34.9912 40.7942 34.3109 40.6742 33.6305 40.5545C33.1063 40.4621 32.5822 40.3692 32.058 40.2765C31.8697 40.2434 31.6814 40.2104 31.4875 40.1763C30.7055 40.0375 29.9243 39.8959 29.1466 39.735C29.0341 39.7117 28.9216 39.6885 28.8058 39.6645C28.2364 39.4921 28.0046 39.2465 27.6865 38.7542C27.5653 37.6803 27.7348 36.6137 27.9332 35.5597C27.9592 35.4151 27.9852 35.2704 28.012 35.1213C28.0968 34.6515 28.1837 34.1821 28.2709 33.7128C28.3308 33.3857 28.3907 33.0587 28.4505 32.7316C28.5422 32.2303 28.6341 31.7291 28.7266 31.228C28.9035 30.2681 29.0743 29.3074 29.2374 28.3451C29.3346 27.7723 29.4341 27.1999 29.534 26.6275C29.5801 26.3594 29.6252 26.0911 29.6693 25.8227C29.7306 25.45 29.7959 25.0782 29.862 24.7064C29.8974 24.4975 29.9329 24.2886 29.9694 24.0734C30.2098 23.3072 30.5301 22.6067 31.39 22.4425Z" fill="#EBEFF0"/>
<path d="M74.1111 7.9317C76.6318 7.91058 78.7904 8.91049 80.6729 10.5549C80.7719 10.6384 80.8708 10.7218 80.9728 10.8079C82.584 12.2766 83.815 14.5957 83.9786 16.7887C84.0956 19.4471 83.7066 21.9595 83.231 24.567C83.1528 25.0068 83.0756 25.4468 82.9983 25.8867C82.8327 26.8262 82.6649 27.7652 82.4956 28.704C82.2507 30.0612 82.0093 31.4191 81.7687 32.7771C81.3781 34.9814 80.9847 37.1853 80.5896 39.3888C80.2062 41.5268 79.8242 43.6651 79.4439 45.8036C79.4086 46.002 79.4086 46.002 79.3726 46.2044C79.2546 46.868 79.1366 47.5316 79.0186 48.1953C78.0429 53.6836 77.0628 59.1712 76.0797 64.6582C76.0255 64.6582 75.9714 64.6582 75.9156 64.6582C75.9133 64.523 75.911 64.3877 75.9086 64.2484C75.7785 61.0993 74.6239 58.3268 72.3066 56.1329C70.2969 54.4415 67.9517 53.923 65.4168 53.5097C65.4168 53.4556 65.4168 53.4015 65.4168 53.3457C65.6874 53.3457 65.9581 53.3457 66.237 53.3457C66.2412 53.2241 66.2454 53.1025 66.2498 52.9773C66.3507 51.0384 66.7092 49.1558 67.0572 47.2488C67.1233 46.882 67.1892 46.5151 67.255 46.1482C67.3575 45.5772 67.4601 45.0061 67.5632 44.4352C67.8062 43.0896 68.0447 41.7432 68.2805 40.3963C68.3131 40.2102 68.3457 40.0242 68.3793 39.8326C68.5055 39.1122 68.6318 38.3918 68.7575 37.6713C69.0771 35.8417 69.4113 34.0172 69.7823 32.1972C70.0293 30.9755 70.2302 29.7496 70.4201 28.5176C70.6697 26.9282 70.9379 25.3448 71.2487 23.766C71.4579 22.6957 71.6392 21.622 71.8145 20.5456C72.007 19.365 72.2161 18.1916 72.4604 17.0206C72.8022 15.3793 73.062 13.7257 73.3175 12.0691C73.535 10.6769 73.8011 9.30622 74.1111 7.9317Z" fill="#C03A2B"/>
<path d="M20.7966 51.5423C23.1876 51.7086 25.5259 52.1078 27.8791 52.5444C30.6851 53.0645 33.4949 53.5583 36.3091 54.0322C38.5057 54.4023 40.6994 54.78 42.8882 55.1944C44.4308 55.4846 45.9784 55.7414 47.5282 55.9895C48.6261 56.1679 49.7159 56.3704 50.8052 56.594C52.2302 56.8848 53.6605 57.1384 55.0941 57.3823C55.2039 57.401 55.3138 57.4197 55.4269 57.439C56.3388 57.5941 57.2508 57.7482 58.1629 57.902C59.8164 58.1807 61.4689 58.4641 63.1201 58.756C63.3204 58.7912 63.5207 58.8263 63.7271 58.8626C64.2886 58.9625 64.8492 59.0663 65.4097 59.1717C65.6539 59.2147 65.6539 59.2147 65.9031 59.2587C67.0902 59.4888 68.1711 59.8751 69.0456 60.7394C69.1169 60.8457 69.1881 60.9521 69.2616 61.0616C69.3358 61.1683 69.41 61.275 69.4865 61.385C69.551 61.4913 69.6155 61.5976 69.6819 61.7071C69.7742 61.8501 69.7742 61.8501 69.8684 61.996C70.2424 62.9651 70.1537 64.4175 69.903 65.4094C69.7493 65.7437 69.5813 66.0088 69.3538 66.2977C69.2371 66.4508 69.2371 66.4508 69.118 66.607C68.3206 67.5208 67.2938 68.001 66.09 68.1361C64.8751 68.188 63.6947 67.9436 62.5058 67.7238C59.6193 67.1915 56.7307 66.6723 53.8393 66.1673C52.938 66.0098 52.0367 65.852 51.1354 65.6942C50.8051 65.6363 50.4748 65.5785 50.1445 65.5207C45.8246 64.7646 41.5054 64.005 37.1861 63.2455C35.711 62.9861 34.2359 62.7268 32.7608 62.4678C31.4449 62.2368 30.1291 62.0056 28.8133 61.7741C28.1255 61.6531 27.4376 61.5322 26.7497 61.4115C26.1089 61.2991 25.4682 61.1864 24.8274 61.0736C24.5952 61.0327 24.3629 60.9919 24.1306 60.9512C22.5768 60.6792 21.0297 60.383 19.4842 60.0676C19.5713 58.1767 19.8759 56.3696 20.2327 54.5138C20.2874 54.2242 20.3419 53.9345 20.3964 53.6448C20.5284 52.9437 20.6621 52.2429 20.7966 51.5423Z" fill="#F8E8AF"/>
<path d="M16.3674 64.1664C16.558 64.4032 16.7488 64.6408 16.9191 64.8926C17.7266 65.6669 18.9433 65.7866 20.0007 65.9596C20.16 65.9868 20.3192 66.0141 20.4833 66.0421C20.9908 66.1287 21.4986 66.2132 22.0064 66.2977C22.3411 66.3544 22.6758 66.4111 23.0105 66.4681C23.6612 66.5786 24.312 66.6885 24.9629 66.7979C26.2001 67.0065 27.4356 67.225 28.6707 67.4454C28.1887 67.7116 27.7634 67.8431 27.2215 67.9355C26.9854 67.9766 26.9854 67.9766 26.7446 68.0186C26.5747 68.0471 26.4049 68.0756 26.2299 68.105C26.0525 68.1357 25.8752 68.1665 25.6924 68.1981C25.1235 68.2966 24.5544 68.3937 23.9852 68.4905C20.9217 69.0116 20.9217 69.0116 17.8694 69.594C17.7442 69.6183 17.619 69.6426 17.4901 69.6677C16.5467 69.8646 15.8685 70.1762 15.219 70.8883C15.0939 71.0202 14.9687 71.1521 14.8397 71.2879C14.0713 72.4541 13.9079 73.4324 14.0707 74.8231C14.4598 76.2131 15.3009 77.0463 16.5314 77.7742C17.8475 78.346 19.171 78.0757 20.5338 77.8312C20.6989 77.8025 20.8639 77.7738 21.0339 77.7442C21.577 77.6494 22.1198 77.553 22.6626 77.4565C23.0469 77.3891 23.4313 77.3217 23.8156 77.2544C26.5119 76.7812 29.206 76.2959 31.8997 75.8082C34.9211 75.2612 37.9461 74.7364 40.9724 74.2176C44.0602 73.6882 47.146 73.1483 50.23 72.5972C50.3743 72.5714 50.5187 72.5457 50.6674 72.5191C50.9327 72.4717 51.1979 72.4242 51.4631 72.3766C51.7944 72.3173 52.1258 72.2586 52.4572 72.1999C52.6209 72.1678 52.7847 72.1357 52.9534 72.1026C54.2486 71.9258 55.4265 72.1224 56.7019 72.353C56.9784 72.4015 56.9784 72.4015 57.2606 72.451C57.8469 72.5541 58.433 72.6587 59.019 72.7635C59.6051 72.8674 60.1912 72.9709 60.7774 73.0742C61.1412 73.1383 61.5049 73.2029 61.8686 73.268C63.6619 73.5899 63.6619 73.5899 65.4783 73.6915C65.6295 73.6909 65.7807 73.6904 65.9364 73.6898C66.0898 73.6885 66.2431 73.6871 66.401 73.6857C66.5594 73.685 66.7178 73.6842 66.881 73.6834C67.2678 73.6815 67.6546 73.6788 68.0415 73.6754C67.6931 74.5377 67.4179 75.1746 66.5651 75.6428C65.3675 76.051 64.1172 76.2738 62.8739 76.4926C62.6927 76.5251 62.5115 76.5577 62.3248 76.5912C61.7223 76.6993 61.1197 76.8061 60.517 76.9129C60.083 76.9905 59.649 77.0681 59.215 77.1457C57.9164 77.3779 56.6176 77.6085 55.3187 77.8389C54.705 77.9478 54.0912 78.0568 53.4775 78.1659C51.4338 78.529 49.3901 78.8918 47.3461 79.2533C46.817 79.3469 46.288 79.4404 45.7589 79.534C45.6274 79.5573 45.4959 79.5806 45.3605 79.6045C43.2336 79.9808 41.1073 80.3598 38.9811 80.7399C36.7914 81.1313 34.6013 81.5203 32.4109 81.9071C31.1837 82.1238 29.9568 82.3415 28.7303 82.5619C27.6852 82.7496 26.6398 82.9352 25.5939 83.1181C25.0619 83.2111 24.5302 83.3055 23.9988 83.402C19.5417 84.2098 15.5866 84.59 11.7062 81.9293C9.27129 79.9515 8.28017 77.1587 7.83703 74.1673C7.9453 74.1673 8.05357 74.1673 8.16512 74.1673C8.15941 74.0599 8.1537 73.9526 8.14782 73.842C8.06757 71.1381 9.13509 68.9065 10.8802 66.8722C11.8688 65.8621 14.8253 63.3709 16.3674 64.1664Z" fill="#2C3E50"/>
<path d="M32.0849 68.0192C32.3464 68.0637 32.6079 68.1082 32.8694 68.1526C35.1421 68.5407 37.4102 68.9547 39.6779 69.3706C42.7318 69.93 45.7899 70.4649 48.8484 70.9989C49.1389 71.0497 49.1389 71.0497 49.4353 71.1015C49.7966 71.1645 50.158 71.2275 50.5193 71.2905C51.6036 71.4796 52.6869 71.6737 53.7696 71.872C53.4007 72.2407 53.2829 72.2602 52.785 72.3419C52.5801 72.3766 52.5801 72.3766 52.3712 72.4119C52.2219 72.4358 52.0727 72.4596 51.9189 72.4842C51.7635 72.5102 51.6081 72.5362 51.4479 72.5629C51.1124 72.6188 50.7768 72.6741 50.4412 72.7288C49.9102 72.8154 49.3796 72.9035 48.8489 72.9921C48.3129 73.0816 47.7769 73.171 47.2408 73.2599C45.7997 73.499 44.3604 73.7477 42.9221 74.0033C42.7024 74.0423 42.4828 74.0812 42.2631 74.1201C41.6873 74.2222 41.1115 74.3247 40.5357 74.4272C39.3569 74.6371 38.1781 74.8467 36.9993 75.0563C36.6826 75.1126 36.3659 75.1689 36.0492 75.2253C33.5998 75.661 31.1497 76.0925 28.6985 76.5183C27.1998 76.779 25.7023 77.0456 24.2056 77.3176C23.6991 77.4091 23.1926 77.5006 22.6861 77.5921C22.3593 77.6514 22.0327 77.7111 21.7061 77.7712C21.251 77.855 20.7957 77.9374 20.3403 78.0195C20.2065 78.0445 20.0726 78.0695 19.9347 78.0954C18.3219 78.3829 16.9932 78.3241 15.5753 77.4187C14.7158 76.7484 14.1423 75.8828 13.9067 74.8231C13.756 73.4374 13.9029 72.3611 14.7269 71.2162C16.0336 69.7071 17.623 69.4188 19.5207 69.0951C19.6757 69.0679 19.8306 69.0406 19.9902 69.0125C20.481 68.9264 20.972 68.8417 21.463 68.757C21.7876 68.7003 22.1122 68.6435 22.4367 68.5866C23.0696 68.4757 23.7026 68.366 24.3358 68.2568C24.9015 68.1588 25.4663 68.0571 26.0305 67.9507C28.1815 67.5467 29.9315 67.6454 32.0849 68.0192Z" fill="#F7E8AF"/>
<path d="M34.6897 6.72954C34.9681 6.78013 35.2462 6.83211 35.5241 6.88524C35.6781 6.91353 35.8322 6.94182 35.991 6.97097C36.3251 7.03243 36.6591 7.09446 36.9931 7.157C37.9075 7.32814 38.8228 7.49484 39.738 7.66208C40.027 7.71506 40.027 7.71506 40.3219 7.76911C42.5597 8.17804 44.8016 8.56224 47.0437 8.94614C47.8522 9.08482 48.6607 9.22361 49.4692 9.36241C49.6605 9.39524 49.8518 9.42807 50.0489 9.4619C51.7394 9.75221 53.429 10.0469 55.1177 10.3477C56.3434 10.566 57.5697 10.7804 58.7969 10.9906C59.5649 11.1224 60.3327 11.2553 61.1006 11.3884C61.4798 11.4538 61.8592 11.5187 62.2387 11.5831C62.7709 11.6735 63.3028 11.7656 63.8346 11.8582C63.994 11.8848 64.1533 11.9114 64.3175 11.9388C65.3091 12.1135 66.2783 12.292 67.0572 12.9731C67.3066 13.5339 67.2137 13.9057 67.0572 14.4897C66.8214 14.8893 66.8214 14.8893 66.401 15.1455C65.2492 15.2634 64.1125 15.0744 62.9811 14.8746C62.8123 14.8459 62.6436 14.8171 62.4698 14.7875C61.9174 14.693 61.3653 14.5965 60.8132 14.4999C60.4235 14.4327 60.0338 14.3656 59.644 14.2986C56.7552 13.7993 53.8717 13.2722 50.9893 12.7369C48.7034 12.3133 46.4142 11.9141 44.1217 11.5283C41.6723 11.1152 39.2237 10.6983 36.7784 10.2612C36.4623 10.2049 36.146 10.149 35.8297 10.0937C35.3929 10.0172 34.9564 9.93883 34.5199 9.86003C34.3288 9.82705 34.3288 9.82705 34.1337 9.79341C32.2422 9.44554 32.2422 9.44554 31.7158 8.78219C31.5899 8.29277 31.5514 7.94418 31.6235 7.43985C32.393 6.29873 33.4682 6.53342 34.6897 6.72954Z" fill="#415B6B"/>
<path d="M37.6997 14.6975C37.8301 14.7154 37.9605 14.7334 38.0948 14.7519C38.2329 14.7736 38.3711 14.7953 38.5134 14.8176C38.7201 14.8493 38.7201 14.8493 38.931 14.8817C39.3898 14.9548 39.8478 15.032 40.3057 15.1103C40.5627 15.1537 40.5627 15.1537 40.8249 15.198C41.3839 15.2927 41.9428 15.3881 42.5017 15.4836C42.79 15.5326 42.79 15.5326 43.0841 15.5827C46.04 16.0856 48.992 16.6075 51.94 17.1544C53.2704 17.4005 54.6002 17.6376 55.938 17.8398C56.0547 17.8577 56.1714 17.8757 56.2916 17.8942C56.825 17.9762 57.3582 18.0551 57.8931 18.1278C59.3743 18.352 59.3743 18.352 59.8802 18.8164C60.3249 19.479 60.2796 19.7704 60.1673 20.5558C59.8605 20.9544 59.629 21.1527 59.1831 21.3756C57.7195 21.3667 56.2748 21.0595 54.8432 20.7838C54.1583 20.6522 53.4728 20.5242 52.7872 20.3963C52.6419 20.3692 52.4966 20.3421 52.3469 20.3141C50.7726 20.0222 49.1941 19.7558 47.6152 19.4905C46.6421 19.3268 45.6694 19.1608 44.6966 18.9949C43.9102 18.8609 43.1238 18.7276 42.337 18.5959C41.6048 18.473 40.8732 18.3471 40.1419 18.2187C39.8728 18.172 39.6036 18.1264 39.3341 18.082C38.9641 18.0208 38.5949 17.9557 38.2257 17.8897C37.9153 17.8365 37.9153 17.8365 37.5986 17.7823C36.9025 17.5622 36.574 17.2905 36.0527 16.785C35.8739 16.3224 35.9128 15.9463 36.0527 15.4734C36.5672 14.8274 36.8738 14.5797 37.6997 14.6975Z" fill="#415B6B"/>
</g>
<defs>
<filter id="filter0_d_200_135" x="0" y="0" width="84" height="87" filterUnits="userSpaceOnUse" color-interpolation-filters="sRGB">
<feFlood flood-opacity="0" result="BackgroundImageFix"/>
<feColorMatrix in="SourceAlpha" type="matrix" values="0 0 0 0 0 0 0 0 0 0 0 0 0 0 0 0 0 0 127 0" result="hardAlpha"/>
<feOffset dy="3"/>
<feComposite in2="hardAlpha" operator="out"/>
<feColorMatrix type="matrix" values="0 0 0 0 0 0 0 0 0 0 0 0 0 0 0 0 0 0 0.25 0"/>
<feBlend mode="normal" in2="BackgroundImageFix" result="effect1_dropShadow_200_135"/>
<feBlend mode="normal" in="SourceGraphic" in2="effect1_dropShadow_200_135" result="shape"/>
</filter>
</defs>
</svg>
