<svg width="78" height="82" viewBox="0 0 78 82" fill="none" xmlns="http://www.w3.org/2000/svg">
<g filter="url(#filter0_d_200_189)">
<path d="M9.33437 0.5H69.5018C74.1576 0.5 77.9181 4.26047 77.9181 8.91628V69.0837C77.9181 73.7395 74.1576 77.5 69.5018 77.5H9.33437C4.67856 77.5 0.918091 73.7395 0.918091 69.0837V8.91628C0.918091 4.26047 4.67856 0.5 9.33437 0.5Z" fill="white"/>
<path d="M9.51345 9.09521H38.3437V37.9254H9.51345V9.09521Z" fill="#20B8EA"/>
<path d="M9.51345 40.0742H38.3437V68.9045H9.51345V40.0742Z" fill="#EB5151"/>
<path d="M40.4925 40.0742H69.3227V68.9045H40.4925V40.0742Z" fill="#00A8EA"/>
<path d="M40.4925 9.09521H69.3227V37.9254H40.4925V9.09521Z" fill="#33D3F4"/>
<path opacity="0.1" d="M42.6413 35.7766H67.1739L69.3227 37.9254H40.4925V9.09521L42.6413 11.2441V35.7766Z" fill="#231F20"/>
<path opacity="0.25" d="M67.1739 11.2441H42.6413L40.4925 9.09521H69.3227V37.9254L67.1739 35.7766V11.2441Z" fill="white"/>
<path opacity="0.1" d="M11.6623 35.7766H36.1949L38.3437 37.9254H9.51345V9.09521L11.6623 11.2441V35.7766Z" fill="#231F20"/>
<path opacity="0.25" d="M36.1949 11.2441H11.6623L9.51345 9.09521H38.3437V37.9254L36.1949 35.7766V11.2441Z" fill="white"/>
<path opacity="0.1" d="M42.6413 66.7556H67.1739L69.3227 68.9045H40.4925V40.0742L42.6413 42.2231V66.7556Z" fill="#231F20"/>
<path opacity="0.25" d="M67.1739 42.2231H42.6413L40.4925 40.0742H69.3227V68.9045L67.1739 66.7556V42.2231Z" fill="white"/>
<path opacity="0.1" d="M11.6623 66.7556H36.1949L38.3437 68.9045H9.51345V40.0742L11.6623 42.2231V66.7556Z" fill="#231F20"/>
<path opacity="0.25" d="M36.1949 42.2231H11.6623L9.51345 40.0742H38.3437V68.9045L36.1949 66.7556V42.2231Z" fill="white"/>
<path d="M48.5506 22.3464H53.7437V17.1534C53.7437 16.4371 54.2809 15.8999 54.9971 15.8999C55.7134 15.8999 56.2506 16.4371 56.2506 17.1534V22.3464H61.4437C62.1599 22.3464 62.6971 22.8836 62.6971 23.5999C62.6971 24.3162 62.1599 24.8534 61.4437 24.8534H56.2506V30.0464C56.2506 30.7627 55.7134 31.2999 54.9971 31.2999C54.2809 31.2999 53.7437 30.7627 53.7437 30.0464V24.6743H48.5506C47.8344 24.6743 47.2971 24.1371 47.2971 23.4208C47.2971 22.7046 48.0134 22.3464 48.5506 22.3464Z" fill="white"/>
<path d="M53.2065 54.5787L49.6251 50.9973C49.0879 50.4601 49.0879 49.7438 49.6251 49.2066C50.1623 48.6694 50.8786 48.6694 51.4158 49.2066L54.9972 52.788L58.5786 49.2066C59.1158 48.6694 59.8321 48.6694 60.3693 49.2066C60.9065 49.7438 60.9065 50.4601 60.3693 50.9973L56.7879 54.5787L60.3693 58.1601C60.9065 58.6973 60.9065 59.4136 60.3693 59.9508C59.8321 60.488 59.1158 60.488 58.5786 59.9508L54.9972 56.3694L51.4158 59.9508C50.8786 60.488 50.1623 60.488 49.6251 59.9508C49.0879 59.4136 49.0879 58.6973 49.6251 58.1601L53.2065 54.5787Z" fill="white"/>
<path d="M30.2855 24.6745H17.5716C16.8553 24.6745 16.3181 24.1372 16.3181 23.421C16.3181 22.7047 16.8553 22.1675 17.5716 22.1675H30.2855C31.0018 22.1675 31.539 22.7047 31.539 23.421C31.539 24.1372 30.8227 24.6745 30.2855 24.6745Z" fill="white"/>
<path d="M17.5716 56.1904H30.2855C31.0018 56.1904 31.539 56.7276 31.539 57.4439C31.539 58.1602 31.0018 58.6974 30.2855 58.6974H17.5716C16.8553 58.6974 16.3181 58.1602 16.3181 57.4439C16.3181 56.7276 16.8553 56.1904 17.5716 56.1904Z" fill="white"/>
<path d="M17.5716 50.4604H30.2855C31.0018 50.4604 31.539 50.9977 31.539 51.7139C31.539 52.4302 31.0018 52.9674 30.2855 52.9674H17.5716C16.8553 52.9674 16.3181 52.4302 16.3181 51.7139C16.3181 50.9977 16.8553 50.4604 17.5716 50.4604Z" fill="white"/>
</g>
<defs>
<filter id="filter0_d_200_189" x="0.918091" y="0.5" width="77" height="81" filterUnits="userSpaceOnUse" color-interpolation-filters="sRGB">
<feFlood flood-opacity="0" result="BackgroundImageFix"/>
<feColorMatrix in="SourceAlpha" type="matrix" values="0 0 0 0 0 0 0 0 0 0 0 0 0 0 0 0 0 0 127 0" result="hardAlpha"/>
<feOffset dy="4"/>
<feComposite in2="hardAlpha" operator="out"/>
<feColorMatrix type="matrix" values="0 0 0 0 0 0 0 0 0 0 0 0 0 0 0 0 0 0 0.25 0"/>
<feBlend mode="normal" in2="BackgroundImageFix" result="effect1_dropShadow_200_189"/>
<feBlend mode="normal" in="SourceGraphic" in2="effect1_dropShadow_200_189" result="shape"/>
</filter>
</defs>
</svg>
