<svg width="90" height="85" viewBox="0 0 90 85" fill="none" xmlns="http://www.w3.org/2000/svg">
<g filter="url(#filter0_d_215_102)">
<path d="M65.7126 7.0294C70.5462 11.2998 73.7608 16.502 76.0032 22.5687C76.1064 22.8477 76.1064 22.8477 76.2118 23.1322C76.3512 23.5231 76.4758 23.9195 76.5947 24.3173C77.0152 25.1511 77.6743 25.6545 78.3801 26.2274C78.6727 26.4732 78.9651 26.7192 79.2574 26.9653C79.4006 27.0845 79.5438 27.2037 79.6913 27.3265C81.5481 28.8722 83.0837 30.508 84.5412 32.4534C84.6912 32.653 84.8412 32.8526 84.9957 33.0583C89.0495 38.7069 90.6943 45.209 89.6985 52.1716C88.5521 59.3299 84.963 65.371 80.0941 70.5342C79.8748 70.782 79.8748 70.782 79.6511 71.0347C74.5025 76.6925 66.1761 78.5102 59.1086 80.082C57.7227 80.3945 56.405 80.7743 55.0639 81.2524C53.1386 81.9271 51.2199 82.318 49.2117 82.6394C49.0181 82.6729 48.8245 82.7064 48.625 82.7409C42.9668 83.5644 36.9198 82.3909 31.8713 79.7077C30.3277 78.9001 28.825 78.6165 27.1154 78.3679C19.0321 77.1749 11.0371 73.2244 5.97641 66.4992C1.10153 59.4354 -0.9887 50.6069 0.442794 42.0527C1.73578 35.2089 5.52731 29.362 10.9176 25.1399C11.0727 25.0402 11.2279 24.9405 11.3878 24.8379C12.9639 23.7758 13.6393 22.4652 14.4227 20.7423C14.5496 20.4872 14.6766 20.2322 14.8073 19.9695C15.4589 18.6825 15.4589 18.6825 15.511 17.2864C15.3193 16.8668 15.0964 16.4625 14.8705 16.061C14.9521 15.7281 15.0336 15.3952 15.1176 15.0522C15.7698 15.3851 16.4221 15.718 17.0941 16.061C17.2571 15.7281 17.4202 15.3952 17.5882 15.0522C17.872 14.6561 18.1666 14.2679 18.4683 13.8858C18.6419 13.6651 18.8155 13.4444 18.9943 13.2169C19.5708 12.523 20.1807 11.8762 20.7999 11.2221C21.7003 10.2412 21.7003 10.2412 21.9272 8.96812C21.8813 8.72885 21.8354 8.48958 21.7882 8.24307C22.1958 8.40951 22.6035 8.57596 23.0235 8.74745C23.156 8.63107 23.2884 8.51468 23.4249 8.39478C35.1488 -1.56492 53.6173 -3.31997 65.7126 7.0294Z" fill="#F4C39B"/>
<path d="M21.7882 8.24307C22.4245 8.50771 22.8033 8.77567 23.286 9.28335C25.4241 11.5249 28.2117 12.933 30.9294 14.2956C31.1478 14.4052 31.3663 14.5148 31.5914 14.6276C34.4238 15.9032 37.6202 16.3288 40.6748 16.6375C44.1023 16.9915 48.6255 17.4801 51.1882 20.096C51.4052 15.8128 50.5807 12.3566 48.2235 8.74745C52.6324 10.3132 56.2589 14.8668 58.2429 18.9878C58.826 20.3858 59.167 21.5962 59.0941 23.1223C63.4959 20.9729 63.4959 20.9729 67.247 17.8263C67.0841 20.266 66.0043 22.4906 64.5294 24.3833C64.7625 24.4568 64.9956 24.5302 65.2358 24.6059C68.2337 25.5724 70.7557 26.6355 73.0703 28.8774C74.5452 30.2281 76.1504 31.0396 78.0617 31.5353C78.6179 31.6986 79.0915 31.9215 79.6 32.2012C77.6194 32.9088 75.7555 33.2964 73.6706 33.4622C73.8288 33.5938 73.9871 33.7255 74.1502 33.8611C74.3639 34.0468 74.5776 34.2324 74.7978 34.4236C75.1116 34.6914 75.1116 34.6914 75.4318 34.9645C77.3739 36.9053 78.2427 39.3563 78.9978 41.9578C79.5951 44.0133 80.1525 45.7214 81.5765 47.3327C80.126 47.2188 79.0916 46.5592 77.8706 45.8195C78.8327 48.2556 79.9234 50.6109 81.0553 52.9685C81.1827 53.2361 81.3101 53.5036 81.4413 53.7793C81.5564 54.0189 81.6714 54.2585 81.79 54.5053C82.0316 55.061 82.1983 55.5659 82.3176 56.1594C80.8037 54.9532 79.6222 53.5266 78.411 52.014C77.9349 51.3596 77.9349 51.3596 77.3764 51.1155C76.9297 54.5929 76.5913 58.6408 77.8706 61.9597C76.9278 61.7954 76.3811 61.5893 75.647 60.951C74.7772 61.3084 74.4924 61.6718 74.0412 62.4957C73.7558 62.8181 73.4705 63.1406 73.1765 63.4729C72.1981 63.4729 71.2197 63.4729 70.2117 63.4729C69.8856 60.893 69.5595 58.3131 69.2235 55.655C68.9789 55.9046 68.7343 56.1543 68.4823 56.4115C68.4602 56.2383 68.438 56.065 68.4151 55.8865C67.5507 49.2579 66.5787 42.0262 63.047 36.2363C63.0827 36.4173 63.1184 36.5984 63.1551 36.785C63.7201 40.0009 64.4152 44.9856 62.5529 47.837C62.5184 47.6977 62.4838 47.5584 62.4482 47.4149C61.5771 43.9641 60.551 40.7368 58.6 37.7494C58.6759 38.0464 58.6759 38.0464 58.7534 38.3493C58.82 38.6143 58.8865 38.8792 58.9551 39.1522C59.021 39.4126 59.087 39.673 59.1549 39.9413C59.5197 41.5756 59.6218 43.1282 59.6036 44.795C59.6025 44.9915 59.6014 45.188 59.6003 45.3905C59.5974 45.8698 59.593 46.349 59.5882 46.8283C60.322 46.5786 61.0557 46.3289 61.8117 46.0717C61.5647 46.8283 61.5647 46.8283 61.0167 47.168C60.7781 47.2812 60.5395 47.3944 60.2937 47.511C60.0292 47.6382 59.7647 47.7655 59.4922 47.8966C59.213 48.0278 58.9339 48.159 58.6463 48.2941C58.1041 48.553 57.5621 48.8121 57.0201 49.0714C56.7508 49.1987 56.4815 49.326 56.2041 49.4572C55.1367 49.9771 54.0942 50.5422 53.054 51.1162C52.3711 51.3886 52.1053 51.3871 51.4353 51.1155C51.6823 50.359 51.6823 50.359 52.3109 49.9953C52.5844 49.8724 52.8578 49.7496 53.1396 49.6231C53.4364 49.489 53.7332 49.3549 54.039 49.2167C54.1945 49.1481 54.35 49.0796 54.5102 49.0089C54.9844 48.7995 55.4566 48.5859 55.9286 48.3715C58.2498 47.3327 58.2498 47.3327 59.0941 47.3327C56.7279 40.3827 53.9748 33.7878 49.2117 28.1662C49.2802 28.3362 49.3487 28.5062 49.4192 28.6814C49.7482 29.5373 50.0485 30.4012 50.3389 31.2713C50.3936 31.4291 50.4482 31.5869 50.5044 31.7495C51.9834 36.1964 51.3944 41.5648 50.447 46.0717C49.9779 45.2107 49.7367 44.3439 49.4877 43.3942C49.3984 43.0582 49.309 42.7223 49.2195 42.3864C49.173 42.211 49.1265 42.0356 49.0785 41.8548C46.7131 32.9518 46.7131 32.9518 42.047 25.1399C41.0382 25.4831 40.716 26.1735 40.1632 27.0471C40.055 27.2159 39.9468 27.3848 39.8353 27.5588C35.9146 33.7547 33.4152 40.0119 32.4117 47.3327C32.542 47.3736 32.6722 47.4145 32.8064 47.4566C34.3381 47.9556 35.7852 48.586 37.2448 49.2714C37.4705 49.3762 37.6961 49.4811 37.9286 49.5891C38.4783 49.8447 39.0276 50.1013 39.5764 50.359C39.5764 50.6919 39.5764 51.0247 39.5764 51.3677C38.3473 51.2054 37.3311 50.6708 36.2296 50.1245C36.029 50.0259 35.8284 49.9273 35.6218 49.8257C35.1995 49.6174 34.7776 49.4084 34.356 49.1986C33.7089 48.8774 33.0599 48.5606 32.4108 48.2439C32.0005 48.0409 31.5903 47.8376 31.1803 47.6341C30.9855 47.5395 30.7907 47.4449 30.59 47.3475C30.1169 47.1096 29.6569 46.8449 29.2 46.5761C29.1184 46.3264 29.0369 46.0768 28.9529 45.8195C29.3032 45.9341 29.6531 46.05 30.0029 46.1663C30.1978 46.2307 30.3927 46.295 30.5935 46.3613C31.1434 46.5639 31.6481 46.8023 32.1647 47.0805C32.1589 46.7713 32.1532 46.4622 32.1473 46.1436C32.0872 41.3871 32.3423 36.6544 33.2552 31.9825C33.4227 31.2025 33.4227 31.2025 33.4 30.4359C27.9847 39.0596 23.4056 47.9801 21.7882 58.1769C19.7813 55.1041 20.2988 49.3363 20.7999 45.8195C19.7913 49.1856 19.0262 52.2122 19.0242 55.7495C19.0197 56.165 19.0197 56.165 19.015 56.5889C19.0123 58.1443 19.147 59.458 19.5647 60.951C19.5647 61.2839 19.5647 61.6168 19.5647 61.9597C19.1892 61.9378 19.1892 61.9378 18.8061 61.9154C16.7138 61.7401 16.7138 61.7401 14.886 62.5902C14.7178 62.7983 14.5497 63.0063 14.3764 63.2207C14.2134 62.7214 14.0503 62.222 13.8823 61.7076C13.5689 62.004 13.5689 62.004 13.2492 62.3065C12.4298 63.0112 11.7092 63.2396 10.6705 63.4729C10.9151 62.7239 11.1597 61.9749 11.4117 61.2032C11.1671 61.3644 10.9225 61.5257 10.6705 61.6918C9.6816 62.276 8.83755 62.3831 7.70582 62.4641C8.04617 61.3273 8.49511 60.3173 9.03376 59.2645C10.3584 56.5985 11.0709 54.3766 11.1646 51.3677C10.7978 51.6232 10.7978 51.6232 10.4235 51.8839C10.0941 52.1112 9.76469 52.3385 9.43524 52.5656C9.27504 52.6775 9.11485 52.7893 8.9498 52.9045C7.83223 53.6726 6.71528 54.3396 5.48229 54.8984C5.31923 54.8152 5.15617 54.7319 4.98817 54.6462C5.12002 54.4593 5.25187 54.2724 5.38771 54.0798C9.34061 48.7521 9.34061 48.7521 11.1646 42.541C10.8965 42.6838 10.6283 42.8265 10.3521 42.9735C9.99503 43.1605 9.63795 43.3473 9.28082 43.534C9.10471 43.6282 8.92859 43.7223 8.74714 43.8192C7.73814 44.3437 6.87318 44.6947 5.72935 44.8108C5.90833 44.6684 6.08732 44.526 6.27172 44.3793C8.23204 42.7461 9.78266 40.91 11.1646 38.7582C12.6485 36.4876 14.2082 34.3904 16.1058 32.4534C13.0722 32.3375 10.082 32.6803 7.2117 33.7144C7.61736 33.2865 8.0289 32.8685 8.447 32.4534C8.69541 32.2057 8.69541 32.2057 8.94884 31.953C13.6718 27.4211 19.2813 24.8754 25.7411 24.6355C25.4406 24.5297 25.4406 24.5297 25.1341 24.4217C21.1981 22.9671 17.3291 20.2847 15.0655 16.5801C14.8705 16.061 14.8705 16.061 15.1176 15.0522C15.7698 15.3851 16.4221 15.718 17.0941 16.061C17.2571 15.7281 17.4202 15.3952 17.5882 15.0522C17.872 14.6561 18.1666 14.2679 18.4683 13.8858C18.6419 13.6651 18.8155 13.4444 18.9943 13.2169C19.5708 12.523 20.1807 11.8762 20.7999 11.2221C21.7003 10.2412 21.7003 10.2412 21.9272 8.96812C21.8813 8.72885 21.8354 8.48958 21.7882 8.24307Z" fill="#0F0C0C"/>
<path d="M65.7126 7.0294C70.5462 11.2998 73.7608 16.502 76.0032 22.5687C76.1064 22.8477 76.1064 22.8477 76.2118 23.1322C76.3512 23.5231 76.4758 23.9195 76.5947 24.3173C77.0152 25.1511 77.6743 25.6545 78.3801 26.2274C78.6727 26.4732 78.9651 26.7192 79.2574 26.9653C79.4006 27.0845 79.5438 27.2037 79.6913 27.3265C81.5481 28.8722 83.0837 30.508 84.5412 32.4534C84.6912 32.653 84.8412 32.8526 84.9957 33.0583C89.0495 38.7069 90.6943 45.209 89.6985 52.1716C88.5521 59.3299 84.963 65.371 80.0941 70.5342C79.8748 70.782 79.8748 70.782 79.6511 71.0347C74.5054 76.6894 65.1501 79.4465 57.8588 80.1175C58.6182 79.5062 59.4088 79.023 60.2522 78.5413C61.2343 77.977 62.0023 77.4243 62.8 76.6183C64.0958 75.5193 65.5664 75.687 67.1696 75.6625C68.8022 75.6258 69.9311 75.4354 71.2 74.3171C71.3646 74.1825 71.5293 74.0479 71.6989 73.9093C73.4864 72.2836 75.3819 69.3743 75.73 66.9238C75.7587 65.708 75.7587 65.708 75.2456 64.6393C74.5821 64.1759 73.9079 63.8123 73.1765 63.4729C73.5134 62.7183 73.905 62.1387 74.4426 61.5184C74.5758 61.3637 74.7089 61.2089 74.846 61.0495C74.9979 60.8759 74.9979 60.8759 75.1529 60.6988C75.2969 60.7736 75.4408 60.8483 75.5891 60.9254C76.0771 61.1709 76.5667 61.3967 77.0676 61.613C77.3326 61.7274 77.5976 61.8418 77.8706 61.9597C77.7992 61.8209 77.7279 61.6821 77.6544 61.5391C76.2946 58.4304 76.5425 54.3609 77.3764 51.1155C78.3567 51.5107 78.8968 52.1603 79.5845 52.9597C80.3888 53.8897 81.2041 54.7863 82.0706 55.655C81.9973 55.508 81.924 55.3611 81.8485 55.2097C79.382 50.2511 79.382 50.2511 78.3029 47.774C78.229 47.6076 78.1551 47.4411 78.079 47.2696C77.9113 46.877 77.765 46.4749 77.6235 46.0717C77.705 45.9053 77.7866 45.7388 77.8706 45.5673C78.8489 46.0667 79.8273 46.566 80.8353 47.0805C80.9168 46.9973 80.9983 46.914 81.0823 46.8283C80.904 46.6514 80.7256 46.4746 80.5419 46.2924C79.3281 44.8049 78.8783 42.7549 78.3753 40.9235C77.5496 37.9178 76.2513 35.8933 73.9032 33.8858C73.7449 33.746 73.5866 33.6062 73.4235 33.4622C73.4235 33.3789 73.4235 33.2957 73.4235 33.21C73.6652 33.1794 73.907 33.1489 74.156 33.1174C75.9096 32.8904 77.6341 32.6321 79.3529 32.2012C79.1497 32.1459 78.9465 32.0907 78.7372 32.0337C76.4531 31.3714 74.465 30.5808 72.8059 28.7966C71.0462 26.9092 68.7686 26.0699 66.4161 25.2147C65.6971 24.953 64.9884 24.6788 64.2823 24.3833C64.375 24.2575 64.4677 24.1317 64.5632 24.002C65.7338 22.3255 67 20.1894 67 18.0785C66.8879 18.2502 66.7758 18.4218 66.6603 18.5987C64.7947 20.7297 62.1069 21.966 59.5882 23.1223C59.4251 23.1223 59.2621 23.1223 59.0941 23.1223C59.0129 22.7337 59.0129 22.7337 58.93 22.3372C57.5816 16.1942 53.7237 12.3876 48.7176 8.99964C48.9867 9.55819 49.2651 10.1077 49.5582 10.6537C51.2318 13.8573 51.556 16.7917 51.4353 20.3482C51.2999 20.2536 51.1646 20.159 51.0251 20.0616C47.4403 17.6994 43.3561 17.0846 39.1931 16.6383C33.038 15.9718 27.4541 13.3751 22.7764 9.25183C33.4076 -2.3236 53.9844 -3.00585 65.7126 7.0294Z" fill="#CC9132"/>
<path d="M15.8588 17.5741C16.0269 17.7458 16.1951 17.9174 16.3683 18.0943C16.5393 18.2674 16.5393 18.2674 16.7138 18.444C16.9712 18.7087 17.2246 18.9775 17.4743 19.2498C19.844 21.7892 22.9625 23.5978 26.2352 24.6355C26.2352 24.7187 26.2352 24.8019 26.2352 24.8877C25.9601 24.8912 25.6849 24.8948 25.4014 24.8985C18.464 25.0807 12.5548 28.5125 7.70582 33.4622C7.90901 33.3923 8.1122 33.3224 8.32154 33.2504C11.0664 32.3412 13.4815 32.1559 16.3529 32.2012C16.1542 32.4353 15.9554 32.6693 15.7507 32.9105C15.4568 33.2621 15.1635 33.6142 14.8705 33.9665C14.6947 34.1769 14.5189 34.3872 14.3378 34.6039C13.2257 35.9588 12.2579 37.3327 11.348 38.835C10.1135 40.7846 8.60182 42.4536 6.96465 44.0542C6.72006 44.3039 6.72006 44.3039 6.47053 44.5586C7.01636 44.3227 7.5619 44.0862 8.10729 43.8493C8.25984 43.7834 8.41239 43.7176 8.56956 43.6498C9.53523 43.2296 10.4775 42.7774 11.4117 42.2888C10.6241 46.9521 7.90794 50.8868 5.23523 54.6462C7.17388 53.7081 8.99136 52.7506 10.7217 51.4396C11.1646 51.1155 11.1646 51.1155 11.4117 51.1155C11.4866 53.2569 10.985 55.0998 10.2536 57.0893C10.1907 57.2613 10.1277 57.4333 10.0629 57.6104C9.42015 59.3126 8.60033 60.8865 7.70582 62.4641C9.09291 62.0696 10.3909 61.6662 11.6588 60.951C11.5387 61.7385 11.4121 62.4631 11.1646 63.2207C12.722 62.4648 12.722 62.4648 14.1294 61.4554C14.535 62.9048 14.6363 64.1935 14.5926 65.6953C14.5447 68.0322 15.006 70.2976 16.4687 72.1685C18.4751 74.2009 21.255 75.3094 24.0426 75.3574C25.8631 75.4845 26.8247 76.2097 28.2117 77.3434C28.7784 77.7034 29.3544 78.0267 29.9411 78.3521C29.9411 78.4354 29.9411 78.5186 29.9411 78.6043C22.14 78.8293 14.0993 74.6162 8.52035 69.3294C2.80142 63.6803 0.131878 55.5725 0.000671029 47.5533C0.0760082 39.8939 2.80095 32.8215 8.19994 27.4096C10.2628 25.5539 10.2628 25.5539 11.3899 24.8412C12.9997 23.7682 13.6085 22.4144 14.361 20.6477C14.5946 20.1205 14.8284 19.5935 15.0626 19.0666C15.1626 18.8345 15.2625 18.6025 15.3656 18.3634C15.6117 17.8263 15.6117 17.8263 15.8588 17.5741Z" fill="#CA9031"/>
<path d="M66.0117 21.6092C71.4218 23.841 76.0968 26.8419 80.3412 30.9403C80.6684 31.2499 80.6684 31.2499 81.0022 31.5658C85.6235 36.0829 89.2409 42.3486 89.962 48.9276C90.0908 57.1754 85.5099 64.791 80.0941 70.5342C79.9479 70.6994 79.8017 70.8645 79.6511 71.0347C74.5054 76.6894 65.1501 79.4465 57.8588 80.1175C58.6182 79.5062 59.4088 79.023 60.2522 78.5413C61.2343 77.977 62.0023 77.4243 62.8 76.6183C64.0958 75.5193 65.5664 75.687 67.1696 75.6625C68.8022 75.6258 69.9311 75.4354 71.2 74.3171C71.3646 74.1825 71.5293 74.0479 71.6989 73.9093C73.4864 72.2836 75.3819 69.3743 75.73 66.9238C75.7587 65.708 75.7587 65.708 75.2456 64.6393C74.5821 64.1759 73.9079 63.8123 73.1765 63.4729C73.5134 62.7183 73.905 62.1387 74.4426 61.5184C74.5758 61.3637 74.7089 61.2089 74.846 61.0495C74.9473 60.9338 75.0486 60.818 75.1529 60.6988C75.3689 60.8109 75.3689 60.8109 75.5891 60.9254C76.0771 61.1709 76.5667 61.3967 77.0676 61.613C77.3326 61.7274 77.5976 61.8418 77.8706 61.9597C77.7992 61.8209 77.7279 61.6821 77.6544 61.5391C76.2946 58.4304 76.5425 54.3609 77.3764 51.1155C78.3567 51.5107 78.8968 52.1603 79.5845 52.9597C80.3888 53.8897 81.2041 54.7863 82.0706 55.655C81.9973 55.508 81.924 55.3611 81.8485 55.2097C79.382 50.2511 79.382 50.2511 78.3029 47.774C78.229 47.6076 78.1551 47.4411 78.079 47.2696C77.9113 46.877 77.765 46.4749 77.6235 46.0717C77.705 45.9053 77.7866 45.7388 77.8706 45.5673C78.8489 46.0667 79.8273 46.566 80.8353 47.0805C80.9168 46.9973 80.9983 46.914 81.0823 46.8283C80.8148 46.563 80.8148 46.563 80.5419 46.2924C79.3281 44.8049 78.8783 42.7549 78.3753 40.9235C77.5496 37.9178 76.2513 35.8933 73.9032 33.8858C73.7449 33.746 73.5866 33.6062 73.4235 33.4622C73.4235 33.3789 73.4235 33.2957 73.4235 33.21C73.6652 33.1794 73.907 33.1489 74.156 33.1174C75.9096 32.8904 77.6341 32.6321 79.3529 32.2012C79.0481 32.1183 79.0481 32.1183 78.7372 32.0337C76.4531 31.3714 74.465 30.5808 72.8059 28.7966C71.0462 26.9092 68.7686 26.0699 66.4161 25.2147C65.6971 24.953 64.9884 24.6788 64.2823 24.3833C64.3865 24.2253 64.4906 24.0673 64.5979 23.9045C64.8009 23.5954 64.8009 23.5954 65.0081 23.28C65.1428 23.0751 65.2775 22.8703 65.4163 22.6593C65.7674 22.1319 65.7674 22.1319 66.0117 21.6092Z" fill="#CB9032"/>
<path d="M48.4706 0.172954C49.299 2.04815 49.4988 3.56173 49.4897 5.61082C49.4906 5.82522 49.4916 6.03962 49.4926 6.26051C49.4922 6.46775 49.4919 6.675 49.4916 6.88852C49.4913 7.07596 49.491 7.26339 49.4908 7.45651C49.4583 7.99913 49.3573 8.4778 49.2117 8.99964C48.9671 8.99964 48.7226 8.99964 48.4706 8.99964C48.5661 9.13423 48.6616 9.26881 48.7601 9.40748C51.1381 12.8804 51.5254 16.2273 51.4353 20.3482C51.2999 20.2536 51.1646 20.159 51.0251 20.0616C47.4403 17.6994 43.3561 17.0846 39.1931 16.6383C33.038 15.9718 27.4541 13.3751 22.7764 9.25183C29.3603 2.08309 39.2222 -0.0876727 48.4706 0.172954Z" fill="#E6AF45"/>
<path d="M63.2941 67.7601C62.6795 71.5244 60.607 74.8042 57.632 77.104C56.6928 77.7103 55.7329 78.2092 54.7242 78.6832C54.5529 78.7653 54.3816 78.8474 54.2051 78.932C51.3182 80.2127 48.266 80.5018 45.1583 80.4822C44.6411 80.48 44.1246 80.4873 43.6075 80.4953C40.45 80.5117 37.4513 79.8721 34.6353 78.3521C34.4356 78.2465 34.2359 78.1408 34.0301 78.032C30.5946 76.0825 28.7235 73.2621 27.6346 69.4713C27.4705 68.7689 27.4705 68.7689 27.4705 68.0123C27.7014 68.0429 27.9323 68.0734 28.1702 68.1049C30.0351 68.349 31.9013 68.5782 33.7705 68.7847C34.0332 68.8146 34.0332 68.8146 34.3012 68.8451C37.8717 69.2317 41.4301 69.3203 45.0177 69.32C45.7613 69.3206 46.5047 69.3251 47.2483 69.3299C52.2035 69.3446 57.3034 69.1428 62.1254 67.8636C62.5529 67.7601 62.5529 67.7601 63.2941 67.7601Z" fill="#FBF2EB"/>
<path d="M37.6772 52.0455C38.9072 53.0647 39.7367 54.3232 40.0705 55.9072C40.3314 60.926 40.3314 60.926 38.7889 62.9055C36.2229 65.0009 33.1151 65.2994 29.9411 64.986C28.0154 64.5597 26.0037 63.3727 24.8977 61.676C24.0485 59.9798 23.7219 58.4274 24.1545 56.5475C24.9278 54.273 26.4355 52.4541 28.536 51.352C31.4362 50.0123 35.0291 50.1981 37.6772 52.0455Z" fill="#FBF1EA"/>
<path d="M63.85 52.0455C65.773 53.6562 67.0232 55.7925 67.3706 58.3187C67.0788 60.3664 66.0828 62.1399 64.5294 63.4729C61.8243 65.0491 58.8649 65.4627 55.8128 64.8136C54.1802 64.2496 52.4593 63.4049 51.5742 61.8337C50.9855 59.1627 50.6128 56.0927 52.0404 53.6503C54.7311 50.0181 60.2478 49.4945 63.85 52.0455Z" fill="#FBF1EA"/>
<path d="M67 19.3395C70.0697 20.4369 72.7651 22.1882 75.3913 24.1114C76.1442 24.6558 76.1442 24.6558 77.0059 25.1211C77.9108 25.6382 78.6242 26.2841 79.3684 27.0155C79.6129 27.252 79.8577 27.4881 80.1028 27.7238C80.223 27.8399 80.3433 27.956 80.4672 28.0756C80.8326 28.4159 81.2163 28.7356 81.5996 29.0547C86.2796 33.1257 89.2239 39.5163 89.9099 45.6747C90.0068 46.9864 90.0196 48.2881 89.9765 49.6024C89.8949 49.6024 89.8134 49.6024 89.7294 49.6024C89.6931 49.3397 89.6568 49.077 89.6194 48.8064C88.6308 42.1637 85.5835 36.8102 81.0823 31.949C80.9008 31.7475 80.7193 31.5459 80.5322 31.3382C76.6053 27.1287 71.4699 24.1115 66.2588 21.8614C66.3349 21.4881 66.4124 21.1151 66.4904 20.7423C66.5549 20.4307 66.5549 20.4307 66.6207 20.1128C66.7529 19.5917 66.7529 19.5917 67 19.3395Z" fill="#E6AE45"/>
<path d="M22.0352 9.75621C22.7624 10.4261 23.255 11.2121 23.7955 12.0417C24.6764 13.3686 25.6278 14.5683 26.7014 15.7418C27.176 16.2612 27.6251 16.7941 28.0727 17.3377C28.9479 18.3701 29.9355 19.2559 30.9438 20.1502C31.1021 20.2988 31.2604 20.4474 31.4235 20.6004C31.4235 20.6836 31.4235 20.7669 31.4235 20.8526C29.5716 20.9298 27.9545 20.7724 26.1735 20.2537C25.8301 20.156 25.8301 20.156 25.4798 20.0563C18.5262 17.9761 18.5262 17.9761 16.847 16.061C18.4641 13.8409 20.1709 11.7642 22.0352 9.75621Z" fill="#EDB968"/>
<path d="M15.8588 17.5741C16.111 17.8316 16.111 17.8316 16.3683 18.0943C16.5374 18.2664 16.5374 18.2664 16.71 18.442C16.9776 18.7159 17.2439 18.9912 17.509 19.2676C18.2047 19.9887 18.8978 20.6773 19.6727 21.3097C19.9861 21.5828 19.9861 21.5828 20.3058 21.8614C20.3058 22.0278 20.3058 22.1943 20.3058 22.3658C20.1642 22.4392 20.0225 22.5127 19.8766 22.5884C17.2056 23.9795 14.5801 25.3497 12.1529 27.1574C11.9073 27.3336 11.6618 27.5098 11.4088 27.6913C7.61542 30.5205 4.50493 33.9367 2.02347 38.0016C1.72119 37.0759 1.93651 36.7563 2.34429 35.9103C2.43205 35.737 2.51981 35.5637 2.61023 35.3851C2.70006 35.2056 2.78989 35.0261 2.88244 34.8412C4.8879 30.9287 7.66569 27.1961 11.3899 24.8412C12.9997 23.7682 13.6085 22.4144 14.361 20.6477C14.5946 20.1205 14.8284 19.5935 15.0626 19.0666C15.1626 18.8345 15.2625 18.6025 15.3656 18.3634C15.6117 17.8263 15.6117 17.8263 15.8588 17.5741Z" fill="#E6AF45"/>
<path d="M41.5529 24.8877C42.5981 25.2658 43.0463 26.0313 43.6066 26.9525C43.7035 27.1105 43.8005 27.2685 43.9004 27.4313C46.4201 31.6289 47.9021 36.3673 49.2272 41.0752C49.3072 41.3535 49.3072 41.3535 49.3889 41.6375C49.6349 42.5498 49.7291 43.1524 49.4588 44.0542C48.7313 42.585 48.0233 41.1084 47.3365 39.6189C45.9603 36.6386 44.4991 33.7092 43.0016 30.7912C42.9236 30.6388 42.8456 30.4864 42.7652 30.3294C42.5524 29.9138 42.3387 29.4987 42.1251 29.0835C41.8 28.4183 41.8 28.4183 41.5529 27.6618C41.3898 27.6618 41.2268 27.6618 41.0588 27.6618C40.9976 27.835 40.9365 28.0083 40.8735 28.1868C40.5135 29.0446 40.056 29.818 39.5764 30.6093C37.4682 34.1506 35.5699 37.7573 33.8941 41.5323C33.731 41.5323 33.568 41.5323 33.4 41.5323C33.5413 40.0537 33.9487 38.8063 34.4963 37.4342C34.5831 37.2154 34.6698 36.9966 34.7593 36.7712C36.5031 32.4779 38.7616 28.5572 41.5529 24.8877Z" fill="#E1A88D"/>
<path d="M48.7176 27.6618C48.8807 27.6618 49.0437 27.6618 49.2117 27.6618C53.0398 31.9899 55.599 37.4717 57.7198 42.8248C57.828 43.097 57.9361 43.3693 58.0475 43.6499C58.148 43.9088 58.2484 44.1677 58.3519 44.4344C58.4416 44.665 58.5312 44.8955 58.6236 45.133C58.8613 45.8634 58.9889 46.5716 59.0941 47.3327C58.8495 47.3327 58.6049 47.3327 58.3529 47.3327C58.2596 47.0482 58.1663 46.7638 58.0701 46.4707C57.2843 44.1499 56.3854 41.9415 55.2647 39.7669C55.1565 39.5565 55.0482 39.3461 54.9367 39.1294C54.0925 37.5263 53.1491 35.9957 52.1764 34.4709C52.1617 34.8249 52.1617 34.8249 52.1468 35.186C51.769 43.8458 51.769 43.8458 50.6941 47.5849C50.531 47.4184 50.368 47.252 50.2 47.0805C50.2693 46.1604 50.4083 45.273 50.5754 44.3665C50.9135 42.3476 50.9945 40.3786 51.0029 38.3326C51.0052 38.0691 51.0074 37.8057 51.0097 37.5342C51.0004 35.0587 50.6175 32.7892 49.8294 30.4516C49.7249 30.1373 49.6205 29.8229 49.5128 29.499C49.2793 28.8565 49.0364 28.2629 48.7176 27.6618Z" fill="#DFA78C"/>
<path d="M56.8706 16.3132C58.2683 16.4587 59.5442 16.7272 60.8853 17.1486C61.066 17.204 61.2467 17.2595 61.4329 17.3167C62.9691 17.7922 64.4942 18.3008 66.0117 18.8351C66.0117 19.0015 66.0117 19.168 66.0117 19.3395C64.6654 20.5618 63.0416 21.4052 61.4412 22.2239C61.2666 22.3132 61.0921 22.4025 60.9123 22.4944C59.6546 23.1223 59.6546 23.1223 59.0941 23.1223C59.0371 22.8574 58.9801 22.5924 58.9213 22.3195C58.5091 20.4827 58.1149 18.8282 57.106 17.2215C56.8706 16.8176 56.8706 16.8176 56.8706 16.3132Z" fill="#E4AD44"/>
<path d="M63.2941 67.7601C62.6549 71.675 60.5123 74.8063 57.4477 77.1838C56.7712 77.6665 56.1612 78.0563 55.3882 78.3521C55.2251 78.2689 55.0621 78.1857 54.8941 78.1C55.0075 78.0083 55.1208 77.9166 55.2377 77.8222C56.2352 76.9879 56.9731 76.221 57.6117 75.0737C57.6117 74.9072 57.6117 74.7408 57.6117 74.5693C57.4321 74.6057 57.2525 74.6421 57.0674 74.6796C55.2515 75.0218 53.5269 75.1338 51.6823 75.0737C52.3725 74.604 52.6237 74.4903 53.3992 74.3723C53.5885 74.342 53.7779 74.3118 53.9729 74.2806C54.2684 74.2363 54.2684 74.2363 54.5698 74.191C55.3382 74.0727 56.105 73.9486 56.8706 73.8127C57.0581 73.7796 57.2456 73.7464 57.4387 73.7122C58.4473 73.5219 58.4473 73.5219 59.1848 72.8512C59.2262 72.6692 59.2676 72.4871 59.3103 72.2996C59.3596 72.0996 59.409 71.8997 59.4599 71.6937C59.5022 71.4775 59.5446 71.2614 59.5882 71.0386C59.6382 70.8042 59.6882 70.5698 59.7397 70.3283C59.8632 69.7257 59.977 69.1228 60.0823 68.5167C60.4783 68.3893 60.8747 68.2635 61.2713 68.1384C61.492 68.0682 61.7127 67.998 61.9401 67.9256C62.5529 67.7601 62.5529 67.7601 63.2941 67.7601Z" fill="#E5E0DD"/>
<path d="M16.847 63.9773C18.4106 63.9773 19.4482 64.6346 20.5529 65.7426C21.3265 66.8918 21.87 68.1889 22.4522 69.4467C22.5549 69.6653 22.6576 69.8839 22.7634 70.1092C22.8604 70.318 22.9573 70.5269 23.0573 70.7421C23.1457 70.9322 23.2341 71.1222 23.3252 71.3181C23.5176 71.7952 23.5176 71.7952 23.5176 72.2996C22.0927 72.4208 20.9622 72.2137 19.8117 71.2908C19.3958 70.1669 19.6425 69.1785 19.8117 68.0123C19.7065 67.4691 19.7065 67.4691 19.5647 67.0036C19.4185 67.0364 19.2723 67.0692 19.1217 67.1031C17.5343 67.3859 17.5343 67.3859 16.5691 66.7356C16.1058 65.9948 16.1058 65.9948 16.1213 65.1909C16.3529 64.4817 16.3529 64.4817 16.847 63.9773Z" fill="#E8AD91"/>
<path d="M24.2588 13.0347C25.0855 13.855 25.83 14.6963 26.5441 15.6197C28.0142 17.4724 29.6207 19.0905 31.4235 20.6004C31.4235 20.6836 31.4235 20.7669 31.4235 20.8526C29.4217 20.9606 27.7324 20.6802 25.8183 20.096C25.4479 19.9878 25.4479 19.9878 25.0699 19.8773C24.4691 19.7013 23.8695 19.522 23.2705 19.3395C23.3521 19.173 23.4336 19.0066 23.5176 18.8351C23.8437 18.8351 24.1698 18.8351 24.5058 18.8351C24.4654 18.5877 24.4249 18.3403 24.3833 18.0854C24.2361 17.0341 24.231 16.002 24.2433 14.9419C24.2444 14.7574 24.2456 14.5729 24.2467 14.3828C24.2496 13.9334 24.254 13.4841 24.2588 13.0347Z" fill="#E3AD46"/>
<path d="M73.4235 65.7426C73.9176 66.247 73.9176 66.247 74.0257 66.8459C73.9176 67.5079 73.9176 67.5079 73.4389 68.1069C72.3881 68.6761 71.5955 68.4971 70.4588 68.2645C70.4167 68.6532 70.3757 69.042 70.3353 69.4309C70.3111 69.6611 70.2869 69.8912 70.2619 70.1284C70.193 70.8185 70.193 70.8185 70.2735 71.6376C70.2117 72.2996 70.2117 72.2996 69.7485 72.8985C68.6633 73.4745 67.7053 73.3939 66.5059 73.3083C66.6631 72.0978 67.1468 71.1219 67.6794 70.0456C67.7622 69.8715 67.845 69.6974 67.9303 69.5181C69.1204 67.0907 70.5511 65.2991 73.4235 65.7426Z" fill="#E8AD91"/>
<path d="M62.8 35.9841C63.6978 36.7845 64.1637 37.6555 64.622 38.7582C64.6957 38.9338 64.7694 39.1094 64.8453 39.2904C66.4175 43.1566 68.2063 48.1376 67.9882 52.3765C67.8251 52.2933 67.6621 52.21 67.4941 52.1243C67.2998 51.4685 67.1298 50.8186 66.9691 50.1541C66.2989 47.5222 65.3176 45.0423 64.2823 42.541C64.2563 42.6833 64.2302 42.8255 64.2034 42.972C64.0822 43.6273 63.9584 44.2821 63.8345 44.9369C63.7936 45.1605 63.7527 45.3842 63.7105 45.6146C63.4437 47.0125 63.0798 48.2832 62.5529 49.6024C62.4714 49.6024 62.3899 49.6024 62.3059 49.6024C62.3059 48.8534 62.3059 48.1044 62.3059 47.3327C62.5504 47.2078 62.5504 47.2078 62.8 47.0805C63.7497 44.2678 63.6393 40.3305 62.9081 37.4746C62.8 36.9928 62.8 36.9928 62.8 35.9841Z" fill="#DDA58A"/>
<path d="M33.647 29.6793C33.9621 30.6442 33.7786 31.1679 33.5544 32.1539C33.3058 33.26 33.0774 34.3583 32.9058 35.4797C32.5797 35.3965 32.2536 35.3132 31.9176 35.2275C31.8175 35.5029 31.8175 35.5029 31.7154 35.7838C31.4306 36.4714 31.1038 37.0498 30.7055 37.6745C30.5635 37.8991 30.4216 38.1237 30.2753 38.355C30.1243 38.5921 29.9732 38.8292 29.8176 39.0734C28.5793 41.0321 27.3794 43.0031 26.2623 45.0366C25.8116 45.8425 25.5225 46.3045 24.7529 46.8283C26.5086 40.6678 30.2628 35.0136 33.647 29.6793Z" fill="#DFA78C"/>
<path d="M34.1411 55.1506C34.7433 55.5446 34.7433 55.5446 35.1294 56.1594C35.3035 57.4035 35.3197 57.8854 34.6353 58.9335C33.8175 59.4899 33.3634 59.6431 32.3972 59.5758C31.4684 59.3087 31.1384 58.7507 30.6823 57.9247C30.6647 56.8797 30.7589 56.3726 31.408 55.5604C32.3822 54.777 32.9343 54.8745 34.1411 55.1506Z" fill="#151213"/>
<path d="M59.3411 55.1506C59.9434 55.5446 59.9434 55.5446 60.3294 56.1593C60.5048 57.4127 60.5248 57.8867 59.8198 58.9334C58.9019 59.5714 58.4546 59.6365 57.3647 59.4378C56.6407 58.9346 56.217 58.5732 56.0194 57.6794C55.97 56.78 56.053 56.2606 56.5926 55.5446C57.5901 54.7959 58.1285 54.8731 59.3411 55.1506Z" fill="#121010"/>
<path d="M15.8588 17.5741C16.847 18.5829 17.8352 19.5917 18.8235 20.6004C17.8734 21.3996 16.8028 21.9542 15.7198 22.5391C15.5301 22.644 15.3405 22.7488 15.1451 22.8568C14.9625 22.9558 14.7798 23.0548 14.5916 23.1568C14.4258 23.2471 14.2601 23.3374 14.0892 23.4304C13.6352 23.6267 13.6352 23.6267 12.8941 23.6267C13.341 22.6648 13.7891 21.7035 14.2374 20.7423C14.365 20.4677 14.4925 20.1932 14.624 19.9103C14.8067 19.519 14.8067 19.519 14.9931 19.1198C15.1057 18.8781 15.2182 18.6364 15.3342 18.3874C15.6117 17.8263 15.6117 17.8263 15.8588 17.5741Z" fill="#EBB866"/>
<path d="M58.3529 37.245C59.1681 37.9401 59.5864 38.8617 60.0514 39.8142C60.1377 39.9907 60.2241 40.1671 60.313 40.3489C61.2862 42.4027 62.3059 44.7752 62.3059 47.0805C62.0613 46.9973 61.8167 46.914 61.5647 46.8283C61.6462 46.5786 61.7277 46.3289 61.8117 46.0717C61.078 46.3214 60.3442 46.571 59.5882 46.8283C59.5761 46.5568 59.564 46.2854 59.5515 46.0057C59.407 43.029 59.1286 40.1293 58.3529 37.245Z" fill="#D6A086"/>
<path d="M48.7176 9.50402C49.4554 10.3792 49.943 11.1943 50.3698 12.2624C50.4727 12.5143 50.5756 12.7662 50.6815 13.0258C50.9411 13.7913 50.9411 13.7913 51.1882 15.3044C49.5576 15.2212 47.927 15.138 46.247 15.0522C47.2044 13.1293 47.2044 13.1293 47.5034 12.5327C47.9929 11.5411 48.4042 10.5716 48.7176 9.50402Z" fill="#C88E31"/>
<path d="M58.3529 19.3395C60.3362 19.4791 62.1424 20.0095 64.0353 20.6004C63.1288 21.399 62.2377 21.9264 61.1478 22.4288C60.8666 22.5601 60.5853 22.6915 60.2956 22.8268C59.5882 23.1223 59.5882 23.1223 59.0941 23.1223C58.8495 21.874 58.6049 20.6256 58.3529 19.3395Z" fill="#C78E31"/>
<path d="M59.3411 42.541C59.4227 42.541 59.5042 42.541 59.5882 42.541C59.5882 43.9558 59.5882 45.3706 59.5882 46.8283C60.322 46.5786 61.0557 46.3289 61.8117 46.0717C61.5647 46.8283 61.5647 46.8283 61.0167 47.168C60.6588 47.3378 60.6588 47.3378 60.2937 47.511C60.0292 47.6382 59.7647 47.7655 59.4922 47.8966C59.213 48.0278 58.9339 48.159 58.6463 48.2941C58.1041 48.553 57.5621 48.8121 57.0201 49.0714C56.7508 49.1987 56.4815 49.326 56.2041 49.4572C55.1367 49.9771 54.0942 50.5422 53.054 51.1162C52.3711 51.3886 52.1053 51.3871 51.4353 51.1155C51.6823 50.359 51.6823 50.359 52.3109 49.9993C52.7211 49.8174 52.7211 49.8174 53.1396 49.6319C53.4364 49.499 53.7332 49.366 54.039 49.229C54.3549 49.0907 54.6708 48.9525 54.9867 48.8143C55.3008 48.6743 55.6148 48.5341 55.9286 48.3936C58.1868 47.3892 58.1868 47.3892 59.0941 47.0805C59.1756 45.5825 59.2571 44.0844 59.3411 42.541Z" fill="#1A1514"/>
<path d="M32.4117 44.5586C32.7513 45.5213 32.5797 46.3422 32.4117 47.3327C32.542 47.3736 32.6722 47.4145 32.8064 47.4566C34.3381 47.9556 35.7852 48.586 37.2448 49.2714C37.5833 49.4286 37.5833 49.4286 37.9286 49.5891C38.4783 49.8447 39.0276 50.1013 39.5764 50.359C39.5764 50.6919 39.5764 51.0247 39.5764 51.3677C38.3473 51.2054 37.3311 50.6708 36.2296 50.1245C36.029 50.0259 35.8284 49.9273 35.6218 49.8257C35.1995 49.6174 34.7776 49.4084 34.356 49.1986C33.7089 48.8774 33.0599 48.5606 32.4108 48.2439C32.0005 48.0409 31.5903 47.8376 31.1803 47.6341C30.9855 47.5395 30.7907 47.4449 30.59 47.3475C30.1169 47.1096 29.6569 46.8449 29.2 46.5761C29.1184 46.3264 29.0369 46.0768 28.9529 45.8195C29.3032 45.9341 29.6531 46.05 30.0029 46.1663C30.1978 46.2307 30.3927 46.295 30.5935 46.3613C31.1434 46.5639 31.6481 46.8023 32.1647 47.0805C32.1596 46.758 32.1545 46.4355 32.1492 46.1032C32.1338 45.126 32.1338 45.126 32.4117 44.5586Z" fill="#191413"/>
<path d="M27.7176 5.21677C27.7176 6.1677 27.4302 6.49774 26.9147 7.28159C26.1871 8.41449 25.5657 9.54071 25 10.765C24.057 10.3728 23.4702 9.74714 22.7764 8.99964C24.3652 7.63548 25.9595 6.34671 27.7176 5.21677Z" fill="#ECB866"/>
<path d="M29.2 73.0561C30.4189 73.3032 31.6374 73.5523 32.8537 73.8127C35.182 74.3062 37.482 74.7134 39.8495 74.9495C40.0855 74.9905 40.3215 75.0315 40.5647 75.0737C40.687 75.3233 40.687 75.3233 40.8117 75.5781C39.1644 75.6061 37.5547 75.5369 35.9169 75.3574C35.5968 75.3224 35.5968 75.3224 35.2703 75.2868C34.8444 75.2393 34.4186 75.1909 33.9929 75.1415C33.6213 75.099 33.2495 75.0584 32.8775 75.0206C32.4334 74.9755 31.9902 74.9224 31.547 74.8688C31.184 74.8273 31.184 74.8273 30.8136 74.785C29.9797 74.4974 29.6797 74.0441 29.2 73.3083C29.2 73.2251 29.2 73.1419 29.2 73.0561Z" fill="#E6E1DF"/>
<path d="M59.3411 41.0279C59.9889 41.9095 60.4275 42.6869 60.8853 43.6759C61.019 43.9594 61.1528 44.2429 61.2906 44.5349C61.5612 45.3054 61.6225 45.5858 61.3176 46.3239C60.7469 46.4903 60.1762 46.6568 59.5882 46.8283C59.5067 44.9142 59.4251 43 59.3411 41.0279Z" fill="#F3C29A"/>
<path d="M45.2588 17.3219C46.0103 17.3576 46.7618 17.3946 47.5132 17.4323C47.7247 17.4422 47.9361 17.4521 48.154 17.4623C49.2654 17.519 50.3403 17.6083 51.4353 17.8263C51.4353 18.6586 51.4353 19.4908 51.4353 20.3482C51.104 20.1246 50.7728 19.9009 50.4316 19.6705C48.8064 18.6655 47.0663 18.1301 45.2588 17.5741C45.2588 17.4909 45.2588 17.4077 45.2588 17.3219Z" fill="#C28A30"/>
<path d="M30.3117 19.4971C30.9294 20.096 30.9294 20.096 31.4235 20.8526C29.7612 20.9088 28.3254 20.8401 26.7294 20.3482C27.0715 19.6497 27.4194 19.6176 28.1345 19.371C29.1304 19.0801 29.334 19.0337 30.3117 19.4971Z" fill="#C28A30"/>
<path d="M32.4117 44.5586C32.7513 45.5213 32.5797 46.3422 32.4117 47.3327C32.5748 47.4159 32.7378 47.4991 32.9058 47.5849C32.6613 47.7513 32.4167 47.9178 32.1647 48.0892C31.1048 47.5067 30.0449 46.9241 28.9529 46.3239C28.9529 46.1575 28.9529 45.991 28.9529 45.8195C29.3032 45.9341 29.6531 46.05 30.0029 46.1663C30.1978 46.2307 30.3927 46.295 30.5935 46.3613C31.1434 46.5639 31.6481 46.8023 32.1647 47.0805C32.1596 46.758 32.1545 46.4355 32.1492 46.1032C32.1338 45.126 32.1338 45.126 32.4117 44.5586Z" fill="#2C241F"/>
<path d="M43.7764 62.7163C43.9395 62.7995 44.1026 62.8828 44.2705 62.9685C44.1483 63.1402 44.026 63.3118 43.9 63.4887C43.4544 64.3794 43.4725 65.0078 43.5294 65.9948C42.9179 65.7451 42.9179 65.7451 42.2941 65.4904C42.3853 63.8764 42.3853 63.8764 43.1742 63.1104C43.373 62.9803 43.5717 62.8503 43.7764 62.7163Z" fill="#E9AF91"/>
<path d="M59.3411 42.541C59.4227 42.541 59.5042 42.541 59.5882 42.541C59.5882 43.9558 59.5882 45.3706 59.5882 46.8283C60.322 46.5786 61.0557 46.3289 61.8117 46.0717C61.5647 46.8283 61.5647 46.8283 60.8389 47.2539C60.0823 47.5849 60.0823 47.5849 59.5882 47.5849C59.3045 47.0057 59.3126 46.6812 59.317 46.0382C59.3178 45.835 59.3186 45.6319 59.3194 45.4225C59.3215 45.2102 59.3236 44.998 59.3257 44.7792C59.3268 44.565 59.3279 44.3508 59.3291 44.13C59.332 43.6004 59.3364 43.0707 59.3411 42.541Z" fill="#4A3B31"/>
<path d="M67.9882 52.8809C68.0697 52.8809 68.1513 52.8809 68.2353 52.8809C68.3983 53.9628 68.5614 55.0447 68.7294 56.1594C68.974 55.9097 69.2186 55.66 69.4706 55.4028C69.3312 56.3986 69.0399 57.0947 68.4823 57.9247C68.4008 57.9247 68.3193 57.9247 68.2353 57.9247C68.0382 56.236 67.9563 54.5812 67.9882 52.8809Z" fill="#DCA78A"/>
<path d="M63.2941 44.3064C63.3756 44.3064 63.4571 44.3064 63.5411 44.3064C63.6412 46.0847 63.5114 47.7013 62.8 49.3502C62.6369 49.4334 62.4739 49.5166 62.3059 49.6024C62.3059 48.8534 62.3059 48.1044 62.3059 47.3327C62.4689 47.2494 62.632 47.1662 62.8 47.0805C62.9707 46.4299 62.9707 46.4299 63.0779 45.6777C63.1193 45.4225 63.1607 45.1673 63.2034 44.9043C63.2333 44.707 63.2632 44.5097 63.2941 44.3064Z" fill="#CC9980"/>
<path d="M32.4117 44.5586C32.7513 45.5213 32.5797 46.3422 32.4117 47.3327C32.5748 47.4159 32.7378 47.4991 32.9058 47.5849C32.539 47.8345 32.539 47.8345 32.1647 48.0892C32.0016 47.9228 31.8385 47.7563 31.6705 47.5849C31.8336 47.5849 31.9967 47.5849 32.1647 47.5849C32.1618 47.4087 32.1589 47.2325 32.156 47.0509C32.1537 46.8214 32.1515 46.5919 32.1492 46.3554C32.1464 46.1272 32.1435 45.899 32.1405 45.6639C32.1647 45.0629 32.1647 45.0629 32.4117 44.5586Z" fill="#514136"/>
<path d="M24.7529 7.2343C24.7529 7.99087 24.7529 7.99087 24.3746 8.39576C24.2141 8.52742 24.0536 8.65908 23.8882 8.79473C23.7277 8.92834 23.5672 9.06196 23.4018 9.19962C23.2769 9.30007 23.1521 9.40052 23.0235 9.50402C23.0235 8.74745 23.0235 8.74745 23.4018 8.34256C23.6426 8.14507 23.6426 8.14507 23.8882 7.94359C24.0487 7.80998 24.2092 7.67636 24.3746 7.5387C24.4994 7.43825 24.6243 7.3378 24.7529 7.2343Z" fill="#E7B659"/>
<path d="M50.447 45.0629C50.6101 45.2294 50.7731 45.3958 50.9411 45.5673C50.933 46.2555 50.8018 46.9031 50.6941 47.5849C50.531 47.4184 50.368 47.252 50.2 47.0805C50.2081 46.3923 50.3393 45.7447 50.447 45.0629Z" fill="#D19D83"/>
</g>
<defs>
<filter id="filter0_d_215_102" x="0" y="0" width="90" height="85" filterUnits="userSpaceOnUse" color-interpolation-filters="sRGB">
<feFlood flood-opacity="0" result="BackgroundImageFix"/>
<feColorMatrix in="SourceAlpha" type="matrix" values="0 0 0 0 0 0 0 0 0 0 0 0 0 0 0 0 0 0 127 0" result="hardAlpha"/>
<feOffset dy="2"/>
<feComposite in2="hardAlpha" operator="out"/>
<feColorMatrix type="matrix" values="0 0 0 0 0 0 0 0 0 0 0 0 0 0 0 0 0 0 0.25 0"/>
<feBlend mode="normal" in2="BackgroundImageFix" result="effect1_dropShadow_215_102"/>
<feBlend mode="normal" in="SourceGraphic" in2="effect1_dropShadow_215_102" result="shape"/>
</filter>
</defs>
</svg>
