<svg width="89" height="93" viewBox="0 0 89 93" fill="none" xmlns="http://www.w3.org/2000/svg">
<g filter="url(#filter0_d_200_184)">
<path d="M67.9428 23.8797C69.4987 23.8571 71.0546 23.8417 72.6106 23.831C73.1392 23.8266 73.6678 23.8206 74.1963 23.8129C74.959 23.802 75.7215 23.7971 76.4843 23.7932C76.835 23.7863 76.835 23.7863 77.1928 23.7793C79.8158 23.7786 81.531 24.6881 83.3638 26.511C86.6495 30.0235 87.9351 35.1701 88.6003 39.8234C88.6323 40.0445 88.6323 40.0445 88.665 40.27C89.6528 47.9859 88.5814 56.9096 83.7656 63.2218C82.4657 64.7516 80.9271 65.9894 78.9308 66.3964C78.4621 66.4162 77.9928 66.4234 77.5236 66.423C77.234 66.4233 76.9443 66.4236 76.6459 66.4239C76.3252 66.4231 76.0046 66.4223 75.684 66.4215C75.3461 66.4214 75.0082 66.4215 74.6704 66.4216C73.7533 66.4217 72.8362 66.4204 71.9191 66.4188C70.9606 66.4174 70.0021 66.4173 69.0436 66.417C67.2286 66.4164 65.4136 66.4145 63.5986 66.4123C61.5323 66.4098 59.466 66.4086 57.3997 66.4075C53.1492 66.4052 48.8987 66.4013 44.6482 66.3964C44.6482 67.2733 44.6482 68.1502 44.6482 69.0537C51.6102 69.0537 58.5722 69.0537 65.7452 69.0537C65.7452 81.1865 65.7452 81.1865 63.3278 83.8902C59.6603 87.5858 54.2366 88.9445 49.2632 89.6477C48.9628 89.6913 48.9628 89.6913 48.6563 89.7359C41.3066 90.5962 32.6134 89.459 26.6278 84.776C25.0142 83.3835 23.751 81.8222 23.3314 79.6828C23.2692 78.8676 23.2713 78.0553 23.2746 77.2379C23.2738 76.9965 23.273 76.7551 23.2722 76.5063C23.2703 75.7108 23.2716 74.9154 23.2731 74.12C23.2728 73.5654 23.2723 73.0109 23.2718 72.4563C23.2711 71.295 23.272 70.1336 23.2741 68.9723C23.2765 67.6333 23.2758 66.2943 23.2733 64.9553C23.2711 63.6629 23.2713 62.3704 23.2726 61.078C23.2729 60.53 23.2726 59.982 23.2715 59.434C23.2704 58.6672 23.2721 57.9004 23.2746 57.1335C23.2737 56.9083 23.2728 56.6832 23.2719 56.4512C23.2888 53.5669 24.124 51.5338 26.081 49.4328C28.4433 47.1421 31.0161 46.1995 34.2504 46.2271C34.4378 46.2278 34.6253 46.2285 34.8185 46.2292C35.2246 46.2308 35.6307 46.2328 36.0368 46.2354C36.6845 46.2392 37.3321 46.2415 37.9797 46.2433C39.8209 46.2487 41.6622 46.2565 43.5034 46.2665C44.632 46.2725 45.7606 46.2762 46.8893 46.2786C47.3146 46.28 47.74 46.2822 48.1654 46.2853C50.4457 46.3018 52.7006 46.248 54.9731 46.0441C55.2743 46.0172 55.2743 46.0172 55.5816 45.9897C59.3602 45.6163 62.1861 43.5615 64.6464 40.7092C66.6446 38.0933 67.5186 35.7361 67.5651 32.4735C67.5712 32.1472 67.5712 32.1472 67.5774 31.8144C67.5946 30.8859 67.6095 29.9574 67.6247 29.0289C67.636 28.3502 67.6486 27.6715 67.6612 26.9928C67.6642 26.7829 67.6672 26.573 67.6703 26.3567C67.674 26.1608 67.6776 25.965 67.6814 25.7632C67.6842 25.5915 67.6869 25.4198 67.6898 25.2428C67.7231 24.7649 67.8131 24.3398 67.9428 23.8797ZM53.4798 75.3232C52.6515 76.3486 52.2058 77.1998 52.2626 78.5566C52.4498 79.676 52.9554 80.5314 53.7545 81.3159C54.8694 82.0283 55.8471 82.3112 57.1746 82.1187C58.2379 81.8063 58.9503 81.326 59.5782 80.4025C60.1452 79.3567 60.3849 78.4336 60.1688 77.2314C59.8041 76.0232 59.1386 75.2182 58.0536 74.5897C56.2787 73.9052 54.935 74.1176 53.4798 75.3232Z" fill="#F8C63C"/>
<path d="M62.9845 6.02602C64.858 7.81567 65.654 9.68291 65.785 12.2624C65.7996 13.1849 65.8006 14.1064 65.7959 15.029C65.7956 15.3744 65.7955 15.7199 65.7956 16.0654C65.7952 16.789 65.7934 17.5127 65.7904 18.2363C65.7868 19.1454 65.7859 20.0545 65.786 20.9636C65.7859 24.2679 65.7721 27.5728 65.674 30.8758C65.6692 31.0962 65.6644 31.3166 65.6595 31.5437C65.5133 35.5487 63.9799 38.6592 61.1302 41.3735C58.2335 43.893 55.2351 43.9431 51.5797 43.9647C50.7811 43.9695 49.9827 43.9794 49.1842 43.9906C47.7762 44.0095 46.3683 44.0239 44.9603 44.0368C42.7072 44.0574 40.4542 44.0816 38.2012 44.112C37.4183 44.1215 36.6354 44.127 35.8524 44.1322C35.3679 44.138 34.8834 44.1441 34.3989 44.1502C34.1844 44.1506 33.9699 44.151 33.749 44.1513C30.1127 44.2109 26.9381 45.6364 24.3727 48.2174C21.9963 50.7967 21.5163 53.6907 21.4824 57.0976C21.4781 57.3648 21.4739 57.632 21.4695 57.9073C21.4564 58.7532 21.4462 59.5992 21.436 60.4451C21.4276 61.0218 21.419 61.5985 21.4103 62.1751C21.3892 63.5822 21.3705 64.9893 21.3536 66.3964C19.7664 66.4189 18.1793 66.4344 16.5919 66.445C16.0527 66.4495 15.5134 66.4555 14.9742 66.4632C14.1963 66.474 13.4184 66.479 12.6404 66.4829C12.2825 66.4897 12.2825 66.4897 11.9173 66.4967C9.45893 66.4974 7.79944 65.7598 6.03818 64.0487C1.64521 59.4499 0.277155 52.657 0.0368284 46.4667C0.0277632 46.2651 0.0186981 46.0636 0.00935829 45.856C-0.0736097 42.1879 0.396731 38.4867 1.35539 34.9517C1.39473 34.8066 1.43407 34.6614 1.47461 34.5119C2.60043 30.5004 4.56715 26.8296 8.15251 24.563C9.18415 24.0178 9.97581 23.8245 11.1483 23.8264C11.2901 23.8261 11.4319 23.8257 11.5781 23.8253C12.0515 23.8246 12.5248 23.827 12.9982 23.8294C13.3383 23.8295 13.6784 23.8295 14.0185 23.8292C14.9406 23.8291 15.8627 23.8317 16.7847 23.8348C17.7488 23.8376 18.7129 23.8378 19.6769 23.8383C21.502 23.8397 23.3271 23.8434 25.1522 23.8478C27.2302 23.8528 29.3082 23.8552 31.3862 23.8574C35.6604 23.862 39.9345 23.8698 44.2087 23.8797C44.2087 23.0759 44.2087 22.272 44.2087 21.4438C37.3192 21.4438 30.4297 21.4438 23.3314 21.4438C23.3042 18.772 23.3042 18.772 23.2765 16.0462C23.2685 15.4883 23.2605 14.9305 23.2523 14.3557C23.2497 13.9071 23.2474 13.4586 23.2456 13.0101C23.2411 12.7823 23.2366 12.5546 23.232 12.3199C23.2308 9.86661 24.0588 7.92634 25.7488 6.16442C34.8347 -2.21831 53.755 -1.84432 62.9845 6.02602ZM30.1354 9.01547C29.1839 10.0887 28.7418 10.8305 28.7636 12.3224C28.9085 13.4599 29.4402 14.3262 30.2539 15.1051C31.4219 15.8701 32.2698 16.0899 33.6602 15.9078C34.817 15.5602 35.6707 14.9593 36.3162 13.9261C36.7708 12.8984 36.9029 11.8503 36.5978 10.761C36.0142 9.45153 35.1743 8.6476 33.8525 8.08818C32.4546 7.75135 31.1888 8.03941 30.1354 9.01547Z" fill="#367DF0"/>
</g>
<defs>
<filter id="filter0_d_200_184" x="0" y="0" width="89" height="93" filterUnits="userSpaceOnUse" color-interpolation-filters="sRGB">
<feFlood flood-opacity="0" result="BackgroundImageFix"/>
<feColorMatrix in="SourceAlpha" type="matrix" values="0 0 0 0 0 0 0 0 0 0 0 0 0 0 0 0 0 0 127 0" result="hardAlpha"/>
<feOffset dy="3"/>
<feComposite in2="hardAlpha" operator="out"/>
<feColorMatrix type="matrix" values="0 0 0 0 0 0 0 0 0 0 0 0 0 0 0 0 0 0 0.09 0"/>
<feBlend mode="normal" in2="BackgroundImageFix" result="effect1_dropShadow_200_184"/>
<feBlend mode="normal" in="SourceGraphic" in2="effect1_dropShadow_200_184" result="shape"/>
</filter>
</defs>
</svg>
