<svg width="93" height="94" viewBox="0 0 93 94" fill="none" xmlns="http://www.w3.org/2000/svg">
<g filter="url(#filter0_d_200_127)">
<path d="M40.1414 0.364068C41.0751 3.18484 40.2084 6.58167 39.0196 9.16252C37.2652 12.5161 34.3516 14.7417 30.7929 15.8726C29.1902 16.3198 27.6778 16.2492 25.9996 16.2492C25.9398 19.2619 25.8799 22.2746 25.8183 25.3786C28.1643 25.3425 28.1643 25.3425 30.5101 25.2963C30.8052 25.2937 31.1004 25.2914 31.3956 25.2894C31.5475 25.2848 31.6995 25.2801 31.856 25.2753C32.653 25.2747 32.9701 25.3006 33.6214 25.8064C33.9771 26.2915 33.9771 26.2915 34.0904 26.8393C33.9339 27.5955 33.6945 27.8549 33.0705 28.3C32.5814 28.35 32.1133 28.3173 31.6201 28.3C31.6268 31.4109 31.6377 34.5218 31.6534 37.6328C31.6606 39.0774 31.6665 40.5219 31.6692 41.9665C31.6716 43.2263 31.6765 44.486 31.6844 45.7457C31.6885 46.4121 31.6913 47.0785 31.6911 47.745C31.691 48.4907 31.6965 49.2362 31.7024 49.9818C31.7015 50.2006 31.7006 50.4195 31.6996 50.6449C31.722 52.4675 32.2431 53.8047 33.1428 55.3701C33.2582 55.5723 33.3737 55.7745 33.4927 55.9828C33.6163 56.1965 33.74 56.4102 33.8637 56.6239C33.9935 56.8502 34.1232 57.0765 34.2529 57.3028C34.6428 57.9828 35.0349 58.6615 35.4275 59.3399C35.5956 59.6308 35.5956 59.6308 35.767 59.9276C36.2855 60.8248 36.8051 61.7212 37.3255 62.6172C38.0301 63.8315 38.7294 65.0488 39.4276 66.2668C39.5399 66.4626 39.6522 66.6583 39.7679 66.86C39.8746 67.0462 39.9812 67.2325 40.0912 67.4244C40.1842 67.5868 40.2772 67.7492 40.3731 67.9165C40.6376 68.3847 40.8986 68.8545 41.1581 69.3255C41.2395 69.473 41.3208 69.6206 41.4046 69.7726C41.4664 69.8848 41.5282 69.997 41.5919 70.1126C41.8254 70.1127 42.059 70.1128 42.2996 70.1129C47.8426 70.1155 53.3856 70.1227 58.9286 70.1357C59.6108 70.1374 60.2929 70.1389 60.9751 70.1404C61.1109 70.1408 61.2467 70.1411 61.3867 70.1414C63.586 70.1462 65.7853 70.1479 67.9846 70.1484C70.2411 70.1489 72.4976 70.153 74.7542 70.1602C76.1467 70.1645 77.5391 70.1662 78.9317 70.1644C79.9993 70.1633 81.0669 70.167 82.1345 70.1725C82.5725 70.174 83.0107 70.1739 83.4487 70.1722C84.0463 70.1701 84.6436 70.1736 85.2411 70.1785C85.415 70.1765 85.5889 70.1746 85.7681 70.1726C86.5691 70.1848 87.1096 70.2179 87.7443 70.7383C88.5647 71.608 88.6036 72.2462 88.5998 73.4229C88.6012 73.6466 88.6012 73.6466 88.6026 73.8748C88.6052 74.3677 88.605 74.8605 88.6046 75.3534C88.6053 75.6968 88.6061 76.0403 88.6069 76.3837C88.6083 77.1039 88.6082 77.824 88.6073 78.5442C88.6062 79.4647 88.6093 80.3851 88.6135 81.3056C88.6162 82.0152 88.6163 82.7248 88.6158 83.4344C88.6159 83.7736 88.6168 84.1129 88.6186 84.4521C88.6209 84.9279 88.6196 85.4037 88.6175 85.8795C88.6189 86.0182 88.6203 86.157 88.6217 86.2999C88.6086 87.6549 88.2398 88.8388 87.2809 89.8321C86.0759 90.7974 84.8313 90.9732 83.3313 90.9735C83.1289 90.9743 83.1289 90.9743 82.9224 90.9752C82.472 90.9765 82.0217 90.9752 81.5713 90.974C81.2444 90.9744 80.9175 90.975 80.5906 90.9757C79.6936 90.9772 78.7967 90.9765 77.8998 90.9753C76.932 90.9745 75.9641 90.9758 74.9963 90.9768C73.1008 90.9784 71.2052 90.9781 69.3097 90.977C67.7691 90.9762 66.2286 90.9761 64.688 90.9765C64.4688 90.9765 64.2496 90.9766 64.0237 90.9766C63.5784 90.9767 63.133 90.9769 62.6877 90.977C58.511 90.978 54.3343 90.9768 50.1576 90.9749C46.5739 90.9732 42.9902 90.9735 39.4064 90.9752C35.245 90.9772 31.0836 90.9779 26.9222 90.9768C26.4785 90.9767 26.0347 90.9766 25.5909 90.9765C25.2634 90.9764 25.2634 90.9764 24.9293 90.9763C23.3907 90.976 21.8521 90.9765 20.3134 90.9774C18.4382 90.9784 16.563 90.9781 14.6878 90.9762C13.7311 90.9752 12.7743 90.9748 11.8176 90.976C10.9416 90.9771 10.0656 90.9765 9.18957 90.9746C8.87285 90.9742 8.55613 90.9744 8.23941 90.9753C5.79601 90.9816 3.64158 90.9165 1.73653 89.1623C0.558731 87.8567 0.0387778 86.4454 0.0162471 84.6968C0.0109885 84.565 0.00572994 84.4332 0.000312025 84.2974C-0.0211317 82.4302 1.06695 80.8989 1.95395 79.3219C2.12102 79.0232 2.12102 79.0232 2.29146 78.7184C3.25445 77.0021 4.23892 75.2988 5.22878 73.5982C5.89864 72.4468 6.56157 71.2916 7.22314 70.1354C7.33601 69.9382 7.44888 69.741 7.56517 69.5378C7.79394 69.1379 8.02268 68.7381 8.2514 68.3382C8.81851 67.347 9.38632 66.3562 9.95406 65.3653C10.1807 64.9697 10.4073 64.5741 10.634 64.1785C11.9937 61.8048 11.9937 61.8049 12.3343 61.2106C12.5592 60.8179 12.7839 60.4251 13.0084 60.0322C13.5369 59.108 14.0671 58.1848 14.6038 57.2654C14.8561 56.8328 15.1075 56.3997 15.3587 55.9664C15.5356 55.6623 15.7141 55.3591 15.8925 55.0559C16 54.8703 16.1075 54.6847 16.2183 54.4935C16.313 54.3315 16.4078 54.1695 16.5054 54.0027C17.1733 52.6391 17.1708 51.3767 17.1734 49.8782C17.1753 49.6447 17.1771 49.4112 17.179 49.1707C17.1839 48.5336 17.1866 47.8965 17.189 47.2595C17.1919 46.5925 17.1967 45.9255 17.2013 45.2586C17.2098 43.997 17.2165 42.7354 17.2225 41.4738C17.2294 40.037 17.2384 38.6001 17.2475 37.1633C17.2662 34.2088 17.2824 31.2544 17.2969 28.3C16.9548 28.3085 16.9548 28.3085 16.6057 28.3171C16.0319 28.3313 15.8394 28.2964 15.3026 28.0261C14.864 27.4741 14.8329 27.1612 14.8196 26.4741C15.0134 25.8863 15.3301 25.7054 15.8465 25.3786C16.3932 25.2803 16.9279 25.2933 17.4818 25.3073C17.6374 25.3083 17.7931 25.3093 17.9535 25.3104C18.4486 25.3145 18.9435 25.3236 19.4386 25.3329C19.7751 25.3366 20.1117 25.3399 20.4482 25.3429C21.2714 25.3503 22.0942 25.3646 22.9174 25.3786C22.8576 23.6312 22.7978 21.8839 22.7361 20.0835C21.9583 20.0835 21.1805 20.0835 20.3791 20.0835C16.8233 19.6668 13.4805 17.9847 11.2324 15.1394C8.92791 11.9756 8.15414 8.57852 8.5192 4.71836C8.59427 4.381 8.59427 4.381 8.95688 4.01582C12.3581 3.25466 15.9539 4.24383 18.8494 6.07564C20.3425 7.13595 21.9075 8.55496 22.7361 10.2238C22.7388 10.0848 22.7414 9.94575 22.7441 9.80251C22.7576 9.17066 22.7752 8.53898 22.7928 7.90723C22.7969 7.68845 22.8009 7.46968 22.8052 7.24428C22.8148 6.92741 22.8148 6.92741 22.8246 6.60415C22.8294 6.41004 22.8341 6.21594 22.839 6.01595C22.935 5.35576 23.1702 4.8568 23.6426 4.381C24.9226 4.27534 24.9226 4.27534 25.535 4.65488C25.9337 5.29727 25.9497 5.81883 25.9996 6.57205C26.1006 6.43083 26.2015 6.28961 26.3056 6.14411C28.6323 2.94591 31.5261 0.785225 35.4955 0.108018C37.1065 -0.0976029 38.5602 -0.00826266 40.1414 0.364068Z" fill="#01D0FA"/>
<path d="M68.3862 8.92786C69.1671 9.19639 69.8422 9.1522 70.6567 9.11616C71.56 9.1386 72.2141 9.50926 72.8721 10.1125C73.4071 10.706 73.7008 11.2714 73.8643 12.0497C73.838 12.316 73.8115 12.5822 73.785 12.8485C73.7435 14.2225 74.6086 15.3345 75.2982 16.4621C75.5722 16.9259 75.8082 17.4061 76.04 17.8925C76.2464 17.8882 76.2464 17.8882 76.4571 17.8838C80.7363 17.8065 84.8759 17.7737 88.3687 20.6313C88.484 20.7224 88.5992 20.8135 88.7179 20.9073C90.3096 22.3184 91.1483 24.5879 91.3142 26.6681C91.4672 30.7761 89.6493 34.2793 87.4622 37.612C87.5433 37.7511 87.6244 37.8902 87.708 38.0335C88.2308 38.9328 88.7531 39.8325 89.2639 40.7388C89.3366 40.8673 89.4093 40.9958 89.4842 41.1282C89.6379 41.4463 89.6379 41.4463 89.6379 41.8115C89.8473 41.8454 90.0567 41.8793 90.2724 41.9142C91.325 42.1764 92.1632 42.882 92.7576 43.7886C93.1385 44.8391 93.0369 46.1566 92.6861 47.1978C92.3575 47.6543 92.3575 47.6543 91.9056 48.0516C91.3682 48.661 91.2419 49.1945 91.0996 49.9709C90.8228 51.2513 90.4179 52.2493 89.6379 53.3145C89.5603 53.4277 89.4827 53.5409 89.4027 53.6576C87.6808 55.9374 84.7283 56.9064 82.023 57.3315C81.3964 57.3929 80.7711 57.4231 80.142 57.4456C79.9769 57.4525 79.8119 57.4594 79.6419 57.4666C78.4408 57.514 77.2419 57.5366 76.04 57.514C75.9411 57.7127 75.8422 57.9113 75.7404 58.116C74.8828 59.8107 73.9855 61.3395 72.7765 62.8091C72.6439 62.9724 72.5114 63.1358 72.3749 63.3041C70.5599 65.4435 68.162 66.997 65.3436 67.2375C62.7132 67.3361 60.3206 66.3867 58.3605 64.6278C56.2922 62.6771 54.6557 60.3344 53.5581 57.6966C53.5581 57.5761 53.5581 57.4556 53.5581 57.3315C53.4372 57.3446 53.3164 57.3578 53.1919 57.3714C49.9408 57.7011 49.9408 57.7011 49.2067 57.3315C49.16 57.4435 49.1132 57.5555 49.0651 57.671C48.6868 58.3401 48.102 58.5591 47.3937 58.7922C46.1652 58.9879 45.1435 58.7959 44.1302 58.0618C43.5433 57.5399 43.2469 57.0542 43.0423 56.2816C42.9526 55.9878 42.9526 55.9878 42.861 55.6882C42.5611 55.5609 42.2585 55.4401 41.9545 55.323C39.9625 53.8192 38.6311 51.9192 38.2314 49.4217C37.8509 45.484 39.2766 41.4481 41.6578 38.3288C42.0129 37.8263 42.0129 37.8263 41.8603 37.336C41.5575 36.8235 41.2472 36.3196 40.9233 35.8203C38.9728 32.7103 37.6472 29.0307 38.351 25.3215C38.9214 23.0342 40.0293 21.2763 41.9885 19.9466C45.4435 17.8819 49.266 17.6324 53.1954 17.8925C53.3151 17.9527 53.4348 18.013 53.5581 18.0751C53.5808 17.8915 53.5808 17.8915 53.6041 17.7042C53.779 17.0031 54.1005 16.4158 54.4533 15.7927C54.5255 15.6647 54.5977 15.5367 54.6721 15.4047C56.4859 12.2642 59.0004 9.32563 62.5997 8.30147C64.5806 7.85973 66.5477 8.15227 68.3862 8.92786ZM58.8542 14.4561C57.911 15.6677 57.0794 16.9556 56.6403 18.4403C57.3319 18.6857 58.0298 18.8931 58.7366 19.0886C59.0184 19.1666 59.0184 19.1666 59.3059 19.2462C59.7119 19.3576 60.1183 19.4676 60.525 19.5764C62.2634 20.052 62.2634 20.052 62.9505 20.428C64.0425 21.0059 64.7558 21.0495 65.9315 20.7119C67.0041 20.3637 68.0557 19.9635 69.1095 19.5622C70.0273 19.2342 70.9596 19.0221 71.9133 18.8315C72.2032 18.7716 72.4903 18.6986 72.7765 18.6228C72.8662 18.4421 72.8662 18.4421 72.9578 18.2577C72.6763 17.4084 72.3074 16.7123 71.6886 16.0666C71.0153 15.9408 70.4451 15.9855 69.7644 16.0452C68.9862 16.0723 68.5898 15.904 67.9811 15.4354C67.0323 14.4848 66.8854 13.5367 66.7934 12.2323C66.7377 11.927 66.6799 11.6221 66.6121 11.3193C63.4289 10.2508 60.8413 12.16 58.8542 14.4561ZM42.5947 23.2104C41.4728 24.5939 40.9555 26.1604 41.048 27.9348C41.3698 30.5762 42.4613 32.884 43.9489 35.0557C44.6203 34.7801 44.9782 34.3863 45.4446 33.8347C46.0526 33.1376 46.6706 32.511 47.3738 31.9132C47.9744 31.4003 48.5527 30.8627 49.1352 30.3291C49.5693 29.9433 49.5693 29.9433 50.0488 29.668C50.7534 28.9173 50.7756 27.9835 50.9291 26.9876C51.2032 25.38 51.5184 23.8266 52.0127 22.2727C52.1756 21.7601 52.2889 21.3569 52.2889 20.8139C48.8991 20.7177 45.2425 20.7008 42.5947 23.2104ZM77.1278 20.8139C77.1602 20.9287 77.1927 21.0434 77.2261 21.1616C77.5546 22.3321 77.8427 23.5115 78.125 24.6939C78.1657 24.8603 78.2064 25.0267 78.2483 25.1982C78.4275 25.9453 78.5926 26.6779 78.6746 27.4427C78.84 28.801 79.1304 29.5794 80.1986 30.4454C80.5162 30.6896 80.837 30.928 81.1607 31.1639C81.6736 31.5506 82.1425 31.9817 82.6123 32.4196C82.8759 32.6646 82.8759 32.6647 83.1449 32.9146C83.901 33.6528 84.6003 34.4338 85.2865 35.2383C85.8666 34.5511 86.3188 33.8302 86.737 33.0359C86.8001 32.9163 86.8632 32.7968 86.9282 32.6736C88.0283 30.5357 88.7627 28.1742 88.2575 25.7602C87.7105 24.0346 86.7279 22.8681 85.1392 22.0235C84.1292 21.5593 83.1086 21.2274 82.023 20.9965C81.865 20.9621 81.7071 20.9278 81.5443 20.8924C80.6828 20.7814 79.8309 20.7948 78.9635 20.8025C78.6985 20.8037 78.6985 20.8037 78.4281 20.805C77.9946 20.8071 77.5612 20.8101 77.1278 20.8139ZM55.3711 21.3617C54.8864 22.2535 54.6027 23.1374 54.3399 24.1119C54.2992 24.2561 54.2584 24.4002 54.2164 24.5487C54.0197 25.2668 53.865 25.9042 53.9207 26.6567C54.1785 26.5083 54.4364 26.3599 54.6943 26.2115C54.9216 26.0807 55.1489 25.9499 55.3762 25.8191C55.9627 25.4817 56.5492 25.144 57.1353 24.8059C58.2955 24.1367 59.4576 23.4715 60.629 22.8224C60.4803 22.4183 60.4804 22.4183 60.0587 22.3152C59.8907 22.2712 59.7227 22.2272 59.5496 22.1819C59.2744 22.1095 59.2744 22.1095 58.9937 22.0357C58.8004 21.9865 58.6071 21.9373 58.408 21.8866C58.2175 21.836 58.027 21.7854 57.8308 21.7333C56.9897 21.5153 56.2444 21.33 55.3711 21.3617ZM70.9974 21.8866C70.8049 21.9358 70.6125 21.985 70.4142 22.0357C70.1402 22.108 70.1402 22.108 69.8607 22.1819C69.6939 22.2259 69.527 22.2698 69.3551 22.3152C68.9362 22.4188 68.9362 22.4188 68.7877 22.8224C69.0006 22.9309 69.2136 23.0394 69.4329 23.1512C71.136 24.0305 72.7738 24.9566 74.3614 26.035C74.966 26.4946 74.966 26.4946 75.6773 26.6567C75.2793 24.8572 74.8516 23.0984 74.2269 21.3617C73.0814 21.3279 72.097 21.5921 70.9974 21.8866ZM63.6956 24.4785C63.5139 24.5657 63.3322 24.6529 63.1449 24.7427C62.8531 24.888 62.8531 24.888 62.5554 25.0362C62.3538 25.1354 62.1522 25.2347 61.9445 25.3369C60.0931 26.2622 58.3077 27.2732 56.5592 28.3822C56.1062 28.6592 55.6454 28.9076 55.1756 29.1544C53.742 29.9492 53.7421 29.9492 52.8501 31.2794C52.6124 32.3316 52.6137 33.3809 52.639 34.4552C52.652 35.077 52.6417 35.6951 52.6267 36.3167C52.6053 37.3931 52.613 38.4662 52.6381 39.5424C52.6469 39.9541 52.6522 40.3658 52.6537 40.7776C52.6103 42.9582 52.6103 42.9582 53.4015 44.9155C53.8625 45.2781 54.3181 45.5611 54.8405 45.8249C55.2215 46.0279 55.5709 46.2582 55.9278 46.5017C60.1989 49.5808 60.1989 49.5808 64.9541 51.0949C65.6334 50.9114 66.2302 50.6285 66.85 50.3018C66.9762 50.2364 67.1023 50.171 67.2323 50.1036C67.4981 49.9655 67.7636 49.8266 68.0287 49.6872C68.406 49.4902 68.7854 49.2984 69.1659 49.1079C71.3213 48.013 73.3657 46.7156 75.3147 45.2807C75.5063 45.1465 75.6978 45.0123 75.8952 44.874C76.5059 44.2647 76.5969 43.8083 76.649 42.9805C76.661 42.8454 76.673 42.7102 76.6853 42.571C76.8027 41.106 76.8199 39.6368 76.8124 38.1677C76.8105 37.7156 76.8124 37.2635 76.8148 36.8114C76.8161 35.921 76.7982 35.0325 76.7652 34.1428C76.7571 33.9164 76.7571 33.9164 76.7488 33.6854C76.7107 31.9874 76.7107 31.9874 76.1423 30.4289C75.8002 30.1145 75.4754 29.9081 75.0654 29.6922C74.9285 29.6082 74.7915 29.5242 74.6505 29.4376C74.3597 29.2608 74.0659 29.0887 73.7696 28.9214C73.3247 28.6676 72.8939 28.3985 72.4627 28.1217C68.246 25.0865 68.246 25.0865 63.6956 24.4785ZM48.0396 35.284C47.8791 35.4433 47.7187 35.6027 47.5534 35.7668C47.3999 35.921 47.2465 36.0752 47.0884 36.234C46.8765 36.4463 46.8765 36.4463 46.6603 36.6628C46.3354 37.0307 46.1334 37.3444 45.9432 37.7946C46.4022 38.2984 46.8637 38.7998 47.3257 39.3009C47.4549 39.4428 47.5842 39.5848 47.7173 39.731C47.8447 39.8687 47.9721 40.0064 48.1033 40.1482C48.2191 40.2744 48.335 40.4007 48.4543 40.5307C48.929 40.9989 48.929 40.9989 49.9319 41.6289C49.9319 38.9777 49.9319 36.3266 49.9319 33.595C49.3411 33.595 48.4415 34.8795 48.0396 35.284ZM79.6661 33.7776C79.6062 36.4288 79.5464 39.08 79.4848 41.8115C80.2881 41.118 81.0428 40.4499 81.7851 39.7003C81.9503 39.5344 82.1155 39.3685 82.2858 39.1975C82.7105 38.7475 83.0969 38.2857 83.4735 37.7946C83.191 37.1064 82.7647 36.6785 82.2383 36.1627C82.0839 36.0104 81.9294 35.8581 81.7702 35.7012C81.6143 35.5485 81.4584 35.3957 81.2978 35.2383C81.1438 35.0799 80.9898 34.9215 80.8311 34.7583C80.3652 34.281 80.3652 34.281 79.6661 33.7776ZM43.9489 40.1682C42.2784 43.0232 40.4631 46.1382 41.2519 49.5601C41.5401 50.5613 41.9971 51.2637 42.6797 52.0364C42.8069 52.1908 42.934 52.3452 43.065 52.5043C43.3816 52.8061 43.3816 52.806 43.7676 52.7553C44.1768 52.5621 44.4986 52.3146 44.8554 52.0364C45.8555 51.7007 47.0145 51.6511 48.0148 52.0129C49.0777 52.6277 49.5471 53.4299 49.9319 54.5926C50.1888 54.5976 50.4456 54.6011 50.7025 54.604C50.8455 54.6062 50.9886 54.6083 51.1359 54.6105C51.5468 54.5933 51.8953 54.5255 52.2889 54.41C52.2471 54.2479 52.2052 54.0857 52.1621 53.9186C51.7284 52.2077 51.34 50.4901 50.9747 48.763C50.9033 48.4263 50.8308 48.0898 50.7573 47.7536C50.6935 47.4577 50.6332 47.1611 50.5776 46.8635C50.405 46.0192 50.2053 45.6222 49.5013 45.1323C48.7554 44.5795 48.0609 44.0077 47.3823 43.3749C47.2912 43.2901 47.2002 43.2053 47.1063 43.1179C44.886 41.0361 44.886 41.0361 44.3115 40.1682C44.1918 40.1682 44.0722 40.1682 43.9489 40.1682ZM84.9314 40.5109C84.778 40.6687 84.6245 40.8265 84.4664 40.9891C84.2943 41.1647 84.1222 41.3403 83.9501 41.5159C83.6805 41.7918 83.4112 42.0681 83.1425 42.3449C82.0476 43.4714 80.9454 44.511 79.701 45.4719C78.9869 46.1123 78.8724 46.7717 78.693 47.6985C78.6483 47.9235 78.6037 48.1485 78.5577 48.3804C78.467 48.8478 78.3764 49.3152 78.2857 49.7826C77.974 51.3539 77.5879 52.8774 77.1278 54.41C79.9623 55.0263 83.333 54.3763 85.8078 52.9037C87.1391 52.0021 87.9725 50.8843 88.3007 49.2976C88.2472 48.7436 88.2472 48.7436 87.8822 48.5095C87.6219 48.356 87.3595 48.2061 87.0953 48.0594C86.5095 47.6956 86.3048 47.2206 86.0684 46.593C85.8696 45.1914 86.0819 44.2672 86.7986 43.0383C86.9795 42.511 86.9795 42.511 86.6428 41.9335C86.5076 41.7194 86.3689 41.5076 86.2271 41.298C86.1578 41.1889 86.0885 41.0798 86.0171 40.9674C85.8417 40.6958 85.6556 40.4313 85.4678 40.1682C85.2264 40.1471 85.2264 40.1471 84.9314 40.5109ZM74.8459 48.9823C72.8203 50.304 70.7596 51.4866 68.6064 52.5842C69.3488 52.9781 70.1012 53.1926 70.9067 53.4172C71.0454 53.4576 71.1842 53.498 71.3271 53.5395C72.2941 53.8111 73.2268 53.9555 74.2269 54.0449C74.4021 53.4747 74.5753 52.904 74.7482 52.3331C74.797 52.1742 74.8458 52.0154 74.8962 51.8517C75.2235 50.7664 75.4772 49.6834 75.6773 48.5672C75.3541 48.5672 75.1095 48.8083 74.8459 48.9823ZM53.9207 48.7498C54.0328 49.9157 54.2838 50.9937 54.6119 52.1163C54.6569 52.2823 54.7019 52.4484 54.7482 52.6195C54.7942 52.7771 54.8401 52.9346 54.8874 53.097C54.928 53.2397 54.9686 53.3825 55.0105 53.5295C55.1615 53.8898 55.1615 53.8898 55.5201 54.012C55.9695 54.0494 56.2984 53.9907 56.7344 53.8758C56.89 53.8357 57.0455 53.7956 57.2058 53.7542C57.3669 53.7108 57.5281 53.6674 57.6941 53.6226C57.9327 53.5607 57.9327 53.5607 58.176 53.4975C59.058 53.267 59.9353 53.0228 60.8103 52.7668C60.5229 52.1879 59.9317 52.0394 59.3712 51.7739C58.0367 51.1255 56.7794 50.383 55.5259 49.5886C55.3951 49.506 55.2643 49.4234 55.1296 49.3382C55.0142 49.2644 54.8988 49.1905 54.7799 49.1143C54.4391 48.9039 54.4391 48.9039 53.9207 48.7498ZM63.4208 54.7438C63.2172 54.8143 63.0136 54.8849 62.8038 54.9575C62.4789 55.0706 62.4789 55.0706 62.1474 55.186C60.2683 55.8306 58.4046 56.3885 56.4589 56.7837C57.8909 59.9136 59.8745 62.7963 63.1673 64.0872C64.7235 64.558 66.0693 64.1973 67.5186 63.5394C68.0962 63.2328 68.0962 63.2328 68.6064 62.8091C68.7266 62.7163 68.8467 62.6236 68.9705 62.5281C69.8413 61.81 70.5324 61.0173 71.19 60.1045C71.2625 60.0052 71.335 59.9059 71.4098 59.8036C72.0637 58.8626 72.5082 57.8358 72.9578 56.7837C72.8256 56.7507 72.6935 56.7177 72.5573 56.6837C67.9306 55.5219 67.9306 55.5219 65.8759 54.7348C64.9016 54.3624 64.3945 54.4015 63.4208 54.7438Z" fill="#CDBEBA"/>
<path d="M34.521 79.6072C40.9301 79.6012 47.3389 79.6164 53.748 79.644C54.8525 79.6488 55.9571 79.6533 57.0616 79.6578C59.2405 79.6668 61.4194 79.6759 63.5983 79.6852C65.7071 79.6941 67.816 79.703 69.9248 79.7117C70.0562 79.7123 70.1875 79.7128 70.3228 79.7134C70.9821 79.7161 71.6414 79.7189 72.3006 79.7216C77.7171 79.7441 83.1336 79.7668 88.55 79.7897C88.5635 80.8551 88.5734 81.9205 88.5799 82.9859C88.5826 83.3479 88.5863 83.7099 88.5911 84.0718C88.5977 84.594 88.6008 85.1161 88.6031 85.6383C88.606 85.7985 88.6088 85.9587 88.6117 86.1237C88.612 87.5596 88.3062 88.77 87.2809 89.8321C85.9171 90.9246 84.487 90.9818 82.8171 90.9752C82.6275 90.9759 82.4379 90.9766 82.2425 90.9773C81.6094 90.9792 80.9763 90.9785 80.3432 90.9777C79.8883 90.9785 79.4335 90.9795 78.9786 90.9806C77.8728 90.9828 76.767 90.9832 75.6611 90.9828C74.762 90.9825 73.8628 90.9828 72.9637 90.9836C72.8356 90.9837 72.7074 90.9838 72.5754 90.9839C72.315 90.9841 72.0546 90.9843 71.7943 90.9846C69.3548 90.9865 66.9152 90.9862 64.4757 90.985C62.2458 90.9841 60.0159 90.9862 57.7859 90.9896C55.4939 90.9932 53.2019 90.9947 50.9099 90.994C49.624 90.9936 48.3382 90.9941 47.0523 90.9967C45.8432 90.9991 44.6341 90.9986 43.425 90.9962C42.9815 90.9958 42.5381 90.9963 42.0947 90.9978C41.4887 90.9997 40.8829 90.9982 40.2769 90.9959C40.1021 90.9973 39.9272 90.9986 39.7471 91C38.3583 90.9889 36.9873 90.7668 35.9148 89.8092C35.8033 89.7146 35.6918 89.62 35.5769 89.5225C34.6252 88.3116 34.4154 87.089 34.4501 85.5805C34.4509 85.4278 34.4516 85.2751 34.4524 85.1178C34.4546 84.7858 34.4586 84.4539 34.4643 84.1219C34.4789 83.2293 34.4892 82.3366 34.4996 81.4438C34.5016 81.2669 34.5037 81.09 34.5058 80.9077C34.5109 80.4742 34.5159 80.0407 34.521 79.6072Z" fill="#05E29C"/>
<path d="M40.1414 0.364068C41.0751 3.18484 40.2084 6.58167 39.0196 9.16252C37.2652 12.5161 34.3516 14.7417 30.7929 15.8726C29.1902 16.3198 27.6778 16.2492 25.9996 16.2492C25.9398 19.2619 25.8799 22.2746 25.8183 25.3786C28.1643 25.3425 28.1643 25.3425 30.5101 25.2963C30.8052 25.2937 31.1004 25.2914 31.3956 25.2894C31.5475 25.2848 31.6995 25.2801 31.856 25.2753C32.653 25.2747 32.9701 25.3006 33.6214 25.8064C33.9771 26.2915 33.9771 26.2915 34.0904 26.8393C33.9771 27.3871 33.9771 27.3871 33.0705 28.3C30.6773 28.3 28.2841 28.3 25.8183 28.3C25.8183 37.3381 25.8183 46.3762 25.8183 55.6882C24.9208 55.6882 24.0234 55.6882 23.0987 55.6882C23.0987 46.6501 23.0987 37.612 23.0987 28.3C20.7055 28.3 18.3122 28.3 15.8465 28.3C14.94 27.5696 14.94 27.5696 14.8196 27.2045C14.8219 27.084 14.8242 26.9635 14.8266 26.8393C14.8243 26.7188 14.822 26.5983 14.8196 26.4741C15.0134 25.8863 15.3301 25.7054 15.8465 25.3786C16.3932 25.2803 16.9279 25.2933 17.4818 25.3073C17.7153 25.3088 17.7153 25.3088 17.9535 25.3104C18.4486 25.3145 18.9435 25.3236 19.4386 25.3329C19.7751 25.3366 20.1117 25.3399 20.4482 25.3429C21.2714 25.3503 22.0942 25.3646 22.9174 25.3786C22.8576 23.6312 22.7978 21.8839 22.7361 20.0835C21.9583 20.0835 21.1805 20.0835 20.3791 20.0835C16.8233 19.6668 13.4805 17.9847 11.2324 15.1394C8.92791 11.9756 8.15414 8.57852 8.5192 4.71836C8.59427 4.381 8.59427 4.381 8.95688 4.01582C12.3581 3.25466 15.9539 4.24383 18.8494 6.07564C20.3425 7.13595 21.9075 8.55496 22.7361 10.2238C22.7388 10.0848 22.7414 9.94575 22.7441 9.80251C22.7576 9.17066 22.7752 8.53898 22.7928 7.90723C22.7969 7.68845 22.8009 7.46968 22.8052 7.24428C22.8148 6.92741 22.8148 6.92741 22.8246 6.60415C22.8294 6.41004 22.8341 6.21594 22.839 6.01595C22.935 5.35576 23.1702 4.8568 23.6426 4.381C24.9226 4.27534 24.9226 4.27534 25.535 4.65488C25.9337 5.29727 25.9497 5.81883 25.9996 6.57205C26.1006 6.43083 26.2015 6.28961 26.3056 6.14411C28.6323 2.94591 31.5261 0.785225 35.4955 0.108018C37.1065 -0.0976029 38.5602 -0.00826266 40.1414 0.364068Z" fill="#0DD290"/>
<path d="M38.1886 70.2232C38.5006 70.2215 38.5006 70.2215 38.819 70.2198C39.3958 70.2173 39.9724 70.2172 40.5492 70.2182C41.1715 70.2187 41.7938 70.2161 42.416 70.2138C43.6348 70.21 44.8536 70.2092 46.0725 70.2095C47.0631 70.2097 48.0537 70.209 49.0443 70.2077C49.3296 70.2073 49.6149 70.2069 49.9002 70.2065C50.0422 70.2063 50.1842 70.2061 50.3305 70.2059C53.0161 70.2025 55.7018 70.2027 58.3875 70.2039C60.8447 70.2049 63.3018 70.2011 65.759 70.1951C68.2819 70.1889 70.8048 70.1862 73.3277 70.187C74.7442 70.1874 76.1607 70.1865 77.5771 70.1819C78.7829 70.1781 79.9887 70.1774 81.1945 70.1809C81.8097 70.1825 82.4249 70.1828 83.0401 70.179C83.707 70.1757 84.3738 70.178 85.0407 70.1817C85.3324 70.1783 85.3324 70.1783 85.63 70.1748C87.091 70.1924 87.091 70.1924 87.7495 70.7131C88.3414 71.3821 88.5964 71.8437 88.5912 72.7421C88.5912 72.8992 88.5911 73.0564 88.5911 73.2183C88.5892 73.3862 88.5874 73.5542 88.5854 73.7273C88.5847 73.9871 88.5847 73.9871 88.5839 74.2522C88.5819 74.8047 88.5773 75.3572 88.5727 75.9098C88.5709 76.2847 88.5692 76.6596 88.5677 77.0345C88.5637 77.9529 88.5575 78.8713 88.55 79.7897C83.0024 79.7939 77.4548 79.7972 71.9072 79.7991C71.2464 79.7993 70.5856 79.7995 69.9248 79.7998C69.7276 79.7998 69.7276 79.7998 69.5263 79.7999C67.4205 79.8007 65.3146 79.8021 63.2087 79.8038C61.0343 79.8056 58.8599 79.8066 56.6855 79.8069C55.4699 79.8072 54.2543 79.8077 53.0387 79.809C46.8638 79.8157 40.6942 79.757 34.521 79.6072C34.5197 79.5022 34.5184 79.3973 34.5171 79.2891C34.5113 78.8085 34.5054 78.328 34.4996 77.8474C34.4976 77.6823 34.4956 77.5172 34.4935 77.3471C34.4831 76.4963 34.4709 75.6456 34.4556 74.7949C34.4535 74.4911 34.4517 74.1873 34.4501 73.8835C34.4464 73.7284 34.4427 73.5733 34.4389 73.4135C34.4383 72.3408 34.6063 71.7116 35.2462 70.8429C36.1125 70.0932 37.1074 70.2178 38.1886 70.2232Z" fill="#C7EEFD"/>
<path d="M17.2969 28.3C19.2115 28.3 21.1261 28.3 23.0987 28.3C23.0987 37.3381 23.0987 46.3762 23.0987 55.6882C23.9962 55.6882 24.8936 55.6882 25.8183 55.6882C25.8183 46.6501 25.8183 37.612 25.8183 28.3C27.7329 28.3 29.6475 28.3 31.6201 28.3C31.6218 29.0205 31.6235 29.7411 31.6252 30.4835C31.6313 32.8666 31.6414 35.2497 31.6534 37.6328C31.6606 39.0774 31.6665 40.5219 31.6692 41.9665C31.6716 43.2263 31.6765 44.486 31.6844 45.7457C31.6885 46.4121 31.6913 47.0785 31.6911 47.745C31.691 48.4907 31.6965 49.2362 31.7024 49.9818C31.7015 50.2006 31.7006 50.4195 31.6996 50.6449C31.7224 52.4948 32.2634 53.8389 33.1746 55.4278C33.2632 55.5833 33.2632 55.5833 33.3535 55.7418C33.5413 56.0708 33.7308 56.3987 33.9204 56.7266C34.0506 56.9539 34.1806 57.1813 34.3106 57.4087C35.1223 58.8257 35.9494 60.2327 36.8043 61.6237C37.0592 62.0787 37.0592 62.0787 37.0592 62.4439C28.7428 62.4439 20.4263 62.4439 11.8578 62.4439C12.1254 61.77 12.3913 61.1916 12.7409 60.5653C12.8442 60.3799 12.9474 60.1945 13.0538 60.0035C13.1639 59.8071 13.2741 59.6107 13.3875 59.4084C13.5002 59.2061 13.613 59.0038 13.7291 58.7954C14.2637 57.8385 14.8031 56.885 15.3571 55.9392C15.4478 55.784 15.5385 55.6288 15.6319 55.4689C15.8002 55.1823 15.9697 54.8964 16.1407 54.6114C16.2166 54.4824 16.2924 54.3533 16.3706 54.2203C16.4688 54.0559 16.4688 54.0559 16.5691 53.8882C17.1879 52.5725 17.1709 51.3118 17.1734 49.8782C17.1753 49.6447 17.1771 49.4112 17.179 49.1707C17.1839 48.5336 17.1866 47.8965 17.189 47.2595C17.1919 46.5925 17.1967 45.9255 17.2013 45.2586C17.2098 43.997 17.2165 42.7354 17.2225 41.4738C17.2294 40.037 17.2384 38.6001 17.2475 37.1633C17.2662 34.2088 17.2824 31.2544 17.2969 28.3Z" fill="#C8EEFE"/>
<path d="M38.1886 70.2232C38.5006 70.2215 38.5006 70.2215 38.819 70.2198C39.3958 70.2173 39.9724 70.2172 40.5492 70.2182C41.1715 70.2187 41.7938 70.2161 42.416 70.2138C43.6348 70.21 44.8536 70.2092 46.0725 70.2095C47.0631 70.2097 48.0537 70.209 49.0443 70.2077C49.3296 70.2073 49.6149 70.2069 49.9002 70.2065C50.0422 70.2063 50.1842 70.2061 50.3305 70.2059C53.0161 70.2025 55.7018 70.2027 58.3875 70.2039C60.8447 70.2049 63.3018 70.2011 65.759 70.1951C68.2819 70.1889 70.8048 70.1862 73.3277 70.187C74.7442 70.1874 76.1607 70.1865 77.5771 70.1819C78.7829 70.1781 79.9887 70.1774 81.1945 70.1809C81.8097 70.1825 82.4249 70.1828 83.0401 70.179C83.707 70.1757 84.3738 70.178 85.0407 70.1817C85.3324 70.1783 85.3324 70.1783 85.63 70.1748C87.091 70.1924 87.091 70.1924 87.7495 70.7131C88.3414 71.3821 88.5964 71.8437 88.5912 72.7421C88.5912 72.8992 88.5911 73.0564 88.5911 73.2183C88.5892 73.3862 88.5874 73.5542 88.5854 73.7273C88.5847 73.9871 88.5847 73.9871 88.5839 74.2522C88.5819 74.8047 88.5773 75.3572 88.5727 75.9098C88.5709 76.2847 88.5692 76.6596 88.5677 77.0345C88.5637 77.9529 88.5575 78.8713 88.55 79.7897C83.0024 79.7939 77.4548 79.7972 71.9072 79.7991C71.2464 79.7993 70.5856 79.7995 69.9248 79.7998C69.7276 79.7998 69.7276 79.7998 69.5263 79.7999C67.4205 79.8007 65.3146 79.8021 63.2087 79.8038C61.0343 79.8056 58.8599 79.8066 56.6855 79.8069C55.4699 79.8072 54.2543 79.8077 53.0387 79.809C46.8638 79.8157 40.6942 79.757 34.521 79.6072C34.5197 79.5022 34.5184 79.3973 34.5171 79.2891C34.5113 78.8085 34.5054 78.328 34.4996 77.8474C34.4976 77.6823 34.4956 77.5172 34.4935 77.3471C34.4831 76.4963 34.4709 75.6456 34.4556 74.7949C34.4535 74.4911 34.4517 74.1873 34.4501 73.8835C34.4464 73.7284 34.4427 73.5733 34.4389 73.4135C34.4383 72.3408 34.6063 71.7116 35.2462 70.8429C36.1125 70.0932 37.1074 70.2178 38.1886 70.2232ZM43.2236 73.034C43.4954 73.8552 43.7278 74.4314 44.1514 75.1566C44.3165 75.4404 44.3165 75.4404 44.485 75.73C44.5997 75.9249 44.7145 76.1198 44.8327 76.3206C44.9461 76.5155 45.0594 76.7103 45.1762 76.9111C45.4891 77.4468 45.8023 77.9816 46.1245 78.5116C46.2183 78.7002 46.312 78.8887 46.4085 79.083C46.8147 79.6766 46.8147 79.6766 47.5478 79.742C47.8374 79.7466 48.1272 79.7451 48.4168 79.7389C48.5766 79.7398 48.7364 79.7408 48.9011 79.7417C49.4376 79.7435 49.9738 79.7375 50.5104 79.7315C50.8945 79.7312 51.2787 79.7314 51.6628 79.732C52.7068 79.7323 53.7507 79.7259 54.7946 79.7182C55.8852 79.7114 56.9758 79.7107 58.0664 79.7094C60.132 79.706 62.1977 79.697 64.2633 79.6861C66.6148 79.6738 68.9662 79.6678 71.3177 79.6623C76.1553 79.6508 80.9929 79.6313 85.8304 79.6072C85.8304 77.438 85.8304 75.2689 85.8304 73.034C71.7702 73.034 57.71 73.034 43.2236 73.034Z" fill="#98E5FB"/>
<path d="M11.6765 62.4439C12.0229 62.378 12.0229 62.378 12.4499 62.3817C12.6096 62.3818 12.7693 62.3818 12.9338 62.3819C13.1065 62.3847 13.2791 62.3875 13.4569 62.3904C13.6335 62.3912 13.8101 62.392 13.992 62.3928C14.5573 62.3958 15.1225 62.4027 15.6878 62.4097C16.0705 62.4124 16.4532 62.4149 16.8359 62.4172C17.7753 62.4232 18.7146 62.4324 19.6539 62.4439C19.4198 63.0629 19.1539 63.6347 18.8295 64.2106C18.7375 64.3745 18.6454 64.5384 18.5506 64.7072C18.4012 64.9708 18.4012 64.9708 18.2488 65.2398C18.092 65.5177 18.092 65.5177 17.9321 65.8012C16.9832 67.4793 16.0169 69.147 15.0483 70.8137C14.2631 72.1658 13.4858 73.5225 12.71 74.88C12.1802 75.8069 11.6497 76.7332 11.1146 77.657C10.9273 77.9804 10.7404 78.304 10.5535 78.6276C10.3194 79.0328 10.0847 79.4377 9.84929 79.8421C8.48644 82.2055 7.68537 83.96 8.40092 86.7067C8.94146 88.2979 9.86028 89.2245 11.3139 90.0147C11.7332 90.2188 12.1475 90.3944 12.583 90.5624C12.583 90.6227 12.583 90.6829 12.583 90.745C11.4609 90.7723 10.339 90.7921 9.21671 90.8052C8.83583 90.8107 8.45497 90.8181 8.07417 90.8277C3.6454 90.9358 3.6454 90.9358 1.84975 89.2822C0.591547 87.9706 0.0394508 86.4977 0.0162471 84.6968C0.0109885 84.565 0.00572994 84.4332 0.000312025 84.2974C-0.0211317 82.4302 1.06695 80.8989 1.95395 79.3219C2.06533 79.1227 2.17671 78.9236 2.29146 78.7184C3.25445 77.0021 4.23892 75.2988 5.22878 73.5982C5.89864 72.4468 6.56157 71.2916 7.22314 70.1354C7.3343 69.9412 7.44547 69.7471 7.55999 69.547C8.09548 68.6113 8.63057 67.6755 9.16546 66.7395C9.41678 66.2998 9.66824 65.8601 9.91972 65.4205C10.0977 65.1092 10.2755 64.7978 10.4533 64.4863C10.6146 64.2044 10.6146 64.2044 10.7791 63.9167C10.8739 63.7509 10.9686 63.5851 11.0662 63.4143C11.2594 63.0846 11.4656 62.7625 11.6765 62.4439Z" fill="#00C0FA"/>
<path d="M68.3862 8.92786C69.1671 9.19639 69.8422 9.1522 70.6567 9.11616C71.56 9.1386 72.2141 9.50926 72.8721 10.1125C73.5729 10.89 73.8193 11.6415 73.9323 12.6659C73.7847 14.103 73.0973 14.9184 72.0158 15.8205C71.1632 16.4617 70.1732 16.3641 69.1503 16.2492C68.2216 15.8868 67.4994 15.277 66.9747 14.4233C66.5977 13.4364 66.5699 12.542 66.6121 11.5019C65.1789 11.0208 63.4932 11.1679 62.134 11.8086C59.6928 13.2194 57.6263 15.7101 56.8216 18.4403C56.9353 18.4667 57.0491 18.4932 57.1663 18.5205C59.724 19.1228 62.1771 19.8342 64.6177 20.8139C64.6177 20.9344 64.6177 21.0549 64.6177 21.1791C64.1067 21.4322 63.5921 21.6771 63.0766 21.9208C62.9331 21.992 62.7896 22.0632 62.6418 22.1366C61.6644 22.5924 60.9619 22.7159 59.9038 22.4572C59.7272 22.4184 59.5507 22.3795 59.3688 22.3395C58.7634 22.2031 58.1608 22.0574 57.5581 21.9094C57.35 21.8595 57.1419 21.8096 56.9274 21.7582C55.3946 21.3853 55.3946 21.3853 55.1898 21.1791C51.0362 20.4472 46.5716 20.7468 42.9743 23.0278C41.8647 24.2517 41.2552 25.7081 41.1995 27.3642C41.3385 30.0298 42.3621 32.4874 43.9262 34.6171C44.1302 35.0557 44.1302 35.0557 44.0239 35.5136C43.7525 35.9955 43.4555 36.4161 43.1103 36.8474C42.9958 36.9917 42.8813 37.1359 42.7633 37.2846C42.6759 37.3926 42.5885 37.5007 42.4984 37.612C41.7012 37.3401 41.3917 36.7342 40.9913 36.0372C40.9208 35.9161 40.8503 35.795 40.7777 35.6703C38.8603 32.3021 37.5357 28.5913 38.509 24.6882C39.2729 22.2215 40.7816 20.5515 43.0423 19.3532C46.2569 17.818 49.6909 17.6605 53.1954 17.8925C53.3151 17.9527 53.4348 18.013 53.5581 18.0751C53.5808 17.8915 53.5808 17.8915 53.6041 17.7042C53.779 17.0031 54.1005 16.4158 54.4533 15.7927C54.5255 15.6647 54.5977 15.5367 54.6721 15.4047C56.4859 12.2642 59.0004 9.32563 62.5997 8.30147C64.5806 7.85973 66.5477 8.15227 68.3862 8.92786Z" fill="#B9ABAB"/>
<path d="M17.2969 28.3C19.2115 28.3 21.1261 28.3 23.0987 28.3C23.0987 37.3381 23.0987 46.3762 23.0987 55.6882C20.6457 55.6882 18.1926 55.6882 15.6652 55.6882C16.2934 54.3324 16.2934 54.3324 16.9343 52.9493C17.0907 52.3196 17.1401 51.8622 17.1443 51.2231C17.1461 51.0208 17.1479 50.8186 17.1497 50.6102C17.1507 50.3892 17.1518 50.1681 17.1529 49.9404C17.1547 49.707 17.1564 49.4736 17.1583 49.2331C17.1632 48.5937 17.167 47.9544 17.1706 47.315C17.1746 46.6466 17.1796 45.9781 17.1844 45.3097C17.1935 44.0442 17.2016 42.7788 17.2094 41.5133C17.2184 40.0725 17.2284 38.6316 17.2384 37.1908C17.259 34.2272 17.2783 31.2636 17.2969 28.3Z" fill="#98E5FB"/>
<path d="M69.5866 32.5238C71.0406 34.2393 71.7915 36.0699 71.6567 38.3288C71.4275 40.1271 70.6872 41.7427 69.3543 42.9862C67.5214 44.3468 65.7588 44.6893 63.5299 44.5503C61.7738 44.2733 60.3355 43.3076 59.2012 41.9484C57.97 40.2072 57.6896 38.446 57.9094 36.3339C58.3488 34.3473 59.524 32.7466 61.1729 31.5866C63.8456 30.1722 67.3202 30.3644 69.5866 32.5238Z" fill="#FFC344"/>
<path d="M15.4839 55.6882C17.7817 55.6501 20.0794 55.6209 22.3775 55.603C23.4446 55.5944 24.5115 55.5828 25.5785 55.5642C26.6083 55.5463 27.6379 55.5365 28.6679 55.5323C29.0607 55.5292 29.4535 55.5233 29.8463 55.5144C30.3969 55.5025 30.9466 55.5008 31.4973 55.5016C31.7406 55.4927 31.7406 55.4927 31.9889 55.4837C32.4623 55.4908 32.8097 55.5158 33.2518 55.6882C33.7207 56.1846 34.029 56.7254 34.3397 57.3315C34.5147 57.6269 34.5147 57.6269 34.6933 57.9283C34.7928 58.1075 34.8923 58.2866 34.9948 58.4712C35.105 58.6694 35.2152 58.8676 35.3287 59.0717C35.4398 59.2732 35.551 59.4747 35.6655 59.6823C35.7801 59.888 35.8947 60.0937 36.0128 60.3056C36.8539 61.8235 36.8539 61.8235 37.0592 62.4439C28.7428 62.4439 20.4263 62.4439 11.8578 62.4439C12.1361 61.7433 12.4205 61.1403 12.7855 60.4882C12.8956 60.291 13.0057 60.0937 13.1191 59.8905C13.2912 59.5841 13.2912 59.5841 13.4669 59.2714C13.6369 58.9671 13.6369 58.9671 13.8103 58.6566C14.3647 57.6651 14.9231 56.676 15.4839 55.6882Z" fill="#F7F2F1"/>
<path d="M34.521 79.6072C37.5723 79.6072 40.6237 79.6072 43.7676 79.6072C43.8242 83.3502 43.8242 83.3502 43.8379 84.5231C43.8438 84.834 43.8498 85.1448 43.8561 85.4557C43.8572 85.6138 43.8583 85.7719 43.8595 85.9348C43.8955 87.4847 44.2653 88.7154 45.3993 89.8321C45.868 90.1146 46.3468 90.3488 46.8497 90.5624C46.76 90.7432 46.76 90.7432 46.6684 90.9276C45.5106 90.9416 44.3527 90.9511 43.1948 90.9577C42.8015 90.9604 42.4081 90.9642 42.0147 90.9689C41.4472 90.9756 40.8797 90.9787 40.3121 90.9811C40.1381 90.9839 39.9641 90.9867 39.7848 90.9897C38.3788 90.99 37.0019 90.7798 35.9148 89.8092C35.8033 89.7146 35.6918 89.62 35.5769 89.5225C34.6252 88.3116 34.4154 87.089 34.4501 85.5805C34.4509 85.4278 34.4516 85.2751 34.4524 85.1178C34.4561 84.5552 34.4662 83.9926 34.4756 83.4301C34.4981 81.5377 34.4981 81.5377 34.521 79.6072Z" fill="#0ED290"/>
<path d="M68.3862 8.92786C69.1671 9.19639 69.8422 9.1522 70.6567 9.11616C71.56 9.1386 72.2141 9.50926 72.8721 10.1125C73.5729 10.89 73.8193 11.6415 73.9323 12.6659C73.7847 14.103 73.0973 14.9184 72.0158 15.8205C71.1632 16.4617 70.1732 16.3641 69.1503 16.2492C68.2216 15.8868 67.4994 15.277 66.9747 14.4233C66.5977 13.4364 66.5699 12.542 66.6121 11.5019C65.1789 11.0208 63.4932 11.1679 62.134 11.8086C59.5275 13.3149 57.9294 15.7759 56.6403 18.4403C55.6507 18.4606 54.7157 18.425 53.7394 18.2577C53.5952 17.8383 53.5312 17.6069 53.6751 17.1804C53.7732 17.0022 53.7732 17.0022 53.8732 16.8205C53.9463 16.6867 54.0193 16.5528 54.0946 16.4149C54.1756 16.2736 54.2565 16.1323 54.3399 15.9867C54.4223 15.8407 54.5046 15.6947 54.5895 15.5443C56.4304 12.3509 58.9329 9.34482 62.5997 8.30147C64.5806 7.85973 66.5477 8.15227 68.3862 8.92786Z" fill="#CCBEB9"/>
<path d="M10.7381 3.80471C14.4832 3.69337 17.9403 5.02106 20.6702 7.58841C21.9937 8.94302 23.1609 10.2514 23.1603 12.2197C23.1575 12.3777 23.1547 12.5358 23.1518 12.6987C23.1511 12.8633 23.1503 13.028 23.1495 13.1975C23.1465 13.7203 23.1396 14.243 23.1327 14.7657C23.13 15.1213 23.1275 15.477 23.1253 15.8327C23.1193 16.7019 23.1099 17.5711 23.0987 18.4403C22.1972 17.6792 21.3496 16.8869 20.5205 16.0471C20.3965 15.9223 20.2725 15.7974 20.1448 15.6688C19.7392 15.2603 19.3343 14.8511 18.9294 14.4419C18.6467 14.1568 18.364 13.8718 18.0812 13.5869C17.3401 12.8399 16.5996 12.0923 15.8592 11.3447C15.1023 10.5806 14.3449 9.817 13.5876 9.05339C12.104 7.5573 10.6209 6.06063 9.13819 4.56359C8.95869 4.62384 8.7792 4.68409 8.59427 4.74617C8.69625 4.39241 8.69625 4.39241 8.95688 4.01582C9.55917 3.85408 10.1172 3.8393 10.7381 3.80471Z" fill="#04E29C"/>
<path d="M39.7788 0.181481C39.7788 0.729244 39.7788 0.729244 39.5641 1.01336C39.4628 1.11519 39.3614 1.21701 39.2569 1.32193C39.1413 1.43944 39.0256 1.55695 38.9064 1.67803C38.7778 1.80582 38.6493 1.9336 38.5168 2.06526C38.3827 2.20069 38.2486 2.33612 38.1104 2.47565C37.6653 2.92452 37.2182 3.3714 36.771 3.81826C36.4624 4.12849 36.1539 4.43882 35.8455 4.74926C35.1984 5.40012 34.5504 6.05007 33.9017 6.69932C33.068 7.53376 32.2358 8.36979 31.4043 9.20642C30.7671 9.84729 30.1295 10.4876 29.4917 11.1278C29.1846 11.436 28.8776 11.7443 28.5706 12.0528C28.1426 12.4826 27.7139 12.9118 27.2851 13.3408C27.1569 13.4697 27.0287 13.5986 26.8966 13.7314C26.7223 13.9053 26.7223 13.9053 26.5445 14.0828C26.3924 14.2352 26.3924 14.2352 26.2371 14.3907C25.9996 14.6059 25.9996 14.6059 25.8183 14.6059C25.7775 13.5573 25.7482 12.5091 25.7287 11.4599C25.7205 11.1041 25.7094 10.7483 25.6952 10.3927C25.6116 8.24965 25.6381 6.7306 27.0192 5.02973C27.1614 4.8759 27.3036 4.72207 27.4501 4.56359C27.5902 4.40426 27.7304 4.24493 27.8749 4.08077C30.8783 0.760283 35.477 -0.44866 39.7788 0.181481Z" fill="#05E29B"/>
<path d="M91.2696 48.5672C91.1105 51.0114 90.2174 52.9858 88.4367 54.6804C85.3097 57.2348 80.9457 57.83 77.034 57.4235C76.53 57.3604 76.0282 57.2867 75.5264 57.208C75.1168 57.1464 74.7068 57.0959 74.2956 57.0469C71.0647 56.6408 67.7401 55.8479 64.799 54.41C65.8653 53.5413 67.3857 52.5873 68.8054 52.583C69.5887 52.686 70.3302 52.9249 71.0764 53.18C71.7594 53.4115 72.4523 53.6073 73.1461 53.8031C73.284 53.8424 73.4218 53.8817 73.5638 53.9222C77.2026 54.922 81.9033 54.8074 85.2879 53.0278C86.9298 52.0445 87.6068 51.1292 88.1003 49.2869C88.1291 49.1699 88.1578 49.0529 88.1874 48.9324C88.3382 48.9213 88.4889 48.9103 88.6442 48.8989C88.8412 48.8836 89.0383 48.8683 89.2413 48.8525C89.4369 48.8377 89.6325 48.8229 89.834 48.8076C90.3355 48.7528 90.7699 48.5672 91.2696 48.5672Z" fill="#B9ACAC"/>
<path d="M23.0987 28.3C23.9962 28.3 24.8936 28.3 25.8183 28.3C25.8183 37.3381 25.8183 46.3762 25.8183 55.6882C24.9208 55.6882 24.0234 55.6882 23.0987 55.6882C23.0987 46.6501 23.0987 37.612 23.0987 28.3Z" fill="#0FD290"/>
<path d="M71.0427 23.8152C71.2204 23.9143 71.398 24.0134 71.5811 24.1155C73.9555 25.4556 76.1112 27.003 78.256 28.6866C78.6702 29.0101 79.0814 29.3067 79.5195 29.5988C80.0278 29.9427 80.4629 30.3128 80.9125 30.7307C81.4654 31.2408 82.0206 31.7452 82.5896 32.237C83.3416 32.8976 84.063 33.5893 84.7426 34.3254C84.8499 34.4414 84.9572 34.5575 85.0677 34.677C85.2865 35.0557 85.2865 35.0557 85.2702 35.5029C85.0779 36.0457 84.8218 36.4027 84.4593 36.8474C84.3432 36.9917 84.227 37.1359 84.1073 37.2846C84.0178 37.3926 83.9283 37.5007 83.8361 37.612C83.1053 37.3176 82.6106 36.7972 82.0684 36.2426C81.9765 36.1515 81.8847 36.0604 81.79 35.9665C81.1165 35.2846 81.1165 35.2846 81.1165 34.8732C81.0076 34.8258 80.8987 34.7785 80.7865 34.7298C80.357 34.4887 80.1677 34.2701 79.87 33.8803C78.5503 32.3116 76.7799 31.1183 75.0513 30.0517C74.6102 29.7737 74.1936 29.4765 73.7736 29.1673C71.0966 27.2682 67.9099 25.3274 64.799 24.2831C64.799 24.1626 64.799 24.042 64.799 23.9179C65.3185 23.6967 65.8403 23.4815 66.3628 23.2674C66.5093 23.2049 66.6558 23.1424 66.8068 23.0781C68.5304 22.3795 69.4889 22.9412 71.0427 23.8152Z" fill="#B9ACAC"/>
<path d="M45.7619 37.612C46.693 38.3701 47.4721 39.1916 48.2627 40.0962C48.6924 40.5657 49.1423 40.9713 49.6409 41.3643C49.9319 41.6289 49.9319 41.6289 50.2512 42.0534C51.5376 43.6013 53.5551 44.7075 55.2125 45.817C55.3189 45.8884 55.4254 45.9598 55.5351 46.0333C58.4993 48.0151 61.5715 49.6205 64.799 51.1235C64.1774 51.6138 63.5934 51.8955 62.85 52.1733C62.6378 52.2553 62.4255 52.3372 62.2069 52.4216C60.4722 52.8417 59.3236 52.0616 57.8527 51.2034C57.6598 51.0945 57.4669 50.9856 57.2681 50.8735C55.9644 50.1261 54.7533 49.2962 53.5581 48.3847C53.4227 48.2827 53.2874 48.1808 53.148 48.0758C52.6596 47.7074 52.1729 47.3366 51.6866 46.9653C51.1652 46.5693 50.6456 46.1859 50.0998 45.8241C48.4694 44.7149 47.0246 43.3003 45.6259 41.9142C45.5178 41.8085 45.4098 41.7029 45.2984 41.594C44.2253 40.5118 44.2253 40.5118 44.1302 39.803C44.3789 39.3632 44.6051 39.0316 44.9234 38.6504C45.0028 38.5501 45.0823 38.4497 45.1642 38.3462C45.3605 38.0991 45.5608 37.8552 45.7619 37.612Z" fill="#B9ACAC"/>
<path d="M68.6064 31.7692C70.0715 32.6882 71.039 34.3299 71.5073 35.9687C71.9139 37.9564 71.5696 39.8028 70.5484 41.5412C69.9238 42.4531 69.1056 43.4053 68.0625 43.82C67.1139 43.665 66.3424 42.8607 65.7055 42.1767C64.2967 40.2028 64.0317 38.3426 64.2551 35.9687C64.4039 35.3379 64.6228 34.8615 64.9803 34.3254C65.0614 34.199 65.1425 34.0726 65.2261 33.9424C66.0024 32.821 67.13 31.2735 68.6064 31.7692Z" fill="#FFD05A"/>
<path d="M37.2406 73.034C38.1754 73.0001 39.1103 72.9662 40.0735 72.9313C40.5129 72.9089 40.5129 72.9089 40.9613 72.886C41.1942 72.8819 41.427 72.8777 41.667 72.8735C41.9043 72.8649 42.1417 72.8563 42.3862 72.8474C43.244 73.0913 43.3952 73.4338 43.8625 74.1646C44.1525 74.72 44.3236 75.2577 44.5013 75.8585C44.9775 77.2631 45.5537 78.6209 46.8497 79.4246C49.4891 80.422 52.7861 80.0133 55.546 79.9428C56.7074 79.9181 57.8688 79.9206 59.0304 79.92C60.9778 79.9156 62.9242 79.8946 64.8712 79.8607C66.8752 79.8259 68.8789 79.8012 70.8831 79.7899C71.007 79.7892 71.1308 79.7885 71.2584 79.7878C71.8798 79.7843 72.5012 79.7811 73.1226 79.7779C78.2655 79.7515 83.4077 79.6903 88.55 79.6072C88.55 79.6674 88.55 79.7277 88.55 79.7897C82.9561 79.7939 77.3622 79.7972 71.7683 79.7991C71.104 79.7993 70.4397 79.7995 69.7754 79.7998C69.6432 79.7998 69.511 79.7999 69.3748 79.7999C67.2495 79.8007 65.1242 79.8021 62.9989 79.8038C60.8092 79.8056 58.6194 79.8066 56.4296 79.8069C55.2035 79.8072 53.9773 79.8077 52.7512 79.8091C47.5765 79.8145 42.4126 79.7858 37.2406 79.6072C37.2406 77.438 37.2406 75.2689 37.2406 73.034Z" fill="#60DCF3"/>
<path d="M15.4839 55.6882C18.8942 55.6882 22.3046 55.6882 25.8183 55.6882C25.8183 55.7484 25.8183 55.8087 25.8183 55.8708C25.6638 55.8586 25.5093 55.8465 25.3501 55.8341C24.669 55.8251 24.1175 55.8638 23.4613 56.0533C22.8267 56.6859 22.4879 57.4241 22.1129 58.233C21.8092 58.8372 21.5051 59.4409 21.197 60.0428C20.9134 60.6037 20.9134 60.6037 20.7497 61.1704C20.5165 61.7828 20.3673 62.0567 19.8352 62.4439C18.5174 62.7517 17.1182 62.6139 15.7785 62.558C15.3991 62.5489 15.0198 62.5405 14.6404 62.5331C13.7123 62.513 12.7853 62.4815 11.8578 62.4439C12.1146 61.7555 12.4271 61.1286 12.7855 60.4882C12.8956 60.291 13.0057 60.0937 13.1191 59.8905C13.2912 59.5841 13.2912 59.5841 13.4669 59.2714C13.6369 58.9671 13.6369 58.9671 13.8103 58.6566C14.3647 57.6651 14.9231 56.676 15.4839 55.6882Z" fill="#F2EAE6"/>
<path d="M17.5161 25.2812C17.6828 25.2796 17.8495 25.278 18.0212 25.2764C18.5712 25.2723 19.1209 25.2735 19.6709 25.2752C20.0536 25.2742 20.4363 25.2731 20.819 25.2717C21.6207 25.2698 22.4223 25.2707 23.224 25.2733C24.2513 25.2765 25.2785 25.2722 26.3058 25.2658C27.096 25.2618 27.8861 25.262 28.6762 25.2635C29.055 25.2637 29.4338 25.2624 29.8126 25.2597C30.3421 25.2566 30.8713 25.2592 31.4009 25.2634C31.5573 25.2612 31.7136 25.2591 31.8747 25.2569C32.6636 25.2695 32.9774 25.3059 33.6211 25.808C33.9771 26.2915 33.9771 26.2915 34.0904 26.8393C33.9341 27.5945 33.6746 27.8288 33.0705 28.3C32.5135 28.4318 31.971 28.423 31.4009 28.4152C31.2342 28.4165 31.0675 28.4178 30.8958 28.4192C30.3458 28.4223 29.7961 28.4187 29.2461 28.4148C28.8634 28.415 28.4807 28.4154 28.098 28.4162C27.2963 28.4167 26.4947 28.414 25.693 28.409C24.6657 28.4028 23.6385 28.4039 22.6112 28.4073C21.821 28.4092 21.0309 28.4076 20.2408 28.4048C19.862 28.4039 19.4832 28.404 19.1045 28.4051C18.5749 28.4061 18.0456 28.4024 17.5161 28.3974C17.3598 28.3986 17.2034 28.3998 17.0423 28.401C16.3051 28.3892 15.9349 28.356 15.2964 27.9516C14.9138 27.5416 14.8159 27.3925 14.8266 26.8393C14.8243 26.7188 14.822 26.5983 14.8196 26.4741C15.2316 25.2244 16.4303 25.2729 17.5161 25.2812Z" fill="#04D0FA"/>
<path d="M48.0148 51.8431C48.9125 52.3863 49.5944 53.0252 49.9319 54.0449C50.1014 55.5103 49.8839 56.668 49.0254 57.8792C48.1591 58.7037 47.2071 58.858 46.058 58.8428C45.0484 58.7357 44.2778 58.2854 43.6089 57.5255C42.9581 56.5809 42.6672 55.7519 42.861 54.5926C43.2802 53.4041 43.816 52.5592 44.8554 51.8538C45.852 51.5193 47.025 51.4563 48.0148 51.8431Z" fill="#0ED290"/>
<path d="M91.8815 42.7929C92.5383 43.3911 92.867 43.837 92.9559 44.7372C92.9609 46.1777 92.8784 47.0304 91.9382 48.1564C90.9645 48.9773 89.9603 49.0247 88.7271 49.0016C87.6198 48.8596 86.9745 48.32 86.2951 47.4603C85.8201 46.5611 85.7263 45.7517 85.8305 44.7329C86.2059 43.5589 86.7582 42.8622 87.8022 42.2223C89.3379 41.6037 90.6247 41.7263 91.8815 42.7929Z" fill="#01C7FA"/>
<path d="M71.5505 9.25595C72.6172 9.73542 73.2597 10.4087 73.7396 11.4905C73.9878 12.6038 73.9322 13.4266 73.3954 14.424C72.8697 15.1714 72.1421 15.8382 71.326 16.2492C70.0597 16.3865 69.0382 16.3747 67.9931 15.5952C67.1761 14.8738 66.809 14.2269 66.6121 13.1452C66.5574 12.0133 66.8322 11.2352 67.5561 10.3693C68.7183 9.19634 69.9331 8.74711 71.5505 9.25595Z" fill="#EF4524"/>
<path d="M71.6886 9.49346C72.5758 9.74873 72.9733 10.2063 73.5017 10.9542C73.9021 11.8566 74.0551 12.7351 73.746 13.6951C73.3195 14.6628 72.7064 15.2593 71.8699 15.884C71.0275 15.4477 70.2496 14.8367 69.945 13.8948C69.7507 12.8186 69.7013 11.848 70.2722 10.8857C70.6725 10.3166 71.1144 9.88996 71.6886 9.49346Z" fill="#FC6830"/>
<path d="M47.9376 52.0364C48.8502 52.299 49.2048 52.7489 49.7506 53.4971C50.1535 54.7144 50.0728 55.9031 49.524 57.0576C49.2027 57.6727 48.8963 58.0659 48.3002 58.427C47.4099 58.266 46.9992 57.6771 46.4871 56.9663C45.9983 56.1224 46.0065 55.1772 46.1245 54.2275C46.4569 53.2403 47.1335 52.6437 47.9376 52.0364Z" fill="#05E29B"/>
<path d="M87.0996 37.612C87.8827 38.3264 88.3732 39.0785 88.8786 40.0084C88.9893 40.2044 88.9893 40.2044 89.1021 40.4043C89.6379 41.3746 89.6379 41.3746 89.6379 41.9941C89.5175 42.0162 89.3971 42.0383 89.2731 42.0611C89.113 42.0917 88.9529 42.1223 88.788 42.1538C88.5514 42.1983 88.5514 42.1983 88.3099 42.2437C87.7436 42.3659 87.7436 42.3659 86.9183 42.7244C86.3798 41.8809 85.8413 41.0373 85.2865 40.1682C85.6726 39.5202 86.0386 38.9627 86.499 38.3766C86.6119 38.2323 86.7248 38.088 86.8411 37.9393C86.9264 37.8313 87.0117 37.7233 87.0996 37.612Z" fill="#B7ACAC"/>
<path d="M17.2969 31.5866C17.7619 31.5618 18.2255 31.5438 18.6907 31.5295C18.8215 31.5219 18.9522 31.5142 19.087 31.5063C19.8432 31.489 20.1196 31.5266 20.7446 32.0052C21.1044 32.4995 21.1044 32.4995 21.1157 33.1614C20.8981 33.8574 20.8236 33.9907 20.1978 34.3254C19.684 34.3644 19.2133 34.3774 18.7021 34.3596C18.4994 34.3559 18.4994 34.3559 18.2927 34.3521C17.9607 34.3457 17.6288 34.3359 17.2969 34.3254C17.2969 33.4216 17.2969 32.5178 17.2969 31.5866Z" fill="#07D1FB"/>
<path d="M17.2969 43.82C20.0651 43.6977 20.0651 43.6977 20.7417 44.1965C21.1044 44.7329 21.1044 44.7329 21.1157 45.3948C20.9282 45.9944 20.8537 46.1878 20.3791 46.5588C20.0344 46.621 20.0344 46.621 19.6518 46.6123C19.5145 46.6105 19.3772 46.6087 19.2357 46.6069C19.022 46.6 19.022 46.6 18.804 46.593C18.5872 46.5893 18.5872 46.5893 18.366 46.5855C18.0096 46.5791 17.6533 46.5692 17.2969 46.5588C17.2969 45.655 17.2969 44.7512 17.2969 43.82Z" fill="#09D1FB"/>
<path d="M17.2969 37.7946C17.7619 37.7698 18.2255 37.7518 18.6907 37.7375C18.8215 37.7299 18.9522 37.7222 19.087 37.7143C19.8497 37.6968 20.1163 37.7297 20.7389 38.2254C21.1044 38.7075 21.1044 38.7075 21.2063 39.1754C21.0735 39.7552 20.8299 39.977 20.3791 40.3508C19.8236 40.6305 19.2424 40.5521 18.6341 40.5448C18.1928 40.541 17.7516 40.5373 17.2969 40.5334C17.2969 39.6296 17.2969 38.7258 17.2969 37.7946Z" fill="#08D1FB"/>
<path d="M17.2969 70.8429C17.6482 71.0484 17.6482 71.0484 17.8409 71.3907C17.9307 72.1019 17.946 72.5036 17.5576 73.1139C16.9403 73.5124 16.5655 73.5155 15.8465 73.3992C15.3932 73.0226 15.3932 73.0226 15.1213 72.4862C15.1213 71.7919 15.1581 71.3872 15.5972 70.8429C16.2243 70.577 16.6466 70.6762 17.2969 70.8429Z" fill="#91E4FB"/>
<path d="M21.2857 79.7897C21.8314 80.2079 22.1374 80.482 22.3055 81.1592C22.1351 81.8457 21.8502 82.1173 21.2857 82.5286C20.5873 82.5407 20.1981 82.5052 19.6652 82.0379C19.4113 81.4812 19.3848 81.1264 19.4726 80.5201C19.9758 79.7795 20.4145 79.6286 21.2857 79.7897Z" fill="#92E5FB"/>
<path d="M12.7643 77.5987C13.1949 77.7813 13.1949 77.7813 13.4895 78.1465C13.5717 78.7261 13.6155 79.0575 13.4895 79.6072C13.1042 80.075 13.1042 80.075 12.583 80.3375C12.0057 80.3259 11.6494 80.2481 11.1552 79.9495C10.8241 79.3938 10.8743 78.9603 10.9512 78.329C11.4501 77.5754 11.89 77.4703 12.7643 77.5987Z" fill="#94E5FB"/>
</g>
<defs>
<filter id="filter0_d_200_127" x="0" y="0" width="93" height="94" filterUnits="userSpaceOnUse" color-interpolation-filters="sRGB">
<feFlood flood-opacity="0" result="BackgroundImageFix"/>
<feColorMatrix in="SourceAlpha" type="matrix" values="0 0 0 0 0 0 0 0 0 0 0 0 0 0 0 0 0 0 127 0" result="hardAlpha"/>
<feOffset dy="3"/>
<feComposite in2="hardAlpha" operator="out"/>
<feColorMatrix type="matrix" values="0 0 0 0 0 0 0 0 0 0 0 0 0 0 0 0 0 0 0.25 0"/>
<feBlend mode="normal" in2="BackgroundImageFix" result="effect1_dropShadow_200_127"/>
<feBlend mode="normal" in="SourceGraphic" in2="effect1_dropShadow_200_127" result="shape"/>
</filter>
</defs>
</svg>
