<svg width="70" height="104" viewBox="0 0 70 104" fill="none" xmlns="http://www.w3.org/2000/svg">
<g filter="url(#filter0_d_200_132)">
<path d="M24.9458 0.00106915C25.0277 0.00071635 25.1096 0.000363492 25.194 0C25.6091 0.031067 25.9 0.113339 26.1757 0.398772C26.2185 0.441196 26.2613 0.483621 26.3054 0.52733C27.0116 1.53206 26.6826 2.86031 26.4093 3.94389C26.3181 4.30118 26.2219 4.65725 26.1233 5.01298C26.0978 5.10549 26.0978 5.10549 26.0718 5.19987C26.0092 5.42542 25.9454 5.65065 25.8808 5.87574C25.8036 6.16197 25.7439 6.44988 25.6863 6.73975C25.6299 7.01958 25.567 7.29731 25.4976 7.57479C24.8051 10.3453 24.3345 13.1504 23.9394 15.9661C23.9121 16.16 23.8842 16.354 23.8563 16.5479C23.5701 18.5494 23.3228 20.5542 23.1675 22.5675C23.1634 22.6199 23.1593 22.6722 23.1551 22.7262C22.9843 24.9275 22.9625 27.1267 22.9673 29.3327C22.9675 29.4119 22.9676 29.4912 22.9678 29.5728C22.9689 32.9257 22.9689 32.9257 23.22 36.269C23.2331 36.3891 23.2462 36.5093 23.2592 36.6294C23.366 37.6049 23.4828 38.576 23.6946 39.5383C23.7543 39.8147 23.8077 40.0918 23.8603 40.3693C24.2823 42.5912 24.7711 44.7999 25.5131 46.9557C25.5644 47.1166 25.6152 47.2777 25.6656 47.4389C25.9511 48.3361 26.272 49.2171 26.6382 50.0902C26.6677 50.1611 26.6677 50.1611 26.6978 50.2334C26.9619 50.8663 27.2403 51.4871 27.5904 52.0867C27.7671 52.3963 27.8514 52.6833 27.9191 53.0254C28.11 53.8833 28.9114 54.6741 29.4691 55.371C29.5037 55.4143 29.5384 55.4577 29.5741 55.5023C29.6396 55.584 29.7054 55.6655 29.7715 55.7468C29.8933 55.8978 30.0058 56.0406 30.0918 56.2108C30.1893 56.3668 30.2912 56.3951 30.4711 56.4663C30.5642 56.5275 30.6549 56.5918 30.7429 56.6587C30.787 56.6916 30.8312 56.7245 30.8767 56.7584C31.0051 56.8768 31.0051 56.8768 31.1058 57.0396C31.2684 57.2672 31.4769 57.4108 31.7154 57.5696C31.7579 57.599 31.8003 57.6284 31.844 57.6586C32.2202 57.914 32.5903 58.1143 33.0646 58.1769C33.0646 58.2898 33.0646 58.4027 33.0646 58.519C33.1062 58.5314 33.1478 58.5438 33.1906 58.5567C33.2769 58.5825 33.2769 58.5825 33.3649 58.6088C33.4589 58.6367 33.4589 58.6367 33.5547 58.6652C33.6804 58.703 33.8058 58.7416 33.9308 58.7812C33.9879 58.7991 34.045 58.817 34.1039 58.8354C34.1552 58.8518 34.2065 58.8682 34.2594 58.8851C35.7651 59.2601 37.6382 59.0483 38.9904 58.3779C40.528 57.5892 41.654 56.5969 42.6756 55.3031C42.7373 55.2269 42.7991 55.1507 42.861 55.0746C43.6696 54.0594 44.2691 52.9799 44.7404 51.809C44.8961 51.4242 45.0624 51.0444 45.2348 50.6655C45.9372 49.1202 46.5246 47.5606 46.9644 45.9388C47.0193 45.7393 47.0771 45.5407 47.1364 45.3421C47.5149 44.0617 47.7841 42.7604 48.0536 41.4587C48.0903 41.282 48.1273 41.1053 48.1645 40.9286C48.4484 39.5721 48.6753 38.2144 48.8398 36.842C48.8474 36.781 48.855 36.7201 48.8628 36.6572C49.1859 34.0169 49.1907 31.3484 49.1879 28.6955C49.1878 28.6183 49.1878 28.541 49.1878 28.4614C49.187 25.9024 49.1239 23.3674 48.8541 20.8185C48.8458 20.7384 48.8375 20.6584 48.829 20.5759C48.3119 15.6098 47.5612 10.6231 46.124 5.79686C45.9742 5.29117 45.8386 4.78305 45.7077 4.27317C45.6889 4.20011 45.6701 4.12705 45.6507 4.05178C45.5988 3.84779 45.548 3.64362 45.4979 3.43927C45.4826 3.3775 45.4673 3.31573 45.4515 3.25208C45.3348 2.761 45.3267 2.2986 45.3454 1.79715C45.3458 1.7347 45.3463 1.67225 45.3468 1.60792C45.3711 1.09601 45.5972 0.661952 46.0202 0.312175C46.3727 0.0785973 46.6459 0.00781499 47.0759 0.00534531C47.1517 0.0043751 47.2275 0.00340519 47.3056 0.00240559C47.8613 0.0372059 48.3045 0.193716 48.7874 0.428707C48.8435 0.455795 48.8996 0.482883 48.9575 0.510793C50.7298 1.38596 52.3461 2.73587 53.6591 4.10372C53.8079 4.25591 53.9603 4.40477 54.1138 4.55315C54.4741 4.90175 54.8202 5.25676 55.1524 5.62744C55.2891 5.77976 55.4268 5.93085 55.566 6.08127C56.4282 7.01605 57.2064 7.99803 57.9622 9.00336C58.0235 9.0848 58.085 9.16614 58.1467 9.24735C58.696 9.97224 58.696 9.97224 58.8233 10.3007C58.9446 10.6108 59.1221 10.8556 59.3233 11.1282C60.2829 12.4631 61.1292 13.8526 61.9295 15.2687C62.0385 15.4609 62.1492 15.6523 62.2606 15.8434C64.3013 19.378 65.7552 23.2164 66.932 27.0449C66.9561 27.1229 66.9801 27.2009 67.0049 27.2813C67.4501 28.7359 67.7954 30.2129 68.1319 31.6903C68.1953 31.9675 68.2625 32.2436 68.3327 32.5194C69.1388 35.7476 69.4924 39.069 69.7686 42.3628C69.7783 42.4785 69.7783 42.4785 69.7883 42.5964C69.807 42.822 69.8253 43.0476 69.8434 43.2732C69.8487 43.3372 69.854 43.4013 69.8595 43.4674C69.9608 44.7617 69.9954 46.0567 69.996 47.3539C69.9962 47.4989 69.9964 47.644 69.9967 47.789C69.9972 48.0914 69.9973 48.3937 69.9973 48.696C69.9973 48.9985 69.9978 49.3009 69.9988 49.6033C70.0043 51.2079 69.9927 52.8098 69.9155 54.4131C69.9125 54.4766 69.9096 54.54 69.9065 54.6054C69.8644 55.4803 69.7856 56.3487 69.678 57.219C69.6676 57.303 69.6676 57.303 69.6571 57.3887C69.1628 61.3634 68.5419 65.4127 67.2819 69.2587C67.2301 69.42 67.1812 69.5819 67.1323 69.7439C66.7393 71.0386 66.2918 72.3154 65.8212 73.5889C65.7096 73.8914 65.5983 74.1939 65.4872 74.4966C65.4604 74.5695 65.4335 74.6425 65.4059 74.7177C65.2401 75.1711 65.0853 75.6264 64.9366 76.0844C64.7552 76.6385 64.5351 77.1621 64.2718 77.6899C64.2294 77.7764 64.1869 77.8629 64.1445 77.9494C63.6519 78.9463 63.1166 79.9253 62.5778 80.9026C62.4718 81.0955 62.3669 81.2888 62.2618 81.482C60.9343 83.9103 59.321 86.1487 57.4735 88.2825C57.4332 88.3294 57.3928 88.3763 57.3513 88.4246C56.9133 88.9332 56.4617 89.4293 55.996 89.9177C55.8056 90.1179 55.6216 90.3224 55.4379 90.5276C55.1942 90.7964 54.9403 91.0448 54.6602 91.2832C54.5184 91.4121 54.3875 91.544 54.2559 91.6812C53.9467 92.0005 53.6172 92.2992 53.283 92.5974C53.2251 92.6497 53.1671 92.7019 53.1074 92.7558C52.7445 93.0807 52.3701 93.388 51.9815 93.6879C51.8951 93.7569 51.8088 93.8261 51.7226 93.8955C51.0861 94.4034 50.4212 94.8629 49.7313 95.3108C49.4429 95.4981 49.1622 95.6922 48.8827 95.8902C47.6271 96.761 46.2308 97.4515 44.8058 98.0712C44.6657 98.1323 44.5263 98.1944 44.3868 98.2566C43.5602 98.6164 42.704 98.892 41.8366 99.1616C41.7842 99.1784 41.7319 99.1951 41.678 99.2124C40.9627 99.4407 40.2329 99.5859 39.491 99.7261C39.3979 99.7438 39.3049 99.7615 39.209 99.7797C38.2485 99.9549 37.3089 99.9989 36.3303 99.9998C36.2773 99.9999 36.2244 99.9999 36.1699 100C30.6294 99.9952 25.374 97.7198 21.2609 94.4964C21.0335 94.3184 20.8 94.148 20.5645 93.9787C20.2663 93.7617 19.9913 93.5352 19.727 93.2854C19.5891 93.1633 19.4489 93.0517 19.3018 92.939C18.882 92.6118 18.4906 92.2593 18.0975 91.9067C17.9672 91.79 17.8364 91.6738 17.7055 91.5577C17.1958 91.1029 16.73 90.6359 16.2834 90.1299C16.2121 90.0538 16.1403 89.978 16.0677 89.9027C12.1436 85.8264 8.88539 80.6857 6.84881 75.6202C6.81846 75.5451 6.78811 75.4699 6.75684 75.3925C6.5801 74.9378 6.45471 74.4859 6.34815 74.0143C6.25657 73.634 6.13128 73.2639 6.00499 72.8919C5.9652 72.773 5.9652 72.773 5.9246 72.6517C5.84382 72.4109 5.76242 72.1703 5.68081 71.9297C5.65634 71.8574 5.63187 71.7851 5.60665 71.7107C5.49389 71.3778 5.38085 71.045 5.26783 70.7122C5.24726 70.6516 5.22668 70.591 5.20549 70.5285C5.16848 70.4196 5.1314 70.3107 5.0942 70.2019C3.48992 65.4961 2.70424 60.5358 2.2483 55.6452C2.2437 55.596 2.23909 55.5467 2.23434 55.4959C2.20771 55.2094 2.18224 54.9227 2.15772 54.636C2.15225 54.5733 2.14678 54.5106 2.14114 54.4459C2.12369 54.23 2.10934 54.014 2.09574 53.7979C2.09093 53.7254 2.09093 53.7254 2.08603 53.6515C1.98783 52.1185 2.00073 50.5818 2.00039 49.0468C2.00036 48.975 2.00033 48.9033 2.00029 48.8293C1.99978 46.7362 2.01562 44.6531 2.22849 42.567C2.24983 42.3563 2.27019 42.1455 2.29042 41.9347C2.70202 37.6749 3.42865 33.516 4.56021 29.3612C4.61207 29.1691 4.66265 28.9768 4.71273 28.7843C4.8985 28.0707 5.09843 27.363 5.32448 26.6588C5.37623 26.4958 5.42597 26.3323 5.47551 26.1687C6.45317 22.9961 7.78795 19.898 9.34215 16.9184C9.38438 16.8373 9.42661 16.7562 9.47012 16.6726C10.5311 14.6414 11.7387 12.7021 13.0613 10.8C13.4193 10.2805 13.719 9.75329 13.9881 9.19205C14.0145 9.13896 14.0409 9.08587 14.0681 9.03117C14.0909 8.98359 14.1137 8.93602 14.1372 8.88701C14.2507 8.742 14.3407 8.7426 14.5291 8.70777C14.632 8.55528 14.632 8.55528 14.715 8.36138C15.0282 7.7639 15.5028 7.29067 15.9783 6.79195C16.0522 6.71402 16.126 6.63607 16.1997 6.55809C16.3032 6.44865 16.4068 6.33926 16.5107 6.23013C16.7578 5.96953 16.9938 5.7024 17.2274 5.43206C18.279 4.22227 19.4343 3.08646 20.7838 2.13926C20.9287 2.02979 21.0733 1.92002 21.2177 1.80998C23.6501 -0.0045253 23.6501 -0.00452508 24.9458 0.00106915Z" fill="#FDFDFD"/>
<path d="M21.1652 77.5403C21.242 77.5725 21.3187 77.6048 21.3978 77.638C21.6427 77.7427 21.8858 77.8502 22.1282 77.9594C22.2057 77.9937 22.2831 78.0281 22.3629 78.0635C22.4343 78.0971 22.5057 78.1306 22.5794 78.1652C22.6432 78.1947 22.7071 78.2243 22.7729 78.2547C22.9623 78.3923 22.9634 78.4922 22.9959 78.7035C23.1295 78.7894 23.1295 78.7894 23.301 78.836C24.025 79.0946 24.5706 79.5272 25.1317 80.0035C25.1826 80.0455 25.2336 80.0876 25.286 80.131C25.774 80.5482 26.1752 81.0281 26.581 81.5088C26.6229 81.5581 26.6649 81.6075 26.7081 81.6584C29.1817 84.5788 31.4156 88.1219 30.9884 91.9201C30.9452 92.1758 30.8684 92.4169 30.7763 92.6615C30.7494 92.7371 30.7226 92.8127 30.6949 92.8906C30.4216 93.5954 30.0185 94.1747 29.2736 94.5421C28.2315 94.938 27.0855 94.8925 26.0398 94.5205C24.4053 93.9189 24.4053 93.9189 24.0638 93.6194C24.0453 93.4364 24.0453 93.4364 24.0638 93.2773C24.0087 93.2694 23.9537 93.2615 23.8969 93.2533C22.4193 92.9477 21.1453 91.4895 20.2821 90.4638C20.1713 90.3324 20.0592 90.202 19.9469 90.0717C19.0745 89.0524 18.329 87.9795 17.6564 86.8457C17.6296 86.801 17.6028 86.7564 17.5752 86.7104C16.8941 85.5697 16.3465 84.3341 15.9783 83.0825C15.9635 83.0331 15.9486 82.9838 15.9333 82.933C15.5191 81.5079 15.3641 79.7367 16.1833 78.4041C16.6343 77.7973 17.125 77.2523 17.9453 77.0873C19.106 76.9088 20.1159 77.0957 21.1652 77.5403Z" fill="#3D1D22"/>
<path d="M53.0399 77.0399C53.1073 77.0403 53.1748 77.0407 53.2442 77.0411C54.191 77.0569 54.8492 77.3258 55.5475 77.8995C56.2453 78.5588 56.3595 79.3939 56.358 80.2643C56.3579 80.341 56.3577 80.4176 56.3576 80.4966C56.2997 84.1709 54.489 87.6006 51.8093 90.3253C51.6265 90.5114 51.4556 90.7041 51.2855 90.8997C50.1116 92.1884 48.7092 93.2142 47.0997 94.03C47.0262 94.0701 46.9527 94.1102 46.8769 94.1516C46.0483 94.5909 45.1733 94.6853 44.2217 94.6876C44.0666 94.6885 43.9119 94.6932 43.7569 94.6979C43.1656 94.7015 42.798 94.6598 42.3552 94.2947C42.3099 94.2525 42.2646 94.2103 42.218 94.1668C42.1675 94.1229 42.117 94.0789 42.065 94.0336C41.1729 93.2352 41.0514 92.0164 41.0404 90.9467C41.0522 89.0805 41.7066 87.3531 42.5993 85.6825C42.6233 85.6367 42.6473 85.591 42.6719 85.5438C43.6572 83.6655 45.0359 81.9068 46.6421 80.414C46.6956 80.3641 46.7492 80.3142 46.8044 80.2628C47.5211 79.5984 48.2282 78.9518 49.083 78.4298C49.1286 78.4017 49.1742 78.3736 49.2212 78.3447C50.3717 77.645 51.6226 77.0315 53.0399 77.0399Z" fill="#3D1D22"/>
</g>
<defs>
<filter id="filter0_d_200_132" x="0" y="0" width="70" height="104" filterUnits="userSpaceOnUse" color-interpolation-filters="sRGB">
<feFlood flood-opacity="0" result="BackgroundImageFix"/>
<feColorMatrix in="SourceAlpha" type="matrix" values="0 0 0 0 0 0 0 0 0 0 0 0 0 0 0 0 0 0 127 0" result="hardAlpha"/>
<feOffset dx="-2" dy="4"/>
<feComposite in2="hardAlpha" operator="out"/>
<feColorMatrix type="matrix" values="0 0 0 0 0 0 0 0 0 0 0 0 0 0 0 0 0 0 0.23 0"/>
<feBlend mode="normal" in2="BackgroundImageFix" result="effect1_dropShadow_200_132"/>
<feBlend mode="normal" in="SourceGraphic" in2="effect1_dropShadow_200_132" result="shape"/>
</filter>
</defs>
</svg>
