<svg width="105" height="95" viewBox="0 0 105 95" fill="none" xmlns="http://www.w3.org/2000/svg">
<path fill-rule="evenodd" clip-rule="evenodd" d="M99.1667 86.2308C100.112 85.4971 102.425 84.7809 103.297 84.0034L87.5 46.4038C87.5 46.4038 73.4738 4.38461 56.1692 4.38461H48.8308C31.5263 4.38461 17.5 46.4038 17.5 46.4038L1.70333 84.0034C2.57542 84.7809 4.88833 85.4971 5.83333 86.2308H99.1667Z" fill="#323232"/>
<path fill-rule="evenodd" clip-rule="evenodd" d="M23.3333 57L35 77.4615L49.5833 57H23.3333Z" fill="#505050"/>
<path fill-rule="evenodd" clip-rule="evenodd" d="M70 77.4615L81.6667 57H55.4167L70 77.4615Z" fill="#505050"/>
<path fill-rule="evenodd" clip-rule="evenodd" d="M26.25 50.4231C26.25 48.4149 27.3292 45.4743 28.6475 43.8929C28.6475 43.8929 32.3429 39.4615 39.8621 39.4615C43.6742 39.4615 46.3342 41.1072 46.3342 41.1072C48.1221 42.2122 49.5833 44.7611 49.5833 46.7692V52.25C49.5833 53.2555 47.8333 54.0769 45.6954 54.0769H30.1379C28 54.0769 26.25 52.4312 26.25 50.4231Z" fill="black"/>
<path fill-rule="evenodd" clip-rule="evenodd" d="M74.8612 54.0769H59.3066C57.1658 54.0769 55.4158 53.2555 55.4158 52.25V46.7692C55.4158 44.7582 56.88 42.2122 58.665 41.1072C58.665 41.1072 61.325 39.4615 65.14 39.4615C72.6562 39.4615 76.3516 43.8929 76.3516 43.8929C77.67 45.4743 78.7491 48.4149 78.7491 50.4231C78.7491 52.4342 76.9991 54.0769 74.8612 54.0769Z" fill="black"/>
<path fill-rule="evenodd" clip-rule="evenodd" d="M87.5 39.4615V32.8612C87.5 15.8811 74.0454 2.08708 57.2425 1.51708C56.4404 0.593385 55.2738 0 53.9583 0H51.0417C49.7262 0 48.5596 0.593385 47.7575 1.51708C30.9546 2.08708 17.5 15.8811 17.5 32.8612V39.4615L0 86.2308L5.83333 86.2308L21.2275 48.6722C25.1796 38.7746 30.6542 34.5537 39.5413 34.5537C45.6167 34.5537 49.3763 39.3095 49.5833 39.4615H55.4167C55.6237 39.3095 59.3833 34.5537 65.4587 34.5537C74.3458 34.5537 79.8204 38.7746 83.7667 48.6575L99.1667 86.2308L105 86.2308L87.5 39.4615Z" fill="black"/>
<path fill-rule="evenodd" clip-rule="evenodd" d="M26.2106 30.6923C25.4581 30.6923 24.8456 30.0814 24.8456 29.3243C24.8456 18.0208 34.0215 8.82477 45.3031 8.82477C46.0556 8.82477 46.6652 9.43569 46.6652 10.1928C46.6652 10.9469 46.0556 11.5578 45.3031 11.5578C35.5265 11.5578 27.5756 19.5291 27.5756 29.3243C27.5756 30.0814 26.9631 30.6923 26.2106 30.6923Z" fill="#1A1A1A"/>
<path fill-rule="evenodd" clip-rule="evenodd" d="M52.5 57C50.89 57 49.5833 58.3066 49.5833 59.9231V62.8462H55.4167V59.9231C55.4167 58.3066 54.11 57 52.5 57ZM74.375 86.2308C72.765 86.2308 71.4583 87.5403 71.4583 89.1538C71.4583 90.7674 72.765 92.0769 74.375 92.0769C75.985 92.0769 77.2917 90.7674 77.2917 89.1538C77.2917 87.5403 75.985 86.2308 74.375 86.2308ZM30.625 86.2308C29.015 86.2308 27.7083 87.5403 27.7083 89.1538C27.7083 90.7674 29.015 92.0769 30.625 92.0769C32.235 92.0769 33.5417 90.7674 33.5417 89.1538C33.5417 87.5403 32.235 86.2308 30.625 86.2308Z" fill="white"/>
<path fill-rule="evenodd" clip-rule="evenodd" d="M77.1677 84.0534L81.6652 57.0003L69.9985 77.4618L58.3319 61.0926V59.9234C58.3319 56.6992 55.7185 54.0772 52.4985 54.0772C49.2815 54.0772 46.6652 56.6992 46.6652 59.9234V61.0926L34.9985 77.4618L23.3319 57.0003L27.8323 84.0534C26.0298 85.0501 24.7902 86.9501 24.7902 89.1541C24.7902 92.3783 27.4065 95.0003 30.6235 95.0003C32.776 95.0003 34.634 93.8164 35.646 92.0772H69.354C70.3631 93.8164 72.224 95.0003 74.3735 95.0003C77.5935 95.0003 80.2069 92.3783 80.2069 89.1541C80.2069 86.9501 78.9702 85.0501 77.1677 84.0534Z" fill="black"/>
<path fill-rule="evenodd" clip-rule="evenodd" d="M40.8333 86.2308H46.6667V70.8642L40.8333 78.8822V86.2308Z" fill="#323232"/>
<path fill-rule="evenodd" clip-rule="evenodd" d="M58.3333 70.8639V86.2305H64.1667V78.8819L58.3333 70.8639Z" fill="#323232"/>
<path fill-rule="evenodd" clip-rule="evenodd" d="M49.5833 86.2308H55.4167V68.6923H49.5833V86.2308Z" fill="#323232"/>
<path fill-rule="evenodd" clip-rule="evenodd" d="M52.5 57C50.89 57 49.5833 58.3066 49.5833 59.9231V62.8462H55.4167V59.9231C55.4167 58.3066 54.11 57 52.5 57ZM74.375 86.2308C72.765 86.2308 71.4583 87.5403 71.4583 89.1538C71.4583 90.7674 72.765 92.0769 74.375 92.0769C75.985 92.0769 77.2917 90.7674 77.2917 89.1538C77.2917 87.5403 75.985 86.2308 74.375 86.2308ZM30.625 86.2308C29.015 86.2308 27.7083 87.5403 27.7083 89.1538C27.7083 90.7674 29.015 92.0769 30.625 92.0769C32.235 92.0769 33.5417 90.7674 33.5417 89.1538C33.5417 87.5403 32.235 86.2308 30.625 86.2308Z" fill="white"/>
</svg>
