<svg width="96" height="67" viewBox="0 0 96 67" fill="none" xmlns="http://www.w3.org/2000/svg">
<g filter="url(#filter0_d_200_172)">
<path d="M45.6229 1.91533C46.8744 2.56199 47.6679 2.72959 49.0417 2.39647C49.465 2.2958 49.8912 2.21182 50.3179 2.12662C50.6752 2.05514 51.0323 1.983 51.389 1.90869C52.4359 1.69063 53.4848 1.48614 54.5366 1.29317C54.6981 1.26354 54.8595 1.23374 55.0209 1.20375C56.4485 0.938927 57.8743 0.692953 59.3319 0.708064C59.4791 0.70918 59.4791 0.70918 59.6292 0.710318C61.7218 0.740749 63.4755 1.22368 65.2966 2.2221C65.445 2.30311 65.445 2.30311 65.5965 2.38575C70.1356 5.05694 72.3257 10.9376 73.5724 15.7165C74.3782 18.9315 74.7571 22.2361 75.0971 25.5255C75.1179 25.7244 75.1396 25.9233 75.1615 26.1222C75.3173 27.552 75.345 28.983 75.3562 30.4201C75.3579 30.628 75.3602 30.8358 75.363 31.0437C75.3666 31.3371 75.3674 31.6303 75.3674 31.9237C75.3695 32.0559 75.3695 32.0559 75.3717 32.1907C75.3675 32.7756 75.2597 33.1135 74.9202 33.5948C70.9455 37.3101 62.0658 37.6046 56.9689 38.0371C56.7726 38.0541 56.5765 38.0718 56.3804 38.0903C54.3591 38.2807 52.3453 38.2919 50.3168 38.2869C49.854 38.2858 49.3912 38.2865 48.9283 38.2876C45.883 38.294 42.8614 38.169 39.8286 37.8887C39.548 37.863 39.2673 37.8386 38.9867 37.8143C38.8039 37.7978 38.6212 37.7813 38.4384 37.7646C38.3566 37.7576 38.2747 37.7506 38.1904 37.7433C36.9771 37.6283 36.9771 37.6283 36.6767 37.3058C36.6139 37.1859 36.5513 37.066 36.4887 36.946C35.8013 36.2129 33.9964 36.0959 33.0408 36.0412C32.4525 36.0253 31.9267 36.0253 31.373 36.2394C30.859 36.4203 30.488 36.3434 29.9723 36.201C29.8831 36.178 29.7938 36.155 29.7018 36.1313C27.3563 35.5068 24.8483 34.7764 22.8925 33.297C22.8156 33.24 22.7387 33.1831 22.6595 33.1244C22.1697 32.7344 21.7779 32.3118 21.5893 31.7085C21.5508 31.2418 21.5591 30.7855 21.5893 30.3186C20.6784 30.9498 20.1591 31.5139 19.9608 32.6199C19.6446 34.1281 19.6446 34.1281 20.0354 35.5494C20.082 35.6092 20.1285 35.669 20.1764 35.7305C20.2861 35.8783 20.2861 35.8783 20.2861 36.0769C20.3522 36.0769 20.4184 36.0769 20.4865 36.0769C20.4865 36.1424 20.4865 36.2079 20.4865 36.2754C20.5439 36.3018 20.6013 36.3282 20.6604 36.3553C20.8985 36.4797 21.0985 36.6241 21.3136 36.7842C22.8361 37.8493 24.6554 38.4533 26.4011 39.0553C26.1201 39.2408 25.8447 39.3646 25.5343 39.493C23.222 40.4588 21.2272 41.9216 19.3105 43.505C18.5515 44.1312 17.7682 44.7233 16.9779 45.31C16.8635 45.3952 16.8635 45.3952 16.7468 45.4822C15.8694 46.135 14.9827 46.7745 14.0771 47.3887C14.0017 47.441 13.9264 47.4932 13.8488 47.5471C13.7785 47.594 13.7082 47.6409 13.6357 47.6892C13.5744 47.7308 13.513 47.7724 13.4498 47.8152C13.2131 47.9147 13.1061 47.8788 12.8678 47.792C12.7624 47.7408 12.6569 47.6896 12.5483 47.6369C11.6922 47.2806 10.9555 47.5518 10.1361 47.8824C9.36789 48.2084 8.62633 48.5907 7.88256 48.9675C7.46603 49.1777 7.04688 49.3792 6.62243 49.5732C5.28517 50.1655 5.28517 50.1655 4.12333 51.0322C3.94594 51.1675 3.94594 51.1675 3.54495 51.1675C3.41093 51.0212 3.41093 51.0212 3.29277 50.8142C3.22625 50.6997 3.22625 50.6997 3.15838 50.5828C3.11228 50.4994 3.06617 50.4159 3.01866 50.3299C2.97016 50.2439 2.92166 50.1579 2.87169 50.0693C2.72598 49.8079 2.58342 49.5451 2.44225 49.2812C2.40388 49.2097 2.36552 49.1383 2.32599 49.0646C1.4584 47.4185 0.91344 45.6386 0.499977 43.8332C0.476055 43.7296 0.452132 43.626 0.427485 43.5193C0.100469 42.0119 0.000768283 40.5058 0.00469349 38.9673C0.0050115 38.7079 0.00264108 38.4487 0.000116819 38.1893C-0.00417084 37.0587 0.109596 35.9929 0.337077 34.8855C0.355936 34.7922 0.374794 34.6989 0.394224 34.6027C0.956522 32.0115 2.2232 29.6659 4.04618 27.7373C4.1714 27.6029 4.1714 27.6029 4.29915 27.4658C6.75335 24.933 10.4223 23.3281 13.9689 23.2434C14.4039 23.2371 14.8387 23.2367 15.2738 23.2386C15.411 23.239 15.411 23.239 15.551 23.2394C18.0284 23.2497 20.2426 23.6589 22.5917 24.461C22.6014 24.3425 22.6111 24.224 22.6211 24.1019C22.696 23.4433 22.8605 22.8066 23.024 22.1651C23.0498 22.0634 23.0498 22.0634 23.076 21.9597C23.8195 19.0397 24.7834 16.1781 25.7996 13.3415C25.8303 13.2545 25.861 13.1675 25.8926 13.0778C26.2204 12.1497 26.6201 11.2712 27.0793 10.4006C27.2175 10.137 27.3526 9.87202 27.4877 9.60688C28.589 7.45954 29.7464 5.26851 31.3131 3.41347C31.3589 3.35922 31.4047 3.30497 31.4519 3.24908C35.213 -1.13601 40.8319 -0.564146 45.6229 1.91533Z" fill="#623E2D"/>
<path d="M76.4239 33.7934C77.8875 33.9507 79.3238 34.1702 80.7646 34.4701C80.8593 34.4895 80.9541 34.5088 81.0517 34.5287C81.2442 34.5686 81.4364 34.6106 81.6281 34.6544C82.2195 34.7802 82.5992 34.7967 83.178 34.5752C83.8219 34.3471 84.4605 34.1904 85.1328 34.0664C85.2614 34.0422 85.2614 34.0422 85.3925 34.0175C86.5331 33.8116 87.6567 33.7694 88.8136 33.7641C88.9861 33.763 89.1586 33.7609 89.3311 33.758C91.2803 33.7249 93.2041 34.0632 94.6722 35.4575C95.6053 36.5103 96.0129 37.592 95.9997 38.9797C95.868 40.7491 94.7631 42.208 93.4928 43.3779C93.2227 43.6015 92.9466 43.8119 92.6638 44.0193C92.5625 44.0962 92.4611 44.1732 92.3568 44.2524C86.3359 48.7389 78.1397 50.7759 71.135 53.2149C68.2168 54.2311 65.3036 55.2627 62.4017 56.3236C61.0991 56.7984 59.7903 57.2559 58.482 57.715C57.5906 58.0279 56.6997 58.3417 55.8112 58.6625C55.6981 58.7033 55.6981 58.7033 55.5828 58.7449C55.5085 58.7718 55.4341 58.7986 55.3576 58.8262C52.2536 59.9465 49.1186 60.9668 45.9491 61.8899C45.8337 61.9235 45.7184 61.9571 45.5996 61.9918C42.909 62.7659 40.1646 63.3323 37.3843 63.6707C37.2598 63.6859 37.2598 63.6859 37.1329 63.7014C35.3416 63.916 33.5678 63.9982 31.7642 63.9996C31.6088 63.9998 31.6088 63.9998 31.4502 64C29.7953 63.9995 28.1786 63.9218 26.536 63.7177C26.2088 63.6779 25.8814 63.644 25.5533 63.6118C18.8954 62.9354 11.9536 60.3338 7.05357 55.7345C7.31047 55.48 7.60694 55.3597 7.93072 55.207C8.90764 54.7341 9.83541 54.1847 10.7658 53.6285C11.0763 53.4433 11.3878 53.2598 11.6993 53.0764C11.9072 52.9531 12.115 52.8298 12.3228 52.7064C12.4199 52.6493 12.5171 52.5922 12.6173 52.5334C13.3098 52.119 13.8687 51.7434 14.171 50.969C14.1946 50.7234 14.211 50.4771 14.2212 50.2306C14.2582 49.8571 14.2947 49.5613 14.5622 49.2773C14.7989 49.1365 15.0402 49.0123 15.2865 48.8892C15.6781 48.6714 16.0304 48.3936 16.389 48.1271C16.4707 48.067 16.5524 48.0069 16.6365 47.945C17.6984 47.1629 18.7491 46.3661 19.7911 45.5582C19.8479 45.5142 19.9046 45.4702 19.9631 45.4248C20.2647 45.1896 20.5622 44.9506 20.8562 44.7062C22.4048 43.423 24.0727 42.2964 25.8998 41.438C26.007 41.3872 26.1141 41.3364 26.2245 41.2841C27.1794 40.8767 28.1822 40.7525 29.208 40.6438C29.3293 40.6298 29.4506 40.6159 29.5757 40.6015C30.2805 40.5564 30.2805 40.5564 30.6228 40.7857C30.7538 40.9069 30.8821 41.0313 31.0073 41.1584C31.3829 41.4879 31.8399 41.6035 32.3156 41.7359C32.3926 41.7583 32.4696 41.7807 32.549 41.8037C33.6241 42.0663 34.8078 42.068 35.8242 41.6366C36.1497 41.5567 36.402 41.5475 36.7264 41.6366C37.1347 41.893 37.4785 42.2019 37.8291 42.5301C37.9041 42.5965 37.979 42.663 38.0563 42.7314C38.981 43.586 39.6267 44.7679 39.6837 46.036C39.5643 48.5407 37.865 50.6784 36.1249 52.3589C35.7726 52.6758 35.4017 52.9682 35.0222 53.2524C34.9158 53.3386 34.9158 53.3386 34.8073 53.4266C34.6213 53.5503 34.6213 53.5503 34.3581 53.5255C34.12 53.451 34.12 53.451 33.9195 53.3517C32.9302 53.2327 32.284 53.4893 31.5077 54.0824C30.8127 54.6455 30.1578 55.2562 29.5013 55.8624C29.2685 56.076 29.034 56.2856 28.7944 56.4915C28.7333 56.5445 28.6722 56.5975 28.6092 56.652C28.4529 56.7862 28.2953 56.9188 28.137 57.0507C27.4858 57.609 27.0112 58.1608 26.6016 58.9115C26.5593 58.9871 26.517 59.0627 26.4735 59.1407C26.218 59.6459 26.1459 60.1076 26.118 60.6702C26.1003 60.8971 26.1003 60.8971 26.0001 61.0956C25.9456 61.5876 25.9435 61.9764 26.1693 62.4235C26.8053 63.1386 27.3728 63.2306 28.3144 63.2939C29.3482 63.3481 30.0853 63.3441 30.8843 62.6434C30.9897 62.5476 31.0947 62.4516 31.1996 62.3553C31.2849 62.277 31.2849 62.277 31.3719 62.1972C31.9712 61.6443 32.5528 61.0743 33.1308 60.4998C33.3072 60.3246 33.4841 60.1499 33.6611 59.9752C35.3934 58.3947 35.3934 58.3947 36.1289 56.2933C36.1263 56.0509 36.121 55.8085 36.1124 55.5662C36.1331 55.0233 36.2804 54.7681 36.6677 54.3953C36.8077 54.268 36.9484 54.1415 37.0898 54.0157C37.2367 53.8818 37.3836 53.7479 37.5303 53.6139C37.6634 53.4934 37.7964 53.3729 37.9294 53.2524C39.5523 51.7656 40.6557 49.9634 41.3377 47.8913C41.3645 47.8113 41.3912 47.7313 41.4188 47.6489C41.9124 45.8723 41.3256 44.0476 40.4408 42.5002C40.2482 42.1923 40.0173 41.9294 39.7589 41.6746C39.6336 41.5373 39.6336 41.5373 39.6336 41.3387C40.8477 41.3903 42.0585 41.4645 43.2698 41.5623C44.7257 41.6785 46.1729 41.7518 47.6333 41.7525C47.7908 41.7529 47.9482 41.7532 48.1057 41.7535C48.4344 41.7541 48.763 41.7543 49.0916 41.7543C49.42 41.7543 49.7483 41.7549 50.0767 41.7563C53.1486 41.7689 56.2106 41.6812 59.263 41.3139C59.3535 41.3033 59.4439 41.2927 59.5371 41.2818C67.8625 40.4825 67.8625 40.4825 75.3212 37.1689C75.4025 37.1134 75.4837 37.0579 75.5675 37.0006C76.0769 36.5434 76.3416 36.1089 76.3945 35.4222C76.4004 35.2268 76.4039 35.0313 76.4051 34.8358C76.4076 34.7353 76.4101 34.6347 76.4127 34.531C76.4186 34.2851 76.4223 34.0394 76.4239 33.7934Z" fill="#65412E"/>
<path d="M15.2738 23.2386C15.411 23.239 15.411 23.239 15.551 23.2394C17.9263 23.2493 20.4457 23.4508 22.5917 24.5603C22.5667 24.6799 22.5667 24.6799 22.5413 24.8018C22.4774 25.1105 22.4143 25.4194 22.352 25.7284C22.3239 25.8679 22.2956 26.0073 22.2672 26.1467C22.1158 26.8939 21.9808 27.6324 21.9151 28.3927C21.905 28.5085 21.8948 28.6244 21.8844 28.7437C21.8677 28.961 21.8544 29.1786 21.8452 29.3963C21.7901 30.1123 21.7901 30.1123 21.4883 30.4333C21.2462 30.6187 21.2462 30.6187 21.0075 30.7721C20.4838 31.1102 20.1829 31.593 20.0416 32.1929C19.6338 33.9171 19.6338 33.9171 20.0354 35.5494C20.082 35.6092 20.1285 35.669 20.1764 35.7305C20.2861 35.8783 20.2861 35.8783 20.2861 36.0769C20.3522 36.0769 20.4184 36.0769 20.4865 36.0769C20.4865 36.1424 20.4865 36.2079 20.4865 36.2754C20.5439 36.3018 20.6013 36.3282 20.6604 36.3553C20.8985 36.4797 21.0985 36.6241 21.3136 36.7842C22.8361 37.8493 24.6554 38.4533 26.4011 39.0553C26.1201 39.2408 25.8447 39.3646 25.5343 39.493C23.222 40.4588 21.2272 41.9216 19.3105 43.505C18.5515 44.1312 17.7682 44.7233 16.9779 45.31C16.8635 45.3952 16.8635 45.3952 16.7468 45.4822C15.8694 46.135 14.9827 46.7745 14.0771 47.3887C14.0017 47.441 13.9264 47.4932 13.8488 47.5471C13.7785 47.594 13.7082 47.6409 13.6357 47.6892C13.5744 47.7308 13.513 47.7724 13.4498 47.8152C13.2131 47.9147 13.1061 47.8788 12.8678 47.792C12.7624 47.7408 12.6569 47.6896 12.5483 47.6369C11.6922 47.2806 10.9555 47.5518 10.1361 47.8824C9.36789 48.2084 8.62633 48.5907 7.88256 48.9675C7.46603 49.1777 7.04688 49.3792 6.62243 49.5732C5.28517 50.1655 5.28517 50.1655 4.12333 51.0322C3.94594 51.1675 3.94594 51.1675 3.54495 51.1675C3.41093 51.0212 3.41093 51.0212 3.29277 50.8142C3.22625 50.6997 3.22625 50.6997 3.15838 50.5828C3.11228 50.4994 3.06617 50.4159 3.01866 50.3299C2.97016 50.2439 2.92166 50.1579 2.87169 50.0693C2.72598 49.8079 2.58342 49.5451 2.44225 49.2812C2.40388 49.2097 2.36552 49.1383 2.32599 49.0646C1.4584 47.4185 0.91344 45.6386 0.499977 43.8332C0.476055 43.7296 0.452132 43.626 0.427485 43.5193C0.100469 42.0119 0.000768283 40.5058 0.00469349 38.9673C0.0050115 38.7079 0.00264108 38.4487 0.000116819 38.1893C-0.00417084 37.0587 0.109596 35.9929 0.337077 34.8855C0.355936 34.7922 0.374794 34.6989 0.394224 34.6027C0.956522 32.0115 2.2232 29.6659 4.04618 27.7373C4.1714 27.6029 4.1714 27.6029 4.29915 27.4658C7.17367 24.4992 11.2033 23.2211 15.2738 23.2386Z" fill="#4F3324"/>
<path d="M29.5757 40.6015C30.2805 40.5564 30.2805 40.5564 30.6228 40.7857C30.7538 40.9069 30.8821 41.0313 31.0073 41.1584C31.3829 41.4879 31.8399 41.6035 32.3156 41.7359C32.3926 41.7583 32.4696 41.7807 32.549 41.8037C33.6241 42.0663 34.8078 42.068 35.8242 41.6366C36.1497 41.5567 36.402 41.5475 36.7264 41.6366C37.1347 41.893 37.4785 42.2019 37.8291 42.5301C37.9041 42.5965 37.979 42.663 38.0563 42.7314C38.981 43.586 39.6267 44.7679 39.6837 46.036C39.5643 48.5407 37.865 50.6784 36.1249 52.3589C35.7726 52.6758 35.4017 52.9682 35.0222 53.2524C34.9158 53.3386 34.9158 53.3386 34.8073 53.4266C34.6213 53.5503 34.6213 53.5503 34.3581 53.5255C34.12 53.451 34.12 53.451 33.9195 53.3517C32.9302 53.2327 32.284 53.4893 31.5077 54.0824C30.8127 54.6455 30.1578 55.2562 29.5013 55.8624C29.2685 56.076 29.034 56.2856 28.7944 56.4915C28.7333 56.5445 28.6722 56.5975 28.6092 56.652C28.4529 56.7862 28.2953 56.9188 28.137 57.0507C27.4858 57.609 27.0112 58.1608 26.6016 58.9115C26.5593 58.9871 26.517 59.0627 26.4735 59.1407C26.218 59.6459 26.1459 60.1076 26.118 60.6702C26.1003 60.8971 26.1003 60.8971 26.0001 61.0956C25.9453 61.5906 25.9415 61.9766 26.1755 62.4235C26.3917 62.6827 26.3917 62.6827 26.6204 62.8889C26.835 63.1161 26.8681 63.2728 26.9023 63.5777C26.2757 63.7032 25.7105 63.6499 25.0791 63.5714C24.9699 63.558 24.8608 63.5446 24.7484 63.5308C18.355 62.6929 11.7756 60.1667 7.05357 55.7345C7.31047 55.48 7.60694 55.3597 7.93072 55.207C8.90764 54.7341 9.83541 54.1847 10.7658 53.6285C11.0763 53.4433 11.3878 53.2598 11.6993 53.0764C11.9072 52.9531 12.115 52.8298 12.3228 52.7064C12.4199 52.6493 12.5171 52.5922 12.6173 52.5334C13.3098 52.119 13.8687 51.7434 14.171 50.969C14.1946 50.7234 14.211 50.4771 14.2212 50.2306C14.2582 49.8571 14.2947 49.5613 14.5622 49.2773C14.7989 49.1365 15.0402 49.0123 15.2865 48.8892C15.6781 48.6714 16.0304 48.3936 16.389 48.1271C16.5115 48.037 16.5115 48.037 16.6365 47.945C17.6984 47.1629 18.7491 46.3661 19.7911 45.5582C19.8479 45.5142 19.9046 45.4702 19.9631 45.4248C20.2647 45.1896 20.5622 44.9506 20.8562 44.7062C22.4048 43.423 24.0727 42.2964 25.8998 41.438C26.007 41.3872 26.1141 41.3364 26.2245 41.2841C27.2954 40.8272 28.4295 40.7333 29.5757 40.6015Z" fill="#674230"/>
<path d="M38.2506 6.31072C38.6981 6.51476 38.8556 6.73291 39.062 7.16973C39.117 7.28452 39.1721 7.39931 39.2288 7.51758C39.2871 7.64271 39.3453 7.76785 39.4034 7.89301C39.4644 8.0215 39.5256 8.14994 39.5868 8.27833C39.7461 8.61317 39.9035 8.94883 40.0604 9.28478C40.1847 9.55078 40.3098 9.81642 40.4349 10.0821C40.734 10.7174 41.0314 11.3535 41.327 11.9904C41.3704 12.0819 41.4138 12.1733 41.4585 12.2676C41.496 12.3728 41.5335 12.478 41.5721 12.5864C41.7963 12.9181 41.9762 12.969 42.3634 13.0492C42.4454 13.0635 42.5273 13.0778 42.6117 13.0925C42.6978 13.1096 42.7839 13.1267 42.8726 13.1443C43.1547 13.1998 43.4375 13.2517 43.7203 13.3038C43.915 13.3418 44.1097 13.38 44.3044 13.4185C44.8923 13.5342 45.481 13.6458 46.0698 13.7568C46.6424 13.8651 47.2147 13.9744 47.7865 14.0867C48.0014 14.1282 48.2166 14.1674 48.4319 14.2064C49.642 14.4409 49.642 14.4409 50.0796 14.9481C50.2588 15.2551 50.2589 15.4981 50.1799 15.8417C49.9407 16.2443 49.6477 16.5923 49.3404 16.9445C49.1038 17.2172 48.8752 17.4961 48.6454 17.7744C48.4642 17.9936 48.2819 18.2119 48.0994 18.43C47.7908 18.7991 47.4876 19.1721 47.1866 19.5473C46.8333 19.9846 46.4754 20.4184 46.1177 20.8523C46.0122 20.9806 45.9073 21.1094 45.8033 21.2388C45.6688 21.4014 45.6688 21.4014 45.4734 21.5976C45.2278 22.066 45.4778 22.6477 45.6261 23.1214C45.6961 23.3321 45.7668 23.5427 45.838 23.7531C45.9188 23.9979 45.9995 24.2427 46.08 24.4876C46.102 24.5546 46.1241 24.6215 46.1468 24.6905C46.4473 25.6034 46.7413 26.5183 47.0322 27.4343C47.0963 27.6353 47.1607 27.8361 47.2255 28.0369C47.3175 28.3219 47.4082 28.6073 47.4987 28.8928C47.5265 28.9782 47.5544 29.0635 47.583 29.1514C47.7611 29.7199 47.9037 30.2462 47.6487 30.8145C47.455 31.0542 47.3682 31.1431 47.0722 31.2302C46.5322 31.2455 46.0174 31.2104 45.4828 31.1321C45.3313 31.1108 45.1798 31.0896 45.0284 31.0684C44.9499 31.0572 44.8714 31.0461 44.7905 31.0346C44.5439 31.0001 44.2971 30.9677 44.0502 30.9358C43.3363 30.8431 42.625 30.7499 41.9176 30.6164C40.6509 30.3231 40.6509 30.3231 39.4225 30.5575C39.0048 30.9057 38.7398 31.3356 38.4784 31.8049C38.2853 32.1373 38.0448 32.424 37.7995 32.7194C37.7102 32.8315 37.6212 32.9439 37.5324 33.0564C37.4377 33.1758 37.3429 33.2951 37.2481 33.4144C37.1658 33.5183 37.1658 33.5183 37.0818 33.6243C36.9084 33.8425 36.7338 34.0598 36.5589 34.2769C36.4784 34.3787 36.4784 34.3787 36.3962 34.4826C36.1124 34.8329 35.8673 35.1134 35.4437 35.3007C35.0444 35.3007 34.823 35.2628 34.504 35.0213C34.1028 34.6008 33.9124 34.0408 33.6874 33.516C33.637 33.4006 33.5865 33.2852 33.5345 33.1663C33.4284 32.9231 33.3227 32.6796 33.2178 32.4358C33.0834 32.1234 32.9475 31.8116 32.811 31.5001C32.6806 31.2023 32.5512 30.904 32.4218 30.6058C32.373 30.4938 32.3241 30.3818 32.2738 30.2664C32.2292 30.1627 32.1847 30.059 32.1388 29.9521C32.0993 29.8608 32.0599 29.7695 32.0192 29.6754C31.9351 29.4432 31.9351 29.4432 31.9351 29.1453C31.8305 29.1394 31.8305 29.1394 31.7238 29.1334C30.7461 29.0692 29.7801 28.9436 28.8106 28.8058C28.5312 28.7666 28.2517 28.7294 27.972 28.6921C27.7926 28.6669 27.6132 28.6415 27.4338 28.6159C27.3511 28.6053 27.2684 28.5946 27.1832 28.5836C26.6624 28.5064 26.3333 28.3803 25.9203 28.0532C25.68 27.7287 25.6783 27.4554 25.7198 27.0604C25.8688 26.6989 26.057 26.3603 26.2461 26.018C26.3 25.9181 26.3539 25.8182 26.4095 25.7153C26.5792 25.4018 26.7508 25.0893 26.9228 24.777C27.0305 24.5802 27.1382 24.3835 27.2458 24.1867C27.349 23.9987 27.4523 23.8108 27.5556 23.6228C27.6054 23.5318 27.6553 23.4408 27.7067 23.347C27.9184 22.962 28.1314 22.5792 28.3607 22.2042C28.4258 22.0949 28.4909 21.9856 28.558 21.873C28.6135 21.7844 28.6689 21.6959 28.726 21.6046C29.0005 20.7861 28.6187 19.8762 28.3639 19.0917C28.2993 18.8927 28.236 18.6934 28.1731 18.4939C28.0167 17.9991 27.8584 17.5049 27.6996 17.0108C27.5649 16.5917 27.4312 16.1722 27.2989 15.7523C27.2371 15.5573 27.1737 15.3627 27.1104 15.1682C26.9032 14.5109 26.7483 13.9499 26.8225 13.2604C27.0412 12.9868 27.2107 12.82 27.5242 12.6647C27.6854 12.6581 27.8468 12.6577 28.008 12.6604C28.5742 12.6669 29.1398 12.6648 29.7059 12.6596C29.9499 12.6589 30.1938 12.6607 30.4377 12.6653C31.7516 12.7383 31.7516 12.7383 32.9491 12.3163C33.3018 11.9489 33.5299 11.5277 33.7449 11.071C33.8714 10.8132 34.0333 10.593 34.2086 10.3657C34.2617 10.2938 34.3148 10.222 34.3695 10.1479C34.4221 10.0775 34.4748 10.007 34.5289 9.93447C34.587 9.85648 34.6451 9.77849 34.705 9.69814C35.2045 9.03276 35.7274 8.38817 36.2602 7.74874C36.5539 7.39604 36.8352 7.03488 37.1111 6.66828C37.4539 6.27055 37.7501 6.26799 38.2506 6.31072Z" fill="#FCC85B"/>
<path d="M89.6125 35.6425C89.6823 35.6425 89.7521 35.6425 89.824 35.6425C91.7079 35.6471 93.4979 35.8756 95.0426 37.0103C95.2815 37.1872 95.2815 37.1872 95.6273 37.3303C95.8716 37.4668 95.8716 37.4668 95.9351 37.6832C96.1374 39.2225 95.7858 40.6557 94.8424 41.9039C94.2002 42.7155 93.5023 43.4044 92.6638 44.0193C92.5625 44.0962 92.4611 44.1732 92.3568 44.2524C86.3359 48.7389 78.1397 50.7759 71.135 53.2149C68.2168 54.2311 65.3036 55.2627 62.4017 56.3236C61.0991 56.7984 59.7903 57.2559 58.482 57.715C57.5906 58.0279 56.6997 58.3417 55.8112 58.6625C55.6981 58.7033 55.6981 58.7033 55.5828 58.7449C55.5085 58.7718 55.4341 58.7986 55.3576 58.8262C51.0899 60.3665 46.747 61.823 42.3151 62.8268C42.2441 62.8432 42.173 62.8595 42.0997 62.8763C41.7055 62.9617 41.3399 62.9975 40.9368 62.982C41.2443 62.7273 41.524 62.6053 41.9055 62.4875C42.0729 62.4346 42.0729 62.4346 42.2437 62.3806C42.4217 62.3251 42.4217 62.3251 42.6034 62.2684C43.6496 61.9324 44.6529 61.5602 45.6452 61.0914C45.8465 60.9974 46.0492 60.9078 46.2529 60.8191C47.4459 60.2927 48.5586 59.6382 49.6792 58.9763C49.9229 58.8333 50.1677 58.6929 50.4139 58.5543C51.9929 57.6619 53.4784 56.6204 54.9509 55.5665C55.1683 55.4113 55.3862 55.2574 55.6056 55.105C56.3433 54.5914 57.059 54.0545 57.7684 53.5031C58.3353 53.0632 58.9103 52.6351 59.4886 52.21C60.2765 51.6292 61.0383 51.0232 61.7927 50.4004C62.2134 50.0536 62.6426 49.7183 63.0742 49.3849C63.5026 49.0539 63.927 48.7185 64.3505 48.3815C64.8583 47.9779 65.3698 47.5799 65.8871 47.1882C66.2703 46.898 66.6511 46.6048 67.0311 46.3105C72.9007 41.7694 79.2896 37.261 86.7492 35.8783C86.8498 35.8596 86.9504 35.8409 87.054 35.8216C87.9074 35.6765 88.7478 35.6402 89.6125 35.6425Z" fill="#472F20"/>
<path d="M21.5893 30.3186C21.5895 30.4074 21.5898 30.4962 21.59 30.5877C21.6217 31.5676 21.7932 32.2128 22.5044 32.9107C24.2306 34.364 26.5024 35.0971 28.6378 35.7294C28.747 35.7618 28.8562 35.7941 28.9688 35.8275C30.4097 36.2878 30.4097 36.2878 31.8144 35.9776C32.8217 35.8462 33.8028 36.0032 34.7904 36.201C34.8934 36.2212 34.9964 36.2415 35.1025 36.2624C35.6595 36.3829 36.0847 36.5074 36.5259 36.8711C36.6623 37.1681 36.6328 37.2485 36.5259 37.5661C36.4184 37.5947 36.3109 37.6234 36.2001 37.6529C35.6042 37.83 35.3071 38.2134 35.0136 38.7462C34.8312 39.1639 34.7277 39.6065 34.6213 40.0481C33.8586 40.0819 33.1661 39.9853 32.4221 39.8247C32.3211 39.8044 32.2201 39.784 32.1161 39.7631C31.4225 39.6173 30.7699 39.4111 30.1102 39.1546C30.1555 39.3615 30.2016 39.5683 30.248 39.7751C30.2864 39.9478 30.2864 39.9478 30.3256 40.1241C30.3967 40.3917 30.4742 40.6036 30.6114 40.8423C30.5452 40.8096 30.4791 40.7768 30.4109 40.7431C26.8018 40.4001 23.6168 42.5758 20.9692 44.7349C20.8385 44.8419 20.7077 44.9489 20.577 45.0559C20.1075 45.4371 19.6277 45.8058 19.1485 46.175C18.9885 46.2984 18.8289 46.4222 18.6692 46.5459C17.755 47.2496 16.8183 47.9212 15.8752 48.5862C15.8078 48.6339 15.7403 48.6816 15.6708 48.7307C15.4888 48.859 15.3062 48.9865 15.1234 49.1137C15.021 49.185 14.9187 49.2562 14.8132 49.3297C14.572 49.4798 14.572 49.4798 14.3715 49.4798C14.3533 49.4176 14.3351 49.3554 14.3163 49.2913C14.2911 49.2102 14.2659 49.129 14.24 49.0454C14.2155 48.9648 14.1911 48.8842 14.166 48.8011C14.0794 48.5533 14.0794 48.5533 13.7701 48.3877C13.8197 48.4573 13.8693 48.5269 13.9204 48.5987C14.0998 48.9392 14.1344 49.1007 14.0708 49.4798C13.8426 49.6683 13.653 49.7906 13.3941 49.9265C13.3205 49.9673 13.2468 50.0081 13.1709 50.0502C12.2073 50.5747 11.2174 51.054 10.2313 51.5352C10.1195 51.5898 10.0077 51.6445 9.89252 51.7008C9.67075 51.8086 9.44849 51.9153 9.22575 52.0211C8.70076 52.2734 8.23837 52.5105 7.80541 52.905C7.06067 53.5396 6.18127 54.0646 5.18022 54.0529C5.08059 54.052 4.98096 54.0511 4.8783 54.0502C4.76414 54.0485 4.76414 54.0485 4.64766 54.0467C4.63732 54.1696 4.62698 54.2924 4.61633 54.419C4.57368 54.7694 4.49918 54.9771 4.24668 55.2381C3.85987 55.2113 3.67718 55.1653 3.37579 54.9154C2.92859 54.3887 2.80967 54.0757 2.80329 53.3917C2.85122 53.1054 2.96719 52.9836 3.14397 52.756C3.21482 52.5075 3.21482 52.5075 3.26301 52.241C3.51156 51.293 4.17703 50.7806 4.98721 50.281C5.69746 49.868 6.44568 49.5208 7.18614 49.165C7.47147 49.0277 7.75603 48.889 8.04056 48.7501C11.3772 47.1323 11.3772 47.1323 12.3619 47.46C12.5333 47.5314 12.7009 47.6117 12.8678 47.6927C13.0582 47.7778 13.0582 47.7778 13.2688 47.792C13.497 47.6908 13.497 47.6908 13.7235 47.5248C13.8119 47.4644 13.9003 47.4041 13.9915 47.3419C14.0859 47.2754 14.1803 47.209 14.2776 47.1405C14.4246 47.0388 14.4246 47.0388 14.5746 46.9352C14.8757 46.726 15.1752 46.5149 15.4742 46.3028C15.5613 46.2412 15.6483 46.1796 15.738 46.1162C16.7881 45.37 17.8002 44.5852 18.798 43.7721C20.8106 42.14 22.8616 40.6702 25.2063 39.5452C25.5391 39.3846 25.8697 39.2197 26.2006 39.0553C26.1397 39.0354 26.0787 39.0155 26.016 38.995C24.0337 38.3426 22.0868 37.655 20.4865 36.2754C20.4865 36.2099 20.4865 36.1444 20.4865 36.0769C20.4204 36.0769 20.3542 36.0769 20.2861 36.0769C19.7787 35.5002 19.6002 34.9362 19.6384 34.182C19.6972 33.6874 19.7722 33.1978 19.86 32.7075C19.8757 32.6181 19.8914 32.5288 19.9075 32.4367C20.0579 31.6743 20.3547 31.1933 20.9502 30.6785C21.028 30.6101 21.1058 30.5418 21.1859 30.4714C21.3888 30.3186 21.3888 30.3186 21.5893 30.3186Z" fill="#F9C151"/>
<path d="M19.8851 35.779C19.9843 35.8282 19.9843 35.8282 20.0856 35.8783C20.1445 36.0534 20.1445 36.0534 20.2046 36.232C20.723 37.6326 22.3137 38.3011 23.5904 38.8914C24.0524 39.0997 24.5208 39.2802 24.9976 39.4524C24.8024 39.6044 24.6216 39.7387 24.3961 39.8433C24.186 39.9397 24.186 39.9397 24.0339 40.1233C23.713 40.422 23.3533 40.6178 22.9739 40.8361C21.6515 41.6177 20.4742 42.5715 19.2848 43.5355C18.5302 44.1457 17.7567 44.7304 16.9779 45.31C16.9015 45.367 16.8251 45.4239 16.7464 45.4827C15.8691 46.1353 14.9825 46.7746 14.0771 47.3887C14.0017 47.441 13.9264 47.4932 13.8488 47.5471C13.7785 47.594 13.7082 47.6409 13.6357 47.6892C13.5744 47.7308 13.513 47.7724 13.4498 47.8152C13.2131 47.9147 13.1061 47.8788 12.8678 47.792C12.7624 47.7408 12.6569 47.6896 12.5483 47.6369C11.6922 47.2806 10.9555 47.5518 10.1361 47.8824C9.36789 48.2084 8.62633 48.5907 7.88256 48.9675C7.46603 49.1777 7.04688 49.3792 6.62243 49.5732C5.28517 50.1655 5.28517 50.1655 4.12333 51.0322C3.94594 51.1675 3.94594 51.1675 3.54495 51.1675C3.41478 50.9487 3.28543 50.7294 3.1565 50.5098C3.11993 50.4485 3.08336 50.3872 3.04568 50.324C2.82776 49.9513 2.66724 49.5971 2.54249 49.1819C2.50528 49.0714 2.46806 48.9608 2.42971 48.8469C2.40077 48.7609 2.37182 48.6749 2.342 48.5862C2.5424 48.4579 2.7429 48.3296 2.94348 48.2015C3.03757 48.1413 3.03757 48.1413 3.13357 48.0799C3.47018 47.8653 3.80813 47.6536 4.14995 47.4472C4.96921 46.9518 5.74127 46.4282 6.49066 45.8342C6.65633 45.7042 6.82403 45.5772 6.99248 45.4508C7.83772 44.8124 8.61295 44.1174 9.38218 43.3917C9.83621 42.9656 10.3003 42.5501 10.7627 42.133C10.8456 42.0579 10.9286 41.9827 11.0141 41.9053C13.4419 39.7212 16.0826 37.92 18.9346 36.3172C19.0913 36.2283 19.2471 36.1379 19.4016 36.0452C19.5595 35.9509 19.7218 35.8639 19.8851 35.779Z" fill="#674230"/>
<path d="M36.0611 39.0041C36.6969 39.0125 37.1525 39.4189 37.6474 39.7751C37.7448 39.8428 37.8422 39.9105 37.9425 39.9802C38.86 40.6217 38.86 40.6217 39.2326 40.9416C39.2326 41.0071 39.2326 41.0727 39.2326 41.1402C39.3318 41.1729 39.4311 41.2057 39.5333 41.2395C40.8563 42.6629 41.7147 44.4368 41.6856 46.4039C41.5406 49.5612 39.2556 52.2079 37.0272 54.2453C36.8984 54.3482 36.7695 54.4508 36.6403 54.5532C36.4194 54.7385 36.3353 54.8139 36.235 55.0884C36.2338 55.1664 36.2327 55.2445 36.2315 55.3249C36.2282 55.4104 36.225 55.4959 36.2217 55.584C36.2238 55.7381 36.227 55.8922 36.2318 56.0463C36.265 57.1581 35.6153 58.0373 34.8729 58.8231C34.8167 58.8809 34.7606 58.9387 34.7027 58.9983C34.6412 59.0624 34.5797 59.1265 34.5163 59.1926C33.8862 59.844 33.2453 60.4855 32.6035 61.1256C32.4836 61.2453 32.3638 61.365 32.2442 61.4849C30.331 63.3997 30.331 63.3997 29.2205 63.4068C29.1119 63.4054 29.1119 63.4054 29.0012 63.4039C28.9259 63.403 28.8507 63.4021 28.7731 63.4012C26.9861 63.3648 26.9861 63.3648 26.2531 62.6694C25.9543 62.3098 25.8733 62.0448 25.881 61.5796C25.882 61.4502 25.882 61.4502 25.883 61.3182C25.8998 61.0956 25.8998 61.0956 26.0001 60.8971C26.0028 60.744 26.0047 60.591 26.0064 60.4379C26.1383 58.9079 27.2358 57.6789 28.3696 56.7315C28.6903 56.457 28.9986 56.17 29.3082 55.8834C30.0097 55.2367 30.7165 54.6091 31.4698 54.0219C31.5229 53.9797 31.5761 53.9375 31.6309 53.894C32.1721 53.4785 32.6936 53.2087 33.387 53.2214C33.4783 53.2218 33.5697 53.2222 33.6638 53.2226C33.9195 53.2524 33.9195 53.2524 34.122 53.3599C34.4016 53.4882 34.5329 53.453 34.8217 53.3517C35.093 53.1492 35.093 53.1492 35.3543 52.8926C35.6709 52.5953 35.9877 52.3038 36.3254 52.0301C37.9725 50.6027 39.2849 48.4922 39.5686 46.3323C39.642 45.023 38.9895 43.8981 38.1635 42.9303C37.6145 42.3458 36.9539 41.8908 36.3059 41.4213C35.3712 40.7393 35.3712 40.7393 35.2227 40.4452C35.1677 39.8779 35.2698 39.6007 35.6237 39.1546C35.724 39.0553 35.724 39.0553 36.0611 39.0041Z" fill="#F9C353"/>
<path d="M76.3236 33.7934C76.3567 33.7934 76.3898 33.7934 76.4239 33.7934C76.4416 34.1388 76.4521 34.484 76.4615 34.8296C76.4665 34.9263 76.4716 35.023 76.4768 35.1226C76.4917 35.8612 76.318 36.3167 75.8224 36.8711C74.9369 37.6936 73.7496 38.2316 72.6271 38.652C72.5158 38.6938 72.4045 38.7357 72.2899 38.7789C68.4157 40.195 64.2555 40.815 60.1714 41.2929C59.8153 41.3349 59.4595 41.3787 59.1036 41.4229C57.8787 41.5711 56.653 41.6744 55.4212 41.7428C55.344 41.7472 55.2668 41.7515 55.1873 41.7559C53.5167 41.8471 51.8486 41.8659 50.1758 41.861C49.7807 41.8599 49.3857 41.8606 48.9907 41.8617C46.0005 41.869 43.0311 41.6995 40.0518 41.4531C39.8793 41.4412 39.7062 41.438 39.5333 41.438C39.3641 41.3015 39.3641 41.3015 39.2326 41.1402C39.2326 41.0747 39.2326 41.0091 39.2326 40.9416C39.1768 40.9163 39.1209 40.8909 39.0634 40.8648C38.7984 40.7256 38.5707 40.561 38.3304 40.3832C38.2336 40.3133 38.1368 40.2434 38.0371 40.1714C37.8299 40.0218 37.6234 39.8713 37.4176 39.72C36.8007 39.2652 36.8007 39.2652 36.0748 39.0677C35.708 39.1262 35.708 39.1262 35.4733 39.409C35.3019 39.7981 35.2613 40.0254 35.323 40.4452C35.5835 40.9052 36.0016 41.1413 36.4429 41.4148C36.5034 41.4552 36.5639 41.4956 36.6262 41.5373C36.6262 41.5701 36.6262 41.6028 36.6262 41.6366C36.5029 41.6546 36.5029 41.6546 36.3771 41.673C36.2691 41.6897 36.1611 41.7063 36.0498 41.7235C35.9428 41.7396 35.8358 41.7557 35.7255 41.7723C35.4328 41.818 35.4328 41.818 35.2317 41.9391C34.209 42.401 32.6264 41.9595 31.6139 41.6366C30.9645 41.372 30.6076 40.971 30.3107 40.3459C30.1608 39.929 30.1019 39.5932 30.1102 39.1546C30.1758 39.173 30.2413 39.1915 30.3089 39.2106C31.0086 39.4041 31.7108 39.567 32.4221 39.713C32.5235 39.7345 32.6249 39.756 32.7293 39.7782C33.3586 39.9082 33.9802 39.9995 34.6213 40.0481C34.6248 39.9877 34.6284 39.9272 34.632 39.8649C34.6848 39.0741 34.9716 38.4436 35.5235 37.8639C35.8697 37.6089 36.0952 37.5295 36.5259 37.5661C36.559 37.435 36.5921 37.304 36.6262 37.1689C37.0387 37.6566 37.1405 37.9444 37.1337 38.5775C37.1328 38.6854 37.1319 38.7933 37.1309 38.9044C37.1298 38.987 37.1286 39.0695 37.1274 39.1546C37.1864 39.1536 37.2455 39.1526 37.3063 39.1516C37.9685 39.1456 38.6203 39.1832 39.28 39.2379C39.5028 39.2556 39.7257 39.2732 39.9486 39.2909C40.2929 39.3186 40.6372 39.3465 40.9815 39.3745C43.6416 39.5899 46.2877 39.6719 48.9565 39.6696C49.0262 39.6696 49.096 39.6695 49.1679 39.6695C57.1925 39.6657 67.6552 39.5984 75.8686 34.7626C76.0453 34.585 76.0453 34.585 76.1232 34.2898C76.1893 34.2898 76.2555 34.2898 76.3236 34.2898C76.3236 34.126 76.3236 33.9622 76.3236 33.7934Z" fill="#D69233"/>
<path d="M76.4239 33.7934C77.6802 33.9284 78.9249 34.0928 80.1643 34.3394C80.2651 34.3594 80.3659 34.3794 80.4697 34.4C81.1338 34.5361 81.7865 34.7015 82.4387 34.8855C82.4387 34.9183 82.4387 34.951 82.4387 34.9848C82.2784 35.0186 82.2784 35.0186 82.1148 35.053C81.52 35.201 80.9652 35.4418 80.4024 35.6797C80.2874 35.7282 80.1723 35.7767 80.0537 35.8267C79.0478 36.2568 78.0826 36.7411 77.1256 37.2682C76.9972 37.3377 76.8688 37.4071 76.7403 37.4765C75.6847 38.0515 74.656 38.6721 73.6248 39.2887C73.4726 39.3784 73.4726 39.3784 73.3172 39.47C73.1194 39.5886 72.9239 39.711 72.731 39.8374C71.9572 40.3277 71.22 40.5246 70.3317 40.6985C70.0384 40.757 69.747 40.8229 69.4553 40.8888C65.7186 41.7304 61.9599 42.2914 58.1415 42.5984C58.0665 42.6044 57.9915 42.6105 57.9143 42.6167C57.4737 42.6517 57.0331 42.6842 56.5922 42.714C56.4504 42.7236 56.3086 42.7334 56.1669 42.7436C54.4802 42.862 52.7892 42.8476 51.0992 42.8466C50.9421 42.8466 50.7851 42.8466 50.628 42.8466C47.4561 42.8456 44.2934 42.7713 41.1373 42.4308C41.1833 42.5127 41.2293 42.5946 41.2767 42.679C42.2597 44.5117 42.6454 46.6477 42.0395 48.6793C41.9492 48.9506 41.8472 49.2152 41.7387 49.4798C41.6976 49.5827 41.6976 49.5827 41.6557 49.6877C40.9876 51.32 39.9488 52.6781 38.7313 53.9474C38.6179 54.0793 38.5051 54.2116 38.393 54.3445C37.9188 54.8878 37.3665 55.3561 36.8267 55.8338C36.8484 55.9167 36.8484 55.9167 36.8705 56.0013C37.1422 57.1072 37.0314 57.9066 36.4633 58.9053C36.1113 59.4617 35.6753 59.9238 35.2227 60.4007C35.1312 60.5021 35.0399 60.6039 34.949 60.7059C34.9038 60.7564 34.8585 60.8069 34.8119 60.8589C34.6836 61.0021 34.5555 61.1454 34.4274 61.2888C34.2203 61.4928 34.2203 61.4928 34.0198 61.4928C34.0198 61.5583 34.0198 61.6238 34.0198 61.6913C33.9536 61.6913 33.8875 61.6913 33.8193 61.6913C33.7862 61.7896 33.7531 61.8879 33.719 61.9892C33.5655 62.1389 33.5655 62.1389 33.3682 62.2994C32.9598 62.6412 32.586 63.0078 32.2134 63.3872C32.0149 63.5777 32.0149 63.5777 31.7141 63.7762C32.1442 63.809 32.5742 63.8417 33.0173 63.8755C33.0173 63.9083 33.0173 63.941 33.0173 63.9748C29.3614 64.0125 29.3614 64.0125 27.9987 63.8879C27.9114 63.8801 27.8241 63.8723 27.7342 63.8643C27.3463 63.8235 27.043 63.7625 26.7018 63.5777C26.768 63.5777 26.8341 63.5777 26.9023 63.5777C26.8361 63.4138 26.77 63.25 26.7018 63.0812C26.7833 63.0956 26.8649 63.1099 26.9489 63.1247C28.7231 63.4553 28.7231 63.4553 30.3983 63.0474C30.6787 62.8307 30.939 62.5946 31.1996 62.3553C31.2565 62.3031 31.3133 62.2509 31.3719 62.1972C31.9712 61.6443 32.5528 61.0743 33.1308 60.4998C33.3072 60.3246 33.4841 60.1499 33.6611 59.9752C35.3934 58.3947 35.3934 58.3947 36.1289 56.2933C36.1263 56.0509 36.121 55.8085 36.1124 55.5662C36.1331 55.0233 36.2804 54.7681 36.6677 54.3953C36.8077 54.268 36.9484 54.1415 37.0898 54.0157C37.2367 53.8818 37.3836 53.7479 37.5303 53.6139C37.6634 53.4934 37.7964 53.3729 37.9294 53.2524C39.5523 51.7656 40.6557 49.9634 41.3377 47.8913C41.3645 47.8113 41.3912 47.7313 41.4188 47.6489C41.9124 45.8723 41.3256 44.0476 40.4408 42.5002C40.2482 42.1923 40.0173 41.9294 39.7589 41.6746C39.6336 41.5373 39.6336 41.5373 39.6336 41.3387C40.8477 41.3903 42.0585 41.4645 43.2698 41.5623C44.7257 41.6785 46.1729 41.7518 47.6333 41.7525C47.7908 41.7529 47.9482 41.7532 48.1057 41.7535C48.4344 41.7541 48.763 41.7543 49.0916 41.7543C49.42 41.7543 49.7483 41.7549 50.0767 41.7563C53.1486 41.7689 56.2106 41.6812 59.263 41.3139C59.3535 41.3033 59.4439 41.2927 59.5371 41.2818C67.8625 40.4825 67.8625 40.4825 75.3212 37.1689C75.4025 37.1134 75.4837 37.0579 75.5675 37.0006C76.0769 36.5434 76.3416 36.1089 76.3945 35.4222C76.4004 35.2268 76.4039 35.0313 76.4051 34.8358C76.4076 34.7353 76.4101 34.6347 76.4127 34.531C76.4186 34.2851 76.4223 34.0394 76.4239 33.7934Z" fill="#4A2F22"/>
<path d="M39.5333 17.4121C40.4632 18.191 41.1371 19.1983 41.2607 20.4221C41.323 21.4238 41.3172 22.3636 40.8365 23.2696C40.7952 23.3547 40.7538 23.4398 40.7112 23.5275C40.1564 24.5625 39.2262 25.1645 38.1299 25.5531C36.7713 25.9113 35.3704 25.6479 34.1451 25.0257C33.0357 24.3672 32.3434 23.4754 32.0211 22.221C31.7566 20.844 31.9694 19.6218 32.7479 18.4324C34.3672 16.2681 37.3408 15.8377 39.5333 17.4121Z" fill="#FCC95C"/>
<path d="M76.0229 32.8006C76.3651 33.2847 76.358 33.7234 76.3236 34.2898C76.2575 34.2898 76.1913 34.2898 76.1232 34.2898C76.1138 34.3478 76.1045 34.4058 76.095 34.4655C75.8497 35.2192 74.8356 35.6872 74.1634 36.0342C68.9444 38.5722 62.088 39.1491 56.3747 39.5517C56.3042 39.5568 56.2337 39.5618 56.161 39.5671C53.7611 39.738 51.3616 39.7685 48.9565 39.7689C48.8881 39.7689 48.8198 39.769 48.7494 39.769C45.9164 39.771 43.1115 39.6487 40.2894 39.414C39.9311 39.3844 39.5727 39.3553 39.2144 39.3262C38.5187 39.2695 37.823 39.2123 37.1274 39.1546C37.1213 39.0732 37.1153 38.9918 37.109 38.9079C37.1006 38.8009 37.0922 38.6939 37.0835 38.5837C37.0754 38.4777 37.0673 38.3718 37.0589 38.2626C37.0331 38.0191 36.9953 37.8005 36.9269 37.5661C37.8904 37.6045 38.8484 37.6731 39.8081 37.7671C42.9892 38.0775 46.1561 38.2023 49.3516 38.1992C49.6314 38.199 49.9111 38.199 50.1909 38.1991C52.9983 38.1983 55.7707 38.1084 58.562 37.7888C58.8909 37.7524 59.2201 37.7227 59.5496 37.6929C61.2241 37.5358 62.8737 37.2463 64.5256 36.9397C64.8272 36.8838 65.1289 36.8294 65.4309 36.7757C70.5487 35.9632 70.5487 35.9632 74.9202 33.4956C75.071 33.2704 75.1933 33.0398 75.3212 32.8006C75.7313 32.6652 75.7313 32.6652 76.0229 32.8006Z" fill="#F6BE53"/>
<path d="M34.2579 53.3703C34.8021 53.7425 35.1541 54.2086 35.5235 54.7417C35.1798 55.4904 34.5048 56.0598 33.9195 56.628C33.6486 56.895 33.3795 57.1634 33.1125 57.4343C33.0036 57.5441 32.8946 57.6539 32.7855 57.7635C32.728 57.8214 32.6704 57.8792 32.6111 57.9388C32.319 58.2283 32.0379 58.4842 31.6891 58.7067C31.2573 59.0034 31.0233 59.4294 30.7549 59.8648C30.2892 60.6139 29.7174 61.3894 28.9072 61.7906C28.5188 61.8651 28.5188 61.8651 28.2055 61.8899C28.2006 61.9819 28.1957 62.0739 28.1906 62.1687C28.1831 62.2876 28.1756 62.4065 28.1679 62.529C28.1609 62.6476 28.154 62.7663 28.1468 62.8885C28.1331 62.9849 28.1194 63.0812 28.1053 63.1805C27.7926 63.3354 27.5493 63.3079 27.203 63.2798C26.6111 63.017 26.1958 62.6747 25.8998 62.0884C25.8903 61.9232 25.8868 61.7576 25.8873 61.592C25.8871 61.504 25.8868 61.4159 25.8865 61.3252C25.8998 61.0956 25.8998 61.0956 26.0001 60.8971C26.0028 60.744 26.0047 60.591 26.0064 60.4379C26.1383 58.9079 27.2358 57.6789 28.3696 56.7315C28.6903 56.457 28.9986 56.17 29.3082 55.8834C30.0097 55.2367 30.7165 54.6091 31.4698 54.0219C31.5229 53.9797 31.5761 53.9375 31.6309 53.894C32.4331 53.2781 33.2836 53.0309 34.2579 53.3703Z" fill="#F9C456"/>
<path d="M21.5893 30.3186C21.5895 30.4074 21.5898 30.4962 21.59 30.5877C21.6217 31.5676 21.7932 32.2128 22.5044 32.9107C24.2306 34.364 26.5024 35.0971 28.6378 35.7294C28.747 35.7618 28.8562 35.7941 28.9688 35.8275C30.4097 36.2878 30.4097 36.2878 31.8144 35.9776C32.8217 35.8462 33.8028 36.0032 34.7904 36.201C34.8934 36.2212 34.9964 36.2415 35.1025 36.2624C35.6595 36.3829 36.0847 36.5074 36.5259 36.8711C36.6623 37.1681 36.6328 37.2485 36.5259 37.5661C36.4184 37.5947 36.3109 37.6234 36.2001 37.6529C35.6042 37.83 35.3071 38.2134 35.0136 38.7462C34.8312 39.1639 34.7277 39.6065 34.6213 40.0481C33.8568 40.082 33.1618 39.985 32.4158 39.8247C32.314 39.8044 32.2122 39.784 32.1073 39.7631C31.3714 39.6089 30.6837 39.3889 30.0099 39.0553C29.8998 38.5189 29.8892 38.1802 30.1102 37.6654C29.9868 37.6554 29.8634 37.6454 29.7362 37.6351C29.1326 37.5681 28.5583 37.4149 27.9737 37.2558C27.8018 37.2092 27.8018 37.2092 27.6265 37.1617C25.1147 36.4689 21.7952 35.5084 20.2234 33.266C19.988 32.6407 19.9543 32.0023 20.2297 31.3858C21.2338 30.3186 21.2338 30.3186 21.5893 30.3186Z" fill="#FDCB5E"/>
<path d="M12.8678 47.6927C13.1761 47.8019 13.1761 47.8019 13.4693 47.6927C13.5686 47.7582 13.6678 47.8238 13.7701 47.8913C13.7328 47.9711 13.7328 47.9711 13.6949 48.0526C13.6414 48.3127 13.6414 48.3127 13.864 48.5738C14.1019 48.9308 14.1461 49.0621 14.0708 49.4798C13.8426 49.6683 13.653 49.7906 13.3941 49.9265C13.3205 49.9673 13.2468 50.0081 13.1709 50.0502C12.2073 50.5747 11.2174 51.054 10.2313 51.5352C10.1195 51.5898 10.0077 51.6445 9.89252 51.7008C9.67075 51.8086 9.44849 51.9153 9.22575 52.0211C8.70076 52.2734 8.23837 52.5105 7.80541 52.905C7.06067 53.5396 6.18127 54.0646 5.18022 54.0529C5.08059 54.052 4.98096 54.0511 4.8783 54.0502C4.80219 54.049 4.72608 54.0479 4.64766 54.0467C4.63732 54.1696 4.62698 54.2924 4.61633 54.419C4.57368 54.7694 4.49918 54.9771 4.24668 55.2381C3.85987 55.2113 3.67718 55.1653 3.37579 54.9154C2.92859 54.3887 2.80967 54.0757 2.80329 53.3917C2.85122 53.1054 2.96719 52.9836 3.14397 52.756C3.21482 52.5075 3.21482 52.5075 3.26301 52.241C3.51156 51.293 4.17703 50.7806 4.98721 50.281C5.69746 49.868 6.44568 49.5208 7.18614 49.165C7.47147 49.0277 7.75603 48.889 8.04056 48.7501C11.5455 47.0507 11.5455 47.0507 12.8678 47.6927Z" fill="#F8C051"/>
<path d="M39.5333 17.4121C40.4632 18.191 41.1371 19.1983 41.2607 20.4221C41.323 21.4238 41.3172 22.3636 40.8365 23.2696C40.7952 23.3547 40.7538 23.4398 40.7112 23.5275C40.1564 24.5625 39.2262 25.1645 38.1299 25.5531C36.7713 25.9113 35.3704 25.6479 34.1451 25.0257C33.0357 24.3672 32.3434 23.4754 32.0211 22.221C31.7566 20.844 31.9694 19.6218 32.7479 18.4324C34.3672 16.2681 37.3408 15.8377 39.5333 17.4121ZM34.3738 18.4735C33.6484 19.5566 33.3725 20.7085 33.5651 21.9914C33.7943 23.0441 34.3257 23.8431 35.2227 24.461C35.8463 24.7627 36.532 24.7533 37.1999 24.5948C38.1734 24.2476 38.7576 23.6491 39.2138 22.7407C39.6522 21.7636 39.7119 20.5351 39.3892 19.5094C38.9928 18.5915 38.2569 17.8896 37.3279 17.5113C36.1655 17.1626 35.1239 17.5467 34.3738 18.4735Z" fill="#985C2D"/>
<path d="M29.5757 40.6015C30.2805 40.5564 30.2805 40.5564 30.6228 40.7857C30.7538 40.9069 30.8821 41.0313 31.0073 41.1584C31.3829 41.4879 31.8399 41.6035 32.3156 41.7359C32.3926 41.7583 32.4696 41.7807 32.549 41.8037C33.6241 42.0663 34.8078 42.068 35.8242 41.6366C36.1497 41.5567 36.402 41.5475 36.7264 41.6366C37.1347 41.893 37.4785 42.2019 37.8291 42.5301C37.9041 42.5965 37.979 42.663 38.0563 42.7314C38.6933 43.3202 39.4053 44.1951 39.4456 45.0928C39.4415 45.1645 39.4373 45.2361 39.4331 45.31C39.1323 45.2107 39.1323 45.2107 39.0286 45.0404C38.9946 44.9676 38.9606 44.8948 38.9256 44.8198C38.4255 43.887 37.4027 42.8787 36.3689 42.5468C36.0716 42.5265 35.9878 42.5807 35.7616 42.7659C35.1115 43.2873 34.298 43.1719 33.5013 43.0952C32.5147 42.9521 31.6564 42.7233 31.0124 41.9344C31.0124 41.8361 31.0124 41.7379 31.0124 41.6366C30.2768 41.6614 29.5418 41.6942 28.807 41.7359C28.7307 41.7402 28.6544 41.7444 28.5758 41.7489C25.5073 41.9487 22.9776 43.8698 20.6938 45.7369C20.4119 45.9665 20.1278 46.1934 19.8439 46.4206C19.3223 46.8381 18.8057 47.2577 18.305 47.6997C17.7718 48.155 17.2187 48.5875 16.6712 49.0259C16.3155 49.3113 15.9617 49.599 15.6078 49.8866C15.374 50.0755 15.374 50.0755 15.0936 50.2667C14.8498 50.451 14.8498 50.451 14.8379 50.7154C14.8521 50.847 14.8521 50.847 14.8665 50.9814C14.9047 51.8682 14.5842 52.494 13.9939 53.1434C13.5611 53.5463 13.0515 53.8298 12.542 54.1274C12.4256 54.1966 12.3092 54.2659 12.1929 54.3354C11.8509 54.5389 11.5074 54.7397 11.1637 54.9402C11.0686 54.9961 10.9736 55.052 10.8757 55.1096C9.95296 55.6518 9.02659 56.1733 8.05603 56.628C7.92616 56.5188 7.79677 56.4091 7.66757 56.2991C7.59547 56.2381 7.52336 56.177 7.44907 56.1141C7.25406 55.933 7.25406 55.933 7.05357 55.6352C7.14144 55.594 7.22931 55.5528 7.31985 55.5103C8.60902 54.8944 9.8346 54.1763 11.0634 53.451C11.1707 53.3881 11.278 53.3251 11.3885 53.2603C11.7047 53.0745 12.0201 52.8876 12.3353 52.7002C12.4317 52.6435 12.5281 52.5868 12.6274 52.5283C13.3159 52.1156 13.8704 51.739 14.171 50.969C14.1946 50.7234 14.211 50.4771 14.2212 50.2306C14.2582 49.8571 14.2947 49.5613 14.5622 49.2773C14.7989 49.1365 15.0402 49.0123 15.2865 48.8892C15.6781 48.6714 16.0304 48.3936 16.389 48.1271C16.5115 48.037 16.5115 48.037 16.6365 47.945C17.6984 47.1629 18.7491 46.3661 19.7911 45.5582C19.8479 45.5142 19.9046 45.4702 19.9631 45.4248C20.2647 45.1896 20.5622 44.9506 20.8562 44.7062C22.4048 43.423 24.0727 42.2964 25.8998 41.438C26.007 41.3872 26.1141 41.3364 26.2245 41.2841C27.2954 40.8272 28.4295 40.7333 29.5757 40.6015Z" fill="#4D3023"/>
<path d="M34.6213 53.451C34.6709 53.5493 34.6709 53.5493 34.7215 53.6496C34.83 53.668 34.83 53.668 34.9408 53.6868C35.448 53.7984 35.7454 54.0341 36.0404 54.4527C36.2736 54.8754 36.2816 55.2549 36.2691 55.7283C36.2698 55.8037 36.2705 55.8792 36.2712 55.9569C36.2573 57.2013 35.5453 58.1306 34.7027 58.9983C34.6412 59.0624 34.5797 59.1265 34.5163 59.1926C33.8862 59.844 33.2453 60.4855 32.6035 61.1256C32.4836 61.2453 32.3638 61.365 32.2442 61.4849C30.3655 63.3652 30.3655 63.3652 29.3947 63.4055C29.2427 63.406 29.0906 63.4054 28.9386 63.4039C28.8225 63.4051 28.8225 63.4051 28.7042 63.4062C28.1307 63.4043 28.1307 63.4043 27.9048 63.1805C27.9709 63.1805 28.0371 63.1805 28.1053 63.1805C28.1383 62.7546 28.1714 62.3287 28.2055 61.8899C28.3709 61.8407 28.5363 61.7916 28.7067 61.741C29.7121 61.3709 30.2017 60.6091 30.753 59.7422C31.0047 59.3495 31.2672 59.0319 31.6139 58.7129C31.663 58.6671 31.712 58.6214 31.7626 58.5743C31.9231 58.4251 32.0847 58.2772 32.2467 58.1296C32.3041 58.0771 32.3615 58.0246 32.4206 57.9705C32.7274 57.6907 33.0377 57.4167 33.3556 57.1492C33.6855 56.8671 33.9659 56.5584 34.2473 56.2293C34.4226 56.0302 34.6063 55.845 34.7967 55.66C35.1518 55.3314 35.1518 55.3314 35.4232 54.9402C35.3015 54.4179 34.9627 54.0405 34.521 53.7489C34.5541 53.6506 34.5872 53.5523 34.6213 53.451Z" fill="#DC9C39"/>
<path d="M13.5696 48.1891C13.9983 48.3408 14.1711 48.5863 14.3715 48.9834C14.4219 49.3197 14.4019 49.6384 14.3715 49.9762C14.3574 50.1378 14.3574 50.1378 14.3429 50.3027C14.2636 50.9665 14.1583 51.4715 13.6698 51.9618C13.3221 52.217 12.9544 52.4306 12.5796 52.6444C12.4758 52.7051 12.372 52.7659 12.265 52.8285C12.0582 52.9496 11.851 53.07 11.6434 53.1899C11.3543 53.3574 11.068 53.529 10.7822 53.7021C10.4769 53.8864 10.1689 54.0661 9.86046 54.2453C9.76989 54.298 9.67932 54.3506 9.58601 54.4049C9.2793 54.5825 8.97167 54.7585 8.66377 54.934C8.56634 54.9905 8.4689 55.0469 8.36851 55.1051C7.59361 55.5432 6.9491 55.7409 6.05111 55.7965C5.88053 55.8077 5.88053 55.8077 5.70651 55.819C5.62174 55.8239 5.53697 55.8287 5.44963 55.8338C5.44963 55.7682 5.44963 55.7027 5.44963 55.6352C5.3814 55.625 5.31317 55.6147 5.24287 55.6042C4.88533 55.5213 4.58127 55.3875 4.24668 55.2381C4.2775 55.159 4.2775 55.159 4.30894 55.0783C4.33595 55.0082 4.36295 54.938 4.39078 54.8658C4.41753 54.7967 4.44428 54.7275 4.47184 54.6563C4.54355 54.4547 4.59891 54.2548 4.64766 54.0467C4.71563 54.0441 4.7836 54.0416 4.85363 54.0389C6.0601 53.9661 6.85036 53.5189 7.79641 52.8189C8.57825 52.2468 9.36617 51.7959 10.2489 51.3909C11.055 51.0147 11.8546 50.6309 12.6423 50.2182C12.7192 50.178 12.796 50.1377 12.8752 50.0963C13.074 49.9914 13.2718 49.8849 13.4693 49.7776C13.6172 49.6987 13.6172 49.6987 13.7681 49.6182C14.0009 49.4932 14.0009 49.4932 14.0269 49.2068C13.9546 48.7929 13.7975 48.5419 13.5696 48.1891Z" fill="#DC9D39"/>
<path d="M19.9853 32.0063C20.0184 32.0063 20.0515 32.0063 20.0856 32.0063C20.0918 32.1999 20.0918 32.1999 20.0981 32.3973C20.1917 33.2065 20.7195 33.8071 21.3398 34.3092C23.9219 36.1639 27.0414 36.9868 30.1102 37.6654C30.0603 38.0362 30.0225 38.2424 29.8094 38.5589C29.5601 38.626 29.5601 38.626 29.2479 38.6679C29.1346 38.6839 29.0212 38.7 28.9045 38.7165C28.7855 38.7321 28.6665 38.7476 28.5438 38.7636C28.3107 38.7955 28.0775 38.8277 27.8445 38.8602C27.7327 38.8752 27.6209 38.8902 27.5057 38.9057C27.2517 38.9479 27.0346 39.0076 26.793 39.0914C26.1999 39.187 25.7543 38.9834 25.2044 38.7699C25.0385 38.7078 25.0385 38.7078 24.8693 38.6444C23.2953 38.0459 21.7719 37.3835 20.4865 36.2754C20.4865 36.2099 20.4865 36.1444 20.4865 36.0769C20.4204 36.0769 20.3542 36.0769 20.2861 36.0769C19.7707 35.4911 19.6074 34.9288 19.6435 34.1645C19.7238 33.4394 19.8489 32.723 19.9853 32.0063Z" fill="#D99334"/>
<path d="M38.5309 0.0379183C39.3958 -0.0165048 40.1991 0.143941 41.037 0.335761C41.1501 0.361101 41.2631 0.386441 41.3796 0.412548C43.5582 0.94403 45.6535 1.82069 47.6533 2.81778C42.7846 3.803 42.7846 3.803 41.0589 2.76892C39.9491 2.02199 39.1842 1.19449 38.5309 0.0379183Z" fill="#462D20"/>
<path d="M49.8587 14.6322C50.5003 14.6682 50.5003 14.6682 50.7546 14.9362C50.8891 15.3044 50.9193 15.6373 50.8611 16.0221C50.7194 16.265 50.5977 16.4414 50.4163 16.6488C50.3709 16.7039 50.3255 16.7589 50.2787 16.8156C50.1852 16.9284 50.0909 17.0405 49.9958 17.152C49.7939 17.3887 49.5982 17.6304 49.4013 17.8712C49.2531 18.0492 49.1049 18.2271 48.9565 18.4049C48.3206 19.1725 47.6852 19.9406 47.0565 20.7139C46.8778 20.9332 46.6968 21.1463 46.5083 21.3577C46.4436 21.4317 46.379 21.5056 46.3125 21.5819C46.2579 21.6412 46.2034 21.7006 46.1472 21.7618C45.9071 22.2945 46.2027 22.9987 46.3873 23.5209C46.4231 23.6254 46.4231 23.6254 46.4596 23.732C46.5108 23.8813 46.5623 24.0305 46.6141 24.1795C46.7518 24.5758 46.8868 24.9729 47.022 25.37C47.0634 25.4914 47.0634 25.4914 47.1056 25.6152C47.3898 26.4513 47.6582 27.292 47.9227 28.1344C47.9441 28.2024 47.9655 28.2705 47.9876 28.3405C48.6482 30.4395 48.6482 30.4395 48.2798 31.1563C48.0184 31.4511 47.8294 31.5881 47.4336 31.6356C46.8027 31.6315 46.152 31.6048 45.5481 31.4107C45.4819 31.3124 45.4158 31.2141 45.3476 31.1128C45.466 31.1151 45.5843 31.1174 45.7063 31.1198C45.8624 31.1217 46.0185 31.1235 46.1746 31.1252C46.2915 31.1277 46.2915 31.1277 46.4107 31.1303C46.962 31.1415 46.962 31.1415 47.4528 30.9143C47.7029 30.5799 47.699 30.2216 47.6533 29.8222C47.5495 29.4035 47.4148 28.9959 47.2797 28.5862C47.2411 28.4663 47.2024 28.3464 47.1626 28.2228C47.0597 27.9039 46.956 27.5854 46.8518 27.2669C46.7483 26.9499 46.6457 26.6326 46.5431 26.3153C46.5031 26.1918 46.4632 26.0682 46.422 25.941C46.2664 25.4595 46.111 24.978 45.9561 24.4963C45.8867 24.281 45.8172 24.0657 45.7475 23.8505C45.6581 23.5739 45.5703 23.2968 45.4831 23.0195C45.4572 22.9401 45.4312 22.8608 45.4045 22.779C45.2808 22.3798 45.1991 22.0801 45.3476 21.6811C45.4611 21.501 45.4611 21.501 45.6037 21.334C45.6565 21.2712 45.7092 21.2083 45.7636 21.1435C45.8207 21.0772 45.8777 21.011 45.9365 20.9427C46.0566 20.8001 46.1766 20.6574 46.2964 20.5146C46.3865 20.4079 46.3865 20.4079 46.4784 20.299C46.7238 20.0053 46.9601 19.7051 47.1959 19.4039C47.5516 18.9515 47.915 18.5064 48.2847 18.0651C48.5223 17.7813 48.758 17.496 48.9938 17.2107C49.1441 17.0303 49.2969 16.8523 49.4502 16.6744C49.9713 16.0734 49.9713 16.0734 50.0717 15.321C50.0266 15.1151 50.0266 15.1151 49.9589 14.93C49.9093 14.7826 49.9093 14.7826 49.8587 14.6322Z" fill="#482B1F"/>
<path d="M34.7904 36.201C34.9449 36.2314 34.9449 36.2314 35.1025 36.2624C35.6595 36.3829 36.0847 36.5074 36.5259 36.8711C36.6623 37.1681 36.6328 37.2485 36.5259 37.5661C36.4184 37.5947 36.3109 37.6234 36.2001 37.6529C35.6346 37.821 35.3782 38.1485 35.0912 38.6395C35.0353 38.744 34.9795 38.8484 34.922 38.956C34.8724 38.8577 34.8724 38.8577 34.8217 38.7574C34.6167 38.7348 34.4114 38.713 34.2059 38.6946C33.626 38.6209 33.0628 38.4606 32.4973 38.3169C32.3725 38.2859 32.2478 38.2548 32.1192 38.2228C31.5759 38.0865 31.0414 37.9452 30.5112 37.7646C30.5592 37.2966 30.6082 36.9043 30.8119 36.474C30.9111 36.474 31.0104 36.474 31.1126 36.474C31.1126 36.4085 31.1126 36.3429 31.1126 36.2754C32.291 35.7107 33.5501 35.9526 34.7904 36.201Z" fill="#F6BD50"/>
<path d="M30.0099 57.8194C30.2981 58.0614 30.2981 58.0614 30.5112 58.3158C30.5608 58.3649 30.5608 58.3649 30.6114 58.4151C30.6785 59.3952 30.2416 59.9759 29.6089 60.6985C29.191 61.1046 28.773 61.4178 28.1742 61.4431C27.7008 61.4354 27.4685 61.2648 27.1341 60.9475C26.8775 60.6555 26.8676 60.3934 26.8753 60.0113C26.9605 59.3608 27.6307 58.8289 28.1053 58.4151C28.718 57.9687 29.2322 57.7383 30.0099 57.8194Z" fill="#FEE473"/>
<path d="M7.85554 50.6587C8.18202 51.0023 8.204 51.2668 8.19582 51.726C8.12417 52.1532 7.88355 52.3873 7.5548 52.6568C6.81426 53.1794 6.08014 53.5108 5.15711 53.489C4.80236 53.4244 4.654 53.2339 4.44717 52.9546C4.20289 52.5367 4.22398 52.2259 4.34692 51.7632C4.97215 50.8063 6.79822 50.0043 7.85554 50.6587Z" fill="#FEE573"/>
<path d="M30.1102 39.1546C30.1757 39.173 30.2412 39.1915 30.3087 39.2106C31.0105 39.4048 31.7148 39.5672 32.4284 39.713C32.5817 39.7453 32.5817 39.7453 32.7381 39.7782C33.332 39.9005 33.917 39.9921 34.521 40.0481C34.5357 40.165 34.5357 40.165 34.5508 40.2843C34.6428 40.9248 34.7534 41.3983 35.1225 41.9344C34.8986 42.1562 34.3504 42.0645 34.0408 42.0654C32.9909 42.0487 31.5949 41.8996 30.8119 41.1402C30.3268 40.5502 30.0957 39.9176 30.1102 39.1546Z" fill="#E5A842"/>
<path d="M13.7701 48.3877C13.974 48.6496 14.0639 48.8451 14.1213 49.1715C14.0708 49.4798 14.0708 49.4798 13.7967 49.7063C13.6639 49.7822 13.5296 49.8554 13.3941 49.9265C13.3205 49.9673 13.2468 50.0081 13.1709 50.0502C12.0979 50.6343 10.9935 51.1659 9.89389 51.6987C9.66598 51.8104 9.43918 51.9244 9.21341 52.0403C9.10504 52.0958 8.99667 52.1513 8.88502 52.2084C8.78807 52.2588 8.69113 52.3092 8.59125 52.3611C8.51387 52.3932 8.43649 52.4252 8.35677 52.4582C8.15627 52.3589 8.15627 52.3589 8.08735 52.1914C8.04523 51.8826 8.06949 51.6669 8.15627 51.3661C9.04848 50.3715 10.4563 49.8111 11.6273 49.1881C11.6897 49.1549 11.752 49.1217 11.8163 49.0874C11.9967 48.9915 12.1773 48.896 12.358 48.8007C12.4634 48.745 12.5688 48.6894 12.6774 48.632C13.4071 48.2679 13.4071 48.2679 13.7701 48.3877Z" fill="#FDCB5E"/>
<path d="M30.3107 37.6654C30.7018 37.6976 31.0426 37.7686 31.4118 37.8988C31.9805 38.0902 32.5596 38.2312 33.1426 38.3727C33.3023 38.4121 33.3023 38.4121 33.4653 38.4522C33.9162 38.5627 34.3657 38.67 34.8217 38.7574C34.7697 39.1922 34.7158 39.62 34.6213 40.0481C33.8568 40.082 33.1618 39.985 32.4158 39.8247C32.314 39.8044 32.2122 39.784 32.1073 39.7631C31.3714 39.6089 30.6837 39.3889 30.0099 39.0553C29.8594 38.3674 29.8594 38.3674 30.0475 37.9694C30.2104 37.7646 30.2104 37.7646 30.3107 37.6654Z" fill="#FED366"/>
<path d="M40.0138 30.2858C40.161 30.3018 40.3079 30.3214 40.4543 30.3438C40.5325 30.3532 40.6107 30.3626 40.6913 30.3723C40.9407 30.4031 41.1892 30.4383 41.438 30.4737C41.6053 30.495 41.7726 30.516 41.94 30.5367C43.1563 30.6903 43.1563 30.6903 43.7437 30.815C43.5177 31.0196 43.4003 31.1113 43.089 31.1193C42.9954 31.1053 42.9018 31.0912 42.8054 31.0768C42.7018 31.0624 42.5981 31.048 42.4914 31.0331C42.3836 31.0164 42.2758 30.9997 42.1648 30.9825C41.1535 30.8152 41.1535 30.8152 40.1348 30.815C39.9172 30.9662 39.9172 30.9662 39.7714 31.2059C39.7056 31.2964 39.6399 31.3869 39.5721 31.4801C39.5167 31.5575 39.5167 31.5575 39.4602 31.6365C39.2056 31.9788 38.925 32.3007 38.6499 32.6269C38.153 33.2209 37.6649 33.8207 37.1915 34.4334C36.4936 35.3277 36.4936 35.3277 36.0968 35.4556C36.0234 35.4599 35.95 35.4643 35.8743 35.4688C35.7969 35.4735 35.7195 35.4782 35.6398 35.4831C35.3897 35.4809 35.1624 35.451 34.922 35.3819C34.922 35.3491 34.922 35.3164 34.922 35.2826C35.0481 35.2601 35.1742 35.2376 35.3042 35.2144C36.0492 34.9672 36.4662 34.2872 36.9269 33.6941C37.0189 33.5789 37.111 33.4638 37.2034 33.349C37.4337 33.0617 37.6618 32.7727 37.8891 32.483C38.1315 32.1746 38.375 31.8671 38.6186 31.5596C38.6627 31.5037 38.7068 31.4477 38.7523 31.3901C38.7947 31.3365 38.8372 31.2829 38.8809 31.2276C38.9175 31.1813 38.954 31.1351 38.9917 31.0874C39.0381 31.0303 39.0845 30.9731 39.1323 30.9143C39.2033 30.809 39.2743 30.7037 39.3474 30.5953C39.6336 30.3186 39.6336 30.3186 40.0138 30.2858Z" fill="#46291F"/>
<path d="M37.5284 6.19333C38.2109 6.11534 38.8119 6.24796 39.3807 6.64691C39.9539 7.18063 40.2135 8.05957 40.5107 8.76222C40.5898 8.94233 40.6693 9.12228 40.7492 9.30206C40.8669 9.56724 40.9843 9.83253 41.0999 10.0986C41.3738 10.7274 41.6706 11.3407 41.9932 11.9463C42.167 12.2777 42.2889 12.5734 42.3402 12.9444C42.1417 12.9444 41.9432 12.9444 41.7387 12.9444C40.9817 11.4658 40.2574 9.9714 39.5333 8.47679C39.4866 8.38048 39.4398 8.28418 39.3917 8.18496C39.2755 7.94531 39.1599 7.70542 39.0446 7.46537C39.0118 7.39767 38.979 7.32998 38.9452 7.26024C38.7313 6.8121 38.7313 6.8121 38.7313 6.59045C38.3337 6.41143 37.9612 6.34304 37.5284 6.29261C37.5284 6.25985 37.5284 6.22709 37.5284 6.19333Z" fill="#462A1E"/>
<path d="M34.8217 13.0437C34.8217 13.1092 34.8217 13.1748 34.8217 13.2423C34.6881 13.3746 34.5544 13.507 34.4208 13.6394C34.1806 13.9483 34.1806 13.9483 34.1353 14.3177C34.2539 14.618 34.4399 14.8104 34.6588 15.0479C34.7382 15.1353 34.8175 15.2228 34.8993 15.3128C35.1115 15.5459 35.1115 15.5459 35.4232 15.625C35.4232 15.6905 35.4232 15.7561 35.4232 15.8236C35.1053 15.8608 35.1053 15.8608 34.7215 15.8236C34.5091 15.6239 34.3608 15.4598 34.1952 15.2279C34.0423 15.0216 33.8869 14.8275 33.719 14.6322C33.6198 14.6322 33.5205 14.6322 33.4183 14.6322C33.44 14.7159 33.4617 14.7996 33.4841 14.8858C33.512 14.9946 33.5399 15.1034 33.5687 15.2155C33.5966 15.3237 33.6245 15.432 33.6533 15.5436C33.719 15.8236 33.719 15.8236 33.719 16.0221C33.7852 16.0549 33.8514 16.0877 33.9195 16.1214C33.6549 16.1869 33.3902 16.2525 33.1176 16.32C33.1506 16.1889 33.1837 16.0579 33.2178 15.9229C33.1959 15.7073 33.1959 15.7073 33.1399 15.4854C33.1215 15.4034 33.1031 15.3213 33.0841 15.2368C33.0641 15.152 33.0442 15.0671 33.0236 14.9797C32.9847 14.8112 32.9462 14.6426 32.9081 14.474C32.8906 14.3996 32.8732 14.3251 32.8552 14.2485C32.8168 14.0365 32.8168 14.0365 32.8168 13.6394C32.6845 13.6394 32.5522 13.6394 32.4158 13.6394C32.4158 13.5739 32.4158 13.5083 32.4158 13.4408C32.7467 13.3753 33.0775 13.3098 33.4183 13.2423C33.4183 13.3078 33.4183 13.3733 33.4183 13.4408C33.3521 13.4408 33.286 13.4408 33.2178 13.4408C33.2509 13.7685 33.284 14.0961 33.3181 14.4336C33.5639 14.4231 33.5639 14.4231 33.8193 14.3344C33.9486 14.1094 33.9486 14.1094 34.0198 13.838C34.0866 13.6725 34.1534 13.507 34.2203 13.3415C34.121 13.3088 34.0218 13.276 33.9195 13.2423C33.9195 13.2095 33.9195 13.1767 33.9195 13.143C34.2261 13.089 34.5098 13.0437 34.8217 13.0437Z" fill="#7B4920"/>
<path d="M41.3377 14.2351C41.7014 14.3834 41.9828 14.5336 42.24 14.8308C42.1738 15.0273 42.1076 15.2239 42.0395 15.4264C41.9402 15.4264 41.841 15.4264 41.7387 15.4264C41.7243 15.3138 41.7098 15.2012 41.6949 15.0852C41.6774 14.7506 41.6774 14.7506 41.5382 14.6322C41.2502 14.5825 41.2502 14.5825 40.9368 14.6322C40.5042 15.0361 40.2604 15.5623 40.2037 16.1462C40.2162 16.4404 40.2162 16.4404 40.4355 16.7171C40.6009 16.6843 40.7663 16.6516 40.9368 16.6178C40.9657 16.5216 40.9947 16.4253 41.0245 16.3262C41.1373 16.0221 41.1373 16.0221 41.3377 15.9229C41.5414 16.0156 41.7423 16.1147 41.9392 16.2207C41.9392 16.2862 41.9392 16.3517 41.9392 16.4193C41.84 16.452 41.7407 16.4848 41.6385 16.5185C41.4997 16.6933 41.385 16.8767 41.2657 17.065C41.2233 17.114 41.1809 17.163 41.1373 17.2135C41.038 17.2135 40.9388 17.2135 40.8365 17.2135C40.8034 17.148 40.7704 17.0825 40.7363 17.0149C40.6246 16.9678 40.513 16.9207 40.3979 16.8722C39.868 16.646 39.868 16.646 39.7338 16.4193C39.6346 15.7189 39.8536 15.2196 40.235 14.6322C40.5876 14.2561 40.8232 14.1623 41.3377 14.2351Z" fill="#70401C"/>
<path d="M37.5284 13.143C37.8357 13.1983 38.0615 13.2461 38.2485 13.5071C38.3522 13.7137 38.4431 13.9222 38.5309 14.1358C38.561 14.1994 38.5911 14.263 38.6221 14.3285C38.777 14.659 38.8316 14.856 38.8316 15.2279C38.8978 15.2279 38.9639 15.2279 39.0321 15.2279C39.0309 15.1714 39.0298 15.115 39.0286 15.0569C39.0228 14.5724 39.063 14.1199 39.1323 13.6394C39.0992 13.5739 39.0662 13.5083 39.0321 13.4408C39.2967 13.4736 39.5614 13.5064 39.8341 13.5401C39.8341 13.6056 39.8341 13.6712 39.8341 13.7387C39.7348 13.7714 39.6356 13.8042 39.5333 13.838C39.4442 14.0666 39.4442 14.0666 39.3943 14.3472C39.3727 14.4499 39.351 14.5526 39.3287 14.6584C39.3073 14.7665 39.2859 14.8745 39.2639 14.9859C39.2414 15.0944 39.2188 15.2028 39.1956 15.3146C39.1399 15.5833 39.0854 15.8522 39.0321 16.1214C38.9659 16.1214 38.8998 16.1214 38.8316 16.1214C38.8114 16.0688 38.7912 16.0163 38.7704 15.9621C38.6784 15.7234 38.5858 15.485 38.4933 15.2465C38.4615 15.1638 38.4297 15.081 38.3969 14.9958C38.3659 14.9161 38.3349 14.8364 38.3029 14.7544C38.2746 14.6811 38.2463 14.6077 38.217 14.5322C38.1259 14.3096 38.1259 14.3096 37.9294 14.0365C37.8785 14.2245 37.8286 14.4128 37.779 14.6012C37.7511 14.706 37.7232 14.8108 37.6944 14.9188C37.617 15.2828 37.5576 15.5835 37.7289 15.9229C37.4642 15.8901 37.1996 15.8573 36.9269 15.8236C36.9269 15.758 36.9269 15.6925 36.9269 15.625C37.0262 15.625 37.1254 15.625 37.2277 15.625C37.2386 15.56 37.2496 15.495 37.2609 15.428C37.3846 14.7233 37.546 14.0334 37.7289 13.3415C37.6627 13.3415 37.5966 13.3415 37.5284 13.3415C37.5284 13.276 37.5284 13.2105 37.5284 13.143Z" fill="#74431E"/>
<path d="M36.2252 26.6452C36.4539 26.62 36.4539 26.62 36.7264 26.6452C36.9113 26.8162 36.9113 26.8162 37.0773 27.0485C37.1659 27.1698 37.1659 27.1698 37.2562 27.2936C37.313 27.3745 37.3697 27.4554 37.4281 27.5387C37.5263 27.6732 37.6244 27.8076 37.7226 27.942C37.7908 28.0383 37.8591 28.1345 37.9294 28.2337C37.9625 27.775 37.9955 27.3163 38.0296 26.8437C37.9304 26.8437 37.8311 26.8437 37.7289 26.8437C37.7289 26.7782 37.7289 26.7127 37.7289 26.6452C37.9935 26.6452 38.2582 26.6452 38.5309 26.6452C38.4978 26.7107 38.4647 26.7762 38.4306 26.8437C38.3644 26.8437 38.2983 26.8437 38.2301 26.8437C38.2301 27.5645 38.2301 28.2853 38.2301 29.0279C37.7309 28.9043 37.6853 28.7715 37.4156 28.3516C37.3471 28.2465 37.2786 28.1414 37.2081 28.0332C37.0686 27.8051 36.941 27.5811 36.8267 27.3401C36.7605 27.3401 36.6943 27.3401 36.6262 27.3401C36.6403 27.6008 36.655 27.8614 36.67 28.122C36.674 28.1961 36.6779 28.2702 36.682 28.3465C36.6979 28.7499 36.6979 28.7499 36.8267 29.1272C36.6282 29.1272 36.4297 29.1272 36.2252 29.1272C36.2583 29.0617 36.2914 28.9962 36.3254 28.9286C36.3406 28.7705 36.3504 28.6119 36.3572 28.4532C36.3614 28.3598 36.3656 28.2663 36.3699 28.1701C36.3738 28.0723 36.3778 27.9745 36.3818 27.8738C36.3862 27.7752 36.3905 27.6767 36.3949 27.5752C36.4056 27.3314 36.4158 27.0876 36.4257 26.8437C36.3595 26.8437 36.2934 26.8437 36.2252 26.8437C36.2252 26.7782 36.2252 26.7127 36.2252 26.6452Z" fill="#6D3D1C"/>
<path d="M34.922 22.4754C35.3957 22.6402 35.3957 22.6402 35.5548 22.8353C35.7924 23.027 36.0148 23.0177 36.3129 23.009C36.5493 22.9677 36.6988 22.8919 36.9019 22.767C37.2277 22.5747 37.2277 22.5747 37.472 22.5995C37.5237 22.6241 37.5754 22.6486 37.6286 22.6739C37.6161 22.8973 37.6161 22.8973 37.5284 23.1704C36.9832 23.5929 36.5131 23.7393 35.8242 23.6668C35.4131 23.5102 35.0853 23.3268 34.8217 22.9718C34.8468 22.6988 34.8468 22.6988 34.922 22.4754Z" fill="#905628"/>
<path d="M34.0198 26.2481C34.2844 26.2808 34.5491 26.3136 34.8217 26.3473C34.8217 26.4129 34.8217 26.4784 34.8217 26.5459C34.7756 26.5871 34.7295 26.6283 34.6819 26.6708C34.4638 26.9052 34.4253 27.1184 34.3518 27.427C34.3266 27.5291 34.3014 27.6313 34.2755 27.7365C34.2246 28.0115 34.2016 28.253 34.2203 28.5315C34.339 28.6721 34.339 28.6721 34.6776 28.637C34.8482 28.6339 34.8482 28.6339 35.0222 28.6308C35.0732 28.4283 35.1231 28.2256 35.1726 28.0227C35.2005 27.9098 35.2284 27.7969 35.2572 27.6806C35.3708 27.1005 35.3708 27.1005 35.2227 26.5459C35.4543 26.5787 35.6859 26.6114 35.9245 26.6452C35.8252 26.7926 35.8252 26.7926 35.724 26.943C35.6657 27.129 35.6657 27.129 35.6272 27.3308C35.6031 27.4416 35.6031 27.4416 35.5785 27.5546C35.546 27.7094 35.5139 27.8643 35.4822 28.0192C35.4659 28.0931 35.4497 28.1669 35.433 28.243C35.4191 28.3102 35.4051 28.3775 35.3907 28.4468C35.3074 28.6732 35.2135 28.7807 35.0222 28.9286C34.6187 28.9804 34.3898 28.9637 34.026 28.7797C33.7877 28.4937 33.7657 28.3167 33.7883 27.9502C33.8287 27.6724 33.8985 27.408 33.9751 27.1381C34.0441 26.8369 34.0327 26.5558 34.0198 26.2481Z" fill="#6C3C1B"/>
<path d="M33.1176 25.5531C33.3619 25.702 33.3619 25.702 33.5185 25.9502C33.6028 26.5764 33.4736 27.0168 33.1176 27.5387C32.8857 27.7931 32.8857 27.7931 32.6163 27.9358C32.2268 27.9358 31.9984 27.8897 31.6703 27.6814C31.4489 27.3395 31.4521 27.0342 31.5136 26.6452C31.7804 25.8967 32.2898 25.4165 33.1176 25.5531ZM32.5443 25.8052C32.0476 26.3736 32.0476 26.3736 31.7141 27.0423C31.7353 27.3678 31.7353 27.3678 31.8144 27.638C32.0459 27.6708 32.2775 27.7035 32.5161 27.7373C32.9777 27.1357 33.29 26.6371 33.2178 25.8509C33.1516 25.7854 33.0855 25.7199 33.0173 25.6524C32.7154 25.6193 32.7154 25.6193 32.5443 25.8052Z" fill="#6C3C1B"/>
<path d="M40.5358 26.2481C40.6673 26.5025 40.6673 26.5025 40.7363 26.7445C40.4385 26.6462 40.1408 26.5479 39.8341 26.4466C39.9126 26.7736 39.992 27.1004 40.0721 27.427C40.0944 27.5201 40.1166 27.6131 40.1395 27.709C40.1615 27.7979 40.1834 27.8869 40.2061 27.9785C40.226 28.0606 40.246 28.1428 40.2665 28.2274C40.3245 28.4512 40.3245 28.4512 40.5358 28.6308C40.2711 28.6963 40.0065 28.7618 39.7338 28.8294C39.7338 28.7638 39.7338 28.6983 39.7338 28.6308C39.8 28.6308 39.8661 28.6308 39.9343 28.6308C39.9149 28.5718 39.8955 28.5128 39.8756 28.452C39.6759 27.8227 39.5393 27.1968 39.4331 26.5459C39.199 26.77 39.0133 26.9709 38.8316 27.2409C38.8316 27.0115 38.8316 26.7822 38.8316 26.5459C39.0211 26.4762 39.2113 26.4083 39.4017 26.3411C39.5076 26.3031 39.6134 26.2651 39.7225 26.226C40.0469 26.1457 40.2226 26.1373 40.5358 26.2481Z" fill="#784820"/>
<path d="M42.6409 25.0567C42.6079 25.155 42.5748 25.2533 42.5407 25.3545C42.531 25.6348 42.5267 25.912 42.5282 26.1922C42.5278 26.268 42.5274 26.3439 42.527 26.422C42.5272 26.5323 42.5272 26.5323 42.5274 26.6448C42.5275 26.7115 42.5276 26.7783 42.5277 26.847C42.5415 27.0544 42.5843 27.2397 42.6409 27.4394C42.7402 27.4394 42.8394 27.4394 42.9417 27.4394C42.9417 27.505 42.9417 27.5705 42.9417 27.638C42.677 27.7363 42.4124 27.8346 42.1397 27.9358C42.1542 27.8539 42.1687 27.772 42.1836 27.6876C42.1262 27.2329 41.9268 27.0579 41.6111 26.7375C41.438 26.5459 41.438 26.5459 41.3315 26.3279C41.3005 26.2688 41.2695 26.2097 41.2375 26.1488C40.9813 26.0682 40.9813 26.0682 40.7363 26.0495C40.7363 25.984 40.7363 25.9184 40.7363 25.8509C41.3127 25.5531 41.3127 25.5531 41.5382 25.5531C41.5444 25.6545 41.5444 25.6545 41.5508 25.7579C41.676 26.1741 41.9433 26.4326 42.24 26.7445C42.2481 26.5501 42.2539 26.3557 42.2588 26.1612C42.2622 26.0529 42.2657 25.9446 42.2693 25.8331C42.2548 25.6945 42.2548 25.6945 42.24 25.5531C42.1407 25.4876 42.0415 25.422 41.9392 25.3545C42.4154 25.0567 42.4154 25.0567 42.6409 25.0567Z" fill="#77471F"/>
<path d="M35.724 13.0437C36.0217 13.0437 36.3194 13.0437 36.6262 13.0437C36.56 13.1092 36.4939 13.1748 36.4257 13.2423C36.3978 13.5025 36.3978 13.5025 36.4061 13.8046C36.4067 13.9159 36.4074 14.0273 36.4081 14.142C36.4106 14.3171 36.4106 14.3171 36.4132 14.4957C36.4141 14.6132 36.415 14.7307 36.4159 14.8517C36.4183 15.1426 36.4216 15.4334 36.4257 15.7243C36.1941 15.7571 35.9625 15.7898 35.724 15.8236C35.724 15.758 35.724 15.6925 35.724 15.625C35.7901 15.625 35.8563 15.625 35.9245 15.625C35.9245 14.8059 35.9245 13.9869 35.9245 13.143C35.8583 13.1102 35.7921 13.0775 35.724 13.0437Z" fill="#77471E"/>
<path d="M31.2129 24.2624C31.246 24.328 31.279 24.3935 31.3131 24.461C31.2408 24.4835 31.1684 24.5061 31.0938 24.5293C30.7536 24.6865 30.5617 24.8812 30.3107 25.156C30.2176 25.2481 30.2176 25.2481 30.1227 25.3421C29.9518 25.6618 30.0318 25.9051 30.1102 26.2481C30.2289 26.3886 30.2289 26.3886 30.5676 26.3535C30.7381 26.3505 30.7381 26.3505 30.9121 26.3473C30.7117 26.6452 30.7117 26.6452 30.4297 26.7072C30.0783 26.639 30.0316 26.6023 29.822 26.3349C29.607 25.9889 29.5162 25.7635 29.6089 25.3545C30.0076 24.6894 30.3896 24.2068 31.2129 24.2624Z" fill="#6D3D1D"/>
<path d="M34.6213 53.451C34.6543 53.5165 34.6874 53.5821 34.7215 53.6496C34.7939 53.6619 34.8662 53.6741 34.9408 53.6868C35.4448 53.7977 35.7922 54.0544 36.0686 54.481C36.2375 54.8693 36.2429 55.0374 36.1249 55.4366C35.645 55.2782 35.4951 54.8549 35.236 54.4419C35.0239 54.1482 34.8155 53.9587 34.521 53.7489C34.5541 53.6506 34.5872 53.5523 34.6213 53.451Z" fill="#CF8A31"/>
<path d="M56.4749 38.0625C56.4418 38.128 56.4087 38.1935 56.3747 38.261C56.0868 38.2987 56.0868 38.2987 55.7293 38.3169C55.2841 38.3266 55.2841 38.3266 54.871 38.4596C54.658 38.4658 54.4447 38.4653 54.2317 38.4618C54.1661 38.4608 54.1006 38.4599 54.0331 38.4589C53.8161 38.4556 53.5991 38.4516 53.3822 38.4476C53.2319 38.4452 53.0816 38.4428 52.9313 38.4405C52.5354 38.4342 52.1395 38.4274 51.7437 38.4204C51.3399 38.4134 50.936 38.4069 50.5322 38.4005C49.7396 38.3876 48.947 38.3742 48.1545 38.3603C48.1545 38.3276 48.1545 38.2948 48.1545 38.261C48.2242 38.26 48.2939 38.259 48.3658 38.2579C49.0292 38.2481 49.6926 38.2379 50.356 38.2273C50.6969 38.2219 51.0378 38.2166 51.3788 38.2117C51.7725 38.2059 52.1661 38.1996 52.5598 38.1932C52.7397 38.1907 52.7397 38.1907 52.9233 38.1881C53.6356 38.176 54.3422 38.1408 55.0523 38.0837C55.5267 38.0522 55.9997 38.0538 56.4749 38.0625Z" fill="#EFB848"/>
<path d="M44.4454 38.261C47.287 38.2441 50.1255 38.2927 52.9663 38.3603C52.9663 38.3931 52.9663 38.4258 52.9663 38.4596C52.1925 38.4749 51.4186 38.4896 50.6448 38.5036C50.2854 38.5101 49.926 38.5168 49.5667 38.524C49.2196 38.5309 48.8725 38.5373 48.5254 38.5433C48.3292 38.5468 48.1329 38.5509 47.9367 38.555C47.7562 38.558 47.7562 38.558 47.5719 38.561C47.4137 38.564 47.4137 38.564 47.2522 38.5671C46.9426 38.5586 46.6542 38.5153 46.3501 38.4596C46.1918 38.4463 46.0333 38.4357 45.8747 38.4282C45.7907 38.424 45.7067 38.4199 45.6201 38.4156C45.5343 38.4117 45.4485 38.4078 45.3601 38.4038C45.272 38.3995 45.1839 38.3952 45.0931 38.3908C44.8772 38.3803 44.6613 38.3703 44.4454 38.3603C44.4454 38.3276 44.4454 38.2948 44.4454 38.261Z" fill="#FDD558"/>
<path d="M36.1876 38.3603C36.4742 38.4798 36.5756 38.5895 36.7264 38.8567C36.7264 38.955 36.7264 39.0533 36.7264 39.1546C36.6587 39.1477 36.591 39.1407 36.5212 39.1336C36.2459 39.1171 35.9971 39.1146 35.724 39.1546C35.2999 39.5643 35.2617 39.9846 35.2227 40.5445C35.1896 40.5445 35.1566 40.5445 35.1225 40.5445C35.1143 40.3398 35.1085 40.135 35.1037 39.9302C35.1002 39.8162 35.0967 39.7021 35.0931 39.5847C35.1359 39.1028 35.3221 38.8576 35.6613 38.5217C35.9245 38.3603 35.9245 38.3603 36.1876 38.3603Z" fill="#CD882C"/>
<path d="M75.3212 28.0351C75.3543 28.0351 75.3873 28.0351 75.4214 28.0351C75.4265 28.1588 75.4315 28.2825 75.4367 28.41C75.4556 28.8698 75.4756 29.3296 75.4961 29.7894C75.5047 29.9882 75.5131 30.1871 75.5211 30.3859C75.5327 30.6721 75.5455 30.9582 75.5585 31.2443C75.5618 31.3329 75.5652 31.4216 75.5686 31.5129C75.5895 31.9481 75.6196 32.305 75.8224 32.7013C75.6901 32.7996 75.5578 32.8979 75.4214 32.9992C75.3002 32.7591 75.3091 32.6087 75.3098 32.3406C75.3098 32.2452 75.3098 32.1498 75.3098 32.0515C75.3103 31.9483 75.3109 31.8451 75.3114 31.7388C75.3115 31.6333 75.3117 31.5278 75.3118 31.4191C75.3124 31.0812 75.3136 30.7433 75.3149 30.4054C75.3154 30.1768 75.3159 29.9481 75.3163 29.7194C75.3174 29.158 75.3191 28.5965 75.3212 28.0351Z" fill="#FEAD56"/>
<path d="M34.922 22.4754C35.3912 22.6387 35.3912 22.6387 35.5611 22.826C35.7722 23.015 35.9132 23.0199 36.1939 23.04C36.2749 23.0466 36.3559 23.0531 36.4394 23.0598C36.501 23.0635 36.5627 23.0672 36.6262 23.0711C36.3026 23.2847 36.1967 23.2896 35.8242 23.2696C36.1895 23.5108 36.3969 23.4843 36.8267 23.4682C36.6262 23.6668 36.6262 23.6668 36.2503 23.6978C35.7298 23.6838 35.3874 23.4944 34.9784 23.1828C34.8217 22.9718 34.8217 22.9718 34.8468 22.6988C34.8716 22.6251 34.8964 22.5513 34.922 22.4754Z" fill="#8B5227"/>
<path d="M37.6286 20.5642C37.9294 20.5891 37.9294 20.5891 38.1299 20.7876C38.1549 21.0855 38.1549 21.0855 38.1299 21.3833C37.9294 21.5819 37.9294 21.5819 37.6286 21.6067C37.3279 21.5819 37.3279 21.5819 37.1274 21.3833C37.1023 21.0855 37.1023 21.0855 37.1274 20.7876C37.3279 20.5891 37.3279 20.5891 37.6286 20.5642Z" fill="#8A5126"/>
<path d="M34.0198 26.2481C34.2844 26.2808 34.5491 26.3136 34.8217 26.3473C34.8217 26.4129 34.8217 26.4784 34.8217 26.5459C34.7752 26.587 34.7287 26.6281 34.6808 26.6704C34.4625 26.9073 34.436 27.1213 34.3706 27.4332C34.2845 27.8429 34.1983 28.1139 33.9195 28.4322C33.8165 27.9424 33.8311 27.6197 33.9716 27.1416C34.0451 26.8387 34.0328 26.5583 34.0198 26.2481Z" fill="#70401D"/>
<path d="M35.6237 20.5891C35.7563 21.1263 35.7563 21.1263 35.6175 21.3771C35.3319 21.5322 35.129 21.4577 34.8217 21.3833C34.6891 20.8461 34.6891 20.8461 34.828 20.5953C35.1136 20.4402 35.3165 20.5147 35.6237 20.5891Z" fill="#91572A"/>
<path d="M26.7018 63.0812C26.8797 63.1118 26.8797 63.1118 27.0613 63.1429C27.8759 63.281 28.6842 63.4125 29.5087 63.4784C29.5087 63.5111 29.5087 63.5439 29.5087 63.5777C28.9463 63.5777 28.3839 63.5777 27.8045 63.5777C27.8707 63.6432 27.9368 63.7087 28.005 63.7762C27.863 63.7816 27.721 63.7854 27.579 63.7886C27.4999 63.7909 27.4208 63.7932 27.3393 63.7956C27.082 63.7745 26.9232 63.7054 26.7018 63.5777C26.768 63.5777 26.8341 63.5777 26.9023 63.5777C26.8361 63.4138 26.77 63.25 26.7018 63.0812Z" fill="#3C231F"/>
<path d="M33.6188 14.5329C34.0759 14.9723 34.0759 14.9723 34.2626 15.2135C34.5404 15.5722 34.649 15.7069 35.11 15.8174C35.265 15.8204 35.265 15.8204 35.4232 15.8236C35.3571 15.8891 35.2909 15.9546 35.2227 16.0221C34.9408 16.0221 34.9408 16.0221 34.6213 15.9229C34.4811 15.7829 34.4811 15.7829 34.3518 15.6188C34.2753 15.5226 34.1988 15.4263 34.12 15.3272C34.0208 15.3272 33.9215 15.3272 33.8193 15.3272C33.8524 15.5237 33.8854 15.7203 33.9195 15.9229C33.8203 15.8901 33.721 15.8573 33.6188 15.8236C33.5526 15.4304 33.4865 15.0373 33.4183 14.6322C33.4845 14.5994 33.5506 14.5667 33.6188 14.5329Z" fill="#F8D565"/>
<path d="M39.7338 27.1416C39.833 27.1416 39.9323 27.1416 40.0345 27.1416C40.0539 27.2325 40.0733 27.3233 40.0933 27.4169C40.1194 27.5349 40.1455 27.6529 40.1724 27.7745C40.198 27.892 40.2236 28.0095 40.2499 28.1305C40.3107 28.4404 40.3107 28.4404 40.5358 28.6308C40.2711 28.6963 40.0065 28.7618 39.7338 28.8294C39.7338 28.7638 39.7338 28.6983 39.7338 28.6308C39.8 28.6308 39.8661 28.6308 39.9343 28.6308C39.9114 28.5649 39.8886 28.499 39.865 28.4311C39.8218 28.2996 39.8218 28.2996 39.7777 28.1654C39.7486 28.079 39.7195 27.9926 39.6896 27.9036C39.6284 27.6135 39.6559 27.4251 39.7338 27.1416Z" fill="#7E4C21"/>
<path d="M74.1182 19.1991C74.3475 19.4262 74.3567 19.5047 74.4041 19.813C74.417 19.8965 74.43 19.98 74.4433 20.066C74.456 20.1546 74.4686 20.2433 74.4816 20.3346C74.4948 20.4242 74.5081 20.5138 74.5217 20.606C74.6095 21.2315 74.659 21.8435 74.6195 22.4754C74.5864 22.4754 74.5533 22.4754 74.5192 22.4754C74.2738 21.7949 74.2616 21.1069 74.2185 20.3905C74.2004 20.1629 74.1817 19.9354 74.1621 19.7079C74.1537 19.6099 74.1453 19.5119 74.1366 19.4109C74.1306 19.341 74.1245 19.2711 74.1182 19.1991Z" fill="#4D3025"/>
<path d="M41.5382 25.5531C41.5486 25.6289 41.5589 25.7046 41.5696 25.7827C41.6144 26.0538 41.6144 26.0538 41.8014 26.2046C41.8469 26.2517 41.8924 26.2988 41.9392 26.3473C41.9079 26.5645 41.9079 26.5645 41.839 26.7445C41.6677 26.5833 41.5007 26.4175 41.3377 26.2481C41.3377 26.1825 41.3377 26.117 41.3377 26.0495C41.2385 26.0823 41.1393 26.115 41.037 26.1488C40.9378 26.116 40.8385 26.0833 40.7363 26.0495C40.7363 25.984 40.7363 25.9184 40.7363 25.8509C41.3127 25.5531 41.3127 25.5531 41.5382 25.5531Z" fill="#7E4C21"/>
<path d="M41.1373 14.3344C41.7788 14.3832 41.7788 14.3832 42.0833 14.6384C42.1609 14.7336 42.1609 14.7336 42.24 14.8308C42.1738 15.0273 42.1076 15.2239 42.0395 15.4264C41.9402 15.4264 41.841 15.4264 41.7387 15.4264C41.7325 15.32 41.7263 15.2135 41.7199 15.1038C41.6724 14.718 41.6724 14.718 41.3816 14.4895C41.301 14.4383 41.2203 14.3871 41.1373 14.3344Z" fill="#6F3F1D"/>
<path d="M43.0419 62.4856C42.7347 62.6884 42.5137 62.7579 42.1585 62.8455C42.0566 62.8713 41.9546 62.8972 41.8495 62.9238C41.5375 62.9821 41.2535 62.9923 40.9368 62.982C41.5507 62.4469 42.2682 62.4578 43.0419 62.4856Z" fill="#41281E"/>
<path d="M75.3212 30.4179C75.3543 30.4179 75.3873 30.4179 75.4214 30.4179C75.4214 31.0076 75.4214 31.5973 75.4214 32.2049C75.4876 32.2049 75.5538 32.2049 75.6219 32.2049C75.6881 32.3687 75.7542 32.5325 75.8224 32.7013C75.6901 32.7996 75.5578 32.8979 75.4214 32.9992C75.2906 32.7401 75.3099 32.5497 75.3114 32.26C75.3117 32.1531 75.312 32.0463 75.3124 31.9362C75.3132 31.8242 75.314 31.7122 75.3149 31.5968C75.3154 31.4841 75.3158 31.3713 75.3163 31.2551C75.3175 30.976 75.3191 30.697 75.3212 30.4179Z" fill="#F1A84A"/>
<path d="M45.7298 30.8615C46.0465 30.9377 46.3507 30.9234 46.6758 30.9205C46.8025 30.9196 46.9291 30.9187 47.0596 30.9177C47.2046 30.916 47.2046 30.916 47.3525 30.9143C47.128 31.1681 47.0843 31.209 46.726 31.2431C46.0629 31.2197 45.4021 31.1083 44.7461 31.0135C44.7461 30.9808 44.7461 30.948 44.7461 30.9143C45.499 30.8024 45.499 30.8024 45.7298 30.8615Z" fill="#E9C353"/>
<path d="M39.0321 13.6394C39.0982 13.6394 39.1644 13.6394 39.2326 13.6394C39.1664 14.1636 39.1003 14.6878 39.0321 15.2279C38.9659 15.2279 38.8998 15.2279 38.8316 15.2279C38.778 15.1044 38.7261 14.9801 38.675 14.8556C38.6459 14.7865 38.6168 14.7174 38.5868 14.6462C38.523 14.4038 38.5507 14.2708 38.6311 14.0365C38.6642 14.1676 38.6973 14.2986 38.7313 14.4336C38.7975 14.4336 38.8637 14.4336 38.9318 14.4336C38.9649 14.1715 38.998 13.9094 39.0321 13.6394Z" fill="#F5D664"/>
<path d="M34.8217 13.0437C34.8217 13.1092 34.8217 13.1748 34.8217 13.2423C34.7659 13.2955 34.7101 13.3487 34.6526 13.4036C34.3481 13.7133 34.1411 14.0631 33.9195 14.4336C33.8534 14.4009 33.7872 14.3681 33.719 14.3344C33.8844 14.0067 34.0499 13.6791 34.2203 13.3415C34.121 13.3088 34.0218 13.276 33.9195 13.2423C33.9195 13.2095 33.9195 13.1767 33.9195 13.143C34.2261 13.089 34.5098 13.0437 34.8217 13.0437Z" fill="#683517"/>
<path d="M13.5696 48.1891C13.9968 48.3403 14.1746 48.5861 14.3715 48.9834C14.3751 49.2896 14.3331 49.5774 14.2713 49.8769C14.081 49.5943 14.0349 49.4658 13.9768 49.1447C13.9007 48.7752 13.7927 48.5005 13.5696 48.1891Z" fill="#D0882E"/>
<path d="M41.1373 15.9229C41.7137 16.109 41.7137 16.109 41.9392 16.2207C41.9392 16.2862 41.9392 16.3517 41.9392 16.4193C41.84 16.452 41.7407 16.4848 41.6385 16.5185C41.5723 16.5841 41.5062 16.6496 41.438 16.7171C41.2891 16.8154 41.2891 16.8154 41.1373 16.9157C40.9835 16.6111 41.0831 16.3502 41.1373 16.0221C41.1373 15.9894 41.1373 15.9566 41.1373 15.9229Z" fill="#78471F"/>
<path d="M33.4183 13.0437C33.4845 13.0765 33.5506 13.1092 33.6188 13.143C33.5526 13.5034 33.4865 13.8638 33.4183 14.2351C33.5175 14.2678 33.6168 14.3006 33.719 14.3344C33.5867 14.3671 33.4544 14.3999 33.3181 14.4336C33.285 14.106 33.2519 13.7784 33.2178 13.4408C33.284 13.4408 33.3501 13.4408 33.4183 13.4408C33.4183 13.3753 33.4183 13.3098 33.4183 13.2423C33.1867 13.275 32.9552 13.3078 32.7166 13.3415C32.9504 13.2218 33.1673 13.1266 33.4183 13.0437Z" fill="#FBDB67"/>
<path d="M37.5284 6.19333C38.3203 6.10284 38.8522 6.41125 39.5333 6.78901C39.2326 6.98758 39.2326 6.98758 38.8316 6.98758C38.8254 6.92615 38.8192 6.86472 38.8128 6.80142C38.75 6.57119 38.75 6.57119 38.5183 6.47256C38.1898 6.38062 37.8671 6.33208 37.5284 6.29261C37.5284 6.25985 37.5284 6.22709 37.5284 6.19333Z" fill="#4D2D23"/>
<path d="M36.5259 26.943C36.559 26.943 36.5921 26.943 36.6262 26.943C36.6287 27.0021 36.6312 27.0612 36.6338 27.1221C36.6454 27.3893 36.6577 27.6563 36.67 27.9234C36.674 28.0165 36.6779 28.1095 36.682 28.2054C36.6862 28.2943 36.6904 28.3833 36.6947 28.4749C36.6984 28.557 36.7021 28.6392 36.7058 28.7238C36.7146 28.9348 36.7146 28.9348 36.8267 29.1272C36.6282 29.1272 36.4297 29.1272 36.2252 29.1272C36.257 29.0288 36.2888 28.9304 36.3215 28.829C36.4351 28.4353 36.4664 28.0534 36.4883 27.6442C36.4922 27.5763 36.4961 27.5084 36.5001 27.4385C36.5094 27.2734 36.5178 27.1082 36.5259 26.943Z" fill="#7E4D22"/>
<path d="M36.6262 27.3401C36.6923 27.3401 36.7585 27.3401 36.8267 27.3401C36.9433 27.6925 36.9193 27.9913 36.8831 28.3578C36.8677 28.5183 36.8677 28.5183 36.8521 28.682C36.8437 28.7634 36.8353 28.8448 36.8267 28.9286C36.7605 28.9286 36.6943 28.9286 36.6262 28.9286C36.6262 28.4044 36.6262 27.8802 36.6262 27.3401Z" fill="#EBC257"/>
<path d="M33.2178 15.4264C33.4163 15.4756 33.4163 15.4756 33.6188 15.5257C33.6312 15.6056 33.6436 15.6854 33.6564 15.7677C33.6874 15.8937 33.6874 15.8937 33.719 16.0221C33.7852 16.0549 33.8514 16.0877 33.9195 16.1214C33.6549 16.1869 33.3902 16.2525 33.1176 16.32C33.1506 16.1889 33.1837 16.0579 33.2178 15.9229C33.2216 15.7574 33.2224 15.5919 33.2178 15.4264Z" fill="#73411D"/>
<path d="M43.8439 30.9143C44.7872 30.8959 44.7872 30.8959 45.2473 31.0135C45.2143 31.0791 45.1812 31.1446 45.1471 31.2121C44.7169 31.3211 44.376 31.3037 43.9441 31.2121C43.9111 31.1138 43.878 31.0155 43.8439 30.9143Z" fill="#381F1A"/>
<path d="M27.8045 28.6308C28.4706 28.6095 29.0608 28.6792 29.7092 28.8294C29.7092 28.8621 29.7092 28.8949 29.7092 28.9286C29.0347 28.9507 28.4521 28.9237 27.8045 28.7301C27.8045 28.6973 27.8045 28.6646 27.8045 28.6308Z" fill="#371C18"/>
<path d="M45.3476 31.1128C45.9761 31.1128 46.6047 31.1128 47.2523 31.1128C47.2192 31.1783 47.1861 31.2439 47.152 31.3114C46.8833 31.3506 46.6266 31.3761 46.3563 31.392C46.2448 31.4015 46.2448 31.4015 46.131 31.4112C45.915 31.425 45.915 31.425 45.5481 31.4107C45.4819 31.3124 45.4158 31.2141 45.3476 31.1128Z" fill="#2E1718"/>
<path d="M36.5259 22.9718C36.5921 22.9718 36.6583 22.9718 36.7264 22.9718C36.6933 23.1356 36.6603 23.2994 36.6262 23.4682C36.334 23.5486 36.179 23.5892 35.8931 23.4744C35.8373 23.4396 35.7815 23.4048 35.724 23.3689C35.724 23.3034 35.724 23.2379 35.724 23.1704C35.8191 23.1744 35.9142 23.1785 36.0122 23.1828C36.3357 23.2051 36.3357 23.2051 36.5259 22.9718Z" fill="#965D2C"/>
<path d="M35.4232 54.9402C35.4563 55.0385 35.4894 55.1368 35.5235 55.2381C35.1265 55.6312 34.7295 56.0244 34.3205 56.4294C34.3205 56.1316 34.3205 56.1316 34.4854 55.9427C34.593 55.8427 34.593 55.8427 34.7027 55.7407C34.9726 55.488 35.2082 55.2405 35.4232 54.9402Z" fill="#D69332"/>
<path d="M40.4355 30.5171C40.6109 30.5117 40.7864 30.5079 40.9618 30.5047C41.0595 30.5024 41.1572 30.5001 41.2579 30.4977C41.5402 30.5173 41.6996 30.5722 41.9392 30.7157C40.8808 30.848 40.8808 30.848 40.4355 30.7157C40.4355 30.6502 40.4355 30.5846 40.4355 30.5171Z" fill="#3B1F1A"/>
<path d="M49.8587 14.6322C50.1068 14.6813 50.1068 14.6813 50.3599 14.7315C50.3485 14.928 50.3357 15.1245 50.3223 15.321C50.3153 15.4304 50.3083 15.5398 50.3012 15.6525C50.2875 15.7417 50.2738 15.8309 50.2597 15.9229C50.1604 15.972 50.1604 15.972 50.0592 16.0221C50.0633 15.9034 50.0674 15.7846 50.0717 15.6622C50.073 15.2851 50.001 14.9847 49.8587 14.6322Z" fill="#361E1B"/>
<path d="M3.24421 50.4726C3.34346 50.5217 3.34346 50.5217 3.44471 50.5719C3.44471 50.6374 3.44471 50.7029 3.44471 50.7704C3.72165 50.8297 3.96201 50.8697 4.24668 50.8697C4.11435 51.0008 3.98203 51.1318 3.84569 51.2668C3.46939 51.1426 3.42057 51.0121 3.24421 50.6711C3.24421 50.6056 3.24421 50.5401 3.24421 50.4726Z" fill="#54332B"/>
<path d="M39.8341 27.9358C39.8671 28.0341 39.9002 28.1324 39.9343 28.2337C40.0335 28.2337 40.1328 28.2337 40.235 28.2337C40.4042 28.4322 40.4042 28.4322 40.5358 28.6308C40.2711 28.6963 40.0065 28.7618 39.7338 28.8294C39.7338 28.7638 39.7338 28.6983 39.7338 28.6308C39.8 28.6308 39.8661 28.6308 39.9343 28.6308C39.9012 28.4015 39.8681 28.1721 39.8341 27.9358Z" fill="#663919"/>
<path d="M34.12 27.9358C34.1428 28.0464 34.1655 28.157 34.1889 28.2709C34.281 28.6467 34.281 28.6467 34.5837 28.7735C34.6622 28.7919 34.7408 28.8104 34.8217 28.8294C34.8217 28.8621 34.8217 28.8949 34.8217 28.9286C34.1818 28.8689 34.1818 28.8689 33.9258 28.7053C33.7838 28.4736 33.7975 28.3011 33.8193 28.0351C34.0198 27.9358 34.0198 27.9358 34.12 27.9358Z" fill="#7A4B21"/>
<path d="M42.3402 27.2409C42.4394 27.2409 42.5387 27.2409 42.6409 27.2409C42.6409 27.3064 42.6409 27.3719 42.6409 27.4394C42.7402 27.4394 42.8394 27.4394 42.9417 27.4394C42.9417 27.505 42.9417 27.5705 42.9417 27.638C42.677 27.7363 42.4124 27.8346 42.1397 27.9358C42.2059 27.7065 42.272 27.4772 42.3402 27.2409Z" fill="#77471F"/>
<path d="M36.4257 26.8437C36.558 26.8765 36.6903 26.9093 36.8267 26.943C36.8597 27.0413 36.8928 27.1396 36.9269 27.2409C36.8277 27.2736 36.7284 27.3064 36.6262 27.3401C36.5931 27.7005 36.56 28.0609 36.5259 28.4322C36.4928 28.4322 36.4598 28.4322 36.4257 28.4322C36.4257 27.908 36.4257 27.3838 36.4257 26.8437Z" fill="#855324"/>
<path d="M35.5235 54.6424C35.5648 54.6936 35.6062 54.7448 35.6488 54.7975C35.7356 54.8682 35.7356 54.8682 35.8242 54.9402C36.041 54.9176 36.041 54.9176 36.2252 54.8409C36.1921 55.0375 36.159 55.2341 36.1249 55.4366C35.7818 55.3233 35.7092 55.238 35.5235 54.9402C35.5235 54.8419 35.5235 54.7436 35.5235 54.6424Z" fill="#C6802B"/>
<path d="M37.7289 26.6452C37.9935 26.6452 38.2582 26.6452 38.5309 26.6452C38.4978 26.7107 38.4647 26.7762 38.4306 26.8437C38.3644 26.8437 38.2983 26.8437 38.2301 26.8437C38.2301 27.1714 38.2301 27.499 38.2301 27.8366C38.197 27.8366 38.164 27.8366 38.1299 27.8366C38.0968 27.5417 38.0637 27.2468 38.0296 26.943C37.9304 26.9103 37.8311 26.8775 37.7289 26.8437C37.7289 26.7782 37.7289 26.7127 37.7289 26.6452Z" fill="#825024"/>
<path d="M73.7172 17.5113C73.7834 17.5113 73.8496 17.5113 73.9177 17.5113C74.0443 18.0152 74.1453 18.4771 74.1182 19.0006C73.9435 18.7409 73.876 18.6029 73.805 18.3118C73.7882 18.2454 73.7714 18.179 73.7541 18.1105C73.7172 17.9085 73.7172 17.9085 73.7172 17.5113Z" fill="#452C24"/>
<path d="M36.9269 37.5661C37.2246 37.5988 37.5224 37.6316 37.8291 37.6654C37.8291 37.6981 37.8291 37.7309 37.8291 37.7646C37.6637 37.7974 37.4983 37.8302 37.3279 37.8639C37.2948 38.0933 37.2617 38.3226 37.2277 38.5589C37.1946 38.5589 37.1615 38.5589 37.1274 38.5589C37.0612 38.2313 36.9951 37.9036 36.9269 37.5661Z" fill="#FCD45E"/>
<path d="M34.12 27.1416C34.2117 27.448 34.2525 27.7159 34.2203 28.0351C34.0699 28.2647 34.0699 28.2647 33.9195 28.4322C33.7774 27.7002 33.7774 27.7002 34.0198 27.3401C34.0529 27.2746 34.0859 27.2091 34.12 27.1416Z" fill="#7A4B21"/>
<path d="M33.2178 25.9502C33.3171 25.9502 33.4163 25.9502 33.5185 25.9502C33.5185 26.2123 33.5185 26.4744 33.5185 26.7445C33.4193 26.7772 33.3201 26.81 33.2178 26.8437C33.1067 26.5136 33.1331 26.2856 33.2178 25.9502Z" fill="#774820"/>
<path d="M39.0321 14.7315C39.0982 14.7315 39.1644 14.7315 39.2326 14.7315C39.2183 14.8887 39.2036 15.0459 39.1887 15.2031C39.1806 15.2906 39.1724 15.3781 39.164 15.4683C39.1361 15.6939 39.0934 15.9028 39.0321 16.1214C38.9659 16.1214 38.8998 16.1214 38.8316 16.1214C38.8978 15.8593 38.9639 15.5972 39.0321 15.3272C38.9659 15.2944 38.8998 15.2616 38.8316 15.2279C38.8978 15.2279 38.9639 15.2279 39.0321 15.2279C39.0321 15.0641 39.0321 14.9003 39.0321 14.7315Z" fill="#69381A"/>
<path d="M34.12 10.4624C34.1862 10.4952 34.2523 10.5279 34.3205 10.5617C34.045 10.9861 33.7499 11.37 33.4183 11.7531C33.4183 11.3721 33.5451 11.2452 33.7692 10.9402C33.8343 10.8507 33.8994 10.7613 33.9665 10.6691C34.0172 10.6009 34.0678 10.5327 34.12 10.4624Z" fill="#FBDE68"/>
<path d="M43.3427 62.287C43.3427 62.3853 43.3427 62.4836 43.3427 62.5848C43.0119 62.5848 42.681 62.5848 42.3402 62.5848C42.3402 62.5193 42.3402 62.4538 42.3402 62.3863C42.9703 62.1452 42.9703 62.1452 43.3427 62.287Z" fill="#4E3121"/>
<path d="M27.3033 41.1402C27.1788 41.2099 27.0533 41.2778 26.9274 41.345C26.8227 41.402 26.8227 41.402 26.7159 41.4601C26.4651 41.5503 26.3476 41.5257 26.1003 41.438C26.2248 41.3683 26.3503 41.3004 26.4763 41.2333C26.5809 41.1762 26.5809 41.1762 26.6877 41.1181C26.9385 41.0279 27.056 41.0525 27.3033 41.1402Z" fill="#3A211E"/>
<path d="M27.5038 23.766C27.5969 24.0153 27.6228 24.1215 27.5112 24.3687C27.4653 24.436 27.4195 24.5033 27.3722 24.5727C27.3271 24.6405 27.282 24.7084 27.2355 24.7782C27.1028 24.9574 27.1028 24.9574 26.9023 25.156C26.9606 24.7826 27.0679 24.5076 27.2594 24.1818C27.305 24.1033 27.3507 24.0249 27.3977 23.944C27.4502 23.8559 27.4502 23.8559 27.5038 23.766Z" fill="#F7D965"/>
<path d="M35.4232 58.1172C35.4232 58.4735 35.3566 58.5251 35.1225 58.7812C35.0667 58.843 35.0108 58.9048 34.9533 58.9685C34.9099 59.0152 34.8665 59.0619 34.8217 59.11C34.7556 59.0773 34.6894 59.0445 34.6213 59.0107C34.7361 58.8804 34.851 58.7501 34.9659 58.6198C35.0298 58.5473 35.0938 58.4747 35.1597 58.3999C35.2453 58.3037 35.3316 58.2079 35.4232 58.1172Z" fill="#412821"/>
<path d="M31.1263 24.4114C31.0812 23.9646 31.5638 24.5603 31.7278 24.8085C31.7027 25.1311 31.7027 25.1311 31.6275 25.4042C31.5614 25.4042 31.4952 25.4042 31.427 25.4042C31.3939 25.0765 31.1604 24.7489 31.1263 24.4114Z" fill="#6D3D1D"/>
<path d="M40.0345 26.1488C40.2789 26.1612 40.2789 26.1612 40.5358 26.2481C40.6673 26.5025 40.6673 26.5025 40.7363 26.7445C40.4401 26.6083 40.1909 26.4477 39.9343 26.2481C39.9674 26.2153 40.0005 26.1825 40.0345 26.1488Z" fill="#7E4C21"/>
<path d="M45.6483 31.1128C45.6814 31.1783 45.7145 31.2439 45.7486 31.3114C45.2057 31.4336 45.2057 31.4336 44.909 31.3176C44.8553 31.2828 44.8015 31.248 44.7461 31.2121C45.0834 31.0544 45.2945 30.9626 45.6483 31.1128Z" fill="#513120"/>
<path d="M37.9294 26.8437C37.9625 26.8437 37.9955 26.8437 38.0296 26.8437C38.0296 27.3352 38.0296 27.8266 38.0296 28.333C37.9304 28.2674 37.8311 28.2019 37.7289 28.1344C37.7289 28.0689 37.7289 28.0033 37.7289 27.9358C37.795 27.9358 37.8612 27.9358 37.9294 27.9358C37.9294 27.5754 37.9294 27.2151 37.9294 26.8437Z" fill="#E3B552"/>
<path d="M34.6213 53.451C34.6543 53.5165 34.6874 53.5821 34.7215 53.6496C34.8001 53.6639 34.8786 53.6782 34.9596 53.693C35.2227 53.7489 35.2227 53.7489 35.5235 54.0467C35.0769 53.9484 35.0769 53.9484 34.6213 53.8481C34.6213 53.7171 34.6213 53.586 34.6213 53.451Z" fill="#D49237"/>
<path d="M34.8217 41.3387C35.0891 41.4711 35.3564 41.6035 35.6237 41.7359C35.4583 41.8014 35.2929 41.8669 35.1225 41.9344C34.8217 41.5621 34.8217 41.5621 34.8217 41.3387Z" fill="#CB8A2E"/>
<path d="M40.1348 15.3272C40.235 15.5257 40.235 15.5257 40.1411 15.836C40.1059 15.9302 40.0708 16.0244 40.0345 16.1214C39.9684 16.1214 39.9022 16.1214 39.8341 16.1214C39.801 15.9576 39.7679 15.7938 39.7338 15.625C39.8661 15.5267 39.9985 15.4284 40.1348 15.3272Z" fill="#805123"/>
<path d="M38.4306 14.2351C38.5872 14.415 38.5872 14.415 38.7313 14.6322C38.6983 14.7305 38.6652 14.8288 38.6311 14.93C38.5319 14.8973 38.4326 14.8645 38.3304 14.8308C38.2973 14.6669 38.2642 14.5031 38.2301 14.3344C38.2963 14.3016 38.3624 14.2688 38.4306 14.2351Z" fill="#693A1A"/>
<path d="M42.1397 62.4856C42.4374 62.4856 42.7352 62.4856 43.0419 62.4856C42.7377 62.6865 42.6215 62.716 42.2713 62.7462C42.1903 62.7536 42.1092 62.761 42.0258 62.7687C41.9641 62.7735 41.9025 62.7784 41.839 62.7834C41.9382 62.7506 42.0375 62.7179 42.1397 62.6841C42.1397 62.6186 42.1397 62.5531 42.1397 62.4856Z" fill="#35231C"/>
<path d="M18.6821 46.4021C18.7483 46.4348 18.8144 46.4676 18.8826 46.5013C18.6841 46.6979 18.4856 46.8945 18.2811 47.097C18.1819 47.0643 18.0826 47.0315 17.9804 46.9978C18.212 46.8012 18.4435 46.6046 18.6821 46.4021Z" fill="#3B2020"/>
<path d="M39.5333 26.5459C39.4403 26.5797 39.4403 26.5797 39.3454 26.6142C39.0708 26.7821 39.027 26.9423 38.9318 27.2409C38.8988 27.2409 38.8657 27.2409 38.8316 27.2409C38.8316 27.0115 38.8316 26.7822 38.8316 26.5459C39.1457 26.4422 39.2315 26.4531 39.5333 26.5459Z" fill="#77471F"/>
<path d="M42.24 25.5531C42.273 25.5531 42.3061 25.5531 42.3402 25.5531C42.3402 25.979 42.3402 26.4049 42.3402 26.8437C42.241 26.7782 42.1417 26.7127 42.0395 26.6452C42.0395 26.5797 42.0395 26.5141 42.0395 26.4466C42.1056 26.4466 42.1718 26.4466 42.24 26.4466C42.24 26.1518 42.24 25.8569 42.24 25.5531Z" fill="#ECBB52"/>
<path d="M42.6409 25.0567C42.5748 25.2205 42.5086 25.3843 42.4405 25.5531C42.275 25.5203 42.1096 25.4876 41.9392 25.4538C42.3228 25.0567 42.3228 25.0567 42.6409 25.0567Z" fill="#75431D"/>
<path d="M38.9318 6.8883C39.0642 6.8883 39.1965 6.8883 39.3328 6.8883C39.3328 7.1504 39.3328 7.4125 39.3328 7.68254C39.0422 7.44476 38.9818 7.2544 38.9318 6.8883Z" fill="#39201B"/>
<path d="M40.1348 26.4466C40.0355 26.4466 39.9363 26.4466 39.8341 26.4466C39.801 26.5121 39.7679 26.5777 39.7338 26.6452C39.5849 26.7435 39.5849 26.7435 39.4331 26.8437C39.4 26.6799 39.3669 26.5161 39.3328 26.3473C39.6739 26.2267 39.8273 26.2617 40.1348 26.4466Z" fill="#8A5927"/>
<path d="M34.8217 13.0437C34.8217 13.1092 34.8217 13.1748 34.8217 13.2423C34.6587 13.3795 34.4917 13.5123 34.3205 13.6394C34.3205 13.5411 34.3205 13.4428 34.3205 13.3415C34.2544 13.276 34.1882 13.2105 34.12 13.143C34.3697 13.0748 34.559 13.0437 34.8217 13.0437Z" fill="#76411E"/>
</g>
<defs>
<filter id="filter0_d_200_172" x="0" y="0" width="96" height="67" filterUnits="userSpaceOnUse" color-interpolation-filters="sRGB">
<feFlood flood-opacity="0" result="BackgroundImageFix"/>
<feColorMatrix in="SourceAlpha" type="matrix" values="0 0 0 0 0 0 0 0 0 0 0 0 0 0 0 0 0 0 127 0" result="hardAlpha"/>
<feOffset dy="3"/>
<feComposite in2="hardAlpha" operator="out"/>
<feColorMatrix type="matrix" values="0 0 0 0 0 0 0 0 0 0 0 0 0 0 0 0 0 0 0.25 0"/>
<feBlend mode="normal" in2="BackgroundImageFix" result="effect1_dropShadow_200_172"/>
<feBlend mode="normal" in="SourceGraphic" in2="effect1_dropShadow_200_172" result="shape"/>
</filter>
</defs>
</svg>
