<svg width="51" height="37" viewBox="0 0 51 37" fill="none" xmlns="http://www.w3.org/2000/svg">
<path d="M7.54861 33.7379C7.60402 33.9525 7.70451 34.1544 7.84414 34.3318C7.98378 34.5092 8.15972 34.6584 8.36159 34.7707C8.56345 34.8829 8.78713 34.9559 9.01942 34.9853C9.25171 35.0147 9.4879 34.9999 9.71403 34.9418C20.0366 32.2483 30.9418 32.2483 41.2643 34.9418C41.4904 34.9999 41.7266 35.0147 41.9589 34.9853C42.1912 34.9559 42.4149 34.8829 42.6168 34.7707C42.8186 34.6584 42.9946 34.5092 43.1342 34.3318C43.2738 34.1544 43.3743 33.9525 43.4297 33.7379L48.9516 11.6375C49.0274 11.3416 49.014 11.0317 48.9128 10.7427C48.8116 10.4537 48.6268 10.1971 48.379 10.0019C48.1313 9.80665 47.8306 9.68055 47.5109 9.63781C47.1912 9.59508 46.8652 9.63741 46.5696 9.76004L35.6125 14.3515C35.2155 14.5163 34.7678 14.5365 34.3559 14.4084C33.944 14.2802 33.5971 14.0128 33.3822 13.6577L27.0158 2.84219C26.866 2.58702 26.6464 2.37433 26.3798 2.22622C26.1132 2.07811 25.8094 2 25.5 2C25.1905 2 24.8867 2.07811 24.6202 2.22622C24.3536 2.37433 24.134 2.58702 23.9842 2.84219L17.6178 13.6577C17.4029 14.0128 17.056 14.2802 16.6441 14.4084C16.2322 14.5365 15.7845 14.5163 15.3875 14.3515L4.43039 9.76004C4.13484 9.63741 3.8088 9.59508 3.48907 9.63781C3.16935 9.68055 2.86866 9.80665 2.62095 10.0019C2.37324 10.1971 2.18837 10.4537 2.0872 10.7427C1.98604 11.0317 1.9726 11.3416 2.04842 11.6375L7.54861 33.7379Z" stroke="#BABABA" stroke-width="3" stroke-linecap="round" stroke-linejoin="round"/>
</svg>
