<svg width="41" height="41" viewBox="0 0 41 41" fill="none" xmlns="http://www.w3.org/2000/svg">
<path d="M38.5307 16.2783H36.9061C35.5808 16.2783 34.4692 15.1362 34.4692 13.7805C34.4692 13.0974 34.7578 12.4783 35.2708 12.0193L36.3183 10.9945C37.355 9.9698 37.355 8.29393 36.3183 7.2692L33.9348 4.91018C33.4645 4.44051 32.7698 4.16298 32.0644 4.16298C31.359 4.16298 30.6749 4.44051 30.194 4.91018L29.1893 5.91356C28.7083 6.44728 28.067 6.73549 27.3723 6.73549C26.0042 6.73549 24.8606 5.62536 24.8606 4.31242V2.67925C24.8606 1.23822 23.6956 0 22.242 0H18.9928C17.5392 0 16.3849 1.22754 16.3849 2.67925V4.30174C16.3849 5.61468 15.2413 6.72481 13.8732 6.72481C13.1892 6.72481 12.5586 6.4366 12.099 5.93491L11.0622 4.91018C10.5919 4.42984 9.89721 4.16298 9.19179 4.16298C8.48638 4.16298 7.80234 4.44051 7.32137 4.91018L4.91654 7.25853C3.89048 8.28326 3.89048 9.95913 4.91654 10.9732L5.92123 11.9766C6.45563 12.4569 6.7549 13.0974 6.7549 13.7805C6.7549 15.1468 5.64333 16.2783 4.31801 16.2783H2.69341C1.22913 16.2783 0 17.4205 0 18.8722V20.4947V22.1172C0 23.5582 1.22913 24.711 2.69341 24.711H4.31801C5.64333 24.711 6.7549 25.8532 6.7549 27.2088C6.7549 27.892 6.45563 28.5324 5.92123 29.0128L4.91654 30.0055C3.89048 31.0302 3.89048 32.7061 4.91654 33.7201L7.29999 36.0898C7.77027 36.5702 8.465 36.837 9.17042 36.837C9.87583 36.837 10.5599 36.5595 11.0408 36.0898L12.0776 35.0651C12.5265 34.5634 13.1678 34.2752 13.8518 34.2752C15.2199 34.2752 16.3635 35.3853 16.3635 36.6983V38.3207C16.3635 39.7618 17.5178 41 18.9821 41H22.2313C23.6849 41 24.8392 39.7725 24.8392 38.3207V36.6983C24.8392 35.3853 25.9828 34.2752 27.3509 34.2752C28.035 34.2752 28.6763 34.5741 29.1679 35.0971L30.1726 36.1005C30.6536 36.5702 31.3376 36.8477 32.043 36.8477C32.7484 36.8477 33.4325 36.5702 33.9134 36.1005L36.2969 33.7308C37.323 32.7061 37.323 31.0302 36.2969 30.0055L35.2495 28.9807C34.7364 28.5217 34.4478 27.892 34.4478 27.2195C34.4478 25.8532 35.5594 24.7217 36.8847 24.7217H38.5093C39.9629 24.7217 40.9997 23.5795 40.9997 22.1278V20.4947V18.8722C41.0211 17.4205 39.9843 16.2783 38.5307 16.2783ZM29.1572 20.4947C29.1572 25.202 25.3416 29.0341 20.6067 29.0341C15.8719 29.0341 12.0562 25.202 12.0562 20.4947C12.0562 15.7873 15.8719 11.9552 20.6067 11.9552C25.3416 11.9552 29.1572 15.7873 29.1572 20.4947Z" fill="#8EDE5F"/>
</svg>
