<svg width="378" height="215" viewBox="0 0 378 215" fill="none" xmlns="http://www.w3.org/2000/svg">
<g filter="url(#filter0_d_262_161)">
<path fill-rule="evenodd" clip-rule="evenodd" d="M304.809 208.561H279.404L275.605 196.806H249.985L246.184 208.561H220.889L249.008 130.782H276.8L304.809 208.561ZM255.847 178.46H269.744L262.794 156.818L255.847 178.46Z" fill="white"/>
<path d="M334.385 208.561H310.285V130.782H334.385V208.561Z" fill="white"/>
<path d="M143.778 73.7333C143.778 76.8587 144.584 79.3592 146.195 81.2345C147.882 83.0315 150.107 83.9295 152.868 83.9297C155.707 83.9297 157.933 83.0317 159.544 81.2345C161.155 79.3592 161.959 76.8587 161.959 73.7333V38.6881H187.507V104.793H161.959V94.7144C159.965 97.8396 157.279 100.38 153.904 102.333C150.606 104.286 146.655 105.262 142.053 105.263C134.612 105.263 128.781 102.723 124.562 97.6441C120.419 92.565 118.347 85.6884 118.347 77.0149V38.6881H143.778V73.7333Z" fill="white"/>
<path d="M224.59 104.793H199.044V38.6881H224.59V104.793Z" fill="white"/>
<path d="M286.531 59.0828L260.639 83.2281H287.682V104.793H232.676V84.3988L257.417 60.2535H233.022V38.6881H286.531V59.0828Z" fill="white"/>
<path d="M211.933 7.62793C216.306 7.62805 219.836 8.87817 222.52 11.3785C225.205 13.8006 226.547 16.8867 226.547 20.6367C226.547 24.3091 225.205 27.3574 222.52 29.7797C219.836 32.2019 216.306 33.4129 211.933 33.413C207.484 33.413 203.916 32.2019 201.231 29.7797C198.546 27.3573 197.203 24.3093 197.203 20.6367C197.203 16.8864 198.546 13.8007 201.231 11.3785C203.916 8.87805 207.484 7.62793 211.933 7.62793Z" fill="white"/>
<path d="M56.4125 0C87.5685 0 111.85 20.6635 111.85 51.8373L111.844 52.5966C111.748 59.8548 110.742 63.9169 110.742 63.9169L92.6384 61.6288L93.31 57.9569C93.31 57.9569 93.4827 57.3281 93.4827 51.8373C92.6384 31.1024 77.4751 18.431 56.4125 18.431C35.35 18.4312 18.367 35.5012 18.367 56.445C18.367 77.3889 35.35 94.4588 56.4125 94.459C63.3128 94.459 69.7311 92.6395 75.2727 89.4699L81.824 85.7228L91.4324 88.2977L90.6869 77.7559L109.537 79.269L115.815 108.326C116.509 110.918 114.235 113.296 111.661 112.791L111.411 112.733L84.3676 105.482C76.1271 110.196 66.5842 112.89 56.4125 112.89C25.2567 112.89 0 87.6186 0 56.445C0 25.2714 25.2567 0.000198934 56.4125 0Z" fill="white"/>
<path d="M361.347 180.415C365.517 180.416 368.882 181.802 371.442 184.573C374.003 187.259 375.283 190.68 375.283 194.838C375.283 198.909 374.003 202.287 371.442 204.972C368.882 207.657 365.517 209 361.347 209C357.104 209 353.701 207.658 351.14 204.972C348.58 202.287 347.299 198.909 347.299 194.838C347.299 190.681 348.58 187.259 351.14 184.573C353.701 181.802 357.104 180.415 361.347 180.415Z" fill="#8EDE5F"/>
<path d="M371.772 171.449H350.921L348.069 109.863H374.624L371.772 171.449Z" fill="#8EDE5F"/>
</g>
<defs>
<filter id="filter0_d_262_161" x="0" y="0" width="377.283" height="215" filterUnits="userSpaceOnUse" color-interpolation-filters="sRGB">
<feFlood flood-opacity="0" result="BackgroundImageFix"/>
<feColorMatrix in="SourceAlpha" type="matrix" values="0 0 0 0 0 0 0 0 0 0 0 0 0 0 0 0 0 0 127 0" result="hardAlpha"/>
<feOffset dx="2" dy="6"/>
<feComposite in2="hardAlpha" operator="out"/>
<feColorMatrix type="matrix" values="0 0 0 0 0 0 0 0 0 0 0 0 0 0 0 0 0 0 0.25 0"/>
<feBlend mode="normal" in2="BackgroundImageFix" result="effect1_dropShadow_262_161"/>
<feBlend mode="normal" in="SourceGraphic" in2="effect1_dropShadow_262_161" result="shape"/>
</filter>
</defs>
</svg>
