<svg width="267" height="267" viewBox="0 0 267 267" fill="none" xmlns="http://www.w3.org/2000/svg">
<rect width="267" height="267" rx="10" fill="#5649B6"/>
<g filter="url(#filter0_d_200_465)">
<path d="M96.1304 59C137.624 59 169.962 86.4443 169.962 127.848L169.954 128.856C169.827 138.496 168.487 143.891 168.487 143.891L144.376 140.852L145.271 135.976C145.271 135.976 145.501 135.14 145.501 127.848C144.376 100.309 124.182 83.4792 96.1304 83.4792C68.0793 83.4795 45.4612 106.151 45.4612 133.968C45.4612 161.784 68.0793 184.456 96.1304 184.456C105.32 184.456 113.868 182.039 121.248 177.83L129.974 172.853L142.77 176.273L141.777 162.272L166.882 164.281L175.243 202.874C176.167 206.316 173.139 209.475 169.711 208.804L169.378 208.726L133.361 199.097C122.386 205.356 109.677 208.935 96.1304 208.935C54.637 208.935 21 175.371 21 133.968C21 92.5643 54.637 59.0003 96.1304 59Z" fill="white"/>
<path d="M206.826 165.704C213.161 165.704 218.274 167.8 222.164 171.992C226.054 176.053 228 181.229 228 187.517C228 193.673 226.054 198.783 222.164 202.844C218.274 206.904 213.161 208.935 206.826 208.935C200.379 208.935 195.208 206.905 191.317 202.844C187.427 198.783 185.481 193.673 185.481 187.517C185.481 181.229 187.427 176.053 191.317 171.992C195.208 167.8 200.379 165.704 206.826 165.704Z" fill="#8EDE5F"/>
<path d="M222.665 152.143H190.984L186.65 59H226.999L222.665 152.143Z" fill="#8EDE5F"/>
</g>
<defs>
<filter id="filter0_d_200_465" x="21" y="59" width="209" height="155.935" filterUnits="userSpaceOnUse" color-interpolation-filters="sRGB">
<feFlood flood-opacity="0" result="BackgroundImageFix"/>
<feColorMatrix in="SourceAlpha" type="matrix" values="0 0 0 0 0 0 0 0 0 0 0 0 0 0 0 0 0 0 127 0" result="hardAlpha"/>
<feOffset dx="2" dy="6"/>
<feComposite in2="hardAlpha" operator="out"/>
<feColorMatrix type="matrix" values="0 0 0 0 0 0 0 0 0 0 0 0 0 0 0 0 0 0 0.25 0"/>
<feBlend mode="normal" in2="BackgroundImageFix" result="effect1_dropShadow_200_465"/>
<feBlend mode="normal" in="SourceGraphic" in2="effect1_dropShadow_200_465" result="shape"/>
</filter>
</defs>
</svg>
