<svg width="380" height="221" viewBox="0 0 380 221" fill="none" xmlns="http://www.w3.org/2000/svg">
<path d="M364.646 192.164C368.967 192.164 372.454 193.563 375.107 196.359C377.76 199.068 379.087 202.519 379.087 206.714C379.087 210.82 377.76 214.228 375.107 216.937C372.454 219.645 368.967 221 364.646 221C360.249 221 356.723 219.646 354.069 216.937C351.416 214.228 350.089 210.82 350.089 206.714C350.089 202.52 351.416 199.067 354.069 196.359C356.723 193.562 360.249 192.164 364.646 192.164Z" fill="#8EDE5F"/>
<path d="M375.558 181.235C375.496 182.293 374.621 183.119 373.561 183.119H355.724C354.667 183.119 353.792 182.296 353.728 181.241L350.18 123.107C350.11 121.957 351.024 120.985 352.177 120.985H376.93C378.08 120.985 378.993 121.953 378.926 123.101L375.558 181.235Z" fill="#8EDE5F"/>
<path d="M335.533 219C335.533 220.104 334.638 221 333.533 221L313.336 221C312.231 221 311.336 220.104 311.336 219V155.248C311.336 154.144 312.231 153.248 313.336 153.248L333.533 153.248C334.638 153.248 335.533 154.143 335.533 155.248V219Z" fill="white"/>
<path d="M322.686 120.985C327.012 120.985 330.505 122.315 333.162 124.974C335.818 127.55 337.146 130.832 337.146 134.821C337.146 138.726 335.818 141.968 333.162 144.545C330.505 147.121 327.012 148.409 322.686 148.409C318.283 148.409 314.752 147.121 312.096 144.545C309.439 141.968 308.109 138.727 308.109 134.821C308.11 130.832 309.439 127.55 312.096 124.974C314.753 122.315 318.283 120.985 322.686 120.985Z" fill="white"/>
<path fill-rule="evenodd" clip-rule="evenodd" d="M305.517 218.315C305.993 219.62 305.027 221 303.638 221H279.134C278.269 221 277.502 220.444 277.233 219.622L273.827 209.213C273.558 208.391 272.791 207.835 271.926 207.835H245.769C244.904 207.835 244.137 208.391 243.868 209.213L240.46 219.622C240.191 220.444 239.424 221 238.559 221H214.183C212.793 221 211.827 219.618 212.305 218.313L242.73 135.203C243.019 134.415 243.769 133.891 244.608 133.891H273.331C274.171 133.891 274.922 134.416 275.21 135.205L305.517 218.315ZM251.818 184.67C251.398 185.962 252.361 187.288 253.72 187.288H263.974C265.333 187.288 266.297 185.962 265.876 184.67L260.749 168.9C260.15 167.058 257.543 167.058 256.945 168.9L251.818 184.67Z" fill="white"/>
<path d="M285.53 60.4385C285.53 60.9901 285.302 61.5172 284.901 61.8951L261.773 83.6566C260.454 84.8979 261.332 87.1132 263.143 87.1132H285.136C286.24 87.1132 287.136 88.0087 287.136 89.1132V106.084C287.136 107.189 286.24 108.084 285.136 108.084L232.676 108.084C231.571 108.084 230.676 107.189 230.676 106.084V88.5058C230.676 87.9799 230.883 87.4752 231.252 87.101L251.513 66.5708C252.76 65.3071 251.865 63.1659 250.089 63.1659H232.676C231.571 63.1659 230.676 62.2705 230.676 61.1659V42.332C230.676 41.2275 231.571 40.332 232.676 40.332H283.53C284.635 40.332 285.53 41.2275 285.53 42.332V60.4385Z" fill="white"/>
<path d="M224.223 106.084C224.223 107.188 223.328 108.084 222.223 108.084L202.026 108.084C200.922 108.084 200.026 107.188 200.026 106.084V42.3321C200.026 41.2275 200.922 40.3321 202.026 40.3321L222.223 40.332C223.328 40.332 224.223 41.2275 224.223 42.332V106.084Z" fill="white"/>
<path d="M211.376 8.06885C215.703 8.06897 219.195 9.39852 221.852 12.0577C224.508 14.6337 225.836 17.9159 225.836 21.9042C225.836 25.8099 224.509 29.0519 221.852 31.628C219.195 34.2041 215.703 35.4921 211.376 35.4922C206.973 35.4922 203.443 34.2042 200.786 31.628C198.129 29.0518 196.8 25.8101 196.8 21.9042C196.8 17.9156 198.129 14.6338 200.786 12.0577C203.443 9.3984 206.973 8.06885 211.376 8.06885Z" fill="white"/>
<path d="M148.406 76.3859C148.406 79.6236 149.241 82.2139 150.91 84.1566C152.658 86.0182 154.963 86.9484 157.823 86.9486C160.764 86.9486 163.604 86.0184 165.273 84.1566C166.942 82.214 167.775 79.6236 167.775 76.3859V42.332C167.775 41.2275 168.671 40.332 169.775 40.332L191.574 40.332C192.678 40.332 193.574 41.2275 193.574 42.332V106.084C193.574 107.188 192.678 108.084 191.574 108.084L169.775 108.084C168.671 108.084 167.775 107.188 167.775 106.084V103.125C167.775 101.319 165.536 100.407 164.166 101.584C162.735 102.812 161.129 104.01 159.334 105.049C155.918 107.072 151.825 108.084 147.057 108.084C139.349 108.084 133.309 105.453 128.938 100.192C124.646 94.9301 122.596 88.7705 122.596 79.7853V42.332C122.596 41.2275 123.491 40.332 124.596 40.332L146.406 40.332C147.51 40.332 148.406 41.2275 148.406 42.332V76.3859Z" fill="white"/>
<path fill-rule="evenodd" clip-rule="evenodd" d="M60.4232 0.0157533C92.0982 0.694579 116.827 22.6674 116.827 55.6864V55.6974L116.821 56.4898V56.4992C116.755 61.6139 116.275 65.2551 115.951 67.1564C115.661 68.8639 114.109 69.9118 112.529 69.7068L97.1788 67.714C95.3827 67.481 94.1457 65.7564 94.4699 63.9364L94.8538 61.7813L94.8569 61.7624C94.8577 61.7569 94.8605 61.7373 94.8646 61.6994C94.8764 61.5912 94.8976 61.3639 94.9186 60.9433C94.9604 60.1051 95.0015 58.5482 95.0018 55.7179C94.5815 45.3163 90.6818 37.0431 84.4038 31.3585C78.1056 25.656 69.2959 22.4516 58.9092 22.4516C38.3842 22.4518 21.8236 39.528 21.8236 60.4927C21.8236 81.4574 38.3842 98.5336 58.9092 98.5338C65.6381 98.5338 71.891 96.7128 77.2901 93.5432L83.3816 89.9672C84.1066 89.5416 84.967 89.427 85.7744 89.6489L92.7678 91.5724L92.2945 84.7087C92.1588 82.7387 93.7722 81.1063 95.6987 81.265L111.855 82.5962C113.244 82.7106 114.396 83.7422 114.689 85.134L120.822 114.273C121.764 118.097 118.491 121.605 114.752 120.852L114.724 120.847L114.695 120.839L114.442 120.779L114.417 120.773L114.393 120.765L87.5397 113.377C87.5397 113.377 87.5316 113.375 87.5212 113.381C79.313 118.073 69.8991 120.811 59.8805 120.978L58.9092 120.985C26.367 120.985 0 93.894 0 60.4927C0 27.0914 26.367 0.000213279 58.9092 0L60.4232 0.0157533Z" fill="white"/>
</svg>
