<svg width="19" height="22" viewBox="0 0 19 22" fill="none" xmlns="http://www.w3.org/2000/svg">
<path d="M7.00711 17.2733C6.41824 17.2733 5.91412 17.0626 5.49477 16.6414C5.07542 16.2201 4.86575 15.7137 4.86575 15.1222V2.21556C4.86575 1.624 5.07542 1.1176 5.49477 0.69634C5.91412 0.275082 6.41824 0.0644531 7.00711 0.0644531H16.6433C17.2322 0.0644531 17.7363 0.275082 18.1556 0.69634C18.575 1.1176 18.7846 1.624 18.7846 2.21556V15.1222C18.7846 15.7137 18.575 16.2201 18.1556 16.6414C17.7363 17.0626 17.2322 17.2733 16.6433 17.2733H7.00711ZM7.00711 15.1222H16.6433V2.21556H7.00711V15.1222ZM2.72438 21.5755C2.1355 21.5755 1.63139 21.3649 1.21203 20.9436C0.792684 20.5223 0.583008 20.0159 0.583008 19.4244V4.36666H2.72438V19.4244H14.5019V21.5755H2.72438Z" fill="#F7EDE2"/>
</svg>
