<svg width="33" height="40" viewBox="0 0 33 40" fill="none" xmlns="http://www.w3.org/2000/svg">
<path d="M28.11 20.2769C27.9701 20.1345 27.8043 20.0217 27.6219 19.945C27.4396 19.8683 27.2443 19.8292 27.0472 19.8299C26.8501 19.8306 26.6551 19.8712 26.4732 19.9492C26.2914 20.0272 26.1263 20.1412 25.9875 20.2846C25.8486 20.4281 25.7386 20.5982 25.6639 20.7852C25.5891 20.9722 25.5509 21.1725 25.5516 21.3747C25.5523 21.5768 25.5918 21.7768 25.6679 21.9633C25.744 22.1498 25.8551 22.3191 25.995 22.4615C27.2642 23.7495 28.2717 25.283 28.9592 26.9731C29.6467 28.6632 30.0004 30.4764 30 32.3077C30 34.1846 24.735 36.9231 16.5 36.9231C8.26506 36.9231 3.00008 34.1846 3.00008 32.3077C2.9977 30.4885 3.34488 28.6866 4.02178 27.0051C4.69868 25.3235 5.69203 23.7953 6.94506 22.5077C7.22444 22.2194 7.38125 21.8295 7.38125 21.4231C7.38125 21.0166 7.22444 20.6267 6.94506 20.3385C6.66402 20.0519 6.28384 19.8911 5.88757 19.8911C5.49129 19.8911 5.11111 20.0519 4.83007 20.3385C3.29274 21.9064 2.07418 23.7718 1.24507 25.8264C0.415962 27.881 -0.00721064 30.0841 9.29513e-05 32.3077C9.29513e-05 37.3077 8.50505 40 16.5 40C24.495 40 32.9999 37.3077 32.9999 32.3077C33.0057 30.0696 32.5762 27.8528 31.7366 25.7871C30.8969 23.7213 29.664 21.8481 28.11 20.2769Z" fill="#BABABA"/>
<path d="M16.5 21.5385C18.5767 21.5385 20.6068 20.9069 22.3335 19.7235C24.0602 18.5402 25.406 16.8583 26.2007 14.8904C26.9954 12.9226 27.2034 10.7573 26.7982 8.66826C26.3931 6.57924 25.393 4.66034 23.9246 3.15424C22.4562 1.64814 20.5852 0.622466 18.5485 0.206933C16.5117 -0.208601 14.4005 0.00466613 12.4819 0.819764C10.5632 1.63486 8.92338 3.01518 7.76963 4.78617C6.61588 6.55716 6.00007 8.63928 6.00007 10.7692C6.00007 13.6254 7.10631 16.3646 9.07543 18.3842C11.0446 20.4039 13.7153 21.5385 16.5 21.5385ZM16.5 3.07693C17.9834 3.07693 19.4334 3.52807 20.6668 4.37331C21.9001 5.21856 22.8614 6.41993 23.4291 7.82552C23.9967 9.2311 24.1453 10.7778 23.8559 12.2699C23.5665 13.7621 22.8522 15.1327 21.8033 16.2085C20.7544 17.2843 19.418 18.0169 17.9632 18.3137C16.5083 18.6105 15.0003 18.4582 13.6299 17.876C12.2595 17.2938 11.0881 16.3078 10.264 15.0429C9.43992 13.7779 9.00005 12.2906 9.00005 10.7692C9.00005 8.72911 9.79022 6.77254 11.1967 5.32995C12.6033 3.88736 14.5109 3.07693 16.5 3.07693Z" fill="#BABABA"/>
</svg>
